solid jigsaw-coupon-0p20mm
  facet normal 0.000000 0.000000 1.000000
    outer loop
      vertex 23.3577 11.0000 3.0000
      vertex 0.1000 0.1000 3.0000
      vertex 21.9000 0.1000 3.0000
    endloop
  endfacet
  facet normal 0.000000 0.000000 -1.000000
    outer loop
      vertex 21.9000 0.1000 0.0000
      vertex 0.1000 0.1000 0.0000
      vertex 23.3577 11.0000 0.0000
    endloop
  endfacet
  facet normal 0.000000 0.000000 -1.000000
    outer loop
      vertex 23.3577 11.0000 3.0000
      vertex 21.9000 0.1000 3.0000
      vertex 21.9000 6.8000 3.0000
    endloop
  endfacet
  facet normal -0.000000 0.000000 1.000000
    outer loop
      vertex 21.9000 6.8000 0.0000
      vertex 21.9000 0.1000 0.0000
      vertex 23.3577 11.0000 0.0000
    endloop
  endfacet
  facet normal 0.000000 0.000000 1.000000
    outer loop
      vertex 23.3577 11.0000 3.0000
      vertex 21.9000 6.8000 3.0000
      vertex 23.4588 7.1000 3.0000
    endloop
  endfacet
  facet normal -0.000000 0.000000 -1.000000
    outer loop
      vertex 23.4588 7.1000 0.0000
      vertex 21.9000 6.8000 0.0000
      vertex 23.3577 11.0000 0.0000
    endloop
  endfacet
  facet normal 0.000000 0.000000 1.000000
    outer loop
      vertex 23.3577 11.0000 3.0000
      vertex 23.4588 7.1000 3.0000
      vertex 24.0633 7.4000 3.0000
    endloop
  endfacet
  facet normal -0.000000 0.000000 -1.000000
    outer loop
      vertex 24.0633 7.4000 0.0000
      vertex 23.4588 7.1000 0.0000
      vertex 23.3577 11.0000 0.0000
    endloop
  endfacet
  facet normal 0.000000 0.000000 1.000000
    outer loop
      vertex 23.3577 11.0000 3.0000
      vertex 24.0633 7.4000 3.0000
      vertex 24.4981 7.7000 3.0000
    endloop
  endfacet
  facet normal -0.000000 0.000000 -1.000000
    outer loop
      vertex 24.4981 7.7000 0.0000
      vertex 24.0633 7.4000 0.0000
      vertex 23.3577 11.0000 0.0000
    endloop
  endfacet
  facet normal 0.000000 0.000000 1.000000
    outer loop
      vertex 23.3577 11.0000 3.0000
      vertex 24.4981 7.7000 3.0000
      vertex 24.8394 8.0000 3.0000
    endloop
  endfacet
  facet normal -0.000000 0.000000 -1.000000
    outer loop
      vertex 24.8394 8.0000 0.0000
      vertex 24.4981 7.7000 0.0000
      vertex 23.3577 11.0000 0.0000
    endloop
  endfacet
  facet normal 0.000000 0.000000 1.000000
    outer loop
      vertex 23.3577 11.0000 3.0000
      vertex 24.8394 8.0000 3.0000
      vertex 25.1171 8.3000 3.0000
    endloop
  endfacet
  facet normal -0.000000 0.000000 -1.000000
    outer loop
      vertex 25.1171 8.3000 0.0000
      vertex 24.8394 8.0000 0.0000
      vertex 23.3577 11.0000 0.0000
    endloop
  endfacet
  facet normal 0.000000 0.000000 1.000000
    outer loop
      vertex 23.3577 11.0000 3.0000
      vertex 25.1171 8.3000 3.0000
      vertex 25.3467 8.6000 3.0000
    endloop
  endfacet
  facet normal -0.000000 0.000000 -1.000000
    outer loop
      vertex 25.3467 8.6000 0.0000
      vertex 25.1171 8.3000 0.0000
      vertex 23.3577 11.0000 0.0000
    endloop
  endfacet
  facet normal 0.000000 0.000000 1.000000
    outer loop
      vertex 23.3577 11.0000 3.0000
      vertex 25.3467 8.6000 3.0000
      vertex 25.5373 8.9000 3.0000
    endloop
  endfacet
  facet normal -0.000000 0.000000 -1.000000
    outer loop
      vertex 25.5373 8.9000 0.0000
      vertex 25.3467 8.6000 0.0000
      vertex 23.3577 11.0000 0.0000
    endloop
  endfacet
  facet normal 0.000000 0.000000 1.000000
    outer loop
      vertex 23.3577 11.0000 3.0000
      vertex 25.5373 8.9000 3.0000
      vertex 25.6947 9.2000 3.0000
    endloop
  endfacet
  facet normal -0.000000 0.000000 -1.000000
    outer loop
      vertex 25.6947 9.2000 0.0000
      vertex 25.5373 8.9000 0.0000
      vertex 23.3577 11.0000 0.0000
    endloop
  endfacet
  facet normal 0.000000 0.000000 1.000000
    outer loop
      vertex 23.3577 11.0000 3.0000
      vertex 25.6947 9.2000 3.0000
      vertex 25.8230 9.5000 3.0000
    endloop
  endfacet
  facet normal -0.000000 0.000000 -1.000000
    outer loop
      vertex 25.8230 9.5000 0.0000
      vertex 25.6947 9.2000 0.0000
      vertex 23.3577 11.0000 0.0000
    endloop
  endfacet
  facet normal 0.000000 0.000000 1.000000
    outer loop
      vertex 23.3577 11.0000 3.0000
      vertex 25.8230 9.5000 3.0000
      vertex 25.9249 9.8000 3.0000
    endloop
  endfacet
  facet normal -0.000000 0.000000 -1.000000
    outer loop
      vertex 25.9249 9.8000 0.0000
      vertex 25.8230 9.5000 0.0000
      vertex 23.3577 11.0000 0.0000
    endloop
  endfacet
  facet normal 0.000000 0.000000 1.000000
    outer loop
      vertex 23.3577 11.0000 3.0000
      vertex 25.9249 9.8000 3.0000
      vertex 26.0024 10.1000 3.0000
    endloop
  endfacet
  facet normal -0.000000 0.000000 -1.000000
    outer loop
      vertex 26.0024 10.1000 0.0000
      vertex 25.9249 9.8000 0.0000
      vertex 23.3577 11.0000 0.0000
    endloop
  endfacet
  facet normal 0.000000 0.000000 1.000000
    outer loop
      vertex 23.3577 11.0000 3.0000
      vertex 26.0024 10.1000 3.0000
      vertex 26.0569 10.4000 3.0000
    endloop
  endfacet
  facet normal -0.000000 0.000000 -1.000000
    outer loop
      vertex 26.0569 10.4000 0.0000
      vertex 26.0024 10.1000 0.0000
      vertex 23.3577 11.0000 0.0000
    endloop
  endfacet
  facet normal 0.000000 0.000000 1.000000
    outer loop
      vertex 23.3577 11.0000 3.0000
      vertex 26.0569 10.4000 3.0000
      vertex 26.0893 10.7000 3.0000
    endloop
  endfacet
  facet normal -0.000000 0.000000 -1.000000
    outer loop
      vertex 26.0893 10.7000 0.0000
      vertex 26.0569 10.4000 0.0000
      vertex 23.3577 11.0000 0.0000
    endloop
  endfacet
  facet normal -0.000000 0.000000 1.000000
    outer loop
      vertex 23.3577 11.0000 3.0000
      vertex 26.0893 10.7000 3.0000
      vertex 26.1000 11.0000 3.0000
    endloop
  endfacet
  facet normal 0.000000 0.000000 -1.000000
    outer loop
      vertex 26.1000 11.0000 0.0000
      vertex 26.0893 10.7000 0.0000
      vertex 23.3577 11.0000 0.0000
    endloop
  endfacet
  facet normal 0.000000 0.000000 1.000000
    outer loop
      vertex 23.3577 11.0000 3.0000
      vertex 26.1000 11.0000 3.0000
      vertex 26.0893 11.3000 3.0000
    endloop
  endfacet
  facet normal 0.000000 -0.000000 -1.000000
    outer loop
      vertex 26.0893 11.3000 0.0000
      vertex 26.1000 11.0000 0.0000
      vertex 23.3577 11.0000 0.0000
    endloop
  endfacet
  facet normal 0.000000 0.000000 1.000000
    outer loop
      vertex 23.3577 11.0000 3.0000
      vertex 26.0893 11.3000 3.0000
      vertex 26.0569 11.6000 3.0000
    endloop
  endfacet
  facet normal 0.000000 -0.000000 -1.000000
    outer loop
      vertex 26.0569 11.6000 0.0000
      vertex 26.0893 11.3000 0.0000
      vertex 23.3577 11.0000 0.0000
    endloop
  endfacet
  facet normal 0.000000 0.000000 1.000000
    outer loop
      vertex 23.3577 11.0000 3.0000
      vertex 26.0569 11.6000 3.0000
      vertex 26.0024 11.9000 3.0000
    endloop
  endfacet
  facet normal 0.000000 -0.000000 -1.000000
    outer loop
      vertex 26.0024 11.9000 0.0000
      vertex 26.0569 11.6000 0.0000
      vertex 23.3577 11.0000 0.0000
    endloop
  endfacet
  facet normal 0.000000 0.000000 1.000000
    outer loop
      vertex 23.3577 11.0000 3.0000
      vertex 26.0024 11.9000 3.0000
      vertex 25.9249 12.2000 3.0000
    endloop
  endfacet
  facet normal 0.000000 -0.000000 -1.000000
    outer loop
      vertex 25.9249 12.2000 0.0000
      vertex 26.0024 11.9000 0.0000
      vertex 23.3577 11.0000 0.0000
    endloop
  endfacet
  facet normal 0.000000 0.000000 1.000000
    outer loop
      vertex 23.3577 11.0000 3.0000
      vertex 25.9249 12.2000 3.0000
      vertex 25.8230 12.5000 3.0000
    endloop
  endfacet
  facet normal 0.000000 -0.000000 -1.000000
    outer loop
      vertex 25.8230 12.5000 0.0000
      vertex 25.9249 12.2000 0.0000
      vertex 23.3577 11.0000 0.0000
    endloop
  endfacet
  facet normal 0.000000 0.000000 1.000000
    outer loop
      vertex 23.3577 11.0000 3.0000
      vertex 25.8230 12.5000 3.0000
      vertex 25.6947 12.8000 3.0000
    endloop
  endfacet
  facet normal 0.000000 -0.000000 -1.000000
    outer loop
      vertex 25.6947 12.8000 0.0000
      vertex 25.8230 12.5000 0.0000
      vertex 23.3577 11.0000 0.0000
    endloop
  endfacet
  facet normal 0.000000 0.000000 1.000000
    outer loop
      vertex 23.3577 11.0000 3.0000
      vertex 25.6947 12.8000 3.0000
      vertex 25.5373 13.1000 3.0000
    endloop
  endfacet
  facet normal 0.000000 -0.000000 -1.000000
    outer loop
      vertex 25.5373 13.1000 0.0000
      vertex 25.6947 12.8000 0.0000
      vertex 23.3577 11.0000 0.0000
    endloop
  endfacet
  facet normal 0.000000 0.000000 1.000000
    outer loop
      vertex 23.3577 11.0000 3.0000
      vertex 25.5373 13.1000 3.0000
      vertex 25.3467 13.4000 3.0000
    endloop
  endfacet
  facet normal 0.000000 -0.000000 -1.000000
    outer loop
      vertex 25.3467 13.4000 0.0000
      vertex 25.5373 13.1000 0.0000
      vertex 23.3577 11.0000 0.0000
    endloop
  endfacet
  facet normal 0.000000 0.000000 1.000000
    outer loop
      vertex 23.3577 11.0000 3.0000
      vertex 25.3467 13.4000 3.0000
      vertex 25.1171 13.7000 3.0000
    endloop
  endfacet
  facet normal 0.000000 -0.000000 -1.000000
    outer loop
      vertex 25.1171 13.7000 0.0000
      vertex 25.3467 13.4000 0.0000
      vertex 23.3577 11.0000 0.0000
    endloop
  endfacet
  facet normal 0.000000 0.000000 1.000000
    outer loop
      vertex 23.3577 11.0000 3.0000
      vertex 25.1171 13.7000 3.0000
      vertex 24.8394 14.0000 3.0000
    endloop
  endfacet
  facet normal 0.000000 -0.000000 -1.000000
    outer loop
      vertex 24.8394 14.0000 0.0000
      vertex 25.1171 13.7000 0.0000
      vertex 23.3577 11.0000 0.0000
    endloop
  endfacet
  facet normal 0.000000 0.000000 1.000000
    outer loop
      vertex 23.3577 11.0000 3.0000
      vertex 24.8394 14.0000 3.0000
      vertex 24.4981 14.3000 3.0000
    endloop
  endfacet
  facet normal 0.000000 -0.000000 -1.000000
    outer loop
      vertex 24.4981 14.3000 0.0000
      vertex 24.8394 14.0000 0.0000
      vertex 23.3577 11.0000 0.0000
    endloop
  endfacet
  facet normal 0.000000 0.000000 1.000000
    outer loop
      vertex 23.3577 11.0000 3.0000
      vertex 24.4981 14.3000 3.0000
      vertex 24.0633 14.6000 3.0000
    endloop
  endfacet
  facet normal 0.000000 -0.000000 -1.000000
    outer loop
      vertex 24.0633 14.6000 0.0000
      vertex 24.4981 14.3000 0.0000
      vertex 23.3577 11.0000 0.0000
    endloop
  endfacet
  facet normal 0.000000 0.000000 1.000000
    outer loop
      vertex 23.3577 11.0000 3.0000
      vertex 24.0633 14.6000 3.0000
      vertex 23.4588 14.9000 3.0000
    endloop
  endfacet
  facet normal 0.000000 -0.000000 -1.000000
    outer loop
      vertex 23.4588 14.9000 0.0000
      vertex 24.0633 14.6000 0.0000
      vertex 23.3577 11.0000 0.0000
    endloop
  endfacet
  facet normal 0.000000 -0.000000 1.000000
    outer loop
      vertex 23.3577 11.0000 3.0000
      vertex 23.4588 14.9000 3.0000
      vertex 21.9000 15.2000 3.0000
    endloop
  endfacet
  facet normal 0.000000 0.000000 -1.000000
    outer loop
      vertex 21.9000 15.2000 0.0000
      vertex 23.4588 14.9000 0.0000
      vertex 23.3577 11.0000 0.0000
    endloop
  endfacet
  facet normal 0.000000 0.000000 -1.000000
    outer loop
      vertex 23.3577 11.0000 3.0000
      vertex 21.9000 15.2000 3.0000
      vertex 21.9000 21.9000 3.0000
    endloop
  endfacet
  facet normal 0.000000 0.000000 1.000000
    outer loop
      vertex 21.9000 21.9000 0.0000
      vertex 21.9000 15.2000 0.0000
      vertex 23.3577 11.0000 0.0000
    endloop
  endfacet
  facet normal 0.000000 0.000000 1.000000
    outer loop
      vertex 23.3577 11.0000 3.0000
      vertex 21.9000 21.9000 3.0000
      vertex 0.1000 21.9000 3.0000
    endloop
  endfacet
  facet normal 0.000000 0.000000 -1.000000
    outer loop
      vertex 0.1000 21.9000 0.0000
      vertex 21.9000 21.9000 0.0000
      vertex 23.3577 11.0000 0.0000
    endloop
  endfacet
  facet normal 0.000000 0.000000 1.000000
    outer loop
      vertex 23.3577 11.0000 3.0000
      vertex 0.1000 21.9000 3.0000
      vertex 0.1000 0.1000 3.0000
    endloop
  endfacet
  facet normal 0.000000 0.000000 -1.000000
    outer loop
      vertex 0.1000 0.1000 0.0000
      vertex 0.1000 21.9000 0.0000
      vertex 23.3577 11.0000 0.0000
    endloop
  endfacet
  facet normal 0.000000 -1.000000 0.000000
    outer loop
      vertex 0.1000 0.1000 0.0000
      vertex 21.9000 0.1000 0.0000
      vertex 21.9000 0.1000 3.0000
    endloop
  endfacet
  facet normal 0.000000 -1.000000 0.000000
    outer loop
      vertex 0.1000 0.1000 0.0000
      vertex 21.9000 0.1000 3.0000
      vertex 0.1000 0.1000 3.0000
    endloop
  endfacet
  facet normal 1.000000 0.000000 0.000000
    outer loop
      vertex 21.9000 0.1000 0.0000
      vertex 21.9000 6.8000 0.0000
      vertex 21.9000 6.8000 3.0000
    endloop
  endfacet
  facet normal 1.000000 0.000000 0.000000
    outer loop
      vertex 21.9000 0.1000 0.0000
      vertex 21.9000 6.8000 3.0000
      vertex 21.9000 0.1000 3.0000
    endloop
  endfacet
  facet normal 0.188982 -0.981981 0.000000
    outer loop
      vertex 21.9000 6.8000 0.0000
      vertex 23.4588 7.1000 0.0000
      vertex 23.4588 7.1000 3.0000
    endloop
  endfacet
  facet normal 0.188982 -0.981981 0.000000
    outer loop
      vertex 21.9000 6.8000 0.0000
      vertex 23.4588 7.1000 3.0000
      vertex 21.9000 6.8000 3.0000
    endloop
  endfacet
  facet normal 0.444553 -0.895752 0.000000
    outer loop
      vertex 23.4588 7.1000 0.0000
      vertex 24.0633 7.4000 0.0000
      vertex 24.0633 7.4000 3.0000
    endloop
  endfacet
  facet normal 0.444553 -0.895752 0.000000
    outer loop
      vertex 23.4588 7.1000 0.0000
      vertex 24.0633 7.4000 3.0000
      vertex 23.4588 7.1000 3.0000
    endloop
  endfacet
  facet normal 0.567958 -0.823057 0.000000
    outer loop
      vertex 24.0633 7.4000 0.0000
      vertex 24.4981 7.7000 0.0000
      vertex 24.4981 7.7000 3.0000
    endloop
  endfacet
  facet normal 0.567958 -0.823057 0.000000
    outer loop
      vertex 24.0633 7.4000 0.0000
      vertex 24.4981 7.7000 3.0000
      vertex 24.0633 7.4000 3.0000
    endloop
  endfacet
  facet normal 0.660189 -0.751100 0.000000
    outer loop
      vertex 24.4981 7.7000 0.0000
      vertex 24.8394 8.0000 0.0000
      vertex 24.8394 8.0000 3.0000
    endloop
  endfacet
  facet normal 0.660189 -0.751100 0.000000
    outer loop
      vertex 24.4981 7.7000 0.0000
      vertex 24.8394 8.0000 3.0000
      vertex 24.4981 7.7000 3.0000
    endloop
  endfacet
  facet normal 0.733790 -0.679377 0.000000
    outer loop
      vertex 24.8394 8.0000 0.0000
      vertex 25.1171 8.3000 0.0000
      vertex 25.1171 8.3000 3.0000
    endloop
  endfacet
  facet normal 0.733790 -0.679377 0.000000
    outer loop
      vertex 24.8394 8.0000 0.0000
      vertex 25.1171 8.3000 3.0000
      vertex 24.8394 8.0000 3.0000
    endloop
  endfacet
  facet normal 0.794122 -0.607758 0.000000
    outer loop
      vertex 25.1171 8.3000 0.0000
      vertex 25.3467 8.6000 0.0000
      vertex 25.3467 8.6000 3.0000
    endloop
  endfacet
  facet normal 0.794122 -0.607758 0.000000
    outer loop
      vertex 25.1171 8.3000 0.0000
      vertex 25.3467 8.6000 3.0000
      vertex 25.1171 8.3000 3.0000
    endloop
  endfacet
  facet normal 0.844094 -0.536194 0.000000
    outer loop
      vertex 25.3467 8.6000 0.0000
      vertex 25.5373 8.9000 0.0000
      vertex 25.5373 8.9000 3.0000
    endloop
  endfacet
  facet normal 0.844094 -0.536194 0.000000
    outer loop
      vertex 25.3467 8.6000 0.0000
      vertex 25.5373 8.9000 3.0000
      vertex 25.3467 8.6000 3.0000
    endloop
  endfacet
  facet normal 0.885487 -0.464664 0.000000
    outer loop
      vertex 25.5373 8.9000 0.0000
      vertex 25.6947 9.2000 0.0000
      vertex 25.6947 9.2000 3.0000
    endloop
  endfacet
  facet normal 0.885487 -0.464664 0.000000
    outer loop
      vertex 25.5373 8.9000 0.0000
      vertex 25.6947 9.2000 3.0000
      vertex 25.5373 8.9000 3.0000
    endloop
  endfacet
  facet normal 0.919473 -0.393154 0.000000
    outer loop
      vertex 25.6947 9.2000 0.0000
      vertex 25.8230 9.5000 0.0000
      vertex 25.8230 9.5000 3.0000
    endloop
  endfacet
  facet normal 0.919473 -0.393154 0.000000
    outer loop
      vertex 25.6947 9.2000 0.0000
      vertex 25.8230 9.5000 3.0000
      vertex 25.6947 9.2000 3.0000
    endloop
  endfacet
  facet normal 0.946856 -0.321657 0.000000
    outer loop
      vertex 25.8230 9.5000 0.0000
      vertex 25.9249 9.8000 0.0000
      vertex 25.9249 9.8000 3.0000
    endloop
  endfacet
  facet normal 0.946856 -0.321657 0.000000
    outer loop
      vertex 25.8230 9.5000 0.0000
      vertex 25.9249 9.8000 3.0000
      vertex 25.8230 9.5000 3.0000
    endloop
  endfacet
  facet normal 0.968202 -0.250170 0.000000
    outer loop
      vertex 25.9249 9.8000 0.0000
      vertex 26.0024 10.1000 0.0000
      vertex 26.0024 10.1000 3.0000
    endloop
  endfacet
  facet normal 0.968202 -0.250170 0.000000
    outer loop
      vertex 25.9249 9.8000 0.0000
      vertex 26.0024 10.1000 3.0000
      vertex 25.9249 9.8000 3.0000
    endloop
  endfacet
  facet normal 0.983906 -0.178689 0.000000
    outer loop
      vertex 26.0024 10.1000 0.0000
      vertex 26.0569 10.4000 0.0000
      vertex 26.0569 10.4000 3.0000
    endloop
  endfacet
  facet normal 0.983906 -0.178689 0.000000
    outer loop
      vertex 26.0024 10.1000 0.0000
      vertex 26.0569 10.4000 3.0000
      vertex 26.0024 10.1000 3.0000
    endloop
  endfacet
  facet normal 0.994236 -0.107212 0.000000
    outer loop
      vertex 26.0569 10.4000 0.0000
      vertex 26.0893 10.7000 0.0000
      vertex 26.0893 10.7000 3.0000
    endloop
  endfacet
  facet normal 0.994236 -0.107212 0.000000
    outer loop
      vertex 26.0569 10.4000 0.0000
      vertex 26.0893 10.7000 3.0000
      vertex 26.0569 10.4000 3.0000
    endloop
  endfacet
  facet normal 0.999361 -0.035737 0.000000
    outer loop
      vertex 26.0893 10.7000 0.0000
      vertex 26.1000 11.0000 0.0000
      vertex 26.1000 11.0000 3.0000
    endloop
  endfacet
  facet normal 0.999361 -0.035737 0.000000
    outer loop
      vertex 26.0893 10.7000 0.0000
      vertex 26.1000 11.0000 3.0000
      vertex 26.0893 10.7000 3.0000
    endloop
  endfacet
  facet normal 0.999361 0.035737 0.000000
    outer loop
      vertex 26.1000 11.0000 0.0000
      vertex 26.0893 11.3000 0.0000
      vertex 26.0893 11.3000 3.0000
    endloop
  endfacet
  facet normal 0.999361 0.035737 -0.000000
    outer loop
      vertex 26.1000 11.0000 0.0000
      vertex 26.0893 11.3000 3.0000
      vertex 26.1000 11.0000 3.0000
    endloop
  endfacet
  facet normal 0.994236 0.107212 0.000000
    outer loop
      vertex 26.0893 11.3000 0.0000
      vertex 26.0569 11.6000 0.0000
      vertex 26.0569 11.6000 3.0000
    endloop
  endfacet
  facet normal 0.994236 0.107212 -0.000000
    outer loop
      vertex 26.0893 11.3000 0.0000
      vertex 26.0569 11.6000 3.0000
      vertex 26.0893 11.3000 3.0000
    endloop
  endfacet
  facet normal 0.983906 0.178689 0.000000
    outer loop
      vertex 26.0569 11.6000 0.0000
      vertex 26.0024 11.9000 0.0000
      vertex 26.0024 11.9000 3.0000
    endloop
  endfacet
  facet normal 0.983906 0.178689 -0.000000
    outer loop
      vertex 26.0569 11.6000 0.0000
      vertex 26.0024 11.9000 3.0000
      vertex 26.0569 11.6000 3.0000
    endloop
  endfacet
  facet normal 0.968202 0.250170 0.000000
    outer loop
      vertex 26.0024 11.9000 0.0000
      vertex 25.9249 12.2000 0.0000
      vertex 25.9249 12.2000 3.0000
    endloop
  endfacet
  facet normal 0.968202 0.250170 -0.000000
    outer loop
      vertex 26.0024 11.9000 0.0000
      vertex 25.9249 12.2000 3.0000
      vertex 26.0024 11.9000 3.0000
    endloop
  endfacet
  facet normal 0.946856 0.321657 0.000000
    outer loop
      vertex 25.9249 12.2000 0.0000
      vertex 25.8230 12.5000 0.0000
      vertex 25.8230 12.5000 3.0000
    endloop
  endfacet
  facet normal 0.946856 0.321657 -0.000000
    outer loop
      vertex 25.9249 12.2000 0.0000
      vertex 25.8230 12.5000 3.0000
      vertex 25.9249 12.2000 3.0000
    endloop
  endfacet
  facet normal 0.919473 0.393154 0.000000
    outer loop
      vertex 25.8230 12.5000 0.0000
      vertex 25.6947 12.8000 0.0000
      vertex 25.6947 12.8000 3.0000
    endloop
  endfacet
  facet normal 0.919473 0.393154 -0.000000
    outer loop
      vertex 25.8230 12.5000 0.0000
      vertex 25.6947 12.8000 3.0000
      vertex 25.8230 12.5000 3.0000
    endloop
  endfacet
  facet normal 0.885487 0.464664 0.000000
    outer loop
      vertex 25.6947 12.8000 0.0000
      vertex 25.5373 13.1000 0.0000
      vertex 25.5373 13.1000 3.0000
    endloop
  endfacet
  facet normal 0.885487 0.464664 -0.000000
    outer loop
      vertex 25.6947 12.8000 0.0000
      vertex 25.5373 13.1000 3.0000
      vertex 25.6947 12.8000 3.0000
    endloop
  endfacet
  facet normal 0.844094 0.536194 0.000000
    outer loop
      vertex 25.5373 13.1000 0.0000
      vertex 25.3467 13.4000 0.0000
      vertex 25.3467 13.4000 3.0000
    endloop
  endfacet
  facet normal 0.844094 0.536194 -0.000000
    outer loop
      vertex 25.5373 13.1000 0.0000
      vertex 25.3467 13.4000 3.0000
      vertex 25.5373 13.1000 3.0000
    endloop
  endfacet
  facet normal 0.794122 0.607758 0.000000
    outer loop
      vertex 25.3467 13.4000 0.0000
      vertex 25.1171 13.7000 0.0000
      vertex 25.1171 13.7000 3.0000
    endloop
  endfacet
  facet normal 0.794122 0.607758 -0.000000
    outer loop
      vertex 25.3467 13.4000 0.0000
      vertex 25.1171 13.7000 3.0000
      vertex 25.3467 13.4000 3.0000
    endloop
  endfacet
  facet normal 0.733790 0.679377 0.000000
    outer loop
      vertex 25.1171 13.7000 0.0000
      vertex 24.8394 14.0000 0.0000
      vertex 24.8394 14.0000 3.0000
    endloop
  endfacet
  facet normal 0.733790 0.679377 -0.000000
    outer loop
      vertex 25.1171 13.7000 0.0000
      vertex 24.8394 14.0000 3.0000
      vertex 25.1171 13.7000 3.0000
    endloop
  endfacet
  facet normal 0.660189 0.751100 0.000000
    outer loop
      vertex 24.8394 14.0000 0.0000
      vertex 24.4981 14.3000 0.0000
      vertex 24.4981 14.3000 3.0000
    endloop
  endfacet
  facet normal 0.660189 0.751100 -0.000000
    outer loop
      vertex 24.8394 14.0000 0.0000
      vertex 24.4981 14.3000 3.0000
      vertex 24.8394 14.0000 3.0000
    endloop
  endfacet
  facet normal 0.567958 0.823057 0.000000
    outer loop
      vertex 24.4981 14.3000 0.0000
      vertex 24.0633 14.6000 0.0000
      vertex 24.0633 14.6000 3.0000
    endloop
  endfacet
  facet normal 0.567958 0.823057 -0.000000
    outer loop
      vertex 24.4981 14.3000 0.0000
      vertex 24.0633 14.6000 3.0000
      vertex 24.4981 14.3000 3.0000
    endloop
  endfacet
  facet normal 0.444553 0.895752 0.000000
    outer loop
      vertex 24.0633 14.6000 0.0000
      vertex 23.4588 14.9000 0.0000
      vertex 23.4588 14.9000 3.0000
    endloop
  endfacet
  facet normal 0.444553 0.895752 -0.000000
    outer loop
      vertex 24.0633 14.6000 0.0000
      vertex 23.4588 14.9000 3.0000
      vertex 24.0633 14.6000 3.0000
    endloop
  endfacet
  facet normal 0.188982 0.981981 0.000000
    outer loop
      vertex 23.4588 14.9000 0.0000
      vertex 21.9000 15.2000 0.0000
      vertex 21.9000 15.2000 3.0000
    endloop
  endfacet
  facet normal 0.188982 0.981981 -0.000000
    outer loop
      vertex 23.4588 14.9000 0.0000
      vertex 21.9000 15.2000 3.0000
      vertex 23.4588 14.9000 3.0000
    endloop
  endfacet
  facet normal 1.000000 0.000000 0.000000
    outer loop
      vertex 21.9000 15.2000 0.0000
      vertex 21.9000 21.9000 0.0000
      vertex 21.9000 21.9000 3.0000
    endloop
  endfacet
  facet normal 1.000000 0.000000 0.000000
    outer loop
      vertex 21.9000 15.2000 0.0000
      vertex 21.9000 21.9000 3.0000
      vertex 21.9000 15.2000 3.0000
    endloop
  endfacet
  facet normal 0.000000 1.000000 0.000000
    outer loop
      vertex 21.9000 21.9000 0.0000
      vertex 0.1000 21.9000 0.0000
      vertex 0.1000 21.9000 3.0000
    endloop
  endfacet
  facet normal 0.000000 1.000000 -0.000000
    outer loop
      vertex 21.9000 21.9000 0.0000
      vertex 0.1000 21.9000 3.0000
      vertex 21.9000 21.9000 3.0000
    endloop
  endfacet
  facet normal -1.000000 0.000000 0.000000
    outer loop
      vertex 0.1000 21.9000 0.0000
      vertex 0.1000 0.1000 0.0000
      vertex 0.1000 0.1000 3.0000
    endloop
  endfacet
  facet normal -1.000000 0.000000 0.000000
    outer loop
      vertex 0.1000 21.9000 0.0000
      vertex 0.1000 0.1000 3.0000
      vertex 0.1000 21.9000 3.0000
    endloop
  endfacet
  facet normal 0.000000 0.000000 1.000000
    outer loop
      vertex 25.5100 11.0000 3.0000
      vertex 27.1000 0.1000 3.0000
      vertex 48.9000 0.1000 3.0000
    endloop
  endfacet
  facet normal 0.000000 0.000000 -1.000000
    outer loop
      vertex 48.9000 0.1000 0.0000
      vertex 27.1000 0.1000 0.0000
      vertex 25.5100 11.0000 0.0000
    endloop
  endfacet
  facet normal -0.000000 0.000000 1.000000
    outer loop
      vertex 25.5100 11.0000 3.0000
      vertex 48.9000 0.1000 3.0000
      vertex 48.9000 21.9000 3.0000
    endloop
  endfacet
  facet normal 0.000000 -0.000000 -1.000000
    outer loop
      vertex 48.9000 21.9000 0.0000
      vertex 48.9000 0.1000 0.0000
      vertex 25.5100 11.0000 0.0000
    endloop
  endfacet
  facet normal 0.000000 0.000000 1.000000
    outer loop
      vertex 25.5100 11.0000 3.0000
      vertex 48.9000 21.9000 3.0000
      vertex 27.1000 21.9000 3.0000
    endloop
  endfacet
  facet normal 0.000000 -0.000000 -1.000000
    outer loop
      vertex 27.1000 21.9000 0.0000
      vertex 48.9000 21.9000 0.0000
      vertex 25.5100 11.0000 0.0000
    endloop
  endfacet
  facet normal 0.000000 0.000000 -1.000000
    outer loop
      vertex 25.5100 11.0000 3.0000
      vertex 27.1000 21.9000 3.0000
      vertex 27.1000 6.6000 3.0000
    endloop
  endfacet
  facet normal 0.000000 -0.000000 1.000000
    outer loop
      vertex 27.1000 6.6000 0.0000
      vertex 27.1000 21.9000 0.0000
      vertex 25.5100 11.0000 0.0000
    endloop
  endfacet
  facet normal 0.000000 -0.000000 -1.000000
    outer loop
      vertex 25.5100 11.0000 3.0000
      vertex 27.1000 6.6000 3.0000
      vertex 25.4669 6.9143 3.0000
    endloop
  endfacet
  facet normal -0.000000 0.000000 1.000000
    outer loop
      vertex 25.4669 6.9143 0.0000
      vertex 27.1000 6.6000 0.0000
      vertex 25.5100 11.0000 0.0000
    endloop
  endfacet
  facet normal 0.000000 0.000000 -1.000000
    outer loop
      vertex 25.5100 11.0000 3.0000
      vertex 25.4669 6.9143 3.0000
      vertex 24.8337 7.2286 3.0000
    endloop
  endfacet
  facet normal -0.000000 0.000000 1.000000
    outer loop
      vertex 24.8337 7.2286 0.0000
      vertex 25.4669 6.9143 0.0000
      vertex 25.5100 11.0000 0.0000
    endloop
  endfacet
  facet normal 0.000000 0.000000 -1.000000
    outer loop
      vertex 25.5100 11.0000 3.0000
      vertex 24.8337 7.2286 3.0000
      vertex 24.3782 7.5429 3.0000
    endloop
  endfacet
  facet normal -0.000000 0.000000 1.000000
    outer loop
      vertex 24.3782 7.5429 0.0000
      vertex 24.8337 7.2286 0.0000
      vertex 25.5100 11.0000 0.0000
    endloop
  endfacet
  facet normal 0.000000 0.000000 -1.000000
    outer loop
      vertex 25.5100 11.0000 3.0000
      vertex 24.3782 7.5429 3.0000
      vertex 24.0206 7.8571 3.0000
    endloop
  endfacet
  facet normal -0.000000 0.000000 1.000000
    outer loop
      vertex 24.0206 7.8571 0.0000
      vertex 24.3782 7.5429 0.0000
      vertex 25.5100 11.0000 0.0000
    endloop
  endfacet
  facet normal 0.000000 0.000000 -1.000000
    outer loop
      vertex 25.5100 11.0000 3.0000
      vertex 24.0206 7.8571 3.0000
      vertex 23.7297 8.1714 3.0000
    endloop
  endfacet
  facet normal -0.000000 0.000000 1.000000
    outer loop
      vertex 23.7297 8.1714 0.0000
      vertex 24.0206 7.8571 0.0000
      vertex 25.5100 11.0000 0.0000
    endloop
  endfacet
  facet normal 0.000000 0.000000 -1.000000
    outer loop
      vertex 25.5100 11.0000 3.0000
      vertex 23.7297 8.1714 3.0000
      vertex 23.4891 8.4857 3.0000
    endloop
  endfacet
  facet normal -0.000000 0.000000 1.000000
    outer loop
      vertex 23.4891 8.4857 0.0000
      vertex 23.7297 8.1714 0.0000
      vertex 25.5100 11.0000 0.0000
    endloop
  endfacet
  facet normal 0.000000 0.000000 -1.000000
    outer loop
      vertex 25.5100 11.0000 3.0000
      vertex 23.4891 8.4857 3.0000
      vertex 23.2895 8.8000 3.0000
    endloop
  endfacet
  facet normal -0.000000 0.000000 1.000000
    outer loop
      vertex 23.2895 8.8000 0.0000
      vertex 23.4891 8.4857 0.0000
      vertex 25.5100 11.0000 0.0000
    endloop
  endfacet
  facet normal 0.000000 0.000000 -1.000000
    outer loop
      vertex 25.5100 11.0000 3.0000
      vertex 23.2895 8.8000 3.0000
      vertex 23.1246 9.1143 3.0000
    endloop
  endfacet
  facet normal -0.000000 0.000000 1.000000
    outer loop
      vertex 23.1246 9.1143 0.0000
      vertex 23.2895 8.8000 0.0000
      vertex 25.5100 11.0000 0.0000
    endloop
  endfacet
  facet normal 0.000000 0.000000 -1.000000
    outer loop
      vertex 25.5100 11.0000 3.0000
      vertex 23.1246 9.1143 3.0000
      vertex 22.9902 9.4286 3.0000
    endloop
  endfacet
  facet normal -0.000000 0.000000 1.000000
    outer loop
      vertex 22.9902 9.4286 0.0000
      vertex 23.1246 9.1143 0.0000
      vertex 25.5100 11.0000 0.0000
    endloop
  endfacet
  facet normal 0.000000 0.000000 -1.000000
    outer loop
      vertex 25.5100 11.0000 3.0000
      vertex 22.9902 9.4286 3.0000
      vertex 22.8834 9.7429 3.0000
    endloop
  endfacet
  facet normal -0.000000 0.000000 1.000000
    outer loop
      vertex 22.8834 9.7429 0.0000
      vertex 22.9902 9.4286 0.0000
      vertex 25.5100 11.0000 0.0000
    endloop
  endfacet
  facet normal 0.000000 0.000000 -1.000000
    outer loop
      vertex 25.5100 11.0000 3.0000
      vertex 22.8834 9.7429 3.0000
      vertex 22.8022 10.0571 3.0000
    endloop
  endfacet
  facet normal -0.000000 0.000000 1.000000
    outer loop
      vertex 22.8022 10.0571 0.0000
      vertex 22.8834 9.7429 0.0000
      vertex 25.5100 11.0000 0.0000
    endloop
  endfacet
  facet normal 0.000000 0.000000 -1.000000
    outer loop
      vertex 25.5100 11.0000 3.0000
      vertex 22.8022 10.0571 3.0000
      vertex 22.7451 10.3714 3.0000
    endloop
  endfacet
  facet normal -0.000000 0.000000 1.000000
    outer loop
      vertex 22.7451 10.3714 0.0000
      vertex 22.8022 10.0571 0.0000
      vertex 25.5100 11.0000 0.0000
    endloop
  endfacet
  facet normal 0.000000 0.000000 -1.000000
    outer loop
      vertex 25.5100 11.0000 3.0000
      vertex 22.7451 10.3714 3.0000
      vertex 22.7112 10.6857 3.0000
    endloop
  endfacet
  facet normal -0.000000 0.000000 1.000000
    outer loop
      vertex 22.7112 10.6857 0.0000
      vertex 22.7451 10.3714 0.0000
      vertex 25.5100 11.0000 0.0000
    endloop
  endfacet
  facet normal -0.000000 0.000000 -1.000000
    outer loop
      vertex 25.5100 11.0000 3.0000
      vertex 22.7112 10.6857 3.0000
      vertex 22.7000 11.0000 3.0000
    endloop
  endfacet
  facet normal -0.000000 0.000000 1.000000
    outer loop
      vertex 22.7000 11.0000 0.0000
      vertex 22.7112 10.6857 0.0000
      vertex 25.5100 11.0000 0.0000
    endloop
  endfacet
  facet normal 0.000000 0.000000 -1.000000
    outer loop
      vertex 25.5100 11.0000 3.0000
      vertex 22.7000 11.0000 3.0000
      vertex 22.7112 11.3143 3.0000
    endloop
  endfacet
  facet normal 0.000000 0.000000 1.000000
    outer loop
      vertex 22.7112 11.3143 0.0000
      vertex 22.7000 11.0000 0.0000
      vertex 25.5100 11.0000 0.0000
    endloop
  endfacet
  facet normal 0.000000 0.000000 -1.000000
    outer loop
      vertex 25.5100 11.0000 3.0000
      vertex 22.7112 11.3143 3.0000
      vertex 22.7451 11.6286 3.0000
    endloop
  endfacet
  facet normal 0.000000 0.000000 1.000000
    outer loop
      vertex 22.7451 11.6286 0.0000
      vertex 22.7112 11.3143 0.0000
      vertex 25.5100 11.0000 0.0000
    endloop
  endfacet
  facet normal 0.000000 0.000000 -1.000000
    outer loop
      vertex 25.5100 11.0000 3.0000
      vertex 22.7451 11.6286 3.0000
      vertex 22.8022 11.9429 3.0000
    endloop
  endfacet
  facet normal 0.000000 0.000000 1.000000
    outer loop
      vertex 22.8022 11.9429 0.0000
      vertex 22.7451 11.6286 0.0000
      vertex 25.5100 11.0000 0.0000
    endloop
  endfacet
  facet normal 0.000000 0.000000 -1.000000
    outer loop
      vertex 25.5100 11.0000 3.0000
      vertex 22.8022 11.9429 3.0000
      vertex 22.8834 12.2571 3.0000
    endloop
  endfacet
  facet normal 0.000000 0.000000 1.000000
    outer loop
      vertex 22.8834 12.2571 0.0000
      vertex 22.8022 11.9429 0.0000
      vertex 25.5100 11.0000 0.0000
    endloop
  endfacet
  facet normal 0.000000 0.000000 -1.000000
    outer loop
      vertex 25.5100 11.0000 3.0000
      vertex 22.8834 12.2571 3.0000
      vertex 22.9902 12.5714 3.0000
    endloop
  endfacet
  facet normal 0.000000 0.000000 1.000000
    outer loop
      vertex 22.9902 12.5714 0.0000
      vertex 22.8834 12.2571 0.0000
      vertex 25.5100 11.0000 0.0000
    endloop
  endfacet
  facet normal 0.000000 0.000000 -1.000000
    outer loop
      vertex 25.5100 11.0000 3.0000
      vertex 22.9902 12.5714 3.0000
      vertex 23.1246 12.8857 3.0000
    endloop
  endfacet
  facet normal 0.000000 0.000000 1.000000
    outer loop
      vertex 23.1246 12.8857 0.0000
      vertex 22.9902 12.5714 0.0000
      vertex 25.5100 11.0000 0.0000
    endloop
  endfacet
  facet normal 0.000000 0.000000 -1.000000
    outer loop
      vertex 25.5100 11.0000 3.0000
      vertex 23.1246 12.8857 3.0000
      vertex 23.2895 13.2000 3.0000
    endloop
  endfacet
  facet normal 0.000000 0.000000 1.000000
    outer loop
      vertex 23.2895 13.2000 0.0000
      vertex 23.1246 12.8857 0.0000
      vertex 25.5100 11.0000 0.0000
    endloop
  endfacet
  facet normal 0.000000 0.000000 -1.000000
    outer loop
      vertex 25.5100 11.0000 3.0000
      vertex 23.2895 13.2000 3.0000
      vertex 23.4891 13.5143 3.0000
    endloop
  endfacet
  facet normal 0.000000 0.000000 1.000000
    outer loop
      vertex 23.4891 13.5143 0.0000
      vertex 23.2895 13.2000 0.0000
      vertex 25.5100 11.0000 0.0000
    endloop
  endfacet
  facet normal 0.000000 0.000000 -1.000000
    outer loop
      vertex 25.5100 11.0000 3.0000
      vertex 23.4891 13.5143 3.0000
      vertex 23.7297 13.8286 3.0000
    endloop
  endfacet
  facet normal 0.000000 0.000000 1.000000
    outer loop
      vertex 23.7297 13.8286 0.0000
      vertex 23.4891 13.5143 0.0000
      vertex 25.5100 11.0000 0.0000
    endloop
  endfacet
  facet normal 0.000000 0.000000 -1.000000
    outer loop
      vertex 25.5100 11.0000 3.0000
      vertex 23.7297 13.8286 3.0000
      vertex 24.0206 14.1429 3.0000
    endloop
  endfacet
  facet normal 0.000000 0.000000 1.000000
    outer loop
      vertex 24.0206 14.1429 0.0000
      vertex 23.7297 13.8286 0.0000
      vertex 25.5100 11.0000 0.0000
    endloop
  endfacet
  facet normal 0.000000 0.000000 -1.000000
    outer loop
      vertex 25.5100 11.0000 3.0000
      vertex 24.0206 14.1429 3.0000
      vertex 24.3782 14.4571 3.0000
    endloop
  endfacet
  facet normal 0.000000 0.000000 1.000000
    outer loop
      vertex 24.3782 14.4571 0.0000
      vertex 24.0206 14.1429 0.0000
      vertex 25.5100 11.0000 0.0000
    endloop
  endfacet
  facet normal 0.000000 0.000000 -1.000000
    outer loop
      vertex 25.5100 11.0000 3.0000
      vertex 24.3782 14.4571 3.0000
      vertex 24.8337 14.7714 3.0000
    endloop
  endfacet
  facet normal 0.000000 0.000000 1.000000
    outer loop
      vertex 24.8337 14.7714 0.0000
      vertex 24.3782 14.4571 0.0000
      vertex 25.5100 11.0000 0.0000
    endloop
  endfacet
  facet normal 0.000000 0.000000 -1.000000
    outer loop
      vertex 25.5100 11.0000 3.0000
      vertex 24.8337 14.7714 3.0000
      vertex 25.4669 15.0857 3.0000
    endloop
  endfacet
  facet normal 0.000000 0.000000 1.000000
    outer loop
      vertex 25.4669 15.0857 0.0000
      vertex 24.8337 14.7714 0.0000
      vertex 25.5100 11.0000 0.0000
    endloop
  endfacet
  facet normal 0.000000 0.000000 -1.000000
    outer loop
      vertex 25.5100 11.0000 3.0000
      vertex 25.4669 15.0857 3.0000
      vertex 27.1000 15.4000 3.0000
    endloop
  endfacet
  facet normal 0.000000 0.000000 1.000000
    outer loop
      vertex 27.1000 15.4000 0.0000
      vertex 25.4669 15.0857 0.0000
      vertex 25.5100 11.0000 0.0000
    endloop
  endfacet
  facet normal 0.000000 0.000000 -1.000000
    outer loop
      vertex 25.5100 11.0000 3.0000
      vertex 27.1000 15.4000 3.0000
      vertex 27.1000 0.1000 3.0000
    endloop
  endfacet
  facet normal 0.000000 -0.000000 1.000000
    outer loop
      vertex 27.1000 0.1000 0.0000
      vertex 27.1000 15.4000 0.0000
      vertex 25.5100 11.0000 0.0000
    endloop
  endfacet
  facet normal 0.000000 -1.000000 0.000000
    outer loop
      vertex 27.1000 0.1000 0.0000
      vertex 48.9000 0.1000 0.0000
      vertex 48.9000 0.1000 3.0000
    endloop
  endfacet
  facet normal 0.000000 -1.000000 0.000000
    outer loop
      vertex 27.1000 0.1000 0.0000
      vertex 48.9000 0.1000 3.0000
      vertex 27.1000 0.1000 3.0000
    endloop
  endfacet
  facet normal 1.000000 0.000000 0.000000
    outer loop
      vertex 48.9000 0.1000 0.0000
      vertex 48.9000 21.9000 0.0000
      vertex 48.9000 21.9000 3.0000
    endloop
  endfacet
  facet normal 1.000000 0.000000 0.000000
    outer loop
      vertex 48.9000 0.1000 0.0000
      vertex 48.9000 21.9000 3.0000
      vertex 48.9000 0.1000 3.0000
    endloop
  endfacet
  facet normal 0.000000 1.000000 0.000000
    outer loop
      vertex 48.9000 21.9000 0.0000
      vertex 27.1000 21.9000 0.0000
      vertex 27.1000 21.9000 3.0000
    endloop
  endfacet
  facet normal 0.000000 1.000000 -0.000000
    outer loop
      vertex 48.9000 21.9000 0.0000
      vertex 27.1000 21.9000 3.0000
      vertex 48.9000 21.9000 3.0000
    endloop
  endfacet
  facet normal -1.000000 0.000000 0.000000
    outer loop
      vertex 27.1000 21.9000 0.0000
      vertex 27.1000 6.6000 0.0000
      vertex 27.1000 6.6000 3.0000
    endloop
  endfacet
  facet normal -1.000000 0.000000 0.000000
    outer loop
      vertex 27.1000 21.9000 0.0000
      vertex 27.1000 6.6000 3.0000
      vertex 27.1000 21.9000 3.0000
    endloop
  endfacet
  facet normal 0.188982 0.981981 0.000000
    outer loop
      vertex 27.1000 6.6000 0.0000
      vertex 25.4669 6.9143 0.0000
      vertex 25.4669 6.9143 3.0000
    endloop
  endfacet
  facet normal 0.188982 0.981981 -0.000000
    outer loop
      vertex 27.1000 6.6000 0.0000
      vertex 25.4669 6.9143 3.0000
      vertex 27.1000 6.6000 3.0000
    endloop
  endfacet
  facet normal 0.444553 0.895752 0.000000
    outer loop
      vertex 25.4669 6.9143 0.0000
      vertex 24.8337 7.2286 0.0000
      vertex 24.8337 7.2286 3.0000
    endloop
  endfacet
  facet normal 0.444553 0.895752 -0.000000
    outer loop
      vertex 25.4669 6.9143 0.0000
      vertex 24.8337 7.2286 3.0000
      vertex 25.4669 6.9143 3.0000
    endloop
  endfacet
  facet normal 0.567958 0.823057 0.000000
    outer loop
      vertex 24.8337 7.2286 0.0000
      vertex 24.3782 7.5429 0.0000
      vertex 24.3782 7.5429 3.0000
    endloop
  endfacet
  facet normal 0.567958 0.823057 -0.000000
    outer loop
      vertex 24.8337 7.2286 0.0000
      vertex 24.3782 7.5429 3.0000
      vertex 24.8337 7.2286 3.0000
    endloop
  endfacet
  facet normal 0.660189 0.751100 0.000000
    outer loop
      vertex 24.3782 7.5429 0.0000
      vertex 24.0206 7.8571 0.0000
      vertex 24.0206 7.8571 3.0000
    endloop
  endfacet
  facet normal 0.660189 0.751100 -0.000000
    outer loop
      vertex 24.3782 7.5429 0.0000
      vertex 24.0206 7.8571 3.0000
      vertex 24.3782 7.5429 3.0000
    endloop
  endfacet
  facet normal 0.733790 0.679377 0.000000
    outer loop
      vertex 24.0206 7.8571 0.0000
      vertex 23.7297 8.1714 0.0000
      vertex 23.7297 8.1714 3.0000
    endloop
  endfacet
  facet normal 0.733790 0.679377 -0.000000
    outer loop
      vertex 24.0206 7.8571 0.0000
      vertex 23.7297 8.1714 3.0000
      vertex 24.0206 7.8571 3.0000
    endloop
  endfacet
  facet normal 0.794122 0.607758 0.000000
    outer loop
      vertex 23.7297 8.1714 0.0000
      vertex 23.4891 8.4857 0.0000
      vertex 23.4891 8.4857 3.0000
    endloop
  endfacet
  facet normal 0.794122 0.607758 -0.000000
    outer loop
      vertex 23.7297 8.1714 0.0000
      vertex 23.4891 8.4857 3.0000
      vertex 23.7297 8.1714 3.0000
    endloop
  endfacet
  facet normal 0.844094 0.536194 0.000000
    outer loop
      vertex 23.4891 8.4857 0.0000
      vertex 23.2895 8.8000 0.0000
      vertex 23.2895 8.8000 3.0000
    endloop
  endfacet
  facet normal 0.844094 0.536194 -0.000000
    outer loop
      vertex 23.4891 8.4857 0.0000
      vertex 23.2895 8.8000 3.0000
      vertex 23.4891 8.4857 3.0000
    endloop
  endfacet
  facet normal 0.885487 0.464664 0.000000
    outer loop
      vertex 23.2895 8.8000 0.0000
      vertex 23.1246 9.1143 0.0000
      vertex 23.1246 9.1143 3.0000
    endloop
  endfacet
  facet normal 0.885487 0.464664 -0.000000
    outer loop
      vertex 23.2895 8.8000 0.0000
      vertex 23.1246 9.1143 3.0000
      vertex 23.2895 8.8000 3.0000
    endloop
  endfacet
  facet normal 0.919473 0.393154 0.000000
    outer loop
      vertex 23.1246 9.1143 0.0000
      vertex 22.9902 9.4286 0.0000
      vertex 22.9902 9.4286 3.0000
    endloop
  endfacet
  facet normal 0.919473 0.393154 -0.000000
    outer loop
      vertex 23.1246 9.1143 0.0000
      vertex 22.9902 9.4286 3.0000
      vertex 23.1246 9.1143 3.0000
    endloop
  endfacet
  facet normal 0.946856 0.321657 0.000000
    outer loop
      vertex 22.9902 9.4286 0.0000
      vertex 22.8834 9.7429 0.0000
      vertex 22.8834 9.7429 3.0000
    endloop
  endfacet
  facet normal 0.946856 0.321657 -0.000000
    outer loop
      vertex 22.9902 9.4286 0.0000
      vertex 22.8834 9.7429 3.0000
      vertex 22.9902 9.4286 3.0000
    endloop
  endfacet
  facet normal 0.968202 0.250170 0.000000
    outer loop
      vertex 22.8834 9.7429 0.0000
      vertex 22.8022 10.0571 0.0000
      vertex 22.8022 10.0571 3.0000
    endloop
  endfacet
  facet normal 0.968202 0.250170 -0.000000
    outer loop
      vertex 22.8834 9.7429 0.0000
      vertex 22.8022 10.0571 3.0000
      vertex 22.8834 9.7429 3.0000
    endloop
  endfacet
  facet normal 0.983906 0.178689 0.000000
    outer loop
      vertex 22.8022 10.0571 0.0000
      vertex 22.7451 10.3714 0.0000
      vertex 22.7451 10.3714 3.0000
    endloop
  endfacet
  facet normal 0.983906 0.178689 -0.000000
    outer loop
      vertex 22.8022 10.0571 0.0000
      vertex 22.7451 10.3714 3.0000
      vertex 22.8022 10.0571 3.0000
    endloop
  endfacet
  facet normal 0.994236 0.107212 0.000000
    outer loop
      vertex 22.7451 10.3714 0.0000
      vertex 22.7112 10.6857 0.0000
      vertex 22.7112 10.6857 3.0000
    endloop
  endfacet
  facet normal 0.994236 0.107212 -0.000000
    outer loop
      vertex 22.7451 10.3714 0.0000
      vertex 22.7112 10.6857 3.0000
      vertex 22.7451 10.3714 3.0000
    endloop
  endfacet
  facet normal 0.999361 0.035737 0.000000
    outer loop
      vertex 22.7112 10.6857 0.0000
      vertex 22.7000 11.0000 0.0000
      vertex 22.7000 11.0000 3.0000
    endloop
  endfacet
  facet normal 0.999361 0.035737 -0.000000
    outer loop
      vertex 22.7112 10.6857 0.0000
      vertex 22.7000 11.0000 3.0000
      vertex 22.7112 10.6857 3.0000
    endloop
  endfacet
  facet normal 0.999361 -0.035737 0.000000
    outer loop
      vertex 22.7000 11.0000 0.0000
      vertex 22.7112 11.3143 0.0000
      vertex 22.7112 11.3143 3.0000
    endloop
  endfacet
  facet normal 0.999361 -0.035737 0.000000
    outer loop
      vertex 22.7000 11.0000 0.0000
      vertex 22.7112 11.3143 3.0000
      vertex 22.7000 11.0000 3.0000
    endloop
  endfacet
  facet normal 0.994236 -0.107212 0.000000
    outer loop
      vertex 22.7112 11.3143 0.0000
      vertex 22.7451 11.6286 0.0000
      vertex 22.7451 11.6286 3.0000
    endloop
  endfacet
  facet normal 0.994236 -0.107212 0.000000
    outer loop
      vertex 22.7112 11.3143 0.0000
      vertex 22.7451 11.6286 3.0000
      vertex 22.7112 11.3143 3.0000
    endloop
  endfacet
  facet normal 0.983906 -0.178689 0.000000
    outer loop
      vertex 22.7451 11.6286 0.0000
      vertex 22.8022 11.9429 0.0000
      vertex 22.8022 11.9429 3.0000
    endloop
  endfacet
  facet normal 0.983906 -0.178689 0.000000
    outer loop
      vertex 22.7451 11.6286 0.0000
      vertex 22.8022 11.9429 3.0000
      vertex 22.7451 11.6286 3.0000
    endloop
  endfacet
  facet normal 0.968202 -0.250170 0.000000
    outer loop
      vertex 22.8022 11.9429 0.0000
      vertex 22.8834 12.2571 0.0000
      vertex 22.8834 12.2571 3.0000
    endloop
  endfacet
  facet normal 0.968202 -0.250170 0.000000
    outer loop
      vertex 22.8022 11.9429 0.0000
      vertex 22.8834 12.2571 3.0000
      vertex 22.8022 11.9429 3.0000
    endloop
  endfacet
  facet normal 0.946856 -0.321657 0.000000
    outer loop
      vertex 22.8834 12.2571 0.0000
      vertex 22.9902 12.5714 0.0000
      vertex 22.9902 12.5714 3.0000
    endloop
  endfacet
  facet normal 0.946856 -0.321657 0.000000
    outer loop
      vertex 22.8834 12.2571 0.0000
      vertex 22.9902 12.5714 3.0000
      vertex 22.8834 12.2571 3.0000
    endloop
  endfacet
  facet normal 0.919473 -0.393154 0.000000
    outer loop
      vertex 22.9902 12.5714 0.0000
      vertex 23.1246 12.8857 0.0000
      vertex 23.1246 12.8857 3.0000
    endloop
  endfacet
  facet normal 0.919473 -0.393154 0.000000
    outer loop
      vertex 22.9902 12.5714 0.0000
      vertex 23.1246 12.8857 3.0000
      vertex 22.9902 12.5714 3.0000
    endloop
  endfacet
  facet normal 0.885487 -0.464664 0.000000
    outer loop
      vertex 23.1246 12.8857 0.0000
      vertex 23.2895 13.2000 0.0000
      vertex 23.2895 13.2000 3.0000
    endloop
  endfacet
  facet normal 0.885487 -0.464664 0.000000
    outer loop
      vertex 23.1246 12.8857 0.0000
      vertex 23.2895 13.2000 3.0000
      vertex 23.1246 12.8857 3.0000
    endloop
  endfacet
  facet normal 0.844094 -0.536194 0.000000
    outer loop
      vertex 23.2895 13.2000 0.0000
      vertex 23.4891 13.5143 0.0000
      vertex 23.4891 13.5143 3.0000
    endloop
  endfacet
  facet normal 0.844094 -0.536194 0.000000
    outer loop
      vertex 23.2895 13.2000 0.0000
      vertex 23.4891 13.5143 3.0000
      vertex 23.2895 13.2000 3.0000
    endloop
  endfacet
  facet normal 0.794122 -0.607758 0.000000
    outer loop
      vertex 23.4891 13.5143 0.0000
      vertex 23.7297 13.8286 0.0000
      vertex 23.7297 13.8286 3.0000
    endloop
  endfacet
  facet normal 0.794122 -0.607758 0.000000
    outer loop
      vertex 23.4891 13.5143 0.0000
      vertex 23.7297 13.8286 3.0000
      vertex 23.4891 13.5143 3.0000
    endloop
  endfacet
  facet normal 0.733790 -0.679377 0.000000
    outer loop
      vertex 23.7297 13.8286 0.0000
      vertex 24.0206 14.1429 0.0000
      vertex 24.0206 14.1429 3.0000
    endloop
  endfacet
  facet normal 0.733790 -0.679377 0.000000
    outer loop
      vertex 23.7297 13.8286 0.0000
      vertex 24.0206 14.1429 3.0000
      vertex 23.7297 13.8286 3.0000
    endloop
  endfacet
  facet normal 0.660189 -0.751100 0.000000
    outer loop
      vertex 24.0206 14.1429 0.0000
      vertex 24.3782 14.4571 0.0000
      vertex 24.3782 14.4571 3.0000
    endloop
  endfacet
  facet normal 0.660189 -0.751100 0.000000
    outer loop
      vertex 24.0206 14.1429 0.0000
      vertex 24.3782 14.4571 3.0000
      vertex 24.0206 14.1429 3.0000
    endloop
  endfacet
  facet normal 0.567958 -0.823057 0.000000
    outer loop
      vertex 24.3782 14.4571 0.0000
      vertex 24.8337 14.7714 0.0000
      vertex 24.8337 14.7714 3.0000
    endloop
  endfacet
  facet normal 0.567958 -0.823057 0.000000
    outer loop
      vertex 24.3782 14.4571 0.0000
      vertex 24.8337 14.7714 3.0000
      vertex 24.3782 14.4571 3.0000
    endloop
  endfacet
  facet normal 0.444553 -0.895752 0.000000
    outer loop
      vertex 24.8337 14.7714 0.0000
      vertex 25.4669 15.0857 0.0000
      vertex 25.4669 15.0857 3.0000
    endloop
  endfacet
  facet normal 0.444553 -0.895752 0.000000
    outer loop
      vertex 24.8337 14.7714 0.0000
      vertex 25.4669 15.0857 3.0000
      vertex 24.8337 14.7714 3.0000
    endloop
  endfacet
  facet normal 0.188982 -0.981981 0.000000
    outer loop
      vertex 25.4669 15.0857 0.0000
      vertex 27.1000 15.4000 0.0000
      vertex 27.1000 15.4000 3.0000
    endloop
  endfacet
  facet normal 0.188982 -0.981981 0.000000
    outer loop
      vertex 25.4669 15.0857 0.0000
      vertex 27.1000 15.4000 3.0000
      vertex 25.4669 15.0857 3.0000
    endloop
  endfacet
  facet normal -1.000000 0.000000 0.000000
    outer loop
      vertex 27.1000 15.4000 0.0000
      vertex 27.1000 0.1000 0.0000
      vertex 27.1000 0.1000 3.0000
    endloop
  endfacet
  facet normal -1.000000 0.000000 0.000000
    outer loop
      vertex 27.1000 15.4000 0.0000
      vertex 27.1000 0.1000 3.0000
      vertex 27.1000 15.4000 3.0000
    endloop
  endfacet
endsolid jigsaw-coupon-0p20mm
