solid jigsaw-coupon-0p30mm
  facet normal 0.000000 0.000000 1.000000
    outer loop
      vertex 23.3138 11.0000 3.0000
      vertex 0.1500 0.1500 3.0000
      vertex 21.8500 0.1500 3.0000
    endloop
  endfacet
  facet normal 0.000000 0.000000 -1.000000
    outer loop
      vertex 21.8500 0.1500 0.0000
      vertex 0.1500 0.1500 0.0000
      vertex 23.3138 11.0000 0.0000
    endloop
  endfacet
  facet normal 0.000000 0.000000 -1.000000
    outer loop
      vertex 23.3138 11.0000 3.0000
      vertex 21.8500 0.1500 3.0000
      vertex 21.8500 6.8000 3.0000
    endloop
  endfacet
  facet normal -0.000000 0.000000 1.000000
    outer loop
      vertex 21.8500 6.8000 0.0000
      vertex 21.8500 0.1500 0.0000
      vertex 23.3138 11.0000 0.0000
    endloop
  endfacet
  facet normal 0.000000 0.000000 1.000000
    outer loop
      vertex 23.3138 11.0000 3.0000
      vertex 21.8500 6.8000 3.0000
      vertex 23.4088 7.1000 3.0000
    endloop
  endfacet
  facet normal -0.000000 0.000000 -1.000000
    outer loop
      vertex 23.4088 7.1000 0.0000
      vertex 21.8500 6.8000 0.0000
      vertex 23.3138 11.0000 0.0000
    endloop
  endfacet
  facet normal 0.000000 0.000000 1.000000
    outer loop
      vertex 23.3138 11.0000 3.0000
      vertex 23.4088 7.1000 3.0000
      vertex 24.0133 7.4000 3.0000
    endloop
  endfacet
  facet normal -0.000000 0.000000 -1.000000
    outer loop
      vertex 24.0133 7.4000 0.0000
      vertex 23.4088 7.1000 0.0000
      vertex 23.3138 11.0000 0.0000
    endloop
  endfacet
  facet normal 0.000000 0.000000 1.000000
    outer loop
      vertex 23.3138 11.0000 3.0000
      vertex 24.0133 7.4000 3.0000
      vertex 24.4481 7.7000 3.0000
    endloop
  endfacet
  facet normal -0.000000 0.000000 -1.000000
    outer loop
      vertex 24.4481 7.7000 0.0000
      vertex 24.0133 7.4000 0.0000
      vertex 23.3138 11.0000 0.0000
    endloop
  endfacet
  facet normal 0.000000 0.000000 1.000000
    outer loop
      vertex 23.3138 11.0000 3.0000
      vertex 24.4481 7.7000 3.0000
      vertex 24.7894 8.0000 3.0000
    endloop
  endfacet
  facet normal -0.000000 0.000000 -1.000000
    outer loop
      vertex 24.7894 8.0000 0.0000
      vertex 24.4481 7.7000 0.0000
      vertex 23.3138 11.0000 0.0000
    endloop
  endfacet
  facet normal 0.000000 0.000000 1.000000
    outer loop
      vertex 23.3138 11.0000 3.0000
      vertex 24.7894 8.0000 3.0000
      vertex 25.0671 8.3000 3.0000
    endloop
  endfacet
  facet normal -0.000000 0.000000 -1.000000
    outer loop
      vertex 25.0671 8.3000 0.0000
      vertex 24.7894 8.0000 0.0000
      vertex 23.3138 11.0000 0.0000
    endloop
  endfacet
  facet normal 0.000000 0.000000 1.000000
    outer loop
      vertex 23.3138 11.0000 3.0000
      vertex 25.0671 8.3000 3.0000
      vertex 25.2967 8.6000 3.0000
    endloop
  endfacet
  facet normal -0.000000 0.000000 -1.000000
    outer loop
      vertex 25.2967 8.6000 0.0000
      vertex 25.0671 8.3000 0.0000
      vertex 23.3138 11.0000 0.0000
    endloop
  endfacet
  facet normal 0.000000 0.000000 1.000000
    outer loop
      vertex 23.3138 11.0000 3.0000
      vertex 25.2967 8.6000 3.0000
      vertex 25.4873 8.9000 3.0000
    endloop
  endfacet
  facet normal -0.000000 0.000000 -1.000000
    outer loop
      vertex 25.4873 8.9000 0.0000
      vertex 25.2967 8.6000 0.0000
      vertex 23.3138 11.0000 0.0000
    endloop
  endfacet
  facet normal 0.000000 0.000000 1.000000
    outer loop
      vertex 23.3138 11.0000 3.0000
      vertex 25.4873 8.9000 3.0000
      vertex 25.6447 9.2000 3.0000
    endloop
  endfacet
  facet normal -0.000000 0.000000 -1.000000
    outer loop
      vertex 25.6447 9.2000 0.0000
      vertex 25.4873 8.9000 0.0000
      vertex 23.3138 11.0000 0.0000
    endloop
  endfacet
  facet normal 0.000000 0.000000 1.000000
    outer loop
      vertex 23.3138 11.0000 3.0000
      vertex 25.6447 9.2000 3.0000
      vertex 25.7730 9.5000 3.0000
    endloop
  endfacet
  facet normal -0.000000 0.000000 -1.000000
    outer loop
      vertex 25.7730 9.5000 0.0000
      vertex 25.6447 9.2000 0.0000
      vertex 23.3138 11.0000 0.0000
    endloop
  endfacet
  facet normal 0.000000 0.000000 1.000000
    outer loop
      vertex 23.3138 11.0000 3.0000
      vertex 25.7730 9.5000 3.0000
      vertex 25.8749 9.8000 3.0000
    endloop
  endfacet
  facet normal -0.000000 0.000000 -1.000000
    outer loop
      vertex 25.8749 9.8000 0.0000
      vertex 25.7730 9.5000 0.0000
      vertex 23.3138 11.0000 0.0000
    endloop
  endfacet
  facet normal 0.000000 0.000000 1.000000
    outer loop
      vertex 23.3138 11.0000 3.0000
      vertex 25.8749 9.8000 3.0000
      vertex 25.9524 10.1000 3.0000
    endloop
  endfacet
  facet normal -0.000000 0.000000 -1.000000
    outer loop
      vertex 25.9524 10.1000 0.0000
      vertex 25.8749 9.8000 0.0000
      vertex 23.3138 11.0000 0.0000
    endloop
  endfacet
  facet normal 0.000000 0.000000 1.000000
    outer loop
      vertex 23.3138 11.0000 3.0000
      vertex 25.9524 10.1000 3.0000
      vertex 26.0069 10.4000 3.0000
    endloop
  endfacet
  facet normal -0.000000 0.000000 -1.000000
    outer loop
      vertex 26.0069 10.4000 0.0000
      vertex 25.9524 10.1000 0.0000
      vertex 23.3138 11.0000 0.0000
    endloop
  endfacet
  facet normal 0.000000 0.000000 1.000000
    outer loop
      vertex 23.3138 11.0000 3.0000
      vertex 26.0069 10.4000 3.0000
      vertex 26.0393 10.7000 3.0000
    endloop
  endfacet
  facet normal -0.000000 0.000000 -1.000000
    outer loop
      vertex 26.0393 10.7000 0.0000
      vertex 26.0069 10.4000 0.0000
      vertex 23.3138 11.0000 0.0000
    endloop
  endfacet
  facet normal 0.000000 0.000000 1.000000
    outer loop
      vertex 23.3138 11.0000 3.0000
      vertex 26.0393 10.7000 3.0000
      vertex 26.0500 11.0000 3.0000
    endloop
  endfacet
  facet normal -0.000000 0.000000 -1.000000
    outer loop
      vertex 26.0500 11.0000 0.0000
      vertex 26.0393 10.7000 0.0000
      vertex 23.3138 11.0000 0.0000
    endloop
  endfacet
  facet normal -0.000000 0.000000 1.000000
    outer loop
      vertex 23.3138 11.0000 3.0000
      vertex 26.0500 11.0000 3.0000
      vertex 26.0393 11.3000 3.0000
    endloop
  endfacet
  facet normal 0.000000 -0.000000 -1.000000
    outer loop
      vertex 26.0393 11.3000 0.0000
      vertex 26.0500 11.0000 0.0000
      vertex 23.3138 11.0000 0.0000
    endloop
  endfacet
  facet normal 0.000000 0.000000 1.000000
    outer loop
      vertex 23.3138 11.0000 3.0000
      vertex 26.0393 11.3000 3.0000
      vertex 26.0069 11.6000 3.0000
    endloop
  endfacet
  facet normal 0.000000 -0.000000 -1.000000
    outer loop
      vertex 26.0069 11.6000 0.0000
      vertex 26.0393 11.3000 0.0000
      vertex 23.3138 11.0000 0.0000
    endloop
  endfacet
  facet normal 0.000000 0.000000 1.000000
    outer loop
      vertex 23.3138 11.0000 3.0000
      vertex 26.0069 11.6000 3.0000
      vertex 25.9524 11.9000 3.0000
    endloop
  endfacet
  facet normal 0.000000 -0.000000 -1.000000
    outer loop
      vertex 25.9524 11.9000 0.0000
      vertex 26.0069 11.6000 0.0000
      vertex 23.3138 11.0000 0.0000
    endloop
  endfacet
  facet normal 0.000000 0.000000 1.000000
    outer loop
      vertex 23.3138 11.0000 3.0000
      vertex 25.9524 11.9000 3.0000
      vertex 25.8749 12.2000 3.0000
    endloop
  endfacet
  facet normal 0.000000 -0.000000 -1.000000
    outer loop
      vertex 25.8749 12.2000 0.0000
      vertex 25.9524 11.9000 0.0000
      vertex 23.3138 11.0000 0.0000
    endloop
  endfacet
  facet normal 0.000000 0.000000 1.000000
    outer loop
      vertex 23.3138 11.0000 3.0000
      vertex 25.8749 12.2000 3.0000
      vertex 25.7730 12.5000 3.0000
    endloop
  endfacet
  facet normal 0.000000 -0.000000 -1.000000
    outer loop
      vertex 25.7730 12.5000 0.0000
      vertex 25.8749 12.2000 0.0000
      vertex 23.3138 11.0000 0.0000
    endloop
  endfacet
  facet normal 0.000000 0.000000 1.000000
    outer loop
      vertex 23.3138 11.0000 3.0000
      vertex 25.7730 12.5000 3.0000
      vertex 25.6447 12.8000 3.0000
    endloop
  endfacet
  facet normal 0.000000 -0.000000 -1.000000
    outer loop
      vertex 25.6447 12.8000 0.0000
      vertex 25.7730 12.5000 0.0000
      vertex 23.3138 11.0000 0.0000
    endloop
  endfacet
  facet normal 0.000000 0.000000 1.000000
    outer loop
      vertex 23.3138 11.0000 3.0000
      vertex 25.6447 12.8000 3.0000
      vertex 25.4873 13.1000 3.0000
    endloop
  endfacet
  facet normal 0.000000 -0.000000 -1.000000
    outer loop
      vertex 25.4873 13.1000 0.0000
      vertex 25.6447 12.8000 0.0000
      vertex 23.3138 11.0000 0.0000
    endloop
  endfacet
  facet normal 0.000000 0.000000 1.000000
    outer loop
      vertex 23.3138 11.0000 3.0000
      vertex 25.4873 13.1000 3.0000
      vertex 25.2967 13.4000 3.0000
    endloop
  endfacet
  facet normal 0.000000 -0.000000 -1.000000
    outer loop
      vertex 25.2967 13.4000 0.0000
      vertex 25.4873 13.1000 0.0000
      vertex 23.3138 11.0000 0.0000
    endloop
  endfacet
  facet normal 0.000000 0.000000 1.000000
    outer loop
      vertex 23.3138 11.0000 3.0000
      vertex 25.2967 13.4000 3.0000
      vertex 25.0671 13.7000 3.0000
    endloop
  endfacet
  facet normal 0.000000 -0.000000 -1.000000
    outer loop
      vertex 25.0671 13.7000 0.0000
      vertex 25.2967 13.4000 0.0000
      vertex 23.3138 11.0000 0.0000
    endloop
  endfacet
  facet normal 0.000000 0.000000 1.000000
    outer loop
      vertex 23.3138 11.0000 3.0000
      vertex 25.0671 13.7000 3.0000
      vertex 24.7894 14.0000 3.0000
    endloop
  endfacet
  facet normal 0.000000 -0.000000 -1.000000
    outer loop
      vertex 24.7894 14.0000 0.0000
      vertex 25.0671 13.7000 0.0000
      vertex 23.3138 11.0000 0.0000
    endloop
  endfacet
  facet normal 0.000000 0.000000 1.000000
    outer loop
      vertex 23.3138 11.0000 3.0000
      vertex 24.7894 14.0000 3.0000
      vertex 24.4481 14.3000 3.0000
    endloop
  endfacet
  facet normal 0.000000 -0.000000 -1.000000
    outer loop
      vertex 24.4481 14.3000 0.0000
      vertex 24.7894 14.0000 0.0000
      vertex 23.3138 11.0000 0.0000
    endloop
  endfacet
  facet normal 0.000000 0.000000 1.000000
    outer loop
      vertex 23.3138 11.0000 3.0000
      vertex 24.4481 14.3000 3.0000
      vertex 24.0133 14.6000 3.0000
    endloop
  endfacet
  facet normal 0.000000 -0.000000 -1.000000
    outer loop
      vertex 24.0133 14.6000 0.0000
      vertex 24.4481 14.3000 0.0000
      vertex 23.3138 11.0000 0.0000
    endloop
  endfacet
  facet normal 0.000000 0.000000 1.000000
    outer loop
      vertex 23.3138 11.0000 3.0000
      vertex 24.0133 14.6000 3.0000
      vertex 23.4088 14.9000 3.0000
    endloop
  endfacet
  facet normal 0.000000 -0.000000 -1.000000
    outer loop
      vertex 23.4088 14.9000 0.0000
      vertex 24.0133 14.6000 0.0000
      vertex 23.3138 11.0000 0.0000
    endloop
  endfacet
  facet normal 0.000000 -0.000000 1.000000
    outer loop
      vertex 23.3138 11.0000 3.0000
      vertex 23.4088 14.9000 3.0000
      vertex 21.8500 15.2000 3.0000
    endloop
  endfacet
  facet normal 0.000000 0.000000 -1.000000
    outer loop
      vertex 21.8500 15.2000 0.0000
      vertex 23.4088 14.9000 0.0000
      vertex 23.3138 11.0000 0.0000
    endloop
  endfacet
  facet normal 0.000000 0.000000 -1.000000
    outer loop
      vertex 23.3138 11.0000 3.0000
      vertex 21.8500 15.2000 3.0000
      vertex 21.8500 21.8500 3.0000
    endloop
  endfacet
  facet normal 0.000000 0.000000 1.000000
    outer loop
      vertex 21.8500 21.8500 0.0000
      vertex 21.8500 15.2000 0.0000
      vertex 23.3138 11.0000 0.0000
    endloop
  endfacet
  facet normal 0.000000 0.000000 1.000000
    outer loop
      vertex 23.3138 11.0000 3.0000
      vertex 21.8500 21.8500 3.0000
      vertex 0.1500 21.8500 3.0000
    endloop
  endfacet
  facet normal 0.000000 0.000000 -1.000000
    outer loop
      vertex 0.1500 21.8500 0.0000
      vertex 21.8500 21.8500 0.0000
      vertex 23.3138 11.0000 0.0000
    endloop
  endfacet
  facet normal 0.000000 0.000000 1.000000
    outer loop
      vertex 23.3138 11.0000 3.0000
      vertex 0.1500 21.8500 3.0000
      vertex 0.1500 0.1500 3.0000
    endloop
  endfacet
  facet normal 0.000000 0.000000 -1.000000
    outer loop
      vertex 0.1500 0.1500 0.0000
      vertex 0.1500 21.8500 0.0000
      vertex 23.3138 11.0000 0.0000
    endloop
  endfacet
  facet normal 0.000000 -1.000000 0.000000
    outer loop
      vertex 0.1500 0.1500 0.0000
      vertex 21.8500 0.1500 0.0000
      vertex 21.8500 0.1500 3.0000
    endloop
  endfacet
  facet normal 0.000000 -1.000000 0.000000
    outer loop
      vertex 0.1500 0.1500 0.0000
      vertex 21.8500 0.1500 3.0000
      vertex 0.1500 0.1500 3.0000
    endloop
  endfacet
  facet normal 1.000000 0.000000 0.000000
    outer loop
      vertex 21.8500 0.1500 0.0000
      vertex 21.8500 6.8000 0.0000
      vertex 21.8500 6.8000 3.0000
    endloop
  endfacet
  facet normal 1.000000 0.000000 0.000000
    outer loop
      vertex 21.8500 0.1500 0.0000
      vertex 21.8500 6.8000 3.0000
      vertex 21.8500 0.1500 3.0000
    endloop
  endfacet
  facet normal 0.188982 -0.981981 0.000000
    outer loop
      vertex 21.8500 6.8000 0.0000
      vertex 23.4088 7.1000 0.0000
      vertex 23.4088 7.1000 3.0000
    endloop
  endfacet
  facet normal 0.188982 -0.981981 0.000000
    outer loop
      vertex 21.8500 6.8000 0.0000
      vertex 23.4088 7.1000 3.0000
      vertex 21.8500 6.8000 3.0000
    endloop
  endfacet
  facet normal 0.444553 -0.895752 0.000000
    outer loop
      vertex 23.4088 7.1000 0.0000
      vertex 24.0133 7.4000 0.0000
      vertex 24.0133 7.4000 3.0000
    endloop
  endfacet
  facet normal 0.444553 -0.895752 0.000000
    outer loop
      vertex 23.4088 7.1000 0.0000
      vertex 24.0133 7.4000 3.0000
      vertex 23.4088 7.1000 3.0000
    endloop
  endfacet
  facet normal 0.567958 -0.823057 0.000000
    outer loop
      vertex 24.0133 7.4000 0.0000
      vertex 24.4481 7.7000 0.0000
      vertex 24.4481 7.7000 3.0000
    endloop
  endfacet
  facet normal 0.567958 -0.823057 0.000000
    outer loop
      vertex 24.0133 7.4000 0.0000
      vertex 24.4481 7.7000 3.0000
      vertex 24.0133 7.4000 3.0000
    endloop
  endfacet
  facet normal 0.660189 -0.751100 0.000000
    outer loop
      vertex 24.4481 7.7000 0.0000
      vertex 24.7894 8.0000 0.0000
      vertex 24.7894 8.0000 3.0000
    endloop
  endfacet
  facet normal 0.660189 -0.751100 0.000000
    outer loop
      vertex 24.4481 7.7000 0.0000
      vertex 24.7894 8.0000 3.0000
      vertex 24.4481 7.7000 3.0000
    endloop
  endfacet
  facet normal 0.733790 -0.679377 0.000000
    outer loop
      vertex 24.7894 8.0000 0.0000
      vertex 25.0671 8.3000 0.0000
      vertex 25.0671 8.3000 3.0000
    endloop
  endfacet
  facet normal 0.733790 -0.679377 0.000000
    outer loop
      vertex 24.7894 8.0000 0.0000
      vertex 25.0671 8.3000 3.0000
      vertex 24.7894 8.0000 3.0000
    endloop
  endfacet
  facet normal 0.794122 -0.607758 0.000000
    outer loop
      vertex 25.0671 8.3000 0.0000
      vertex 25.2967 8.6000 0.0000
      vertex 25.2967 8.6000 3.0000
    endloop
  endfacet
  facet normal 0.794122 -0.607758 0.000000
    outer loop
      vertex 25.0671 8.3000 0.0000
      vertex 25.2967 8.6000 3.0000
      vertex 25.0671 8.3000 3.0000
    endloop
  endfacet
  facet normal 0.844094 -0.536194 0.000000
    outer loop
      vertex 25.2967 8.6000 0.0000
      vertex 25.4873 8.9000 0.0000
      vertex 25.4873 8.9000 3.0000
    endloop
  endfacet
  facet normal 0.844094 -0.536194 0.000000
    outer loop
      vertex 25.2967 8.6000 0.0000
      vertex 25.4873 8.9000 3.0000
      vertex 25.2967 8.6000 3.0000
    endloop
  endfacet
  facet normal 0.885487 -0.464664 0.000000
    outer loop
      vertex 25.4873 8.9000 0.0000
      vertex 25.6447 9.2000 0.0000
      vertex 25.6447 9.2000 3.0000
    endloop
  endfacet
  facet normal 0.885487 -0.464664 0.000000
    outer loop
      vertex 25.4873 8.9000 0.0000
      vertex 25.6447 9.2000 3.0000
      vertex 25.4873 8.9000 3.0000
    endloop
  endfacet
  facet normal 0.919473 -0.393154 0.000000
    outer loop
      vertex 25.6447 9.2000 0.0000
      vertex 25.7730 9.5000 0.0000
      vertex 25.7730 9.5000 3.0000
    endloop
  endfacet
  facet normal 0.919473 -0.393154 0.000000
    outer loop
      vertex 25.6447 9.2000 0.0000
      vertex 25.7730 9.5000 3.0000
      vertex 25.6447 9.2000 3.0000
    endloop
  endfacet
  facet normal 0.946856 -0.321657 0.000000
    outer loop
      vertex 25.7730 9.5000 0.0000
      vertex 25.8749 9.8000 0.0000
      vertex 25.8749 9.8000 3.0000
    endloop
  endfacet
  facet normal 0.946856 -0.321657 0.000000
    outer loop
      vertex 25.7730 9.5000 0.0000
      vertex 25.8749 9.8000 3.0000
      vertex 25.7730 9.5000 3.0000
    endloop
  endfacet
  facet normal 0.968202 -0.250170 0.000000
    outer loop
      vertex 25.8749 9.8000 0.0000
      vertex 25.9524 10.1000 0.0000
      vertex 25.9524 10.1000 3.0000
    endloop
  endfacet
  facet normal 0.968202 -0.250170 0.000000
    outer loop
      vertex 25.8749 9.8000 0.0000
      vertex 25.9524 10.1000 3.0000
      vertex 25.8749 9.8000 3.0000
    endloop
  endfacet
  facet normal 0.983906 -0.178689 0.000000
    outer loop
      vertex 25.9524 10.1000 0.0000
      vertex 26.0069 10.4000 0.0000
      vertex 26.0069 10.4000 3.0000
    endloop
  endfacet
  facet normal 0.983906 -0.178689 0.000000
    outer loop
      vertex 25.9524 10.1000 0.0000
      vertex 26.0069 10.4000 3.0000
      vertex 25.9524 10.1000 3.0000
    endloop
  endfacet
  facet normal 0.994236 -0.107212 0.000000
    outer loop
      vertex 26.0069 10.4000 0.0000
      vertex 26.0393 10.7000 0.0000
      vertex 26.0393 10.7000 3.0000
    endloop
  endfacet
  facet normal 0.994236 -0.107212 0.000000
    outer loop
      vertex 26.0069 10.4000 0.0000
      vertex 26.0393 10.7000 3.0000
      vertex 26.0069 10.4000 3.0000
    endloop
  endfacet
  facet normal 0.999361 -0.035737 0.000000
    outer loop
      vertex 26.0393 10.7000 0.0000
      vertex 26.0500 11.0000 0.0000
      vertex 26.0500 11.0000 3.0000
    endloop
  endfacet
  facet normal 0.999361 -0.035737 0.000000
    outer loop
      vertex 26.0393 10.7000 0.0000
      vertex 26.0500 11.0000 3.0000
      vertex 26.0393 10.7000 3.0000
    endloop
  endfacet
  facet normal 0.999361 0.035737 0.000000
    outer loop
      vertex 26.0500 11.0000 0.0000
      vertex 26.0393 11.3000 0.0000
      vertex 26.0393 11.3000 3.0000
    endloop
  endfacet
  facet normal 0.999361 0.035737 -0.000000
    outer loop
      vertex 26.0500 11.0000 0.0000
      vertex 26.0393 11.3000 3.0000
      vertex 26.0500 11.0000 3.0000
    endloop
  endfacet
  facet normal 0.994236 0.107212 0.000000
    outer loop
      vertex 26.0393 11.3000 0.0000
      vertex 26.0069 11.6000 0.0000
      vertex 26.0069 11.6000 3.0000
    endloop
  endfacet
  facet normal 0.994236 0.107212 -0.000000
    outer loop
      vertex 26.0393 11.3000 0.0000
      vertex 26.0069 11.6000 3.0000
      vertex 26.0393 11.3000 3.0000
    endloop
  endfacet
  facet normal 0.983906 0.178689 0.000000
    outer loop
      vertex 26.0069 11.6000 0.0000
      vertex 25.9524 11.9000 0.0000
      vertex 25.9524 11.9000 3.0000
    endloop
  endfacet
  facet normal 0.983906 0.178689 -0.000000
    outer loop
      vertex 26.0069 11.6000 0.0000
      vertex 25.9524 11.9000 3.0000
      vertex 26.0069 11.6000 3.0000
    endloop
  endfacet
  facet normal 0.968202 0.250170 0.000000
    outer loop
      vertex 25.9524 11.9000 0.0000
      vertex 25.8749 12.2000 0.0000
      vertex 25.8749 12.2000 3.0000
    endloop
  endfacet
  facet normal 0.968202 0.250170 -0.000000
    outer loop
      vertex 25.9524 11.9000 0.0000
      vertex 25.8749 12.2000 3.0000
      vertex 25.9524 11.9000 3.0000
    endloop
  endfacet
  facet normal 0.946856 0.321657 0.000000
    outer loop
      vertex 25.8749 12.2000 0.0000
      vertex 25.7730 12.5000 0.0000
      vertex 25.7730 12.5000 3.0000
    endloop
  endfacet
  facet normal 0.946856 0.321657 -0.000000
    outer loop
      vertex 25.8749 12.2000 0.0000
      vertex 25.7730 12.5000 3.0000
      vertex 25.8749 12.2000 3.0000
    endloop
  endfacet
  facet normal 0.919473 0.393154 0.000000
    outer loop
      vertex 25.7730 12.5000 0.0000
      vertex 25.6447 12.8000 0.0000
      vertex 25.6447 12.8000 3.0000
    endloop
  endfacet
  facet normal 0.919473 0.393154 -0.000000
    outer loop
      vertex 25.7730 12.5000 0.0000
      vertex 25.6447 12.8000 3.0000
      vertex 25.7730 12.5000 3.0000
    endloop
  endfacet
  facet normal 0.885487 0.464664 0.000000
    outer loop
      vertex 25.6447 12.8000 0.0000
      vertex 25.4873 13.1000 0.0000
      vertex 25.4873 13.1000 3.0000
    endloop
  endfacet
  facet normal 0.885487 0.464664 -0.000000
    outer loop
      vertex 25.6447 12.8000 0.0000
      vertex 25.4873 13.1000 3.0000
      vertex 25.6447 12.8000 3.0000
    endloop
  endfacet
  facet normal 0.844094 0.536194 0.000000
    outer loop
      vertex 25.4873 13.1000 0.0000
      vertex 25.2967 13.4000 0.0000
      vertex 25.2967 13.4000 3.0000
    endloop
  endfacet
  facet normal 0.844094 0.536194 -0.000000
    outer loop
      vertex 25.4873 13.1000 0.0000
      vertex 25.2967 13.4000 3.0000
      vertex 25.4873 13.1000 3.0000
    endloop
  endfacet
  facet normal 0.794122 0.607758 0.000000
    outer loop
      vertex 25.2967 13.4000 0.0000
      vertex 25.0671 13.7000 0.0000
      vertex 25.0671 13.7000 3.0000
    endloop
  endfacet
  facet normal 0.794122 0.607758 -0.000000
    outer loop
      vertex 25.2967 13.4000 0.0000
      vertex 25.0671 13.7000 3.0000
      vertex 25.2967 13.4000 3.0000
    endloop
  endfacet
  facet normal 0.733790 0.679377 0.000000
    outer loop
      vertex 25.0671 13.7000 0.0000
      vertex 24.7894 14.0000 0.0000
      vertex 24.7894 14.0000 3.0000
    endloop
  endfacet
  facet normal 0.733790 0.679377 -0.000000
    outer loop
      vertex 25.0671 13.7000 0.0000
      vertex 24.7894 14.0000 3.0000
      vertex 25.0671 13.7000 3.0000
    endloop
  endfacet
  facet normal 0.660189 0.751100 0.000000
    outer loop
      vertex 24.7894 14.0000 0.0000
      vertex 24.4481 14.3000 0.0000
      vertex 24.4481 14.3000 3.0000
    endloop
  endfacet
  facet normal 0.660189 0.751100 -0.000000
    outer loop
      vertex 24.7894 14.0000 0.0000
      vertex 24.4481 14.3000 3.0000
      vertex 24.7894 14.0000 3.0000
    endloop
  endfacet
  facet normal 0.567958 0.823057 0.000000
    outer loop
      vertex 24.4481 14.3000 0.0000
      vertex 24.0133 14.6000 0.0000
      vertex 24.0133 14.6000 3.0000
    endloop
  endfacet
  facet normal 0.567958 0.823057 -0.000000
    outer loop
      vertex 24.4481 14.3000 0.0000
      vertex 24.0133 14.6000 3.0000
      vertex 24.4481 14.3000 3.0000
    endloop
  endfacet
  facet normal 0.444553 0.895752 0.000000
    outer loop
      vertex 24.0133 14.6000 0.0000
      vertex 23.4088 14.9000 0.0000
      vertex 23.4088 14.9000 3.0000
    endloop
  endfacet
  facet normal 0.444553 0.895752 -0.000000
    outer loop
      vertex 24.0133 14.6000 0.0000
      vertex 23.4088 14.9000 3.0000
      vertex 24.0133 14.6000 3.0000
    endloop
  endfacet
  facet normal 0.188982 0.981981 0.000000
    outer loop
      vertex 23.4088 14.9000 0.0000
      vertex 21.8500 15.2000 0.0000
      vertex 21.8500 15.2000 3.0000
    endloop
  endfacet
  facet normal 0.188982 0.981981 -0.000000
    outer loop
      vertex 23.4088 14.9000 0.0000
      vertex 21.8500 15.2000 3.0000
      vertex 23.4088 14.9000 3.0000
    endloop
  endfacet
  facet normal 1.000000 0.000000 0.000000
    outer loop
      vertex 21.8500 15.2000 0.0000
      vertex 21.8500 21.8500 0.0000
      vertex 21.8500 21.8500 3.0000
    endloop
  endfacet
  facet normal 1.000000 0.000000 0.000000
    outer loop
      vertex 21.8500 15.2000 0.0000
      vertex 21.8500 21.8500 3.0000
      vertex 21.8500 15.2000 3.0000
    endloop
  endfacet
  facet normal 0.000000 1.000000 0.000000
    outer loop
      vertex 21.8500 21.8500 0.0000
      vertex 0.1500 21.8500 0.0000
      vertex 0.1500 21.8500 3.0000
    endloop
  endfacet
  facet normal 0.000000 1.000000 -0.000000
    outer loop
      vertex 21.8500 21.8500 0.0000
      vertex 0.1500 21.8500 3.0000
      vertex 21.8500 21.8500 3.0000
    endloop
  endfacet
  facet normal -1.000000 0.000000 0.000000
    outer loop
      vertex 0.1500 21.8500 0.0000
      vertex 0.1500 0.1500 0.0000
      vertex 0.1500 0.1500 3.0000
    endloop
  endfacet
  facet normal -1.000000 0.000000 0.000000
    outer loop
      vertex 0.1500 21.8500 0.0000
      vertex 0.1500 0.1500 3.0000
      vertex 0.1500 21.8500 3.0000
    endloop
  endfacet
  facet normal 0.000000 0.000000 1.000000
    outer loop
      vertex 25.4877 11.0000 3.0000
      vertex 27.1500 0.1500 3.0000
      vertex 48.8500 0.1500 3.0000
    endloop
  endfacet
  facet normal 0.000000 0.000000 -1.000000
    outer loop
      vertex 48.8500 0.1500 0.0000
      vertex 27.1500 0.1500 0.0000
      vertex 25.4877 11.0000 0.0000
    endloop
  endfacet
  facet normal -0.000000 0.000000 1.000000
    outer loop
      vertex 25.4877 11.0000 3.0000
      vertex 48.8500 0.1500 3.0000
      vertex 48.8500 21.8500 3.0000
    endloop
  endfacet
  facet normal 0.000000 -0.000000 -1.000000
    outer loop
      vertex 48.8500 21.8500 0.0000
      vertex 48.8500 0.1500 0.0000
      vertex 25.4877 11.0000 0.0000
    endloop
  endfacet
  facet normal 0.000000 0.000000 1.000000
    outer loop
      vertex 25.4877 11.0000 3.0000
      vertex 48.8500 21.8500 3.0000
      vertex 27.1500 21.8500 3.0000
    endloop
  endfacet
  facet normal 0.000000 -0.000000 -1.000000
    outer loop
      vertex 27.1500 21.8500 0.0000
      vertex 48.8500 21.8500 0.0000
      vertex 25.4877 11.0000 0.0000
    endloop
  endfacet
  facet normal 0.000000 0.000000 -1.000000
    outer loop
      vertex 25.4877 11.0000 3.0000
      vertex 27.1500 21.8500 3.0000
      vertex 27.1500 6.5000 3.0000
    endloop
  endfacet
  facet normal 0.000000 -0.000000 1.000000
    outer loop
      vertex 27.1500 6.5000 0.0000
      vertex 27.1500 21.8500 0.0000
      vertex 25.4877 11.0000 0.0000
    endloop
  endfacet
  facet normal 0.000000 -0.000000 -1.000000
    outer loop
      vertex 25.4877 11.0000 3.0000
      vertex 27.1500 6.5000 3.0000
      vertex 25.4798 6.8214 3.0000
    endloop
  endfacet
  facet normal -0.000000 0.000000 1.000000
    outer loop
      vertex 25.4798 6.8214 0.0000
      vertex 27.1500 6.5000 0.0000
      vertex 25.4877 11.0000 0.0000
    endloop
  endfacet
  facet normal 0.000000 0.000000 -1.000000
    outer loop
      vertex 25.4877 11.0000 3.0000
      vertex 25.4798 6.8214 3.0000
      vertex 24.8321 7.1429 3.0000
    endloop
  endfacet
  facet normal -0.000000 0.000000 1.000000
    outer loop
      vertex 24.8321 7.1429 0.0000
      vertex 25.4798 6.8214 0.0000
      vertex 25.4877 11.0000 0.0000
    endloop
  endfacet
  facet normal 0.000000 0.000000 -1.000000
    outer loop
      vertex 25.4877 11.0000 3.0000
      vertex 24.8321 7.1429 3.0000
      vertex 24.3663 7.4643 3.0000
    endloop
  endfacet
  facet normal -0.000000 0.000000 1.000000
    outer loop
      vertex 24.3663 7.4643 0.0000
      vertex 24.8321 7.1429 0.0000
      vertex 25.4877 11.0000 0.0000
    endloop
  endfacet
  facet normal 0.000000 0.000000 -1.000000
    outer loop
      vertex 25.4877 11.0000 3.0000
      vertex 24.3663 7.4643 3.0000
      vertex 24.0007 7.7857 3.0000
    endloop
  endfacet
  facet normal -0.000000 0.000000 1.000000
    outer loop
      vertex 24.0007 7.7857 0.0000
      vertex 24.3663 7.4643 0.0000
      vertex 25.4877 11.0000 0.0000
    endloop
  endfacet
  facet normal 0.000000 0.000000 -1.000000
    outer loop
      vertex 25.4877 11.0000 3.0000
      vertex 24.0007 7.7857 3.0000
      vertex 23.7031 8.1071 3.0000
    endloop
  endfacet
  facet normal -0.000000 0.000000 1.000000
    outer loop
      vertex 23.7031 8.1071 0.0000
      vertex 24.0007 7.7857 0.0000
      vertex 25.4877 11.0000 0.0000
    endloop
  endfacet
  facet normal 0.000000 0.000000 -1.000000
    outer loop
      vertex 25.4877 11.0000 3.0000
      vertex 23.7031 8.1071 3.0000
      vertex 23.4571 8.4286 3.0000
    endloop
  endfacet
  facet normal -0.000000 0.000000 1.000000
    outer loop
      vertex 23.4571 8.4286 0.0000
      vertex 23.7031 8.1071 0.0000
      vertex 25.4877 11.0000 0.0000
    endloop
  endfacet
  facet normal 0.000000 0.000000 -1.000000
    outer loop
      vertex 25.4877 11.0000 3.0000
      vertex 23.4571 8.4286 3.0000
      vertex 23.2529 8.7500 3.0000
    endloop
  endfacet
  facet normal -0.000000 0.000000 1.000000
    outer loop
      vertex 23.2529 8.7500 0.0000
      vertex 23.4571 8.4286 0.0000
      vertex 25.4877 11.0000 0.0000
    endloop
  endfacet
  facet normal 0.000000 0.000000 -1.000000
    outer loop
      vertex 25.4877 11.0000 3.0000
      vertex 23.2529 8.7500 3.0000
      vertex 23.0842 9.0714 3.0000
    endloop
  endfacet
  facet normal -0.000000 0.000000 1.000000
    outer loop
      vertex 23.0842 9.0714 0.0000
      vertex 23.2529 8.7500 0.0000
      vertex 25.4877 11.0000 0.0000
    endloop
  endfacet
  facet normal 0.000000 0.000000 -1.000000
    outer loop
      vertex 25.4877 11.0000 3.0000
      vertex 23.0842 9.0714 3.0000
      vertex 22.9468 9.3929 3.0000
    endloop
  endfacet
  facet normal -0.000000 0.000000 1.000000
    outer loop
      vertex 22.9468 9.3929 0.0000
      vertex 23.0842 9.0714 0.0000
      vertex 25.4877 11.0000 0.0000
    endloop
  endfacet
  facet normal 0.000000 0.000000 -1.000000
    outer loop
      vertex 25.4877 11.0000 3.0000
      vertex 22.9468 9.3929 3.0000
      vertex 22.8376 9.7143 3.0000
    endloop
  endfacet
  facet normal -0.000000 0.000000 1.000000
    outer loop
      vertex 22.8376 9.7143 0.0000
      vertex 22.9468 9.3929 0.0000
      vertex 25.4877 11.0000 0.0000
    endloop
  endfacet
  facet normal 0.000000 0.000000 -1.000000
    outer loop
      vertex 25.4877 11.0000 3.0000
      vertex 22.8376 9.7143 3.0000
      vertex 22.7545 10.0357 3.0000
    endloop
  endfacet
  facet normal -0.000000 0.000000 1.000000
    outer loop
      vertex 22.7545 10.0357 0.0000
      vertex 22.8376 9.7143 0.0000
      vertex 25.4877 11.0000 0.0000
    endloop
  endfacet
  facet normal 0.000000 0.000000 -1.000000
    outer loop
      vertex 25.4877 11.0000 3.0000
      vertex 22.7545 10.0357 3.0000
      vertex 22.6962 10.3571 3.0000
    endloop
  endfacet
  facet normal -0.000000 0.000000 1.000000
    outer loop
      vertex 22.6962 10.3571 0.0000
      vertex 22.7545 10.0357 0.0000
      vertex 25.4877 11.0000 0.0000
    endloop
  endfacet
  facet normal 0.000000 0.000000 -1.000000
    outer loop
      vertex 25.4877 11.0000 3.0000
      vertex 22.6962 10.3571 3.0000
      vertex 22.6615 10.6786 3.0000
    endloop
  endfacet
  facet normal -0.000000 0.000000 1.000000
    outer loop
      vertex 22.6615 10.6786 0.0000
      vertex 22.6962 10.3571 0.0000
      vertex 25.4877 11.0000 0.0000
    endloop
  endfacet
  facet normal -0.000000 0.000000 -1.000000
    outer loop
      vertex 25.4877 11.0000 3.0000
      vertex 22.6615 10.6786 3.0000
      vertex 22.6500 11.0000 3.0000
    endloop
  endfacet
  facet normal -0.000000 0.000000 1.000000
    outer loop
      vertex 22.6500 11.0000 0.0000
      vertex 22.6615 10.6786 0.0000
      vertex 25.4877 11.0000 0.0000
    endloop
  endfacet
  facet normal 0.000000 0.000000 -1.000000
    outer loop
      vertex 25.4877 11.0000 3.0000
      vertex 22.6500 11.0000 3.0000
      vertex 22.6615 11.3214 3.0000
    endloop
  endfacet
  facet normal 0.000000 0.000000 1.000000
    outer loop
      vertex 22.6615 11.3214 0.0000
      vertex 22.6500 11.0000 0.0000
      vertex 25.4877 11.0000 0.0000
    endloop
  endfacet
  facet normal 0.000000 0.000000 -1.000000
    outer loop
      vertex 25.4877 11.0000 3.0000
      vertex 22.6615 11.3214 3.0000
      vertex 22.6962 11.6429 3.0000
    endloop
  endfacet
  facet normal 0.000000 0.000000 1.000000
    outer loop
      vertex 22.6962 11.6429 0.0000
      vertex 22.6615 11.3214 0.0000
      vertex 25.4877 11.0000 0.0000
    endloop
  endfacet
  facet normal 0.000000 0.000000 -1.000000
    outer loop
      vertex 25.4877 11.0000 3.0000
      vertex 22.6962 11.6429 3.0000
      vertex 22.7545 11.9643 3.0000
    endloop
  endfacet
  facet normal 0.000000 0.000000 1.000000
    outer loop
      vertex 22.7545 11.9643 0.0000
      vertex 22.6962 11.6429 0.0000
      vertex 25.4877 11.0000 0.0000
    endloop
  endfacet
  facet normal 0.000000 0.000000 -1.000000
    outer loop
      vertex 25.4877 11.0000 3.0000
      vertex 22.7545 11.9643 3.0000
      vertex 22.8376 12.2857 3.0000
    endloop
  endfacet
  facet normal 0.000000 0.000000 1.000000
    outer loop
      vertex 22.8376 12.2857 0.0000
      vertex 22.7545 11.9643 0.0000
      vertex 25.4877 11.0000 0.0000
    endloop
  endfacet
  facet normal 0.000000 0.000000 -1.000000
    outer loop
      vertex 25.4877 11.0000 3.0000
      vertex 22.8376 12.2857 3.0000
      vertex 22.9468 12.6071 3.0000
    endloop
  endfacet
  facet normal 0.000000 0.000000 1.000000
    outer loop
      vertex 22.9468 12.6071 0.0000
      vertex 22.8376 12.2857 0.0000
      vertex 25.4877 11.0000 0.0000
    endloop
  endfacet
  facet normal 0.000000 0.000000 -1.000000
    outer loop
      vertex 25.4877 11.0000 3.0000
      vertex 22.9468 12.6071 3.0000
      vertex 23.0842 12.9286 3.0000
    endloop
  endfacet
  facet normal 0.000000 0.000000 1.000000
    outer loop
      vertex 23.0842 12.9286 0.0000
      vertex 22.9468 12.6071 0.0000
      vertex 25.4877 11.0000 0.0000
    endloop
  endfacet
  facet normal 0.000000 0.000000 -1.000000
    outer loop
      vertex 25.4877 11.0000 3.0000
      vertex 23.0842 12.9286 3.0000
      vertex 23.2529 13.2500 3.0000
    endloop
  endfacet
  facet normal 0.000000 0.000000 1.000000
    outer loop
      vertex 23.2529 13.2500 0.0000
      vertex 23.0842 12.9286 0.0000
      vertex 25.4877 11.0000 0.0000
    endloop
  endfacet
  facet normal 0.000000 0.000000 -1.000000
    outer loop
      vertex 25.4877 11.0000 3.0000
      vertex 23.2529 13.2500 3.0000
      vertex 23.4571 13.5714 3.0000
    endloop
  endfacet
  facet normal 0.000000 0.000000 1.000000
    outer loop
      vertex 23.4571 13.5714 0.0000
      vertex 23.2529 13.2500 0.0000
      vertex 25.4877 11.0000 0.0000
    endloop
  endfacet
  facet normal 0.000000 0.000000 -1.000000
    outer loop
      vertex 25.4877 11.0000 3.0000
      vertex 23.4571 13.5714 3.0000
      vertex 23.7031 13.8929 3.0000
    endloop
  endfacet
  facet normal 0.000000 0.000000 1.000000
    outer loop
      vertex 23.7031 13.8929 0.0000
      vertex 23.4571 13.5714 0.0000
      vertex 25.4877 11.0000 0.0000
    endloop
  endfacet
  facet normal 0.000000 0.000000 -1.000000
    outer loop
      vertex 25.4877 11.0000 3.0000
      vertex 23.7031 13.8929 3.0000
      vertex 24.0007 14.2143 3.0000
    endloop
  endfacet
  facet normal 0.000000 0.000000 1.000000
    outer loop
      vertex 24.0007 14.2143 0.0000
      vertex 23.7031 13.8929 0.0000
      vertex 25.4877 11.0000 0.0000
    endloop
  endfacet
  facet normal 0.000000 0.000000 -1.000000
    outer loop
      vertex 25.4877 11.0000 3.0000
      vertex 24.0007 14.2143 3.0000
      vertex 24.3663 14.5357 3.0000
    endloop
  endfacet
  facet normal 0.000000 0.000000 1.000000
    outer loop
      vertex 24.3663 14.5357 0.0000
      vertex 24.0007 14.2143 0.0000
      vertex 25.4877 11.0000 0.0000
    endloop
  endfacet
  facet normal 0.000000 0.000000 -1.000000
    outer loop
      vertex 25.4877 11.0000 3.0000
      vertex 24.3663 14.5357 3.0000
      vertex 24.8321 14.8571 3.0000
    endloop
  endfacet
  facet normal 0.000000 0.000000 1.000000
    outer loop
      vertex 24.8321 14.8571 0.0000
      vertex 24.3663 14.5357 0.0000
      vertex 25.4877 11.0000 0.0000
    endloop
  endfacet
  facet normal 0.000000 0.000000 -1.000000
    outer loop
      vertex 25.4877 11.0000 3.0000
      vertex 24.8321 14.8571 3.0000
      vertex 25.4798 15.1786 3.0000
    endloop
  endfacet
  facet normal 0.000000 0.000000 1.000000
    outer loop
      vertex 25.4798 15.1786 0.0000
      vertex 24.8321 14.8571 0.0000
      vertex 25.4877 11.0000 0.0000
    endloop
  endfacet
  facet normal 0.000000 0.000000 -1.000000
    outer loop
      vertex 25.4877 11.0000 3.0000
      vertex 25.4798 15.1786 3.0000
      vertex 27.1500 15.5000 3.0000
    endloop
  endfacet
  facet normal 0.000000 0.000000 1.000000
    outer loop
      vertex 27.1500 15.5000 0.0000
      vertex 25.4798 15.1786 0.0000
      vertex 25.4877 11.0000 0.0000
    endloop
  endfacet
  facet normal 0.000000 0.000000 -1.000000
    outer loop
      vertex 25.4877 11.0000 3.0000
      vertex 27.1500 15.5000 3.0000
      vertex 27.1500 0.1500 3.0000
    endloop
  endfacet
  facet normal 0.000000 -0.000000 1.000000
    outer loop
      vertex 27.1500 0.1500 0.0000
      vertex 27.1500 15.5000 0.0000
      vertex 25.4877 11.0000 0.0000
    endloop
  endfacet
  facet normal 0.000000 -1.000000 0.000000
    outer loop
      vertex 27.1500 0.1500 0.0000
      vertex 48.8500 0.1500 0.0000
      vertex 48.8500 0.1500 3.0000
    endloop
  endfacet
  facet normal 0.000000 -1.000000 0.000000
    outer loop
      vertex 27.1500 0.1500 0.0000
      vertex 48.8500 0.1500 3.0000
      vertex 27.1500 0.1500 3.0000
    endloop
  endfacet
  facet normal 1.000000 0.000000 0.000000
    outer loop
      vertex 48.8500 0.1500 0.0000
      vertex 48.8500 21.8500 0.0000
      vertex 48.8500 21.8500 3.0000
    endloop
  endfacet
  facet normal 1.000000 0.000000 0.000000
    outer loop
      vertex 48.8500 0.1500 0.0000
      vertex 48.8500 21.8500 3.0000
      vertex 48.8500 0.1500 3.0000
    endloop
  endfacet
  facet normal 0.000000 1.000000 0.000000
    outer loop
      vertex 48.8500 21.8500 0.0000
      vertex 27.1500 21.8500 0.0000
      vertex 27.1500 21.8500 3.0000
    endloop
  endfacet
  facet normal 0.000000 1.000000 -0.000000
    outer loop
      vertex 48.8500 21.8500 0.0000
      vertex 27.1500 21.8500 3.0000
      vertex 48.8500 21.8500 3.0000
    endloop
  endfacet
  facet normal -1.000000 0.000000 0.000000
    outer loop
      vertex 27.1500 21.8500 0.0000
      vertex 27.1500 6.5000 0.0000
      vertex 27.1500 6.5000 3.0000
    endloop
  endfacet
  facet normal -1.000000 0.000000 0.000000
    outer loop
      vertex 27.1500 21.8500 0.0000
      vertex 27.1500 6.5000 3.0000
      vertex 27.1500 21.8500 3.0000
    endloop
  endfacet
  facet normal 0.188982 0.981981 0.000000
    outer loop
      vertex 27.1500 6.5000 0.0000
      vertex 25.4798 6.8214 0.0000
      vertex 25.4798 6.8214 3.0000
    endloop
  endfacet
  facet normal 0.188982 0.981981 -0.000000
    outer loop
      vertex 27.1500 6.5000 0.0000
      vertex 25.4798 6.8214 3.0000
      vertex 27.1500 6.5000 3.0000
    endloop
  endfacet
  facet normal 0.444553 0.895752 0.000000
    outer loop
      vertex 25.4798 6.8214 0.0000
      vertex 24.8321 7.1429 0.0000
      vertex 24.8321 7.1429 3.0000
    endloop
  endfacet
  facet normal 0.444553 0.895752 -0.000000
    outer loop
      vertex 25.4798 6.8214 0.0000
      vertex 24.8321 7.1429 3.0000
      vertex 25.4798 6.8214 3.0000
    endloop
  endfacet
  facet normal 0.567958 0.823057 0.000000
    outer loop
      vertex 24.8321 7.1429 0.0000
      vertex 24.3663 7.4643 0.0000
      vertex 24.3663 7.4643 3.0000
    endloop
  endfacet
  facet normal 0.567958 0.823057 -0.000000
    outer loop
      vertex 24.8321 7.1429 0.0000
      vertex 24.3663 7.4643 3.0000
      vertex 24.8321 7.1429 3.0000
    endloop
  endfacet
  facet normal 0.660189 0.751100 0.000000
    outer loop
      vertex 24.3663 7.4643 0.0000
      vertex 24.0007 7.7857 0.0000
      vertex 24.0007 7.7857 3.0000
    endloop
  endfacet
  facet normal 0.660189 0.751100 -0.000000
    outer loop
      vertex 24.3663 7.4643 0.0000
      vertex 24.0007 7.7857 3.0000
      vertex 24.3663 7.4643 3.0000
    endloop
  endfacet
  facet normal 0.733790 0.679377 0.000000
    outer loop
      vertex 24.0007 7.7857 0.0000
      vertex 23.7031 8.1071 0.0000
      vertex 23.7031 8.1071 3.0000
    endloop
  endfacet
  facet normal 0.733790 0.679377 -0.000000
    outer loop
      vertex 24.0007 7.7857 0.0000
      vertex 23.7031 8.1071 3.0000
      vertex 24.0007 7.7857 3.0000
    endloop
  endfacet
  facet normal 0.794122 0.607758 0.000000
    outer loop
      vertex 23.7031 8.1071 0.0000
      vertex 23.4571 8.4286 0.0000
      vertex 23.4571 8.4286 3.0000
    endloop
  endfacet
  facet normal 0.794122 0.607758 -0.000000
    outer loop
      vertex 23.7031 8.1071 0.0000
      vertex 23.4571 8.4286 3.0000
      vertex 23.7031 8.1071 3.0000
    endloop
  endfacet
  facet normal 0.844094 0.536194 0.000000
    outer loop
      vertex 23.4571 8.4286 0.0000
      vertex 23.2529 8.7500 0.0000
      vertex 23.2529 8.7500 3.0000
    endloop
  endfacet
  facet normal 0.844094 0.536194 -0.000000
    outer loop
      vertex 23.4571 8.4286 0.0000
      vertex 23.2529 8.7500 3.0000
      vertex 23.4571 8.4286 3.0000
    endloop
  endfacet
  facet normal 0.885487 0.464664 0.000000
    outer loop
      vertex 23.2529 8.7500 0.0000
      vertex 23.0842 9.0714 0.0000
      vertex 23.0842 9.0714 3.0000
    endloop
  endfacet
  facet normal 0.885487 0.464664 -0.000000
    outer loop
      vertex 23.2529 8.7500 0.0000
      vertex 23.0842 9.0714 3.0000
      vertex 23.2529 8.7500 3.0000
    endloop
  endfacet
  facet normal 0.919473 0.393154 0.000000
    outer loop
      vertex 23.0842 9.0714 0.0000
      vertex 22.9468 9.3929 0.0000
      vertex 22.9468 9.3929 3.0000
    endloop
  endfacet
  facet normal 0.919473 0.393154 -0.000000
    outer loop
      vertex 23.0842 9.0714 0.0000
      vertex 22.9468 9.3929 3.0000
      vertex 23.0842 9.0714 3.0000
    endloop
  endfacet
  facet normal 0.946856 0.321657 0.000000
    outer loop
      vertex 22.9468 9.3929 0.0000
      vertex 22.8376 9.7143 0.0000
      vertex 22.8376 9.7143 3.0000
    endloop
  endfacet
  facet normal 0.946856 0.321657 -0.000000
    outer loop
      vertex 22.9468 9.3929 0.0000
      vertex 22.8376 9.7143 3.0000
      vertex 22.9468 9.3929 3.0000
    endloop
  endfacet
  facet normal 0.968202 0.250170 0.000000
    outer loop
      vertex 22.8376 9.7143 0.0000
      vertex 22.7545 10.0357 0.0000
      vertex 22.7545 10.0357 3.0000
    endloop
  endfacet
  facet normal 0.968202 0.250170 -0.000000
    outer loop
      vertex 22.8376 9.7143 0.0000
      vertex 22.7545 10.0357 3.0000
      vertex 22.8376 9.7143 3.0000
    endloop
  endfacet
  facet normal 0.983906 0.178689 0.000000
    outer loop
      vertex 22.7545 10.0357 0.0000
      vertex 22.6962 10.3571 0.0000
      vertex 22.6962 10.3571 3.0000
    endloop
  endfacet
  facet normal 0.983906 0.178689 -0.000000
    outer loop
      vertex 22.7545 10.0357 0.0000
      vertex 22.6962 10.3571 3.0000
      vertex 22.7545 10.0357 3.0000
    endloop
  endfacet
  facet normal 0.994236 0.107212 0.000000
    outer loop
      vertex 22.6962 10.3571 0.0000
      vertex 22.6615 10.6786 0.0000
      vertex 22.6615 10.6786 3.0000
    endloop
  endfacet
  facet normal 0.994236 0.107212 -0.000000
    outer loop
      vertex 22.6962 10.3571 0.0000
      vertex 22.6615 10.6786 3.0000
      vertex 22.6962 10.3571 3.0000
    endloop
  endfacet
  facet normal 0.999361 0.035737 0.000000
    outer loop
      vertex 22.6615 10.6786 0.0000
      vertex 22.6500 11.0000 0.0000
      vertex 22.6500 11.0000 3.0000
    endloop
  endfacet
  facet normal 0.999361 0.035737 -0.000000
    outer loop
      vertex 22.6615 10.6786 0.0000
      vertex 22.6500 11.0000 3.0000
      vertex 22.6615 10.6786 3.0000
    endloop
  endfacet
  facet normal 0.999361 -0.035737 0.000000
    outer loop
      vertex 22.6500 11.0000 0.0000
      vertex 22.6615 11.3214 0.0000
      vertex 22.6615 11.3214 3.0000
    endloop
  endfacet
  facet normal 0.999361 -0.035737 0.000000
    outer loop
      vertex 22.6500 11.0000 0.0000
      vertex 22.6615 11.3214 3.0000
      vertex 22.6500 11.0000 3.0000
    endloop
  endfacet
  facet normal 0.994236 -0.107212 0.000000
    outer loop
      vertex 22.6615 11.3214 0.0000
      vertex 22.6962 11.6429 0.0000
      vertex 22.6962 11.6429 3.0000
    endloop
  endfacet
  facet normal 0.994236 -0.107212 0.000000
    outer loop
      vertex 22.6615 11.3214 0.0000
      vertex 22.6962 11.6429 3.0000
      vertex 22.6615 11.3214 3.0000
    endloop
  endfacet
  facet normal 0.983906 -0.178689 0.000000
    outer loop
      vertex 22.6962 11.6429 0.0000
      vertex 22.7545 11.9643 0.0000
      vertex 22.7545 11.9643 3.0000
    endloop
  endfacet
  facet normal 0.983906 -0.178689 0.000000
    outer loop
      vertex 22.6962 11.6429 0.0000
      vertex 22.7545 11.9643 3.0000
      vertex 22.6962 11.6429 3.0000
    endloop
  endfacet
  facet normal 0.968202 -0.250170 0.000000
    outer loop
      vertex 22.7545 11.9643 0.0000
      vertex 22.8376 12.2857 0.0000
      vertex 22.8376 12.2857 3.0000
    endloop
  endfacet
  facet normal 0.968202 -0.250170 0.000000
    outer loop
      vertex 22.7545 11.9643 0.0000
      vertex 22.8376 12.2857 3.0000
      vertex 22.7545 11.9643 3.0000
    endloop
  endfacet
  facet normal 0.946856 -0.321657 0.000000
    outer loop
      vertex 22.8376 12.2857 0.0000
      vertex 22.9468 12.6071 0.0000
      vertex 22.9468 12.6071 3.0000
    endloop
  endfacet
  facet normal 0.946856 -0.321657 0.000000
    outer loop
      vertex 22.8376 12.2857 0.0000
      vertex 22.9468 12.6071 3.0000
      vertex 22.8376 12.2857 3.0000
    endloop
  endfacet
  facet normal 0.919473 -0.393154 0.000000
    outer loop
      vertex 22.9468 12.6071 0.0000
      vertex 23.0842 12.9286 0.0000
      vertex 23.0842 12.9286 3.0000
    endloop
  endfacet
  facet normal 0.919473 -0.393154 0.000000
    outer loop
      vertex 22.9468 12.6071 0.0000
      vertex 23.0842 12.9286 3.0000
      vertex 22.9468 12.6071 3.0000
    endloop
  endfacet
  facet normal 0.885487 -0.464664 0.000000
    outer loop
      vertex 23.0842 12.9286 0.0000
      vertex 23.2529 13.2500 0.0000
      vertex 23.2529 13.2500 3.0000
    endloop
  endfacet
  facet normal 0.885487 -0.464664 0.000000
    outer loop
      vertex 23.0842 12.9286 0.0000
      vertex 23.2529 13.2500 3.0000
      vertex 23.0842 12.9286 3.0000
    endloop
  endfacet
  facet normal 0.844094 -0.536194 0.000000
    outer loop
      vertex 23.2529 13.2500 0.0000
      vertex 23.4571 13.5714 0.0000
      vertex 23.4571 13.5714 3.0000
    endloop
  endfacet
  facet normal 0.844094 -0.536194 0.000000
    outer loop
      vertex 23.2529 13.2500 0.0000
      vertex 23.4571 13.5714 3.0000
      vertex 23.2529 13.2500 3.0000
    endloop
  endfacet
  facet normal 0.794122 -0.607758 0.000000
    outer loop
      vertex 23.4571 13.5714 0.0000
      vertex 23.7031 13.8929 0.0000
      vertex 23.7031 13.8929 3.0000
    endloop
  endfacet
  facet normal 0.794122 -0.607758 0.000000
    outer loop
      vertex 23.4571 13.5714 0.0000
      vertex 23.7031 13.8929 3.0000
      vertex 23.4571 13.5714 3.0000
    endloop
  endfacet
  facet normal 0.733790 -0.679377 0.000000
    outer loop
      vertex 23.7031 13.8929 0.0000
      vertex 24.0007 14.2143 0.0000
      vertex 24.0007 14.2143 3.0000
    endloop
  endfacet
  facet normal 0.733790 -0.679377 0.000000
    outer loop
      vertex 23.7031 13.8929 0.0000
      vertex 24.0007 14.2143 3.0000
      vertex 23.7031 13.8929 3.0000
    endloop
  endfacet
  facet normal 0.660189 -0.751100 0.000000
    outer loop
      vertex 24.0007 14.2143 0.0000
      vertex 24.3663 14.5357 0.0000
      vertex 24.3663 14.5357 3.0000
    endloop
  endfacet
  facet normal 0.660189 -0.751100 0.000000
    outer loop
      vertex 24.0007 14.2143 0.0000
      vertex 24.3663 14.5357 3.0000
      vertex 24.0007 14.2143 3.0000
    endloop
  endfacet
  facet normal 0.567958 -0.823057 0.000000
    outer loop
      vertex 24.3663 14.5357 0.0000
      vertex 24.8321 14.8571 0.0000
      vertex 24.8321 14.8571 3.0000
    endloop
  endfacet
  facet normal 0.567958 -0.823057 0.000000
    outer loop
      vertex 24.3663 14.5357 0.0000
      vertex 24.8321 14.8571 3.0000
      vertex 24.3663 14.5357 3.0000
    endloop
  endfacet
  facet normal 0.444553 -0.895752 0.000000
    outer loop
      vertex 24.8321 14.8571 0.0000
      vertex 25.4798 15.1786 0.0000
      vertex 25.4798 15.1786 3.0000
    endloop
  endfacet
  facet normal 0.444553 -0.895752 0.000000
    outer loop
      vertex 24.8321 14.8571 0.0000
      vertex 25.4798 15.1786 3.0000
      vertex 24.8321 14.8571 3.0000
    endloop
  endfacet
  facet normal 0.188982 -0.981981 0.000000
    outer loop
      vertex 25.4798 15.1786 0.0000
      vertex 27.1500 15.5000 0.0000
      vertex 27.1500 15.5000 3.0000
    endloop
  endfacet
  facet normal 0.188982 -0.981981 0.000000
    outer loop
      vertex 25.4798 15.1786 0.0000
      vertex 27.1500 15.5000 3.0000
      vertex 25.4798 15.1786 3.0000
    endloop
  endfacet
  facet normal -1.000000 0.000000 0.000000
    outer loop
      vertex 27.1500 15.5000 0.0000
      vertex 27.1500 0.1500 0.0000
      vertex 27.1500 0.1500 3.0000
    endloop
  endfacet
  facet normal -1.000000 0.000000 0.000000
    outer loop
      vertex 27.1500 15.5000 0.0000
      vertex 27.1500 0.1500 3.0000
      vertex 27.1500 15.5000 3.0000
    endloop
  endfacet
endsolid jigsaw-coupon-0p30mm
