solid project_opus_base
  facet normal 0.000000 0.000000 1.000000
    outer loop
      vertex 0.0000 0.0000 2.4000
      vertex 80.0000 0.0000 2.4000
      vertex 80.0000 50.0000 2.4000
    endloop
  endfacet
  facet normal 0.000000 0.000000 1.000000
    outer loop
      vertex 0.0000 0.0000 2.4000
      vertex 80.0000 50.0000 2.4000
      vertex 0.0000 50.0000 2.4000
    endloop
  endfacet
  facet normal 0.000000 0.000000 -1.000000
    outer loop
      vertex 0.0000 50.0000 0.0000
      vertex 80.0000 50.0000 0.0000
      vertex 80.0000 0.0000 0.0000
    endloop
  endfacet
  facet normal 0.000000 0.000000 -1.000000
    outer loop
      vertex 0.0000 50.0000 0.0000
      vertex 80.0000 0.0000 0.0000
      vertex 0.0000 0.0000 0.0000
    endloop
  endfacet
  facet normal 0.000000 -1.000000 0.000000
    outer loop
      vertex 0.0000 0.0000 0.0000
      vertex 80.0000 0.0000 0.0000
      vertex 80.0000 0.0000 2.4000
    endloop
  endfacet
  facet normal 0.000000 -1.000000 0.000000
    outer loop
      vertex 0.0000 0.0000 0.0000
      vertex 80.0000 0.0000 2.4000
      vertex 0.0000 0.0000 2.4000
    endloop
  endfacet
  facet normal 1.000000 0.000000 0.000000
    outer loop
      vertex 80.0000 0.0000 0.0000
      vertex 80.0000 50.0000 0.0000
      vertex 80.0000 50.0000 2.4000
    endloop
  endfacet
  facet normal 1.000000 0.000000 0.000000
    outer loop
      vertex 80.0000 0.0000 0.0000
      vertex 80.0000 50.0000 2.4000
      vertex 80.0000 0.0000 2.4000
    endloop
  endfacet
  facet normal 0.000000 1.000000 0.000000
    outer loop
      vertex 80.0000 50.0000 0.0000
      vertex 0.0000 50.0000 0.0000
      vertex 0.0000 50.0000 2.4000
    endloop
  endfacet
  facet normal 0.000000 1.000000 -0.000000
    outer loop
      vertex 80.0000 50.0000 0.0000
      vertex 0.0000 50.0000 2.4000
      vertex 80.0000 50.0000 2.4000
    endloop
  endfacet
  facet normal -1.000000 0.000000 0.000000
    outer loop
      vertex 0.0000 50.0000 0.0000
      vertex 0.0000 0.0000 0.0000
      vertex 0.0000 0.0000 2.4000
    endloop
  endfacet
  facet normal -1.000000 0.000000 0.000000
    outer loop
      vertex 0.0000 50.0000 0.0000
      vertex 0.0000 0.0000 2.4000
      vertex 0.0000 50.0000 2.4000
    endloop
  endfacet
endsolid project_opus_base
