solid pyjigsaw-0p30-piece-01
  facet normal -0.000000 0.000000 -1.000000
    outer loop
      vertex 2.9804 0.3255 0.0000
      vertex 0.4109 0.2849 0.0000
      vertex 0.4451 2.6298 0.0000
    endloop
  endfacet
  facet normal -0.000000 0.000000 -1.000000
    outer loop
      vertex 5.5384 0.3721 0.0000
      vertex 2.9804 0.3255 0.0000
      vertex 0.4451 2.6298 0.0000
    endloop
  endfacet
  facet normal -0.000000 0.000000 -1.000000
    outer loop
      vertex 8.0804 0.4240 0.0000
      vertex 5.5384 0.3721 0.0000
      vertex 0.4451 2.6298 0.0000
    endloop
  endfacet
  facet normal -0.000000 0.000000 -1.000000
    outer loop
      vertex 10.6011 0.4779 0.0000
      vertex 8.0804 0.4240 0.0000
      vertex 0.4451 2.6298 0.0000
    endloop
  endfacet
  facet normal -0.000000 0.000000 -1.000000
    outer loop
      vertex 13.0965 0.5263 0.0000
      vertex 10.6011 0.4779 0.0000
      vertex 0.4451 2.6298 0.0000
    endloop
  endfacet
  facet normal -0.000000 0.000000 -1.000000
    outer loop
      vertex 15.5685 0.5581 0.0000
      vertex 13.0965 0.5263 0.0000
      vertex 0.4451 2.6298 0.0000
    endloop
  endfacet
  facet normal -0.000000 0.000000 -1.000000
    outer loop
      vertex 18.0287 0.5628 0.0000
      vertex 15.5685 0.5581 0.0000
      vertex 0.4451 2.6298 0.0000
    endloop
  endfacet
  facet normal 0.000000 0.000000 -1.000000
    outer loop
      vertex 20.4952 0.5388 0.0000
      vertex 18.0287 0.5628 0.0000
      vertex 0.4451 2.6298 0.0000
    endloop
  endfacet
  facet normal 0.000000 0.000000 -1.000000
    outer loop
      vertex 22.9826 0.4943 0.0000
      vertex 20.4952 0.5388 0.0000
      vertex 0.4451 2.6298 0.0000
    endloop
  endfacet
  facet normal 0.000000 0.000000 -1.000000
    outer loop
      vertex 25.4955 0.4411 0.0000
      vertex 22.9826 0.4943 0.0000
      vertex 0.4451 2.6298 0.0000
    endloop
  endfacet
  facet normal -0.000000 -0.000000 -1.000000
    outer loop
      vertex 25.3862 0.7718 0.0000
      vertex 25.4955 0.4411 0.0000
      vertex 0.4451 2.6298 0.0000
    endloop
  endfacet
  facet normal -0.000000 -0.000000 -1.000000
    outer loop
      vertex 25.1051 1.6580 0.0000
      vertex 25.3862 0.7718 0.0000
      vertex 0.4451 2.6298 0.0000
    endloop
  endfacet
  facet normal 0.000000 -0.000000 -1.000000
    outer loop
      vertex 24.7217 2.9397 0.0000
      vertex 25.1051 1.6580 0.0000
      vertex 0.4451 2.6298 0.0000
    endloop
  endfacet
  facet normal 0.000000 -0.000000 -1.000000
    outer loop
      vertex 24.3048 4.4553 0.0000
      vertex 24.7217 2.9397 0.0000
      vertex 0.4451 2.6298 0.0000
    endloop
  endfacet
  facet normal 0.000000 -0.000000 -1.000000
    outer loop
      vertex 23.9242 6.0418 0.0000
      vertex 24.3048 4.4553 0.0000
      vertex 0.4451 2.6298 0.0000
    endloop
  endfacet
  facet normal 0.000000 -0.000000 -1.000000
    outer loop
      vertex 23.6537 7.5367 0.0000
      vertex 23.9242 6.0418 0.0000
      vertex 0.4451 2.6298 0.0000
    endloop
  endfacet
  facet normal 0.000000 -0.000000 -1.000000
    outer loop
      vertex 23.5731 8.7855 0.0000
      vertex 23.6537 7.5367 0.0000
      vertex 0.4451 2.6298 0.0000
    endloop
  endfacet
  facet normal 0.000000 0.000000 -1.000000
    outer loop
      vertex 23.7645 9.6495 0.0000
      vertex 23.5731 8.7855 0.0000
      vertex 0.4451 2.6298 0.0000
    endloop
  endfacet
  facet normal 0.000000 0.000000 -1.000000
    outer loop
      vertex 24.3014 9.9981 0.0000
      vertex 23.7645 9.6495 0.0000
      vertex 0.4451 2.6298 0.0000
    endloop
  endfacet
  facet normal -0.000000 0.000000 -1.000000
    outer loop
      vertex 27.1174 9.4776 0.0000
      vertex 26.3047 9.3092 0.0000
      vertex 25.2501 9.6877 0.0000
    endloop
  endfacet
  facet normal 0.000000 0.000000 -1.000000
    outer loop
      vertex 27.1174 9.4776 0.0000
      vertex 25.2501 9.6877 0.0000
      vertex 24.3014 9.9981 0.0000
    endloop
  endfacet
  facet normal 0.000000 0.000000 -1.000000
    outer loop
      vertex 27.6936 10.0596 0.0000
      vertex 27.1174 9.4776 0.0000
      vertex 24.3014 9.9981 0.0000
    endloop
  endfacet
  facet normal 0.000000 0.000000 -1.000000
    outer loop
      vertex 28.0374 10.9181 0.0000
      vertex 27.6936 10.0596 0.0000
      vertex 24.3014 9.9981 0.0000
    endloop
  endfacet
  facet normal 0.000000 0.000000 -1.000000
    outer loop
      vertex 28.1517 11.9146 0.0000
      vertex 28.0374 10.9181 0.0000
      vertex 24.3014 9.9981 0.0000
    endloop
  endfacet
  facet normal 0.000000 0.000000 -1.000000
    outer loop
      vertex 28.1517 11.9146 0.0000
      vertex 24.3014 9.9981 0.0000
      vertex 0.4451 2.6298 0.0000
    endloop
  endfacet
  facet normal 0.000000 -0.000000 -1.000000
    outer loop
      vertex 28.0374 12.9112 0.0000
      vertex 28.1517 11.9146 0.0000
      vertex 0.4451 2.6298 0.0000
    endloop
  endfacet
  facet normal 0.000000 -0.000000 -1.000000
    outer loop
      vertex 27.6936 13.7696 0.0000
      vertex 28.0374 12.9112 0.0000
      vertex 0.4451 2.6298 0.0000
    endloop
  endfacet
  facet normal 0.000000 -0.000000 -1.000000
    outer loop
      vertex 27.1174 14.3517 0.0000
      vertex 27.6936 13.7696 0.0000
      vertex 0.4451 2.6298 0.0000
    endloop
  endfacet
  facet normal 0.000000 -0.000000 -1.000000
    outer loop
      vertex 26.3047 14.5200 0.0000
      vertex 27.1174 14.3517 0.0000
      vertex 0.4451 2.6298 0.0000
    endloop
  endfacet
  facet normal 0.000000 -0.000000 -1.000000
    outer loop
      vertex 25.2501 14.1415 0.0000
      vertex 26.3047 14.5200 0.0000
      vertex 0.4451 2.6298 0.0000
    endloop
  endfacet
  facet normal 0.000000 -0.000000 -1.000000
    outer loop
      vertex 24.3014 13.8311 0.0000
      vertex 25.2501 14.1415 0.0000
      vertex 0.4451 2.6298 0.0000
    endloop
  endfacet
  facet normal 0.000000 -0.000000 -1.000000
    outer loop
      vertex 23.7645 14.1797 0.0000
      vertex 24.3014 13.8311 0.0000
      vertex 0.4451 2.6298 0.0000
    endloop
  endfacet
  facet normal 0.000000 -0.000000 -1.000000
    outer loop
      vertex 23.5731 15.0438 0.0000
      vertex 23.7645 14.1797 0.0000
      vertex 0.4451 2.6298 0.0000
    endloop
  endfacet
  facet normal 0.000000 0.000000 -1.000000
    outer loop
      vertex 23.6537 16.2926 0.0000
      vertex 23.5731 15.0438 0.0000
      vertex 0.4451 2.6298 0.0000
    endloop
  endfacet
  facet normal 0.000000 0.000000 -1.000000
    outer loop
      vertex 23.9242 17.7875 0.0000
      vertex 23.6537 16.2926 0.0000
      vertex 0.4451 2.6298 0.0000
    endloop
  endfacet
  facet normal 0.000000 0.000000 -1.000000
    outer loop
      vertex 24.3048 19.3739 0.0000
      vertex 23.9242 17.7875 0.0000
      vertex 0.4451 2.6298 0.0000
    endloop
  endfacet
  facet normal 0.000000 0.000000 -1.000000
    outer loop
      vertex 24.7217 20.8896 0.0000
      vertex 24.3048 19.3739 0.0000
      vertex 0.4451 2.6298 0.0000
    endloop
  endfacet
  facet normal 0.000000 0.000000 -1.000000
    outer loop
      vertex 25.1051 22.1713 0.0000
      vertex 24.7217 20.8896 0.0000
      vertex 0.4451 2.6298 0.0000
    endloop
  endfacet
  facet normal 0.000000 0.000000 -1.000000
    outer loop
      vertex 25.3862 23.0574 0.0000
      vertex 25.1051 22.1713 0.0000
      vertex 0.4451 2.6298 0.0000
    endloop
  endfacet
  facet normal 0.000000 0.000000 -1.000000
    outer loop
      vertex 25.4955 23.3881 0.0000
      vertex 25.3862 23.0574 0.0000
      vertex 0.4451 2.6298 0.0000
    endloop
  endfacet
  facet normal 0.000000 -0.000000 -1.000000
    outer loop
      vertex 22.9826 23.3350 0.0000
      vertex 25.4955 23.3881 0.0000
      vertex 0.4451 2.6298 0.0000
    endloop
  endfacet
  facet normal 0.000000 -0.000000 -1.000000
    outer loop
      vertex 20.4952 23.2905 0.0000
      vertex 22.9826 23.3350 0.0000
      vertex 0.4451 2.6298 0.0000
    endloop
  endfacet
  facet normal 0.000000 -0.000000 -1.000000
    outer loop
      vertex 18.0287 23.2664 0.0000
      vertex 20.4952 23.2905 0.0000
      vertex 0.4451 2.6298 0.0000
    endloop
  endfacet
  facet normal 0.000000 -0.000000 -1.000000
    outer loop
      vertex 15.5685 23.2711 0.0000
      vertex 18.0287 23.2664 0.0000
      vertex 0.4451 2.6298 0.0000
    endloop
  endfacet
  facet normal 0.000000 -0.000000 -1.000000
    outer loop
      vertex 13.0965 23.3029 0.0000
      vertex 15.5685 23.2711 0.0000
      vertex 0.4451 2.6298 0.0000
    endloop
  endfacet
  facet normal 0.000000 -0.000000 -1.000000
    outer loop
      vertex 10.6011 23.3514 0.0000
      vertex 13.0965 23.3029 0.0000
      vertex 0.4451 2.6298 0.0000
    endloop
  endfacet
  facet normal 0.000000 -0.000000 -1.000000
    outer loop
      vertex 8.0804 23.4052 0.0000
      vertex 10.6011 23.3514 0.0000
      vertex 0.4451 2.6298 0.0000
    endloop
  endfacet
  facet normal 0.000000 -0.000000 -1.000000
    outer loop
      vertex 5.5384 23.4571 0.0000
      vertex 8.0804 23.4052 0.0000
      vertex 0.4451 2.6298 0.0000
    endloop
  endfacet
  facet normal 0.000000 -0.000000 -1.000000
    outer loop
      vertex 2.9804 23.5038 0.0000
      vertex 5.5384 23.4571 0.0000
      vertex 0.4451 2.6298 0.0000
    endloop
  endfacet
  facet normal 0.000000 0.000000 -1.000000
    outer loop
      vertex 0.4451 21.1994 0.0000
      vertex 0.4109 23.5443 0.0000
      vertex 2.9804 23.5038 0.0000
    endloop
  endfacet
  facet normal 0.000000 0.000000 -1.000000
    outer loop
      vertex 0.4768 18.8650 0.0000
      vertex 0.4451 21.1994 0.0000
      vertex 2.9804 23.5038 0.0000
    endloop
  endfacet
  facet normal 0.000000 0.000000 -1.000000
    outer loop
      vertex 0.5030 16.5409 0.0000
      vertex 0.4768 18.8650 0.0000
      vertex 2.9804 23.5038 0.0000
    endloop
  endfacet
  facet normal 0.000000 0.000000 -1.000000
    outer loop
      vertex 0.5205 14.2254 0.0000
      vertex 0.5030 16.5409 0.0000
      vertex 2.9804 23.5038 0.0000
    endloop
  endfacet
  facet normal 0.000000 0.000000 -1.000000
    outer loop
      vertex 0.5267 11.9146 0.0000
      vertex 0.5205 14.2254 0.0000
      vertex 2.9804 23.5038 0.0000
    endloop
  endfacet
  facet normal 0.000000 0.000000 -1.000000
    outer loop
      vertex 0.5205 9.6039 0.0000
      vertex 0.5267 11.9146 0.0000
      vertex 2.9804 23.5038 0.0000
    endloop
  endfacet
  facet normal 0.000000 0.000000 -1.000000
    outer loop
      vertex 0.5030 7.2883 0.0000
      vertex 0.5205 9.6039 0.0000
      vertex 2.9804 23.5038 0.0000
    endloop
  endfacet
  facet normal 0.000000 0.000000 -1.000000
    outer loop
      vertex 0.4768 4.9642 0.0000
      vertex 0.5030 7.2883 0.0000
      vertex 2.9804 23.5038 0.0000
    endloop
  endfacet
  facet normal 0.000000 0.000000 -1.000000
    outer loop
      vertex 0.4451 2.6298 0.0000
      vertex 0.4768 4.9642 0.0000
      vertex 2.9804 23.5038 0.0000
    endloop
  endfacet
  facet normal 0.013411 -0.849824 -0.526897
    outer loop
      vertex 0.4109 0.2849 0.0000
      vertex 2.9804 0.3255 0.0000
      vertex 2.5930 0.0093 0.5000
    endloop
  endfacet
  facet normal 0.003136 -0.869944 -0.493141
    outer loop
      vertex 0.4109 0.2849 0.0000
      vertex 2.5930 0.0093 0.5000
      vertex 0.0000 0.0000 0.5000
    endloop
  endfacet
  facet normal 0.014997 -0.822581 -0.568451
    outer loop
      vertex 2.9804 0.3255 0.0000
      vertex 5.5384 0.3721 0.0000
      vertex 5.1833 0.0201 0.5000
    endloop
  endfacet
  facet normal 0.003513 -0.846461 -0.532439
    outer loop
      vertex 2.9804 0.3255 0.0000
      vertex 5.1833 0.0201 0.5000
      vertex 2.5930 0.0093 0.5000
    endloop
  endfacet
  facet normal 0.016166 -0.791769 -0.610607
    outer loop
      vertex 5.5384 0.3721 0.0000
      vertex 8.0804 0.4240 0.0000
      vertex 7.7700 0.0321 0.5000
    endloop
  endfacet
  facet normal 0.003790 -0.818949 -0.573853
    outer loop
      vertex 5.5384 0.3721 0.0000
      vertex 7.7700 0.0321 0.5000
      vertex 5.1833 0.0201 0.5000
    endloop
  endfacet
  facet normal 0.016231 -0.759556 -0.650239
    outer loop
      vertex 8.0804 0.4240 0.0000
      vertex 10.6011 0.4779 0.0000
      vertex 10.3517 0.0445 0.5000
    endloop
  endfacet
  facet normal 0.003795 -0.788159 -0.615459
    outer loop
      vertex 8.0804 0.4240 0.0000
      vertex 10.3517 0.0445 0.5000
      vertex 7.7700 0.0321 0.5000
    endloop
  endfacet
  facet normal 0.014186 -0.730486 -0.682780
    outer loop
      vertex 10.6011 0.4779 0.0000
      vertex 13.0965 0.5263 0.0000
      vertex 12.9276 0.0557 0.5000
    endloop
  endfacet
  facet normal 0.003290 -0.756471 -0.654020
    outer loop
      vertex 10.6011 0.4779 0.0000
      vertex 12.9276 0.0557 0.5000
      vertex 10.3517 0.0445 0.5000
    endloop
  endfacet
  facet normal 0.009143 -0.711246 -0.702884
    outer loop
      vertex 13.0965 0.5263 0.0000
      vertex 15.5685 0.5581 0.0000
      vertex 15.4981 0.0631 0.5000
    endloop
  endfacet
  facet normal 0.002091 -0.728523 -0.685018
    outer loop
      vertex 13.0965 0.5263 0.0000
      vertex 15.4981 0.0631 0.5000
      vertex 12.9276 0.0557 0.5000
    endloop
  endfacet
  facet normal 0.001365 -0.708034 -0.706177
    outer loop
      vertex 15.5685 0.5581 0.0000
      vertex 18.0287 0.5628 0.0000
      vertex 18.0659 0.0642 0.5000
    endloop
  endfacet
  facet normal 0.000319 -0.710655 -0.703541
    outer loop
      vertex 15.5685 0.5581 0.0000
      vertex 18.0659 0.0642 0.5000
      vertex 15.4981 0.0631 0.5000
    endloop
  endfacet
  facet normal -0.007046 -0.722311 -0.691532
    outer loop
      vertex 18.0287 0.5628 0.0000
      vertex 20.4952 0.5388 0.0000
      vertex 20.6350 0.0587 0.5000
    endloop
  endfacet
  facet normal -0.001517 -0.708141 -0.706069
    outer loop
      vertex 18.0287 0.5628 0.0000
      vertex 20.6350 0.0587 0.5000
      vertex 18.0659 0.0642 0.5000
    endloop
  endfacet
  facet normal -0.013406 -0.749345 -0.662044
    outer loop
      vertex 20.4952 0.5388 0.0000
      vertex 22.9826 0.4943 0.0000
      vertex 23.2090 0.0485 0.5000
    endloop
  endfacet
  facet normal -0.002872 -0.721743 -0.692155
    outer loop
      vertex 20.4952 0.5388 0.0000
      vertex 23.2090 0.0485 0.5000
      vertex 20.6350 0.0587 0.5000
    endloop
  endfacet
  facet normal -0.016541 -0.781763 -0.623356
    outer loop
      vertex 22.9826 0.4943 0.0000
      vertex 25.4955 0.4411 0.0000
      vertex 25.7888 0.0362 0.5000
    endloop
  endfacet
  facet normal -0.003552 -0.747198 -0.664592
    outer loop
      vertex 22.9826 0.4943 0.0000
      vertex 25.7888 0.0362 0.5000
      vertex 23.2090 0.0485 0.5000
    endloop
  endfacet
  facet normal 0.906849 0.299742 -0.296277
    outer loop
      vertex 25.4955 0.4411 0.0000
      vertex 25.3862 0.7718 0.0000
      vertex 25.6826 0.3691 0.5000
    endloop
  endfacet
  facet normal 0.909235 0.290093 -0.298559
    outer loop
      vertex 25.4955 0.4411 0.0000
      vertex 25.6826 0.3691 0.5000
      vertex 25.7888 0.0362 0.5000
    endloop
  endfacet
  facet normal 0.901518 0.285935 -0.324818
    outer loop
      vertex 25.3862 0.7718 0.0000
      vertex 25.1051 1.6580 0.0000
      vertex 25.4108 1.2623 0.5000
    endloop
  endfacet
  facet normal 0.907745 0.276308 -0.315679
    outer loop
      vertex 25.3862 0.7718 0.0000
      vertex 25.4108 1.2623 0.5000
      vertex 25.6826 0.3691 0.5000
    endloop
  endfacet
  facet normal 0.890513 0.266401 -0.368805
    outer loop
      vertex 25.1051 1.6580 0.0000
      vertex 24.7217 2.9397 0.0000
      vertex 25.0433 2.5568 0.5000
    endloop
  endfacet
  facet normal 0.901639 0.255942 -0.348628
    outer loop
      vertex 25.1051 1.6580 0.0000
      vertex 25.0433 2.5568 0.5000
      vertex 25.4108 1.2623 0.5000
    endloop
  endfacet
  facet normal 0.871255 0.239648 -0.428349
    outer loop
      vertex 24.7217 2.9397 0.0000
      vertex 24.3048 4.4553 0.0000
      vertex 24.6501 4.0937 0.5000
    endloop
  endfacet
  facet normal 0.888918 0.227429 -0.397619
    outer loop
      vertex 24.7217 2.9397 0.0000
      vertex 24.6501 4.0937 0.5000
      vertex 25.0433 2.5568 0.5000
    endloop
  endfacet
  facet normal 0.841163 0.201774 -0.501729
    outer loop
      vertex 24.3048 4.4553 0.0000
      vertex 23.9242 6.0418 0.0000
      vertex 24.3013 5.7134 0.5000
    endloop
  endfacet
  facet normal 0.866324 0.186581 -0.463325
    outer loop
      vertex 24.3048 4.4553 0.0000
      vertex 24.3013 5.7134 0.5000
      vertex 24.6501 4.0937 0.5000
    endloop
  endfacet
  facet normal 0.800370 0.144872 -0.581739
    outer loop
      vertex 23.9242 6.0418 0.0000
      vertex 23.6537 7.5367 0.0000
      vertex 24.0678 7.2565 0.5000
    endloop
  endfacet
  facet normal 0.830036 0.125580 -0.543387
    outer loop
      vertex 23.9242 6.0418 0.0000
      vertex 24.0678 7.2565 0.5000
      vertex 24.3013 5.7134 0.5000
    endloop
  endfacet
  facet normal 0.753644 0.048615 -0.655482
    outer loop
      vertex 23.6537 7.5367 0.0000
      vertex 23.5731 8.7855 0.0000
      vertex 24.0222 8.5656 0.5000
    endloop
  endfacet
  facet normal 0.777260 0.027092 -0.628595
    outer loop
      vertex 23.6537 7.5367 0.0000
      vertex 24.0222 8.5656 0.5000
      vertex 24.0678 7.2565 0.5000
    endloop
  endfacet
  facet normal 0.692592 -0.153428 -0.704824
    outer loop
      vertex 23.5731 8.7855 0.0000
      vertex 23.7645 9.6495 0.0000
      vertex 24.2373 9.4868 0.5000
    endloop
  endfacet
  facet normal 0.697381 -0.162864 -0.697951
    outer loop
      vertex 23.5731 8.7855 0.0000
      vertex 24.2373 9.4868 0.5000
      vertex 24.0222 8.5656 0.5000
    endloop
  endfacet
  facet normal 0.436972 -0.672902 -0.596874
    outer loop
      vertex 23.7645 9.6495 0.0000
      vertex 24.3014 9.9981 0.0000
      vertex 24.7842 9.8681 0.5000
    endloop
  endfacet
  facet normal 0.444954 -0.638091 -0.628375
    outer loop
      vertex 23.7645 9.6495 0.0000
      vertex 24.7842 9.8681 0.5000
      vertex 24.2373 9.4868 0.5000
    endloop
  endfacet
  facet normal -0.310627 -0.949378 0.046820
    outer loop
      vertex 24.3014 9.9981 0.0000
      vertex 25.2501 9.6877 0.0000
      vertex 25.7321 9.5547 0.5000
    endloop
  endfacet
  facet normal -0.313486 -0.947923 0.056290
    outer loop
      vertex 24.3014 9.9981 0.0000
      vertex 25.7321 9.5547 0.5000
      vertex 24.7842 9.8681 0.5000
    endloop
  endfacet
  facet normal -0.337042 -0.939162 0.066166
    outer loop
      vertex 25.2501 9.6877 0.0000
      vertex 26.3047 9.3092 0.0000
      vertex 26.7855 9.1719 0.5000
    endloop
  endfacet
  facet normal -0.340434 -0.936956 0.078858
    outer loop
      vertex 25.2501 9.6877 0.0000
      vertex 26.7855 9.1719 0.5000
      vertex 25.7321 9.5547 0.5000
    endloop
  endfacet
  facet normal 0.186301 -0.899492 -0.395229
    outer loop
      vertex 26.3047 9.3092 0.0000
      vertex 27.1174 9.4776 0.0000
      vertex 27.6030 9.3584 0.5000
    endloop
  endfacet
  facet normal 0.200402 -0.878380 -0.433922
    outer loop
      vertex 26.3047 9.3092 0.0000
      vertex 27.6030 9.3584 0.5000
      vertex 26.7855 9.1719 0.5000
    endloop
  endfacet
  facet normal 0.548989 -0.543407 -0.635074
    outer loop
      vertex 27.1174 9.4776 0.0000
      vertex 27.6936 10.0596 0.0000
      vertex 28.1860 9.9728 0.5000
    endloop
  endfacet
  facet normal 0.547667 -0.519714 -0.655713
    outer loop
      vertex 27.1174 9.4776 0.0000
      vertex 28.1860 9.9728 0.5000
      vertex 27.6030 9.3584 0.5000
    endloop
  endfacet
  facet normal 0.670201 -0.268433 -0.691935
    outer loop
      vertex 27.6936 10.0596 0.0000
      vertex 28.0374 10.9181 0.0000
      vertex 28.5353 10.8724 0.5000
    endloop
  endfacet
  facet normal 0.665476 -0.258417 -0.700259
    outer loop
      vertex 27.6936 10.0596 0.0000
      vertex 28.5353 10.8724 0.5000
      vertex 28.1860 9.9728 0.5000
    endloop
  endfacet
  facet normal 0.704794 -0.080820 -0.704794
    outer loop
      vertex 28.0374 10.9181 0.0000
      vertex 28.1517 11.9146 0.0000
      vertex 28.6517 11.9146 0.5000
    endloop
  endfacet
  facet normal 0.702808 -0.078469 -0.707039
    outer loop
      vertex 28.0374 10.9181 0.0000
      vertex 28.6517 11.9146 0.5000
      vertex 28.5353 10.8724 0.5000
    endloop
  endfacet
  facet normal 0.702593 0.080567 -0.707016
    outer loop
      vertex 28.1517 11.9146 0.0000
      vertex 28.0374 12.9112 0.0000
      vertex 28.5353 12.9569 0.5000
    endloop
  endfacet
  facet normal 0.704913 0.078704 -0.704913
    outer loop
      vertex 28.1517 11.9146 0.0000
      vertex 28.5353 12.9569 0.5000
      vertex 28.6517 11.9146 0.5000
    endloop
  endfacet
  facet normal 0.663408 0.265712 -0.699491
    outer loop
      vertex 28.0374 12.9112 0.0000
      vertex 27.6936 13.7696 0.0000
      vertex 28.1860 13.8565 0.5000
    endloop
  endfacet
  facet normal 0.672004 0.260952 -0.693047
    outer loop
      vertex 28.0374 12.9112 0.0000
      vertex 28.1860 13.8565 0.5000
      vertex 28.5353 12.9569 0.5000
    endloop
  endfacet
  facet normal 0.539425 0.533940 -0.651098
    outer loop
      vertex 27.6936 13.7696 0.0000
      vertex 27.1174 14.3517 0.0000
      vertex 27.6030 14.4708 0.5000
    endloop
  endfacet
  facet normal 0.557076 0.528642 -0.640472
    outer loop
      vertex 27.6936 13.7696 0.0000
      vertex 27.6030 14.4708 0.5000
      vertex 28.1860 13.8565 0.5000
    endloop
  endfacet
  facet normal 0.183978 0.888279 -0.420848
    outer loop
      vertex 27.1174 14.3517 0.0000
      vertex 26.3047 14.5200 0.0000
      vertex 26.7855 14.6573 0.5000
    endloop
  endfacet
  facet normal 0.202971 0.889642 -0.409073
    outer loop
      vertex 27.1174 14.3517 0.0000
      vertex 26.7855 14.6573 0.5000
      vertex 27.6030 14.4708 0.5000
    endloop
  endfacet
  facet normal -0.336832 0.938577 0.074954
    outer loop
      vertex 26.3047 14.5200 0.0000
      vertex 25.2501 14.1415 0.0000
      vertex 25.7321 14.2746 0.5000
    endloop
  endfacet
  facet normal -0.340658 0.937572 0.070079
    outer loop
      vertex 26.3047 14.5200 0.0000
      vertex 25.7321 14.2746 0.5000
      vertex 26.7855 14.6573 0.5000
    endloop
  endfacet
  facet normal -0.310529 0.949078 0.053135
    outer loop
      vertex 25.2501 14.1415 0.0000
      vertex 24.3014 13.8311 0.0000
      vertex 24.7842 13.9611 0.5000
    endloop
  endfacet
  facet normal -0.313591 0.948242 0.049979
    outer loop
      vertex 25.2501 14.1415 0.0000
      vertex 24.7842 13.9611 0.5000
      vertex 25.7321 14.2746 0.5000
    endloop
  endfacet
  facet normal 0.427795 0.658771 -0.618879
    outer loop
      vertex 24.3014 13.8311 0.0000
      vertex 23.7645 14.1797 0.0000
      vertex 24.2373 14.3424 0.5000
    endloop
  endfacet
  facet normal 0.454176 0.651316 -0.607875
    outer loop
      vertex 24.3014 13.8311 0.0000
      vertex 24.2373 14.3424 0.5000
      vertex 24.7842 13.9611 0.5000
    endloop
  endfacet
  facet normal 0.700112 0.155094 -0.696986
    outer loop
      vertex 23.7645 14.1797 0.0000
      vertex 23.5731 15.0438 0.0000
      vertex 24.0222 15.2636 0.5000
    endloop
  endfacet
  facet normal 0.690371 0.161227 -0.705262
    outer loop
      vertex 23.7645 14.1797 0.0000
      vertex 24.0222 15.2636 0.5000
      vertex 24.2373 14.3424 0.5000
    endloop
  endfacet
  facet normal 0.782874 -0.050501 -0.620128
    outer loop
      vertex 23.5731 15.0438 0.0000
      vertex 23.6537 16.2926 0.0000
      vertex 24.0678 16.5727 0.5000
    endloop
  endfacet
  facet normal 0.749420 -0.026122 -0.661580
    outer loop
      vertex 23.5731 15.0438 0.0000
      vertex 24.0678 16.5727 0.5000
      vertex 24.0222 15.2636 0.5000
    endloop
  endfacet
  facet normal 0.834446 -0.151040 -0.529988
    outer loop
      vertex 23.6537 16.2926 0.0000
      vertex 23.9242 17.7875 0.0000
      vertex 24.3013 18.1159 0.5000
    endloop
  endfacet
  facet normal 0.796651 -0.120529 -0.592300
    outer loop
      vertex 23.6537 16.2926 0.0000
      vertex 24.3013 18.1159 0.5000
      vertex 24.0678 16.5727 0.5000
    endloop
  endfacet
  facet normal 0.868769 -0.208395 -0.449235
    outer loop
      vertex 23.9242 17.7875 0.0000
      vertex 24.3048 19.3739 0.0000
      vertex 24.6501 19.7355 0.5000
    endloop
  endfacet
  facet normal 0.838702 -0.180632 -0.513761
    outer loop
      vertex 23.9242 17.7875 0.0000
      vertex 24.6501 19.7355 0.5000
      vertex 24.3013 18.1159 0.5000
    endloop
  endfacet
  facet normal 0.889883 -0.244772 -0.384961
    outer loop
      vertex 24.3048 19.3739 0.0000
      vertex 24.7217 20.8896 0.0000
      vertex 25.0433 21.2724 0.5000
    endloop
  endfacet
  facet normal 0.870049 -0.222602 -0.439845
    outer loop
      vertex 24.3048 19.3739 0.0000
      vertex 25.0433 21.2724 0.5000
      vertex 24.6501 19.7355 0.5000
    endloop
  endfacet
  facet normal 0.901747 -0.269761 -0.337758
    outer loop
      vertex 24.7217 20.8896 0.0000
      vertex 25.1051 22.1713 0.0000
      vertex 25.4108 22.5670 0.5000
    endloop
  endfacet
  facet normal 0.890189 -0.252692 -0.379093
    outer loop
      vertex 24.7217 20.8896 0.0000
      vertex 25.4108 22.5670 0.5000
      vertex 25.0433 21.2724 0.5000
    endloop
  endfacet
  facet normal 0.907411 -0.287805 -0.306224
    outer loop
      vertex 25.1051 22.1713 0.0000
      vertex 25.3862 23.0574 0.0000
      vertex 25.6826 23.4601 0.5000
    endloop
  endfacet
  facet normal 0.901721 -0.274474 -0.334012
    outer loop
      vertex 25.1051 22.1713 0.0000
      vertex 25.6826 23.4601 0.5000
      vertex 25.4108 22.5670 0.5000
    endloop
  endfacet
  facet normal 0.908695 -0.300352 -0.289934
    outer loop
      vertex 25.3862 23.0574 0.0000
      vertex 25.4955 23.3881 0.0000
      vertex 25.7888 23.7930 0.5000
    endloop
  endfacet
  facet normal 0.907346 -0.289490 -0.304828
    outer loop
      vertex 25.3862 23.0574 0.0000
      vertex 25.7888 23.7930 0.5000
      vertex 25.6826 23.4601 0.5000
    endloop
  endfacet
  facet normal -0.015866 0.749868 -0.661397
    outer loop
      vertex 25.4955 23.3881 0.0000
      vertex 22.9826 23.3350 0.0000
      vertex 23.2090 23.7808 0.5000
    endloop
  endfacet
  facet normal -0.003699 0.778200 -0.628005
    outer loop
      vertex 25.4955 23.3881 0.0000
      vertex 23.2090 23.7808 0.5000
      vertex 25.7888 23.7930 0.5000
    endloop
  endfacet
  facet normal -0.012937 0.723090 -0.690633
    outer loop
      vertex 22.9826 23.3350 0.0000
      vertex 20.4952 23.2905 0.0000
      vertex 20.6350 23.7705 0.5000
    endloop
  endfacet
  facet normal -0.002973 0.747069 -0.664740
    outer loop
      vertex 22.9826 23.3350 0.0000
      vertex 20.6350 23.7705 0.5000
      vertex 23.2090 23.7808 0.5000
    endloop
  endfacet
  facet normal -0.006910 0.708326 -0.705852
    outer loop
      vertex 20.4952 23.2905 0.0000
      vertex 18.0287 23.2664 0.0000
      vertex 18.0659 23.7650 0.5000
    endloop
  endfacet
  facet normal -0.001546 0.721560 -0.692350
    outer loop
      vertex 20.4952 23.2905 0.0000
      vertex 18.0659 23.7650 0.5000
      vertex 20.6350 23.7705 0.5000
    endloop
  endfacet
  facet normal 0.001370 0.710728 -0.703465
    outer loop
      vertex 18.0287 23.2664 0.0000
      vertex 15.5685 23.2711 0.0000
      vertex 15.4981 23.7662 0.5000
    endloop
  endfacet
  facet normal 0.000317 0.708074 -0.706138
    outer loop
      vertex 18.0287 23.2664 0.0000
      vertex 15.4981 23.7662 0.5000
      vertex 18.0659 23.7650 0.5000
    endloop
  endfacet
  facet normal 0.009380 0.729720 -0.683682
    outer loop
      vertex 15.5685 23.2711 0.0000
      vertex 13.0965 23.3029 0.0000
      vertex 12.9276 23.7735 0.5000
    endloop
  endfacet
  facet normal 0.002040 0.710775 -0.703417
    outer loop
      vertex 15.5685 23.2711 0.0000
      vertex 12.9276 23.7735 0.5000
      vertex 15.4981 23.7662 0.5000
    endloop
  endfacet
  facet normal 0.014744 0.759209 -0.650680
    outer loop
      vertex 13.0965 23.3029 0.0000
      vertex 10.6011 23.3514 0.0000
      vertex 10.3517 23.7847 0.5000
    endloop
  endfacet
  facet normal 0.003169 0.728703 -0.684822
    outer loop
      vertex 13.0965 23.3029 0.0000
      vertex 10.3517 23.7847 0.5000
      vertex 12.9276 23.7735 0.5000
    endloop
  endfacet
  facet normal 0.016924 0.791985 -0.610306
    outer loop
      vertex 10.6011 23.3514 0.0000
      vertex 8.0804 23.4052 0.0000
      vertex 7.7700 23.7972 0.5000
    endloop
  endfacet
  facet normal 0.003643 0.756557 -0.653918
    outer loop
      vertex 10.6011 23.3514 0.0000
      vertex 7.7700 23.7972 0.5000
      vertex 10.3517 23.7847 0.5000
    endloop
  endfacet
  facet normal 0.016807 0.823154 -0.567569
    outer loop
      vertex 8.0804 23.4052 0.0000
      vertex 5.5384 23.4571 0.0000
      vertex 5.1833 23.8091 0.5000
    endloop
  endfacet
  facet normal 0.003647 0.788115 -0.615517
    outer loop
      vertex 8.0804 23.4052 0.0000
      vertex 5.1833 23.8091 0.5000
      vertex 7.7700 23.7972 0.5000
    endloop
  endfacet
  facet normal 0.015506 0.850520 -0.525714
    outer loop
      vertex 5.5384 23.4571 0.0000
      vertex 2.9804 23.5038 0.0000
      vertex 2.5930 23.8199 0.5000
    endloop
  endfacet
  facet normal 0.003398 0.818820 -0.574040
    outer loop
      vertex 5.5384 23.4571 0.0000
      vertex 2.5930 23.8199 0.5000
      vertex 5.1833 23.8091 0.5000
    endloop
  endfacet
  facet normal 0.013786 0.873590 -0.486467
    outer loop
      vertex 2.9804 23.5038 0.0000
      vertex 0.4109 23.5443 0.0000
      vertex 0.0000 23.8292 0.5000
    endloop
  endfacet
  facet normal 0.003050 0.846301 -0.532697
    outer loop
      vertex 2.9804 23.5038 0.0000
      vertex 0.0000 23.8292 0.5000
      vertex 2.5930 23.8199 0.5000
    endloop
  endfacet
  facet normal -0.755377 -0.011029 -0.655198
    outer loop
      vertex 0.4109 23.5443 0.0000
      vertex 0.4451 21.1994 0.0000
      vertex 0.0079 21.4419 0.5000
    endloop
  endfacet
  facet normal -0.773310 -0.002556 -0.634023
    outer loop
      vertex 0.4109 23.5443 0.0000
      vertex 0.0079 21.4419 0.5000
      vertex 0.0000 23.8292 0.5000
    endloop
  endfacet
  facet normal -0.736606 -0.010007 -0.676248
    outer loop
      vertex 0.4451 21.1994 0.0000
      vertex 0.4768 18.8650 0.0000
      vertex 0.0152 19.0571 0.5000
    endloop
  endfacet
  facet normal -0.753330 -0.002308 -0.657639
    outer loop
      vertex 0.4451 21.1994 0.0000
      vertex 0.0152 19.0571 0.5000
      vertex 0.0079 21.4419 0.5000
    endloop
  endfacet
  facet normal -0.721145 -0.008131 -0.692736
    outer loop
      vertex 0.4768 18.8650 0.0000
      vertex 0.5030 16.5409 0.0000
      vertex 0.0212 16.6746 0.5000
    endloop
  endfacet
  facet normal -0.735085 -0.001862 -0.677973
    outer loop
      vertex 0.4768 18.8650 0.0000
      vertex 0.0212 16.6746 0.5000
      vertex 0.0152 19.0571 0.5000
    endloop
  endfacet
  facet normal -0.710824 -0.005364 -0.703349
    outer loop
      vertex 0.5030 16.5409 0.0000
      vertex 0.5205 14.2254 0.0000
      vertex 0.0253 14.2940 0.5000
    endloop
  endfacet
  facet normal -0.720246 -0.001217 -0.693718
    outer loop
      vertex 0.5030 16.5409 0.0000
      vertex 0.0253 14.2940 0.5000
      vertex 0.0212 16.6746 0.5000
    endloop
  endfacet
  facet normal -0.707106 -0.001884 -0.707106
    outer loop
      vertex 0.5205 14.2254 0.0000
      vertex 0.5267 11.9146 0.0000
      vertex 0.0267 11.9146 0.5000
    endloop
  endfacet
  facet normal -0.710495 -0.000423 -0.703702
    outer loop
      vertex 0.5205 14.2254 0.0000
      vertex 0.0267 11.9146 0.5000
      vertex 0.0253 14.2940 0.5000
    endloop
  endfacet
  facet normal -0.710595 0.001894 -0.703599
    outer loop
      vertex 0.5267 11.9146 0.0000
      vertex 0.5205 9.6039 0.0000
      vertex 0.0253 9.5352 0.5000
    endloop
  endfacet
  facet normal -0.707107 0.000421 -0.707107
    outer loop
      vertex 0.5267 11.9146 0.0000
      vertex 0.0253 9.5352 0.5000
      vertex 0.0267 11.9146 0.5000
    endloop
  endfacet
  facet normal -0.720799 0.005439 -0.693123
    outer loop
      vertex 0.5205 9.6039 0.0000
      vertex 0.5030 7.2883 0.0000
      vertex 0.0212 7.1547 0.5000
    endloop
  endfacet
  facet normal -0.710548 0.001201 -0.703647
    outer loop
      vertex 0.5205 9.6039 0.0000
      vertex 0.0212 7.1547 0.5000
      vertex 0.0253 9.5352 0.5000
    endloop
  endfacet
  facet normal -0.736292 0.008302 -0.676613
    outer loop
      vertex 0.5030 7.2883 0.0000
      vertex 0.4768 4.9642 0.0000
      vertex 0.0152 4.7722 0.5000
    endloop
  endfacet
  facet normal -0.720326 0.001825 -0.693633
    outer loop
      vertex 0.5030 7.2883 0.0000
      vertex 0.0152 4.7722 0.5000
      vertex 0.0212 7.1547 0.5000
    endloop
  endfacet
  facet normal -0.755199 0.010260 -0.655415
    outer loop
      vertex 0.4768 4.9642 0.0000
      vertex 0.4451 2.6298 0.0000
      vertex 0.0079 2.3873 0.5000
    endloop
  endfacet
  facet normal -0.735159 0.002252 -0.677891
    outer loop
      vertex 0.4768 4.9642 0.0000
      vertex 0.0079 2.3873 0.5000
      vertex 0.0152 4.7722 0.5000
    endloop
  endfacet
  facet normal -0.775706 0.011326 -0.630993
    outer loop
      vertex 0.4451 2.6298 0.0000
      vertex 0.4109 0.2849 0.0000
      vertex 0.0000 0.0000 0.5000
    endloop
  endfacet
  facet normal -0.753373 0.002490 -0.657588
    outer loop
      vertex 0.4451 2.6298 0.0000
      vertex 0.0000 0.0000 0.5000
      vertex 0.0079 2.3873 0.5000
    endloop
  endfacet
  facet normal 0.003604 -0.999994 0.000000
    outer loop
      vertex 0.0000 0.0000 0.5000
      vertex 2.5930 0.0093 0.5000
      vertex 2.5930 0.0093 2.5000
    endloop
  endfacet
  facet normal 0.003604 -0.999994 0.000000
    outer loop
      vertex 0.0000 0.0000 0.5000
      vertex 2.5930 0.0093 2.5000
      vertex 0.0000 0.0000 2.5000
    endloop
  endfacet
  facet normal 0.004150 -0.999991 0.000000
    outer loop
      vertex 2.5930 0.0093 0.5000
      vertex 5.1833 0.0201 0.5000
      vertex 5.1833 0.0201 2.5000
    endloop
  endfacet
  facet normal 0.004150 -0.999991 0.000000
    outer loop
      vertex 2.5930 0.0093 0.5000
      vertex 5.1833 0.0201 2.5000
      vertex 2.5930 0.0093 2.5000
    endloop
  endfacet
  facet normal 0.004627 -0.999989 0.000000
    outer loop
      vertex 5.1833 0.0201 0.5000
      vertex 7.7700 0.0321 0.5000
      vertex 7.7700 0.0321 2.5000
    endloop
  endfacet
  facet normal 0.004627 -0.999989 0.000000
    outer loop
      vertex 5.1833 0.0201 0.5000
      vertex 7.7700 0.0321 2.5000
      vertex 5.1833 0.0201 2.5000
    endloop
  endfacet
  facet normal 0.004815 -0.999988 0.000000
    outer loop
      vertex 7.7700 0.0321 0.5000
      vertex 10.3517 0.0445 0.5000
      vertex 10.3517 0.0445 2.5000
    endloop
  endfacet
  facet normal 0.004815 -0.999988 0.000000
    outer loop
      vertex 7.7700 0.0321 0.5000
      vertex 10.3517 0.0445 2.5000
      vertex 7.7700 0.0321 2.5000
    endloop
  endfacet
  facet normal 0.004349 -0.999991 0.000000
    outer loop
      vertex 10.3517 0.0445 0.5000
      vertex 12.9276 0.0557 0.5000
      vertex 12.9276 0.0557 2.5000
    endloop
  endfacet
  facet normal 0.004349 -0.999991 0.000000
    outer loop
      vertex 10.3517 0.0445 0.5000
      vertex 12.9276 0.0557 2.5000
      vertex 10.3517 0.0445 2.5000
    endloop
  endfacet
  facet normal 0.002870 -0.999996 0.000000
    outer loop
      vertex 12.9276 0.0557 0.5000
      vertex 15.4981 0.0631 0.5000
      vertex 15.4981 0.0631 2.5000
    endloop
  endfacet
  facet normal 0.002870 -0.999996 0.000000
    outer loop
      vertex 12.9276 0.0557 0.5000
      vertex 15.4981 0.0631 2.5000
      vertex 12.9276 0.0557 2.5000
    endloop
  endfacet
  facet normal 0.000448 -1.000000 0.000000
    outer loop
      vertex 15.4981 0.0631 0.5000
      vertex 18.0659 0.0642 0.5000
      vertex 18.0659 0.0642 2.5000
    endloop
  endfacet
  facet normal 0.000448 -1.000000 0.000000
    outer loop
      vertex 15.4981 0.0631 0.5000
      vertex 18.0659 0.0642 2.5000
      vertex 15.4981 0.0631 2.5000
    endloop
  endfacet
  facet normal -0.002142 -0.999998 0.000000
    outer loop
      vertex 18.0659 0.0642 0.5000
      vertex 20.6350 0.0587 0.5000
      vertex 20.6350 0.0587 2.5000
    endloop
  endfacet
  facet normal -0.002142 -0.999998 0.000000
    outer loop
      vertex 18.0659 0.0642 0.5000
      vertex 20.6350 0.0587 2.5000
      vertex 18.0659 0.0642 2.5000
    endloop
  endfacet
  facet normal -0.003979 -0.999992 0.000000
    outer loop
      vertex 20.6350 0.0587 0.5000
      vertex 23.2090 0.0485 0.5000
      vertex 23.2090 0.0485 2.5000
    endloop
  endfacet
  facet normal -0.003979 -0.999992 0.000000
    outer loop
      vertex 20.6350 0.0587 0.5000
      vertex 23.2090 0.0485 2.5000
      vertex 20.6350 0.0587 2.5000
    endloop
  endfacet
  facet normal -0.004753 -0.999989 0.000000
    outer loop
      vertex 23.2090 0.0485 0.5000
      vertex 25.7888 0.0362 0.5000
      vertex 25.7888 0.0362 2.5000
    endloop
  endfacet
  facet normal -0.004753 -0.999989 0.000000
    outer loop
      vertex 23.2090 0.0485 0.5000
      vertex 25.7888 0.0362 2.5000
      vertex 23.2090 0.0485 2.5000
    endloop
  endfacet
  facet normal 0.952686 0.303956 0.000000
    outer loop
      vertex 25.7888 0.0362 0.5000
      vertex 25.6826 0.3691 0.5000
      vertex 25.6826 0.3691 2.5000
    endloop
  endfacet
  facet normal 0.952686 0.303956 -0.000000
    outer loop
      vertex 25.7888 0.0362 0.5000
      vertex 25.6826 0.3691 2.5000
      vertex 25.7888 0.0362 2.5000
    endloop
  endfacet
  facet normal 0.956663 0.291198 0.000000
    outer loop
      vertex 25.6826 0.3691 0.5000
      vertex 25.4108 1.2623 0.5000
      vertex 25.4108 1.2623 2.5000
    endloop
  endfacet
  facet normal 0.956663 0.291198 -0.000000
    outer loop
      vertex 25.6826 0.3691 0.5000
      vertex 25.4108 1.2623 2.5000
      vertex 25.6826 0.3691 2.5000
    endloop
  endfacet
  facet normal 0.961993 0.273075 0.000000
    outer loop
      vertex 25.4108 1.2623 0.5000
      vertex 25.0433 2.5568 0.5000
      vertex 25.0433 2.5568 2.5000
    endloop
  endfacet
  facet normal 0.961993 0.273075 -0.000000
    outer loop
      vertex 25.4108 1.2623 0.5000
      vertex 25.0433 2.5568 2.5000
      vertex 25.4108 1.2623 2.5000
    endloop
  endfacet
  facet normal 0.968794 0.247866 0.000000
    outer loop
      vertex 25.0433 2.5568 0.5000
      vertex 24.6501 4.0937 0.5000
      vertex 24.6501 4.0937 2.5000
    endloop
  endfacet
  facet normal 0.968794 0.247866 -0.000000
    outer loop
      vertex 25.0433 2.5568 0.5000
      vertex 24.6501 4.0937 2.5000
      vertex 25.0433 2.5568 2.5000
    endloop
  endfacet
  facet normal 0.977585 0.210543 0.000000
    outer loop
      vertex 24.6501 4.0937 0.5000
      vertex 24.3013 5.7134 0.5000
      vertex 24.3013 5.7134 2.5000
    endloop
  endfacet
  facet normal 0.977585 0.210543 -0.000000
    outer loop
      vertex 24.6501 4.0937 0.5000
      vertex 24.3013 5.7134 2.5000
      vertex 24.6501 4.0937 2.5000
    endloop
  endfacet
  facet normal 0.988748 0.149592 0.000000
    outer loop
      vertex 24.3013 5.7134 0.5000
      vertex 24.0678 7.2565 0.5000
      vertex 24.0678 7.2565 2.5000
    endloop
  endfacet
  facet normal 0.988748 0.149592 -0.000000
    outer loop
      vertex 24.3013 5.7134 0.5000
      vertex 24.0678 7.2565 2.5000
      vertex 24.3013 5.7134 2.5000
    endloop
  endfacet
  facet normal 0.999393 0.034835 0.000000
    outer loop
      vertex 24.0678 7.2565 0.5000
      vertex 24.0222 8.5656 0.5000
      vertex 24.0222 8.5656 2.5000
    endloop
  endfacet
  facet normal 0.999393 0.034835 -0.000000
    outer loop
      vertex 24.0678 7.2565 0.5000
      vertex 24.0222 8.5656 2.5000
      vertex 24.0678 7.2565 2.5000
    endloop
  endfacet
  facet normal 0.973797 -0.227417 0.000000
    outer loop
      vertex 24.0222 8.5656 0.5000
      vertex 24.2373 9.4868 0.5000
      vertex 24.2373 9.4868 2.5000
    endloop
  endfacet
  facet normal 0.973797 -0.227417 0.000000
    outer loop
      vertex 24.0222 8.5656 0.5000
      vertex 24.2373 9.4868 2.5000
      vertex 24.0222 8.5656 2.5000
    endloop
  endfacet
  facet normal 0.571987 -0.820263 0.000000
    outer loop
      vertex 24.2373 9.4868 0.5000
      vertex 24.7842 9.8681 0.5000
      vertex 24.7842 9.8681 2.5000
    endloop
  endfacet
  facet normal 0.571987 -0.820263 0.000000
    outer loop
      vertex 24.2373 9.4868 0.5000
      vertex 24.7842 9.8681 2.5000
      vertex 24.2373 9.4868 2.5000
    endloop
  endfacet
  facet normal -0.313984 -0.949428 0.000000
    outer loop
      vertex 24.7842 9.8681 0.5000
      vertex 25.7321 9.5547 0.5000
      vertex 25.7321 9.5547 2.5000
    endloop
  endfacet
  facet normal -0.313984 -0.949428 0.000000
    outer loop
      vertex 24.7842 9.8681 0.5000
      vertex 25.7321 9.5547 2.5000
      vertex 24.7842 9.8681 2.5000
    endloop
  endfacet
  facet normal -0.341498 -0.939883 0.000000
    outer loop
      vertex 25.7321 9.5547 0.5000
      vertex 26.7855 9.1719 0.5000
      vertex 26.7855 9.1719 2.5000
    endloop
  endfacet
  facet normal -0.341498 -0.939883 0.000000
    outer loop
      vertex 25.7321 9.5547 0.5000
      vertex 26.7855 9.1719 2.5000
      vertex 25.7321 9.5547 2.5000
    endloop
  endfacet
  facet normal 0.222433 -0.974948 0.000000
    outer loop
      vertex 26.7855 9.1719 0.5000
      vertex 27.6030 9.3584 0.5000
      vertex 27.6030 9.3584 2.5000
    endloop
  endfacet
  facet normal 0.222433 -0.974948 0.000000
    outer loop
      vertex 26.7855 9.1719 0.5000
      vertex 27.6030 9.3584 2.5000
      vertex 26.7855 9.1719 2.5000
    endloop
  endfacet
  facet normal 0.725376 -0.688353 0.000000
    outer loop
      vertex 27.6030 9.3584 0.5000
      vertex 28.1860 9.9728 0.5000
      vertex 28.1860 9.9728 2.5000
    endloop
  endfacet
  facet normal 0.725376 -0.688353 0.000000
    outer loop
      vertex 27.6030 9.3584 0.5000
      vertex 28.1860 9.9728 2.5000
      vertex 27.6030 9.3584 2.5000
    endloop
  endfacet
  facet normal 0.932184 -0.361985 0.000000
    outer loop
      vertex 28.1860 9.9728 0.5000
      vertex 28.5353 10.8724 0.5000
      vertex 28.5353 10.8724 2.5000
    endloop
  endfacet
  facet normal 0.932184 -0.361985 0.000000
    outer loop
      vertex 28.1860 9.9728 0.5000
      vertex 28.5353 10.8724 2.5000
      vertex 28.1860 9.9728 2.5000
    endloop
  endfacet
  facet normal 0.993825 -0.110962 0.000000
    outer loop
      vertex 28.5353 10.8724 0.5000
      vertex 28.6517 11.9146 0.5000
      vertex 28.6517 11.9146 2.5000
    endloop
  endfacet
  facet normal 0.993825 -0.110962 0.000000
    outer loop
      vertex 28.5353 10.8724 0.5000
      vertex 28.6517 11.9146 2.5000
      vertex 28.5353 10.8724 2.5000
    endloop
  endfacet
  facet normal 0.993825 0.110962 0.000000
    outer loop
      vertex 28.6517 11.9146 0.5000
      vertex 28.5353 12.9569 0.5000
      vertex 28.5353 12.9569 2.5000
    endloop
  endfacet
  facet normal 0.993825 0.110962 -0.000000
    outer loop
      vertex 28.6517 11.9146 0.5000
      vertex 28.5353 12.9569 2.5000
      vertex 28.6517 11.9146 2.5000
    endloop
  endfacet
  facet normal 0.932184 0.361985 0.000000
    outer loop
      vertex 28.5353 12.9569 0.5000
      vertex 28.1860 13.8565 0.5000
      vertex 28.1860 13.8565 2.5000
    endloop
  endfacet
  facet normal 0.932184 0.361985 -0.000000
    outer loop
      vertex 28.5353 12.9569 0.5000
      vertex 28.1860 13.8565 2.5000
      vertex 28.5353 12.9569 2.5000
    endloop
  endfacet
  facet normal 0.725376 0.688353 0.000000
    outer loop
      vertex 28.1860 13.8565 0.5000
      vertex 27.6030 14.4708 0.5000
      vertex 27.6030 14.4708 2.5000
    endloop
  endfacet
  facet normal 0.725376 0.688353 -0.000000
    outer loop
      vertex 28.1860 13.8565 0.5000
      vertex 27.6030 14.4708 2.5000
      vertex 28.1860 13.8565 2.5000
    endloop
  endfacet
  facet normal 0.222433 0.974948 0.000000
    outer loop
      vertex 27.6030 14.4708 0.5000
      vertex 26.7855 14.6573 0.5000
      vertex 26.7855 14.6573 2.5000
    endloop
  endfacet
  facet normal 0.222433 0.974948 -0.000000
    outer loop
      vertex 27.6030 14.4708 0.5000
      vertex 26.7855 14.6573 2.5000
      vertex 27.6030 14.4708 2.5000
    endloop
  endfacet
  facet normal -0.341498 0.939883 0.000000
    outer loop
      vertex 26.7855 14.6573 0.5000
      vertex 25.7321 14.2746 0.5000
      vertex 25.7321 14.2746 2.5000
    endloop
  endfacet
  facet normal -0.341498 0.939883 0.000000
    outer loop
      vertex 26.7855 14.6573 0.5000
      vertex 25.7321 14.2746 2.5000
      vertex 26.7855 14.6573 2.5000
    endloop
  endfacet
  facet normal -0.313984 0.949428 0.000000
    outer loop
      vertex 25.7321 14.2746 0.5000
      vertex 24.7842 13.9611 0.5000
      vertex 24.7842 13.9611 2.5000
    endloop
  endfacet
  facet normal -0.313984 0.949428 0.000000
    outer loop
      vertex 25.7321 14.2746 0.5000
      vertex 24.7842 13.9611 2.5000
      vertex 25.7321 14.2746 2.5000
    endloop
  endfacet
  facet normal 0.571987 0.820263 0.000000
    outer loop
      vertex 24.7842 13.9611 0.5000
      vertex 24.2373 14.3424 0.5000
      vertex 24.2373 14.3424 2.5000
    endloop
  endfacet
  facet normal 0.571987 0.820263 -0.000000
    outer loop
      vertex 24.7842 13.9611 0.5000
      vertex 24.2373 14.3424 2.5000
      vertex 24.7842 13.9611 2.5000
    endloop
  endfacet
  facet normal 0.973797 0.227417 0.000000
    outer loop
      vertex 24.2373 14.3424 0.5000
      vertex 24.0222 15.2636 0.5000
      vertex 24.0222 15.2636 2.5000
    endloop
  endfacet
  facet normal 0.973797 0.227417 -0.000000
    outer loop
      vertex 24.2373 14.3424 0.5000
      vertex 24.0222 15.2636 2.5000
      vertex 24.2373 14.3424 2.5000
    endloop
  endfacet
  facet normal 0.999393 -0.034835 0.000000
    outer loop
      vertex 24.0222 15.2636 0.5000
      vertex 24.0678 16.5727 0.5000
      vertex 24.0678 16.5727 2.5000
    endloop
  endfacet
  facet normal 0.999393 -0.034835 0.000000
    outer loop
      vertex 24.0222 15.2636 0.5000
      vertex 24.0678 16.5727 2.5000
      vertex 24.0222 15.2636 2.5000
    endloop
  endfacet
  facet normal 0.988748 -0.149592 0.000000
    outer loop
      vertex 24.0678 16.5727 0.5000
      vertex 24.3013 18.1159 0.5000
      vertex 24.3013 18.1159 2.5000
    endloop
  endfacet
  facet normal 0.988748 -0.149592 0.000000
    outer loop
      vertex 24.0678 16.5727 0.5000
      vertex 24.3013 18.1159 2.5000
      vertex 24.0678 16.5727 2.5000
    endloop
  endfacet
  facet normal 0.977585 -0.210543 0.000000
    outer loop
      vertex 24.3013 18.1159 0.5000
      vertex 24.6501 19.7355 0.5000
      vertex 24.6501 19.7355 2.5000
    endloop
  endfacet
  facet normal 0.977585 -0.210543 0.000000
    outer loop
      vertex 24.3013 18.1159 0.5000
      vertex 24.6501 19.7355 2.5000
      vertex 24.3013 18.1159 2.5000
    endloop
  endfacet
  facet normal 0.968794 -0.247866 0.000000
    outer loop
      vertex 24.6501 19.7355 0.5000
      vertex 25.0433 21.2724 0.5000
      vertex 25.0433 21.2724 2.5000
    endloop
  endfacet
  facet normal 0.968794 -0.247866 0.000000
    outer loop
      vertex 24.6501 19.7355 0.5000
      vertex 25.0433 21.2724 2.5000
      vertex 24.6501 19.7355 2.5000
    endloop
  endfacet
  facet normal 0.961993 -0.273075 0.000000
    outer loop
      vertex 25.0433 21.2724 0.5000
      vertex 25.4108 22.5670 0.5000
      vertex 25.4108 22.5670 2.5000
    endloop
  endfacet
  facet normal 0.961993 -0.273075 0.000000
    outer loop
      vertex 25.0433 21.2724 0.5000
      vertex 25.4108 22.5670 2.5000
      vertex 25.0433 21.2724 2.5000
    endloop
  endfacet
  facet normal 0.956663 -0.291198 0.000000
    outer loop
      vertex 25.4108 22.5670 0.5000
      vertex 25.6826 23.4601 0.5000
      vertex 25.6826 23.4601 2.5000
    endloop
  endfacet
  facet normal 0.956663 -0.291198 0.000000
    outer loop
      vertex 25.4108 22.5670 0.5000
      vertex 25.6826 23.4601 2.5000
      vertex 25.4108 22.5670 2.5000
    endloop
  endfacet
  facet normal 0.952686 -0.303956 0.000000
    outer loop
      vertex 25.6826 23.4601 0.5000
      vertex 25.7888 23.7930 0.5000
      vertex 25.7888 23.7930 2.5000
    endloop
  endfacet
  facet normal 0.952686 -0.303956 0.000000
    outer loop
      vertex 25.6826 23.4601 0.5000
      vertex 25.7888 23.7930 2.5000
      vertex 25.6826 23.4601 2.5000
    endloop
  endfacet
  facet normal -0.004753 0.999989 0.000000
    outer loop
      vertex 25.7888 23.7930 0.5000
      vertex 23.2090 23.7808 0.5000
      vertex 23.2090 23.7808 2.5000
    endloop
  endfacet
  facet normal -0.004753 0.999989 0.000000
    outer loop
      vertex 25.7888 23.7930 0.5000
      vertex 23.2090 23.7808 2.5000
      vertex 25.7888 23.7930 2.5000
    endloop
  endfacet
  facet normal -0.003979 0.999992 0.000000
    outer loop
      vertex 23.2090 23.7808 0.5000
      vertex 20.6350 23.7705 0.5000
      vertex 20.6350 23.7705 2.5000
    endloop
  endfacet
  facet normal -0.003979 0.999992 0.000000
    outer loop
      vertex 23.2090 23.7808 0.5000
      vertex 20.6350 23.7705 2.5000
      vertex 23.2090 23.7808 2.5000
    endloop
  endfacet
  facet normal -0.002142 0.999998 0.000000
    outer loop
      vertex 20.6350 23.7705 0.5000
      vertex 18.0659 23.7650 0.5000
      vertex 18.0659 23.7650 2.5000
    endloop
  endfacet
  facet normal -0.002142 0.999998 0.000000
    outer loop
      vertex 20.6350 23.7705 0.5000
      vertex 18.0659 23.7650 2.5000
      vertex 20.6350 23.7705 2.5000
    endloop
  endfacet
  facet normal 0.000448 1.000000 0.000000
    outer loop
      vertex 18.0659 23.7650 0.5000
      vertex 15.4981 23.7662 0.5000
      vertex 15.4981 23.7662 2.5000
    endloop
  endfacet
  facet normal 0.000448 1.000000 -0.000000
    outer loop
      vertex 18.0659 23.7650 0.5000
      vertex 15.4981 23.7662 2.5000
      vertex 18.0659 23.7650 2.5000
    endloop
  endfacet
  facet normal 0.002870 0.999996 0.000000
    outer loop
      vertex 15.4981 23.7662 0.5000
      vertex 12.9276 23.7735 0.5000
      vertex 12.9276 23.7735 2.5000
    endloop
  endfacet
  facet normal 0.002870 0.999996 -0.000000
    outer loop
      vertex 15.4981 23.7662 0.5000
      vertex 12.9276 23.7735 2.5000
      vertex 15.4981 23.7662 2.5000
    endloop
  endfacet
  facet normal 0.004349 0.999991 0.000000
    outer loop
      vertex 12.9276 23.7735 0.5000
      vertex 10.3517 23.7847 0.5000
      vertex 10.3517 23.7847 2.5000
    endloop
  endfacet
  facet normal 0.004349 0.999991 -0.000000
    outer loop
      vertex 12.9276 23.7735 0.5000
      vertex 10.3517 23.7847 2.5000
      vertex 12.9276 23.7735 2.5000
    endloop
  endfacet
  facet normal 0.004815 0.999988 0.000000
    outer loop
      vertex 10.3517 23.7847 0.5000
      vertex 7.7700 23.7972 0.5000
      vertex 7.7700 23.7972 2.5000
    endloop
  endfacet
  facet normal 0.004815 0.999988 -0.000000
    outer loop
      vertex 10.3517 23.7847 0.5000
      vertex 7.7700 23.7972 2.5000
      vertex 10.3517 23.7847 2.5000
    endloop
  endfacet
  facet normal 0.004627 0.999989 0.000000
    outer loop
      vertex 7.7700 23.7972 0.5000
      vertex 5.1833 23.8091 0.5000
      vertex 5.1833 23.8091 2.5000
    endloop
  endfacet
  facet normal 0.004627 0.999989 -0.000000
    outer loop
      vertex 7.7700 23.7972 0.5000
      vertex 5.1833 23.8091 2.5000
      vertex 7.7700 23.7972 2.5000
    endloop
  endfacet
  facet normal 0.004150 0.999991 0.000000
    outer loop
      vertex 5.1833 23.8091 0.5000
      vertex 2.5930 23.8199 0.5000
      vertex 2.5930 23.8199 2.5000
    endloop
  endfacet
  facet normal 0.004150 0.999991 -0.000000
    outer loop
      vertex 5.1833 23.8091 0.5000
      vertex 2.5930 23.8199 2.5000
      vertex 5.1833 23.8091 2.5000
    endloop
  endfacet
  facet normal 0.003604 0.999994 0.000000
    outer loop
      vertex 2.5930 23.8199 0.5000
      vertex 0.0000 23.8292 0.5000
      vertex 0.0000 23.8292 2.5000
    endloop
  endfacet
  facet normal 0.003604 0.999994 -0.000000
    outer loop
      vertex 2.5930 23.8199 0.5000
      vertex 0.0000 23.8292 2.5000
      vertex 2.5930 23.8199 2.5000
    endloop
  endfacet
  facet normal -0.999995 -0.003305 0.000000
    outer loop
      vertex 0.0000 23.8292 0.5000
      vertex 0.0079 21.4419 0.5000
      vertex 0.0079 21.4419 2.5000
    endloop
  endfacet
  facet normal -0.999995 -0.003305 0.000000
    outer loop
      vertex 0.0000 23.8292 0.5000
      vertex 0.0079 21.4419 2.5000
      vertex 0.0000 23.8292 2.5000
    endloop
  endfacet
  facet normal -0.999995 -0.003063 0.000000
    outer loop
      vertex 0.0079 21.4419 0.5000
      vertex 0.0152 19.0571 0.5000
      vertex 0.0152 19.0571 2.5000
    endloop
  endfacet
  facet normal -0.999995 -0.003063 0.000000
    outer loop
      vertex 0.0079 21.4419 0.5000
      vertex 0.0152 19.0571 2.5000
      vertex 0.0079 21.4419 2.5000
    endloop
  endfacet
  facet normal -0.999997 -0.002533 0.000000
    outer loop
      vertex 0.0152 19.0571 0.5000
      vertex 0.0212 16.6746 0.5000
      vertex 0.0212 16.6746 2.5000
    endloop
  endfacet
  facet normal -0.999997 -0.002533 0.000000
    outer loop
      vertex 0.0152 19.0571 0.5000
      vertex 0.0212 16.6746 2.5000
      vertex 0.0152 19.0571 2.5000
    endloop
  endfacet
  facet normal -0.999999 -0.001690 0.000000
    outer loop
      vertex 0.0212 16.6746 0.5000
      vertex 0.0253 14.2940 0.5000
      vertex 0.0253 14.2940 2.5000
    endloop
  endfacet
  facet normal -0.999999 -0.001690 0.000000
    outer loop
      vertex 0.0212 16.6746 0.5000
      vertex 0.0253 14.2940 2.5000
      vertex 0.0212 16.6746 2.5000
    endloop
  endfacet
  facet normal -1.000000 -0.000596 0.000000
    outer loop
      vertex 0.0253 14.2940 0.5000
      vertex 0.0267 11.9146 0.5000
      vertex 0.0267 11.9146 2.5000
    endloop
  endfacet
  facet normal -1.000000 -0.000596 0.000000
    outer loop
      vertex 0.0253 14.2940 0.5000
      vertex 0.0267 11.9146 2.5000
      vertex 0.0253 14.2940 2.5000
    endloop
  endfacet
  facet normal -1.000000 0.000596 0.000000
    outer loop
      vertex 0.0267 11.9146 0.5000
      vertex 0.0253 9.5352 0.5000
      vertex 0.0253 9.5352 2.5000
    endloop
  endfacet
  facet normal -1.000000 0.000596 0.000000
    outer loop
      vertex 0.0267 11.9146 0.5000
      vertex 0.0253 9.5352 2.5000
      vertex 0.0267 11.9146 2.5000
    endloop
  endfacet
  facet normal -0.999999 0.001690 0.000000
    outer loop
      vertex 0.0253 9.5352 0.5000
      vertex 0.0212 7.1547 0.5000
      vertex 0.0212 7.1547 2.5000
    endloop
  endfacet
  facet normal -0.999999 0.001690 0.000000
    outer loop
      vertex 0.0253 9.5352 0.5000
      vertex 0.0212 7.1547 2.5000
      vertex 0.0253 9.5352 2.5000
    endloop
  endfacet
  facet normal -0.999997 0.002533 0.000000
    outer loop
      vertex 0.0212 7.1547 0.5000
      vertex 0.0152 4.7722 0.5000
      vertex 0.0152 4.7722 2.5000
    endloop
  endfacet
  facet normal -0.999997 0.002533 0.000000
    outer loop
      vertex 0.0212 7.1547 0.5000
      vertex 0.0152 4.7722 2.5000
      vertex 0.0212 7.1547 2.5000
    endloop
  endfacet
  facet normal -0.999995 0.003063 0.000000
    outer loop
      vertex 0.0152 4.7722 0.5000
      vertex 0.0079 2.3873 0.5000
      vertex 0.0079 2.3873 2.5000
    endloop
  endfacet
  facet normal -0.999995 0.003063 0.000000
    outer loop
      vertex 0.0152 4.7722 0.5000
      vertex 0.0079 2.3873 2.5000
      vertex 0.0152 4.7722 2.5000
    endloop
  endfacet
  facet normal -0.999995 0.003305 0.000000
    outer loop
      vertex 0.0079 2.3873 0.5000
      vertex 0.0000 0.0000 0.5000
      vertex 0.0000 0.0000 2.5000
    endloop
  endfacet
  facet normal -0.999995 0.003305 0.000000
    outer loop
      vertex 0.0079 2.3873 0.5000
      vertex 0.0000 0.0000 2.5000
      vertex 0.0079 2.3873 2.5000
    endloop
  endfacet
  facet normal 0.003050 -0.846301 0.532697
    outer loop
      vertex 0.0000 0.0000 2.5000
      vertex 2.5930 0.0093 2.5000
      vertex 2.9804 0.3255 3.0000
    endloop
  endfacet
  facet normal 0.013786 -0.873590 0.486467
    outer loop
      vertex 0.0000 0.0000 2.5000
      vertex 2.9804 0.3255 3.0000
      vertex 0.4109 0.2849 3.0000
    endloop
  endfacet
  facet normal 0.003398 -0.818820 0.574040
    outer loop
      vertex 2.5930 0.0093 2.5000
      vertex 5.1833 0.0201 2.5000
      vertex 5.5384 0.3721 3.0000
    endloop
  endfacet
  facet normal 0.015506 -0.850520 0.525714
    outer loop
      vertex 2.5930 0.0093 2.5000
      vertex 5.5384 0.3721 3.0000
      vertex 2.9804 0.3255 3.0000
    endloop
  endfacet
  facet normal 0.003647 -0.788115 0.615517
    outer loop
      vertex 5.1833 0.0201 2.5000
      vertex 7.7700 0.0321 2.5000
      vertex 8.0804 0.4240 3.0000
    endloop
  endfacet
  facet normal 0.016807 -0.823154 0.567569
    outer loop
      vertex 5.1833 0.0201 2.5000
      vertex 8.0804 0.4240 3.0000
      vertex 5.5384 0.3721 3.0000
    endloop
  endfacet
  facet normal 0.003643 -0.756557 0.653918
    outer loop
      vertex 7.7700 0.0321 2.5000
      vertex 10.3517 0.0445 2.5000
      vertex 10.6011 0.4779 3.0000
    endloop
  endfacet
  facet normal 0.016924 -0.791985 0.610306
    outer loop
      vertex 7.7700 0.0321 2.5000
      vertex 10.6011 0.4779 3.0000
      vertex 8.0804 0.4240 3.0000
    endloop
  endfacet
  facet normal 0.003169 -0.728703 0.684822
    outer loop
      vertex 10.3517 0.0445 2.5000
      vertex 12.9276 0.0557 2.5000
      vertex 13.0965 0.5263 3.0000
    endloop
  endfacet
  facet normal 0.014744 -0.759209 0.650680
    outer loop
      vertex 10.3517 0.0445 2.5000
      vertex 13.0965 0.5263 3.0000
      vertex 10.6011 0.4779 3.0000
    endloop
  endfacet
  facet normal 0.002040 -0.710775 0.703417
    outer loop
      vertex 12.9276 0.0557 2.5000
      vertex 15.4981 0.0631 2.5000
      vertex 15.5685 0.5581 3.0000
    endloop
  endfacet
  facet normal 0.009380 -0.729720 0.683682
    outer loop
      vertex 12.9276 0.0557 2.5000
      vertex 15.5685 0.5581 3.0000
      vertex 13.0965 0.5263 3.0000
    endloop
  endfacet
  facet normal 0.000317 -0.708074 0.706138
    outer loop
      vertex 15.4981 0.0631 2.5000
      vertex 18.0659 0.0642 2.5000
      vertex 18.0287 0.5628 3.0000
    endloop
  endfacet
  facet normal 0.001370 -0.710728 0.703465
    outer loop
      vertex 15.4981 0.0631 2.5000
      vertex 18.0287 0.5628 3.0000
      vertex 15.5685 0.5581 3.0000
    endloop
  endfacet
  facet normal -0.001546 -0.721560 0.692350
    outer loop
      vertex 18.0659 0.0642 2.5000
      vertex 20.6350 0.0587 2.5000
      vertex 20.4952 0.5388 3.0000
    endloop
  endfacet
  facet normal -0.006910 -0.708326 0.705852
    outer loop
      vertex 18.0659 0.0642 2.5000
      vertex 20.4952 0.5388 3.0000
      vertex 18.0287 0.5628 3.0000
    endloop
  endfacet
  facet normal -0.002973 -0.747069 0.664740
    outer loop
      vertex 20.6350 0.0587 2.5000
      vertex 23.2090 0.0485 2.5000
      vertex 22.9826 0.4943 3.0000
    endloop
  endfacet
  facet normal -0.012937 -0.723090 0.690633
    outer loop
      vertex 20.6350 0.0587 2.5000
      vertex 22.9826 0.4943 3.0000
      vertex 20.4952 0.5388 3.0000
    endloop
  endfacet
  facet normal -0.003699 -0.778200 0.628005
    outer loop
      vertex 23.2090 0.0485 2.5000
      vertex 25.7888 0.0362 2.5000
      vertex 25.4955 0.4411 3.0000
    endloop
  endfacet
  facet normal -0.015866 -0.749868 0.661397
    outer loop
      vertex 23.2090 0.0485 2.5000
      vertex 25.4955 0.4411 3.0000
      vertex 22.9826 0.4943 3.0000
    endloop
  endfacet
  facet normal 0.907346 0.289490 0.304828
    outer loop
      vertex 25.7888 0.0362 2.5000
      vertex 25.6826 0.3691 2.5000
      vertex 25.3862 0.7718 3.0000
    endloop
  endfacet
  facet normal 0.908695 0.300352 0.289934
    outer loop
      vertex 25.7888 0.0362 2.5000
      vertex 25.3862 0.7718 3.0000
      vertex 25.4955 0.4411 3.0000
    endloop
  endfacet
  facet normal 0.901721 0.274474 0.334012
    outer loop
      vertex 25.6826 0.3691 2.5000
      vertex 25.4108 1.2623 2.5000
      vertex 25.1051 1.6580 3.0000
    endloop
  endfacet
  facet normal 0.907411 0.287805 0.306224
    outer loop
      vertex 25.6826 0.3691 2.5000
      vertex 25.1051 1.6580 3.0000
      vertex 25.3862 0.7718 3.0000
    endloop
  endfacet
  facet normal 0.890189 0.252692 0.379093
    outer loop
      vertex 25.4108 1.2623 2.5000
      vertex 25.0433 2.5568 2.5000
      vertex 24.7217 2.9397 3.0000
    endloop
  endfacet
  facet normal 0.901747 0.269761 0.337758
    outer loop
      vertex 25.4108 1.2623 2.5000
      vertex 24.7217 2.9397 3.0000
      vertex 25.1051 1.6580 3.0000
    endloop
  endfacet
  facet normal 0.870049 0.222602 0.439845
    outer loop
      vertex 25.0433 2.5568 2.5000
      vertex 24.6501 4.0937 2.5000
      vertex 24.3048 4.4553 3.0000
    endloop
  endfacet
  facet normal 0.889883 0.244772 0.384961
    outer loop
      vertex 25.0433 2.5568 2.5000
      vertex 24.3048 4.4553 3.0000
      vertex 24.7217 2.9397 3.0000
    endloop
  endfacet
  facet normal 0.838702 0.180632 0.513761
    outer loop
      vertex 24.6501 4.0937 2.5000
      vertex 24.3013 5.7134 2.5000
      vertex 23.9242 6.0418 3.0000
    endloop
  endfacet
  facet normal 0.868769 0.208395 0.449235
    outer loop
      vertex 24.6501 4.0937 2.5000
      vertex 23.9242 6.0418 3.0000
      vertex 24.3048 4.4553 3.0000
    endloop
  endfacet
  facet normal 0.796651 0.120529 0.592300
    outer loop
      vertex 24.3013 5.7134 2.5000
      vertex 24.0678 7.2565 2.5000
      vertex 23.6537 7.5367 3.0000
    endloop
  endfacet
  facet normal 0.834446 0.151040 0.529988
    outer loop
      vertex 24.3013 5.7134 2.5000
      vertex 23.6537 7.5367 3.0000
      vertex 23.9242 6.0418 3.0000
    endloop
  endfacet
  facet normal 0.749420 0.026122 0.661580
    outer loop
      vertex 24.0678 7.2565 2.5000
      vertex 24.0222 8.5656 2.5000
      vertex 23.5731 8.7855 3.0000
    endloop
  endfacet
  facet normal 0.782874 0.050501 0.620128
    outer loop
      vertex 24.0678 7.2565 2.5000
      vertex 23.5731 8.7855 3.0000
      vertex 23.6537 7.5367 3.0000
    endloop
  endfacet
  facet normal 0.690371 -0.161227 0.705262
    outer loop
      vertex 24.0222 8.5656 2.5000
      vertex 24.2373 9.4868 2.5000
      vertex 23.7645 9.6495 3.0000
    endloop
  endfacet
  facet normal 0.700112 -0.155094 0.696986
    outer loop
      vertex 24.0222 8.5656 2.5000
      vertex 23.7645 9.6495 3.0000
      vertex 23.5731 8.7855 3.0000
    endloop
  endfacet
  facet normal 0.454176 -0.651316 0.607875
    outer loop
      vertex 24.2373 9.4868 2.5000
      vertex 24.7842 9.8681 2.5000
      vertex 24.3014 9.9981 3.0000
    endloop
  endfacet
  facet normal 0.427795 -0.658771 0.618879
    outer loop
      vertex 24.2373 9.4868 2.5000
      vertex 24.3014 9.9981 3.0000
      vertex 23.7645 9.6495 3.0000
    endloop
  endfacet
  facet normal -0.313591 -0.948242 -0.049979
    outer loop
      vertex 24.7842 9.8681 2.5000
      vertex 25.7321 9.5547 2.5000
      vertex 25.2501 9.6877 3.0000
    endloop
  endfacet
  facet normal -0.310529 -0.949078 -0.053135
    outer loop
      vertex 24.7842 9.8681 2.5000
      vertex 25.2501 9.6877 3.0000
      vertex 24.3014 9.9981 3.0000
    endloop
  endfacet
  facet normal -0.340658 -0.937572 -0.070079
    outer loop
      vertex 25.7321 9.5547 2.5000
      vertex 26.7855 9.1719 2.5000
      vertex 26.3047 9.3092 3.0000
    endloop
  endfacet
  facet normal -0.336832 -0.938577 -0.074954
    outer loop
      vertex 25.7321 9.5547 2.5000
      vertex 26.3047 9.3092 3.0000
      vertex 25.2501 9.6877 3.0000
    endloop
  endfacet
  facet normal 0.202971 -0.889642 0.409073
    outer loop
      vertex 26.7855 9.1719 2.5000
      vertex 27.6030 9.3584 2.5000
      vertex 27.1174 9.4776 3.0000
    endloop
  endfacet
  facet normal 0.183978 -0.888279 0.420848
    outer loop
      vertex 26.7855 9.1719 2.5000
      vertex 27.1174 9.4776 3.0000
      vertex 26.3047 9.3092 3.0000
    endloop
  endfacet
  facet normal 0.557076 -0.528642 0.640472
    outer loop
      vertex 27.6030 9.3584 2.5000
      vertex 28.1860 9.9728 2.5000
      vertex 27.6936 10.0596 3.0000
    endloop
  endfacet
  facet normal 0.539425 -0.533940 0.651098
    outer loop
      vertex 27.6030 9.3584 2.5000
      vertex 27.6936 10.0596 3.0000
      vertex 27.1174 9.4776 3.0000
    endloop
  endfacet
  facet normal 0.672004 -0.260952 0.693047
    outer loop
      vertex 28.1860 9.9728 2.5000
      vertex 28.5353 10.8724 2.5000
      vertex 28.0374 10.9181 3.0000
    endloop
  endfacet
  facet normal 0.663408 -0.265712 0.699491
    outer loop
      vertex 28.1860 9.9728 2.5000
      vertex 28.0374 10.9181 3.0000
      vertex 27.6936 10.0596 3.0000
    endloop
  endfacet
  facet normal 0.704913 -0.078704 0.704913
    outer loop
      vertex 28.5353 10.8724 2.5000
      vertex 28.6517 11.9146 2.5000
      vertex 28.1517 11.9146 3.0000
    endloop
  endfacet
  facet normal 0.702593 -0.080567 0.707016
    outer loop
      vertex 28.5353 10.8724 2.5000
      vertex 28.1517 11.9146 3.0000
      vertex 28.0374 10.9181 3.0000
    endloop
  endfacet
  facet normal 0.702808 0.078469 0.707039
    outer loop
      vertex 28.6517 11.9146 2.5000
      vertex 28.5353 12.9569 2.5000
      vertex 28.0374 12.9112 3.0000
    endloop
  endfacet
  facet normal 0.704794 0.080820 0.704794
    outer loop
      vertex 28.6517 11.9146 2.5000
      vertex 28.0374 12.9112 3.0000
      vertex 28.1517 11.9146 3.0000
    endloop
  endfacet
  facet normal 0.665476 0.258417 0.700259
    outer loop
      vertex 28.5353 12.9569 2.5000
      vertex 28.1860 13.8565 2.5000
      vertex 27.6936 13.7696 3.0000
    endloop
  endfacet
  facet normal 0.670201 0.268433 0.691935
    outer loop
      vertex 28.5353 12.9569 2.5000
      vertex 27.6936 13.7696 3.0000
      vertex 28.0374 12.9112 3.0000
    endloop
  endfacet
  facet normal 0.547667 0.519714 0.655713
    outer loop
      vertex 28.1860 13.8565 2.5000
      vertex 27.6030 14.4708 2.5000
      vertex 27.1174 14.3517 3.0000
    endloop
  endfacet
  facet normal 0.548989 0.543407 0.635074
    outer loop
      vertex 28.1860 13.8565 2.5000
      vertex 27.1174 14.3517 3.0000
      vertex 27.6936 13.7696 3.0000
    endloop
  endfacet
  facet normal 0.200402 0.878380 0.433922
    outer loop
      vertex 27.6030 14.4708 2.5000
      vertex 26.7855 14.6573 2.5000
      vertex 26.3047 14.5200 3.0000
    endloop
  endfacet
  facet normal 0.186301 0.899492 0.395229
    outer loop
      vertex 27.6030 14.4708 2.5000
      vertex 26.3047 14.5200 3.0000
      vertex 27.1174 14.3517 3.0000
    endloop
  endfacet
  facet normal -0.340434 0.936956 -0.078858
    outer loop
      vertex 26.7855 14.6573 2.5000
      vertex 25.7321 14.2746 2.5000
      vertex 25.2501 14.1415 3.0000
    endloop
  endfacet
  facet normal -0.337042 0.939162 -0.066166
    outer loop
      vertex 26.7855 14.6573 2.5000
      vertex 25.2501 14.1415 3.0000
      vertex 26.3047 14.5200 3.0000
    endloop
  endfacet
  facet normal -0.313486 0.947923 -0.056290
    outer loop
      vertex 25.7321 14.2746 2.5000
      vertex 24.7842 13.9611 2.5000
      vertex 24.3014 13.8311 3.0000
    endloop
  endfacet
  facet normal -0.310627 0.949378 -0.046820
    outer loop
      vertex 25.7321 14.2746 2.5000
      vertex 24.3014 13.8311 3.0000
      vertex 25.2501 14.1415 3.0000
    endloop
  endfacet
  facet normal 0.444954 0.638091 0.628375
    outer loop
      vertex 24.7842 13.9611 2.5000
      vertex 24.2373 14.3424 2.5000
      vertex 23.7645 14.1797 3.0000
    endloop
  endfacet
  facet normal 0.436972 0.672902 0.596874
    outer loop
      vertex 24.7842 13.9611 2.5000
      vertex 23.7645 14.1797 3.0000
      vertex 24.3014 13.8311 3.0000
    endloop
  endfacet
  facet normal 0.697381 0.162864 0.697951
    outer loop
      vertex 24.2373 14.3424 2.5000
      vertex 24.0222 15.2636 2.5000
      vertex 23.5731 15.0438 3.0000
    endloop
  endfacet
  facet normal 0.692592 0.153428 0.704824
    outer loop
      vertex 24.2373 14.3424 2.5000
      vertex 23.5731 15.0438 3.0000
      vertex 23.7645 14.1797 3.0000
    endloop
  endfacet
  facet normal 0.777260 -0.027092 0.628595
    outer loop
      vertex 24.0222 15.2636 2.5000
      vertex 24.0678 16.5727 2.5000
      vertex 23.6537 16.2926 3.0000
    endloop
  endfacet
  facet normal 0.753644 -0.048615 0.655482
    outer loop
      vertex 24.0222 15.2636 2.5000
      vertex 23.6537 16.2926 3.0000
      vertex 23.5731 15.0438 3.0000
    endloop
  endfacet
  facet normal 0.830036 -0.125580 0.543387
    outer loop
      vertex 24.0678 16.5727 2.5000
      vertex 24.3013 18.1159 2.5000
      vertex 23.9242 17.7875 3.0000
    endloop
  endfacet
  facet normal 0.800370 -0.144872 0.581739
    outer loop
      vertex 24.0678 16.5727 2.5000
      vertex 23.9242 17.7875 3.0000
      vertex 23.6537 16.2926 3.0000
    endloop
  endfacet
  facet normal 0.866324 -0.186581 0.463325
    outer loop
      vertex 24.3013 18.1159 2.5000
      vertex 24.6501 19.7355 2.5000
      vertex 24.3048 19.3739 3.0000
    endloop
  endfacet
  facet normal 0.841163 -0.201774 0.501729
    outer loop
      vertex 24.3013 18.1159 2.5000
      vertex 24.3048 19.3739 3.0000
      vertex 23.9242 17.7875 3.0000
    endloop
  endfacet
  facet normal 0.888918 -0.227429 0.397619
    outer loop
      vertex 24.6501 19.7355 2.5000
      vertex 25.0433 21.2724 2.5000
      vertex 24.7217 20.8896 3.0000
    endloop
  endfacet
  facet normal 0.871255 -0.239648 0.428349
    outer loop
      vertex 24.6501 19.7355 2.5000
      vertex 24.7217 20.8896 3.0000
      vertex 24.3048 19.3739 3.0000
    endloop
  endfacet
  facet normal 0.901639 -0.255942 0.348628
    outer loop
      vertex 25.0433 21.2724 2.5000
      vertex 25.4108 22.5670 2.5000
      vertex 25.1051 22.1713 3.0000
    endloop
  endfacet
  facet normal 0.890513 -0.266401 0.368805
    outer loop
      vertex 25.0433 21.2724 2.5000
      vertex 25.1051 22.1713 3.0000
      vertex 24.7217 20.8896 3.0000
    endloop
  endfacet
  facet normal 0.907745 -0.276308 0.315679
    outer loop
      vertex 25.4108 22.5670 2.5000
      vertex 25.6826 23.4601 2.5000
      vertex 25.3862 23.0574 3.0000
    endloop
  endfacet
  facet normal 0.901518 -0.285935 0.324818
    outer loop
      vertex 25.4108 22.5670 2.5000
      vertex 25.3862 23.0574 3.0000
      vertex 25.1051 22.1713 3.0000
    endloop
  endfacet
  facet normal 0.909235 -0.290093 0.298559
    outer loop
      vertex 25.6826 23.4601 2.5000
      vertex 25.7888 23.7930 2.5000
      vertex 25.4955 23.3881 3.0000
    endloop
  endfacet
  facet normal 0.906849 -0.299742 0.296277
    outer loop
      vertex 25.6826 23.4601 2.5000
      vertex 25.4955 23.3881 3.0000
      vertex 25.3862 23.0574 3.0000
    endloop
  endfacet
  facet normal -0.003552 0.747198 0.664592
    outer loop
      vertex 25.7888 23.7930 2.5000
      vertex 23.2090 23.7808 2.5000
      vertex 22.9826 23.3350 3.0000
    endloop
  endfacet
  facet normal -0.016541 0.781763 0.623356
    outer loop
      vertex 25.7888 23.7930 2.5000
      vertex 22.9826 23.3350 3.0000
      vertex 25.4955 23.3881 3.0000
    endloop
  endfacet
  facet normal -0.002872 0.721743 0.692155
    outer loop
      vertex 23.2090 23.7808 2.5000
      vertex 20.6350 23.7705 2.5000
      vertex 20.4952 23.2905 3.0000
    endloop
  endfacet
  facet normal -0.013406 0.749345 0.662044
    outer loop
      vertex 23.2090 23.7808 2.5000
      vertex 20.4952 23.2905 3.0000
      vertex 22.9826 23.3350 3.0000
    endloop
  endfacet
  facet normal -0.001517 0.708141 0.706069
    outer loop
      vertex 20.6350 23.7705 2.5000
      vertex 18.0659 23.7650 2.5000
      vertex 18.0287 23.2664 3.0000
    endloop
  endfacet
  facet normal -0.007046 0.722311 0.691532
    outer loop
      vertex 20.6350 23.7705 2.5000
      vertex 18.0287 23.2664 3.0000
      vertex 20.4952 23.2905 3.0000
    endloop
  endfacet
  facet normal 0.000319 0.710655 0.703541
    outer loop
      vertex 18.0659 23.7650 2.5000
      vertex 15.4981 23.7662 2.5000
      vertex 15.5685 23.2711 3.0000
    endloop
  endfacet
  facet normal 0.001365 0.708034 0.706177
    outer loop
      vertex 18.0659 23.7650 2.5000
      vertex 15.5685 23.2711 3.0000
      vertex 18.0287 23.2664 3.0000
    endloop
  endfacet
  facet normal 0.002091 0.728523 0.685018
    outer loop
      vertex 15.4981 23.7662 2.5000
      vertex 12.9276 23.7735 2.5000
      vertex 13.0965 23.3029 3.0000
    endloop
  endfacet
  facet normal 0.009143 0.711246 0.702884
    outer loop
      vertex 15.4981 23.7662 2.5000
      vertex 13.0965 23.3029 3.0000
      vertex 15.5685 23.2711 3.0000
    endloop
  endfacet
  facet normal 0.003290 0.756471 0.654020
    outer loop
      vertex 12.9276 23.7735 2.5000
      vertex 10.3517 23.7847 2.5000
      vertex 10.6011 23.3514 3.0000
    endloop
  endfacet
  facet normal 0.014186 0.730486 0.682780
    outer loop
      vertex 12.9276 23.7735 2.5000
      vertex 10.6011 23.3514 3.0000
      vertex 13.0965 23.3029 3.0000
    endloop
  endfacet
  facet normal 0.003795 0.788159 0.615459
    outer loop
      vertex 10.3517 23.7847 2.5000
      vertex 7.7700 23.7972 2.5000
      vertex 8.0804 23.4052 3.0000
    endloop
  endfacet
  facet normal 0.016231 0.759556 0.650239
    outer loop
      vertex 10.3517 23.7847 2.5000
      vertex 8.0804 23.4052 3.0000
      vertex 10.6011 23.3514 3.0000
    endloop
  endfacet
  facet normal 0.003790 0.818949 0.573853
    outer loop
      vertex 7.7700 23.7972 2.5000
      vertex 5.1833 23.8091 2.5000
      vertex 5.5384 23.4571 3.0000
    endloop
  endfacet
  facet normal 0.016166 0.791769 0.610607
    outer loop
      vertex 7.7700 23.7972 2.5000
      vertex 5.5384 23.4571 3.0000
      vertex 8.0804 23.4052 3.0000
    endloop
  endfacet
  facet normal 0.003513 0.846461 0.532439
    outer loop
      vertex 5.1833 23.8091 2.5000
      vertex 2.5930 23.8199 2.5000
      vertex 2.9804 23.5038 3.0000
    endloop
  endfacet
  facet normal 0.014997 0.822581 0.568451
    outer loop
      vertex 5.1833 23.8091 2.5000
      vertex 2.9804 23.5038 3.0000
      vertex 5.5384 23.4571 3.0000
    endloop
  endfacet
  facet normal 0.003136 0.869944 0.493141
    outer loop
      vertex 2.5930 23.8199 2.5000
      vertex 0.0000 23.8292 2.5000
      vertex 0.4109 23.5443 3.0000
    endloop
  endfacet
  facet normal 0.013411 0.849824 0.526897
    outer loop
      vertex 2.5930 23.8199 2.5000
      vertex 0.4109 23.5443 3.0000
      vertex 2.9804 23.5038 3.0000
    endloop
  endfacet
  facet normal -0.753373 -0.002490 0.657588
    outer loop
      vertex 0.0000 23.8292 2.5000
      vertex 0.0079 21.4419 2.5000
      vertex 0.4451 21.1994 3.0000
    endloop
  endfacet
  facet normal -0.775706 -0.011326 0.630993
    outer loop
      vertex 0.0000 23.8292 2.5000
      vertex 0.4451 21.1994 3.0000
      vertex 0.4109 23.5443 3.0000
    endloop
  endfacet
  facet normal -0.735159 -0.002252 0.677891
    outer loop
      vertex 0.0079 21.4419 2.5000
      vertex 0.0152 19.0571 2.5000
      vertex 0.4768 18.8650 3.0000
    endloop
  endfacet
  facet normal -0.755199 -0.010260 0.655415
    outer loop
      vertex 0.0079 21.4419 2.5000
      vertex 0.4768 18.8650 3.0000
      vertex 0.4451 21.1994 3.0000
    endloop
  endfacet
  facet normal -0.720326 -0.001825 0.693633
    outer loop
      vertex 0.0152 19.0571 2.5000
      vertex 0.0212 16.6746 2.5000
      vertex 0.5030 16.5409 3.0000
    endloop
  endfacet
  facet normal -0.736292 -0.008302 0.676613
    outer loop
      vertex 0.0152 19.0571 2.5000
      vertex 0.5030 16.5409 3.0000
      vertex 0.4768 18.8650 3.0000
    endloop
  endfacet
  facet normal -0.710548 -0.001201 0.703647
    outer loop
      vertex 0.0212 16.6746 2.5000
      vertex 0.0253 14.2940 2.5000
      vertex 0.5205 14.2254 3.0000
    endloop
  endfacet
  facet normal -0.720799 -0.005439 0.693123
    outer loop
      vertex 0.0212 16.6746 2.5000
      vertex 0.5205 14.2254 3.0000
      vertex 0.5030 16.5409 3.0000
    endloop
  endfacet
  facet normal -0.707107 -0.000421 0.707107
    outer loop
      vertex 0.0253 14.2940 2.5000
      vertex 0.0267 11.9146 2.5000
      vertex 0.5267 11.9146 3.0000
    endloop
  endfacet
  facet normal -0.710595 -0.001894 0.703599
    outer loop
      vertex 0.0253 14.2940 2.5000
      vertex 0.5267 11.9146 3.0000
      vertex 0.5205 14.2254 3.0000
    endloop
  endfacet
  facet normal -0.710495 0.000423 0.703702
    outer loop
      vertex 0.0267 11.9146 2.5000
      vertex 0.0253 9.5352 2.5000
      vertex 0.5205 9.6039 3.0000
    endloop
  endfacet
  facet normal -0.707106 0.001884 0.707106
    outer loop
      vertex 0.0267 11.9146 2.5000
      vertex 0.5205 9.6039 3.0000
      vertex 0.5267 11.9146 3.0000
    endloop
  endfacet
  facet normal -0.720246 0.001217 0.693718
    outer loop
      vertex 0.0253 9.5352 2.5000
      vertex 0.0212 7.1547 2.5000
      vertex 0.5030 7.2883 3.0000
    endloop
  endfacet
  facet normal -0.710824 0.005364 0.703349
    outer loop
      vertex 0.0253 9.5352 2.5000
      vertex 0.5030 7.2883 3.0000
      vertex 0.5205 9.6039 3.0000
    endloop
  endfacet
  facet normal -0.735085 0.001862 0.677973
    outer loop
      vertex 0.0212 7.1547 2.5000
      vertex 0.0152 4.7722 2.5000
      vertex 0.4768 4.9642 3.0000
    endloop
  endfacet
  facet normal -0.721145 0.008131 0.692736
    outer loop
      vertex 0.0212 7.1547 2.5000
      vertex 0.4768 4.9642 3.0000
      vertex 0.5030 7.2883 3.0000
    endloop
  endfacet
  facet normal -0.753330 0.002308 0.657639
    outer loop
      vertex 0.0152 4.7722 2.5000
      vertex 0.0079 2.3873 2.5000
      vertex 0.4451 2.6298 3.0000
    endloop
  endfacet
  facet normal -0.736606 0.010007 0.676248
    outer loop
      vertex 0.0152 4.7722 2.5000
      vertex 0.4451 2.6298 3.0000
      vertex 0.4768 4.9642 3.0000
    endloop
  endfacet
  facet normal -0.773310 0.002556 0.634023
    outer loop
      vertex 0.0079 2.3873 2.5000
      vertex 0.0000 0.0000 2.5000
      vertex 0.4109 0.2849 3.0000
    endloop
  endfacet
  facet normal -0.755377 0.011029 0.655198
    outer loop
      vertex 0.0079 2.3873 2.5000
      vertex 0.4109 0.2849 3.0000
      vertex 0.4451 2.6298 3.0000
    endloop
  endfacet
  facet normal 0.000000 0.000000 1.000000
    outer loop
      vertex 0.4451 2.6298 3.0000
      vertex 0.4109 0.2849 3.0000
      vertex 2.9804 0.3255 3.0000
    endloop
  endfacet
  facet normal 0.000000 0.000000 1.000000
    outer loop
      vertex 0.4451 2.6298 3.0000
      vertex 2.9804 0.3255 3.0000
      vertex 5.5384 0.3721 3.0000
    endloop
  endfacet
  facet normal 0.000000 0.000000 1.000000
    outer loop
      vertex 0.4451 2.6298 3.0000
      vertex 5.5384 0.3721 3.0000
      vertex 8.0804 0.4240 3.0000
    endloop
  endfacet
  facet normal 0.000000 0.000000 1.000000
    outer loop
      vertex 0.4451 2.6298 3.0000
      vertex 8.0804 0.4240 3.0000
      vertex 10.6011 0.4779 3.0000
    endloop
  endfacet
  facet normal 0.000000 0.000000 1.000000
    outer loop
      vertex 0.4451 2.6298 3.0000
      vertex 10.6011 0.4779 3.0000
      vertex 13.0965 0.5263 3.0000
    endloop
  endfacet
  facet normal 0.000000 0.000000 1.000000
    outer loop
      vertex 0.4451 2.6298 3.0000
      vertex 13.0965 0.5263 3.0000
      vertex 15.5685 0.5581 3.0000
    endloop
  endfacet
  facet normal 0.000000 0.000000 1.000000
    outer loop
      vertex 0.4451 2.6298 3.0000
      vertex 15.5685 0.5581 3.0000
      vertex 18.0287 0.5628 3.0000
    endloop
  endfacet
  facet normal 0.000000 0.000000 1.000000
    outer loop
      vertex 0.4451 2.6298 3.0000
      vertex 18.0287 0.5628 3.0000
      vertex 20.4952 0.5388 3.0000
    endloop
  endfacet
  facet normal 0.000000 0.000000 1.000000
    outer loop
      vertex 0.4451 2.6298 3.0000
      vertex 20.4952 0.5388 3.0000
      vertex 22.9826 0.4943 3.0000
    endloop
  endfacet
  facet normal 0.000000 0.000000 1.000000
    outer loop
      vertex 0.4451 2.6298 3.0000
      vertex 22.9826 0.4943 3.0000
      vertex 25.4955 0.4411 3.0000
    endloop
  endfacet
  facet normal 0.000000 0.000000 1.000000
    outer loop
      vertex 0.4451 2.6298 3.0000
      vertex 25.4955 0.4411 3.0000
      vertex 25.3862 0.7718 3.0000
    endloop
  endfacet
  facet normal 0.000000 0.000000 1.000000
    outer loop
      vertex 0.4451 2.6298 3.0000
      vertex 25.3862 0.7718 3.0000
      vertex 25.1051 1.6580 3.0000
    endloop
  endfacet
  facet normal -0.000000 0.000000 1.000000
    outer loop
      vertex 0.4451 2.6298 3.0000
      vertex 25.1051 1.6580 3.0000
      vertex 24.7217 2.9397 3.0000
    endloop
  endfacet
  facet normal 0.000000 0.000000 1.000000
    outer loop
      vertex 0.4451 2.6298 3.0000
      vertex 24.7217 2.9397 3.0000
      vertex 24.3048 4.4553 3.0000
    endloop
  endfacet
  facet normal 0.000000 0.000000 1.000000
    outer loop
      vertex 0.4451 2.6298 3.0000
      vertex 24.3048 4.4553 3.0000
      vertex 23.9242 6.0418 3.0000
    endloop
  endfacet
  facet normal 0.000000 0.000000 1.000000
    outer loop
      vertex 0.4451 2.6298 3.0000
      vertex 23.9242 6.0418 3.0000
      vertex 23.6537 7.5367 3.0000
    endloop
  endfacet
  facet normal 0.000000 0.000000 1.000000
    outer loop
      vertex 0.4451 2.6298 3.0000
      vertex 23.6537 7.5367 3.0000
      vertex 23.5731 8.7855 3.0000
    endloop
  endfacet
  facet normal 0.000000 0.000000 1.000000
    outer loop
      vertex 0.4451 2.6298 3.0000
      vertex 23.5731 8.7855 3.0000
      vertex 23.7645 9.6495 3.0000
    endloop
  endfacet
  facet normal 0.000000 0.000000 1.000000
    outer loop
      vertex 0.4451 2.6298 3.0000
      vertex 23.7645 9.6495 3.0000
      vertex 24.3014 9.9981 3.0000
    endloop
  endfacet
  facet normal 0.000000 0.000000 1.000000
    outer loop
      vertex 25.2501 9.6877 3.0000
      vertex 26.3047 9.3092 3.0000
      vertex 27.1174 9.4776 3.0000
    endloop
  endfacet
  facet normal 0.000000 0.000000 1.000000
    outer loop
      vertex 24.3014 9.9981 3.0000
      vertex 25.2501 9.6877 3.0000
      vertex 27.1174 9.4776 3.0000
    endloop
  endfacet
  facet normal -0.000000 0.000000 1.000000
    outer loop
      vertex 24.3014 9.9981 3.0000
      vertex 27.1174 9.4776 3.0000
      vertex 27.6936 10.0596 3.0000
    endloop
  endfacet
  facet normal 0.000000 0.000000 1.000000
    outer loop
      vertex 24.3014 9.9981 3.0000
      vertex 27.6936 10.0596 3.0000
      vertex 28.0374 10.9181 3.0000
    endloop
  endfacet
  facet normal 0.000000 0.000000 1.000000
    outer loop
      vertex 24.3014 9.9981 3.0000
      vertex 28.0374 10.9181 3.0000
      vertex 28.1517 11.9146 3.0000
    endloop
  endfacet
  facet normal 0.000000 0.000000 1.000000
    outer loop
      vertex 0.4451 2.6298 3.0000
      vertex 24.3014 9.9981 3.0000
      vertex 28.1517 11.9146 3.0000
    endloop
  endfacet
  facet normal 0.000000 0.000000 1.000000
    outer loop
      vertex 0.4451 2.6298 3.0000
      vertex 28.1517 11.9146 3.0000
      vertex 28.0374 12.9112 3.0000
    endloop
  endfacet
  facet normal 0.000000 0.000000 1.000000
    outer loop
      vertex 0.4451 2.6298 3.0000
      vertex 28.0374 12.9112 3.0000
      vertex 27.6936 13.7696 3.0000
    endloop
  endfacet
  facet normal 0.000000 0.000000 1.000000
    outer loop
      vertex 0.4451 2.6298 3.0000
      vertex 27.6936 13.7696 3.0000
      vertex 27.1174 14.3517 3.0000
    endloop
  endfacet
  facet normal 0.000000 0.000000 1.000000
    outer loop
      vertex 0.4451 2.6298 3.0000
      vertex 27.1174 14.3517 3.0000
      vertex 26.3047 14.5200 3.0000
    endloop
  endfacet
  facet normal 0.000000 0.000000 1.000000
    outer loop
      vertex 0.4451 2.6298 3.0000
      vertex 26.3047 14.5200 3.0000
      vertex 25.2501 14.1415 3.0000
    endloop
  endfacet
  facet normal 0.000000 0.000000 1.000000
    outer loop
      vertex 0.4451 2.6298 3.0000
      vertex 25.2501 14.1415 3.0000
      vertex 24.3014 13.8311 3.0000
    endloop
  endfacet
  facet normal 0.000000 0.000000 1.000000
    outer loop
      vertex 0.4451 2.6298 3.0000
      vertex 24.3014 13.8311 3.0000
      vertex 23.7645 14.1797 3.0000
    endloop
  endfacet
  facet normal 0.000000 0.000000 1.000000
    outer loop
      vertex 0.4451 2.6298 3.0000
      vertex 23.7645 14.1797 3.0000
      vertex 23.5731 15.0438 3.0000
    endloop
  endfacet
  facet normal 0.000000 0.000000 1.000000
    outer loop
      vertex 0.4451 2.6298 3.0000
      vertex 23.5731 15.0438 3.0000
      vertex 23.6537 16.2926 3.0000
    endloop
  endfacet
  facet normal 0.000000 0.000000 1.000000
    outer loop
      vertex 0.4451 2.6298 3.0000
      vertex 23.6537 16.2926 3.0000
      vertex 23.9242 17.7875 3.0000
    endloop
  endfacet
  facet normal 0.000000 0.000000 1.000000
    outer loop
      vertex 0.4451 2.6298 3.0000
      vertex 23.9242 17.7875 3.0000
      vertex 24.3048 19.3739 3.0000
    endloop
  endfacet
  facet normal 0.000000 0.000000 1.000000
    outer loop
      vertex 0.4451 2.6298 3.0000
      vertex 24.3048 19.3739 3.0000
      vertex 24.7217 20.8896 3.0000
    endloop
  endfacet
  facet normal 0.000000 0.000000 1.000000
    outer loop
      vertex 0.4451 2.6298 3.0000
      vertex 24.7217 20.8896 3.0000
      vertex 25.1051 22.1713 3.0000
    endloop
  endfacet
  facet normal 0.000000 0.000000 1.000000
    outer loop
      vertex 0.4451 2.6298 3.0000
      vertex 25.1051 22.1713 3.0000
      vertex 25.3862 23.0574 3.0000
    endloop
  endfacet
  facet normal 0.000000 0.000000 1.000000
    outer loop
      vertex 0.4451 2.6298 3.0000
      vertex 25.3862 23.0574 3.0000
      vertex 25.4955 23.3881 3.0000
    endloop
  endfacet
  facet normal 0.000000 0.000000 1.000000
    outer loop
      vertex 0.4451 2.6298 3.0000
      vertex 25.4955 23.3881 3.0000
      vertex 22.9826 23.3350 3.0000
    endloop
  endfacet
  facet normal 0.000000 0.000000 1.000000
    outer loop
      vertex 0.4451 2.6298 3.0000
      vertex 22.9826 23.3350 3.0000
      vertex 20.4952 23.2905 3.0000
    endloop
  endfacet
  facet normal 0.000000 0.000000 1.000000
    outer loop
      vertex 0.4451 2.6298 3.0000
      vertex 20.4952 23.2905 3.0000
      vertex 18.0287 23.2664 3.0000
    endloop
  endfacet
  facet normal 0.000000 0.000000 1.000000
    outer loop
      vertex 0.4451 2.6298 3.0000
      vertex 18.0287 23.2664 3.0000
      vertex 15.5685 23.2711 3.0000
    endloop
  endfacet
  facet normal 0.000000 0.000000 1.000000
    outer loop
      vertex 0.4451 2.6298 3.0000
      vertex 15.5685 23.2711 3.0000
      vertex 13.0965 23.3029 3.0000
    endloop
  endfacet
  facet normal 0.000000 0.000000 1.000000
    outer loop
      vertex 0.4451 2.6298 3.0000
      vertex 13.0965 23.3029 3.0000
      vertex 10.6011 23.3514 3.0000
    endloop
  endfacet
  facet normal 0.000000 0.000000 1.000000
    outer loop
      vertex 0.4451 2.6298 3.0000
      vertex 10.6011 23.3514 3.0000
      vertex 8.0804 23.4052 3.0000
    endloop
  endfacet
  facet normal 0.000000 0.000000 1.000000
    outer loop
      vertex 0.4451 2.6298 3.0000
      vertex 8.0804 23.4052 3.0000
      vertex 5.5384 23.4571 3.0000
    endloop
  endfacet
  facet normal 0.000000 0.000000 1.000000
    outer loop
      vertex 0.4451 2.6298 3.0000
      vertex 5.5384 23.4571 3.0000
      vertex 2.9804 23.5038 3.0000
    endloop
  endfacet
  facet normal 0.000000 0.000000 1.000000
    outer loop
      vertex 2.9804 23.5038 3.0000
      vertex 0.4109 23.5443 3.0000
      vertex 0.4451 21.1994 3.0000
    endloop
  endfacet
  facet normal 0.000000 0.000000 1.000000
    outer loop
      vertex 2.9804 23.5038 3.0000
      vertex 0.4451 21.1994 3.0000
      vertex 0.4768 18.8650 3.0000
    endloop
  endfacet
  facet normal 0.000000 0.000000 1.000000
    outer loop
      vertex 2.9804 23.5038 3.0000
      vertex 0.4768 18.8650 3.0000
      vertex 0.5030 16.5409 3.0000
    endloop
  endfacet
  facet normal 0.000000 0.000000 1.000000
    outer loop
      vertex 2.9804 23.5038 3.0000
      vertex 0.5030 16.5409 3.0000
      vertex 0.5205 14.2254 3.0000
    endloop
  endfacet
  facet normal 0.000000 0.000000 1.000000
    outer loop
      vertex 2.9804 23.5038 3.0000
      vertex 0.5205 14.2254 3.0000
      vertex 0.5267 11.9146 3.0000
    endloop
  endfacet
  facet normal 0.000000 0.000000 1.000000
    outer loop
      vertex 2.9804 23.5038 3.0000
      vertex 0.5267 11.9146 3.0000
      vertex 0.5205 9.6039 3.0000
    endloop
  endfacet
  facet normal 0.000000 0.000000 1.000000
    outer loop
      vertex 2.9804 23.5038 3.0000
      vertex 0.5205 9.6039 3.0000
      vertex 0.5030 7.2883 3.0000
    endloop
  endfacet
  facet normal 0.000000 0.000000 1.000000
    outer loop
      vertex 2.9804 23.5038 3.0000
      vertex 0.5030 7.2883 3.0000
      vertex 0.4768 4.9642 3.0000
    endloop
  endfacet
  facet normal 0.000000 0.000000 1.000000
    outer loop
      vertex 2.9804 23.5038 3.0000
      vertex 0.4768 4.9642 3.0000
      vertex 0.4451 2.6298 3.0000
    endloop
  endfacet
endsolid pyjigsaw-0p30-piece-01
