<svg xmlns="http://www.w3.org/2000/svg" viewBox="-1 -1 73.24 25.80" width="72.24mm" height="23.80mm">
  <rect x="-1" y="-1" width="73.24" height="25.80" fill="#f6f7f4"/>
  <path d="M 25.76 0.00 L 25.70 0.20 L 25.70 0.20 L 25.43 1.10 L 25.43 1.10 L 25.07 2.40 L 25.07 2.40 L 24.68 3.95 L 24.68 3.95 L 24.34 5.58 L 24.34 5.59 L 24.12 7.14 L 24.12 7.15 L 24.08 8.48 L 24.08 8.50 L 24.08 8.51 L 24.31 9.45 L 24.31 9.46 L 24.32 9.47 L 24.32 9.48 L 24.33 9.50 L 24.34 9.50 L 24.89 9.90 L 24.91 9.90 L 24.92 9.91 L 24.93 9.91 L 24.94 9.91 L 24.96 9.91 L 24.97 9.91 L 24.98 9.91 L 25.93 9.59 L 25.93 9.59 L 26.96 9.22 L 27.72 9.40 L 28.27 9.99 L 28.61 10.87 L 28.72 11.90 L 28.61 12.93 L 28.27 13.81 L 27.72 14.40 L 26.96 14.58 L 25.93 14.21 L 25.93 14.21 L 24.98 13.89 L 24.97 13.89 L 24.96 13.89 L 24.94 13.89 L 24.93 13.89 L 24.92 13.89 L 24.91 13.90 L 24.89 13.90 L 24.34 14.30 L 24.33 14.30 L 24.32 14.32 L 24.32 14.33 L 24.31 14.34 L 24.31 14.35 L 24.08 15.29 L 24.08 15.30 L 24.08 15.32 L 24.12 16.65 L 24.12 16.66 L 24.34 18.21 L 24.34 18.22 L 24.68 19.85 L 24.68 19.85 L 25.07 21.40 L 25.07 21.40 L 25.43 22.70 L 25.43 22.70 L 25.70 23.60 L 25.70 23.60 L 25.76 23.80 L 0.00 23.80 L 0.00 0.00 Z" fill="#196a60" stroke="#ffffff" stroke-width="0.25"/><path d="M 64.24 0.00 L 64.24 23.80 L 38.42 23.80 L 38.33 23.54 L 38.07 22.64 L 37.70 21.35 L 37.32 19.81 L 36.98 18.18 L 36.76 16.63 L 36.72 15.33 L 36.94 14.44 L 37.41 14.10 L 38.31 14.39 L 39.36 14.78 L 39.38 14.78 L 39.39 14.78 L 39.41 14.78 L 39.42 14.78 L 40.24 14.59 L 40.25 14.58 L 40.27 14.58 L 40.28 14.57 L 40.29 14.56 L 40.87 13.94 L 40.88 13.93 L 40.89 13.92 L 40.89 13.90 L 41.25 12.99 L 41.25 12.98 L 41.25 12.97 L 41.37 11.91 L 41.37 11.90 L 41.37 11.89 L 41.25 10.83 L 41.25 10.82 L 41.25 10.81 L 40.89 9.90 L 40.89 9.88 L 40.88 9.87 L 40.87 9.86 L 40.29 9.24 L 40.28 9.23 L 40.27 9.22 L 40.25 9.22 L 40.24 9.21 L 39.42 9.02 L 39.41 9.02 L 39.39 9.02 L 39.38 9.02 L 39.36 9.02 L 38.31 9.41 L 37.41 9.70 L 36.94 9.36 L 36.72 8.47 L 36.76 7.17 L 36.98 5.62 L 37.32 3.99 L 37.70 2.45 L 38.07 1.16 L 38.33 0.26 L 38.42 0.00 Z" fill="#b06b14" stroke="#ffffff" stroke-width="0.25"/>
</svg>
