solid pyjigsaw-0p50-piece-02
  facet normal -0.000000 0.000000 -1.000000
    outer loop
      vertex 4.6493 0.9717 0.0000
      vertex 2.2165 0.8694 0.0000
      vertex 2.1305 1.1887 0.0000
    endloop
  endfacet
  facet normal -0.000000 0.000000 -1.000000
    outer loop
      vertex 7.0330 1.0575 0.0000
      vertex 4.6493 0.9717 0.0000
      vertex 2.1305 1.1887 0.0000
    endloop
  endfacet
  facet normal -0.000000 0.000000 -1.000000
    outer loop
      vertex 9.3766 1.1041 0.0000
      vertex 7.0330 1.0575 0.0000
      vertex 2.1305 1.1887 0.0000
    endloop
  endfacet
  facet normal 0.000000 0.000000 -1.000000
    outer loop
      vertex 11.7078 1.0954 0.0000
      vertex 9.3766 1.1041 0.0000
      vertex 2.1305 1.1887 0.0000
    endloop
  endfacet
  facet normal 0.000000 0.000000 -1.000000
    outer loop
      vertex 21.3951 0.7381 0.0000
      vertex 18.9069 0.8380 0.0000
      vertex 16.4598 0.9416 0.0000
    endloop
  endfacet
  facet normal 0.000000 0.000000 -1.000000
    outer loop
      vertex 23.9143 0.6484 0.0000
      vertex 21.3951 0.7381 0.0000
      vertex 16.4598 0.9416 0.0000
    endloop
  endfacet
  facet normal 0.000000 0.000000 -1.000000
    outer loop
      vertex 26.4554 0.5703 0.0000
      vertex 23.9143 0.6484 0.0000
      vertex 16.4598 0.9416 0.0000
    endloop
  endfacet
  facet normal 0.000000 0.000000 -1.000000
    outer loop
      vertex 26.4554 0.5703 0.0000
      vertex 16.4598 0.9416 0.0000
      vertex 14.0613 1.0346 0.0000
    endloop
  endfacet
  facet normal 0.000000 -0.000000 -1.000000
    outer loop
      vertex 26.3895 2.8644 0.0000
      vertex 26.4554 0.5703 0.0000
      vertex 14.0613 1.0346 0.0000
    endloop
  endfacet
  facet normal 0.000000 0.000000 -1.000000
    outer loop
      vertex 26.3895 2.8644 0.0000
      vertex 14.0613 1.0346 0.0000
      vertex 11.7078 1.0954 0.0000
    endloop
  endfacet
  facet normal 0.000000 0.000000 -1.000000
    outer loop
      vertex 26.3895 2.8644 0.0000
      vertex 11.7078 1.0954 0.0000
      vertex 2.1305 1.1887 0.0000
    endloop
  endfacet
  facet normal 0.000000 -0.000000 -1.000000
    outer loop
      vertex 26.3284 5.1381 0.0000
      vertex 26.3895 2.8644 0.0000
      vertex 2.1305 1.1887 0.0000
    endloop
  endfacet
  facet normal 0.000000 -0.000000 -1.000000
    outer loop
      vertex 26.2779 7.3920 0.0000
      vertex 26.3284 5.1381 0.0000
      vertex 2.1305 1.1887 0.0000
    endloop
  endfacet
  facet normal 0.000000 -0.000000 -1.000000
    outer loop
      vertex 26.2443 9.6295 0.0000
      vertex 26.2779 7.3920 0.0000
      vertex 2.1305 1.1887 0.0000
    endloop
  endfacet
  facet normal 0.000000 -0.000000 -1.000000
    outer loop
      vertex 26.2324 11.8577 0.0000
      vertex 26.2443 9.6295 0.0000
      vertex 2.1305 1.1887 0.0000
    endloop
  endfacet
  facet normal 0.000000 0.000000 -1.000000
    outer loop
      vertex 26.2443 14.0859 0.0000
      vertex 26.2324 11.8577 0.0000
      vertex 2.1305 1.1887 0.0000
    endloop
  endfacet
  facet normal 0.000000 0.000000 -1.000000
    outer loop
      vertex 26.2779 16.3234 0.0000
      vertex 26.2443 14.0859 0.0000
      vertex 2.1305 1.1887 0.0000
    endloop
  endfacet
  facet normal 0.000000 0.000000 -1.000000
    outer loop
      vertex 26.3284 18.5773 0.0000
      vertex 26.2779 16.3234 0.0000
      vertex 2.1305 1.1887 0.0000
    endloop
  endfacet
  facet normal 0.000000 0.000000 -1.000000
    outer loop
      vertex 26.3895 20.8510 0.0000
      vertex 26.3284 18.5773 0.0000
      vertex 2.1305 1.1887 0.0000
    endloop
  endfacet
  facet normal 0.000000 0.000000 -1.000000
    outer loop
      vertex 26.4554 23.1451 0.0000
      vertex 26.3895 20.8510 0.0000
      vertex 2.1305 1.1887 0.0000
    endloop
  endfacet
  facet normal 0.000000 -0.000000 -1.000000
    outer loop
      vertex 23.9143 23.0670 0.0000
      vertex 26.4554 23.1451 0.0000
      vertex 2.1305 1.1887 0.0000
    endloop
  endfacet
  facet normal 0.000000 -0.000000 -1.000000
    outer loop
      vertex 21.3951 22.9773 0.0000
      vertex 23.9143 23.0670 0.0000
      vertex 2.1305 1.1887 0.0000
    endloop
  endfacet
  facet normal 0.000000 -0.000000 -1.000000
    outer loop
      vertex 18.9069 22.8774 0.0000
      vertex 21.3951 22.9773 0.0000
      vertex 2.1305 1.1887 0.0000
    endloop
  endfacet
  facet normal 0.000000 -0.000000 -1.000000
    outer loop
      vertex 16.4598 22.7738 0.0000
      vertex 18.9069 22.8774 0.0000
      vertex 2.1305 1.1887 0.0000
    endloop
  endfacet
  facet normal 0.000000 -0.000000 -1.000000
    outer loop
      vertex 14.0613 22.6808 0.0000
      vertex 16.4598 22.7738 0.0000
      vertex 2.1305 1.1887 0.0000
    endloop
  endfacet
  facet normal 0.000000 -0.000000 -1.000000
    outer loop
      vertex 11.7078 22.6200 0.0000
      vertex 14.0613 22.6808 0.0000
      vertex 2.1305 1.1887 0.0000
    endloop
  endfacet
  facet normal 0.000000 0.000000 -1.000000
    outer loop
      vertex 2.1305 22.5266 0.0000
      vertex 2.2165 22.8459 0.0000
      vertex 4.6493 22.7437 0.0000
    endloop
  endfacet
  facet normal 0.000000 0.000000 -1.000000
    outer loop
      vertex 2.1305 22.5266 0.0000
      vertex 4.6493 22.7437 0.0000
      vertex 7.0330 22.6579 0.0000
    endloop
  endfacet
  facet normal 0.000000 0.000000 -1.000000
    outer loop
      vertex 2.1305 22.5266 0.0000
      vertex 7.0330 22.6579 0.0000
      vertex 9.3766 22.6113 0.0000
    endloop
  endfacet
  facet normal 0.000000 0.000000 -1.000000
    outer loop
      vertex 2.1305 22.5266 0.0000
      vertex 9.3766 22.6113 0.0000
      vertex 11.7078 22.6200 0.0000
    endloop
  endfacet
  facet normal 0.000000 0.000000 -1.000000
    outer loop
      vertex 1.9137 21.6732 0.0000
      vertex 2.1305 22.5266 0.0000
      vertex 11.7078 22.6200 0.0000
    endloop
  endfacet
  facet normal 0.000000 0.000000 -1.000000
    outer loop
      vertex 1.6278 20.4453 0.0000
      vertex 1.9137 21.6732 0.0000
      vertex 11.7078 22.6200 0.0000
    endloop
  endfacet
  facet normal 0.000000 0.000000 -1.000000
    outer loop
      vertex 1.3321 19.0025 0.0000
      vertex 1.6278 20.4453 0.0000
      vertex 11.7078 22.6200 0.0000
    endloop
  endfacet
  facet normal 0.000000 0.000000 -1.000000
    outer loop
      vertex 1.0825 17.4994 0.0000
      vertex 1.3321 19.0025 0.0000
      vertex 11.7078 22.6200 0.0000
    endloop
  endfacet
  facet normal 0.000000 0.000000 -1.000000
    outer loop
      vertex 0.9348 16.0811 0.0000
      vertex 1.0825 17.4994 0.0000
      vertex 11.7078 22.6200 0.0000
    endloop
  endfacet
  facet normal 0.000000 0.000000 -1.000000
    outer loop
      vertex 0.9504 14.8838 0.0000
      vertex 0.9348 16.0811 0.0000
      vertex 11.7078 22.6200 0.0000
    endloop
  endfacet
  facet normal 0.000000 0.000000 -1.000000
    outer loop
      vertex 1.1995 14.0397 0.0000
      vertex 0.9504 14.8838 0.0000
      vertex 11.7078 22.6200 0.0000
    endloop
  endfacet
  facet normal 0.000000 0.000000 -1.000000
    outer loop
      vertex 1.7565 13.6794 0.0000
      vertex 1.1995 14.0397 0.0000
      vertex 11.7078 22.6200 0.0000
    endloop
  endfacet
  facet normal -0.000000 0.000000 -1.000000
    outer loop
      vertex 2.6875 13.9255 0.0000
      vertex 1.7565 13.6794 0.0000
      vertex 11.7078 22.6200 0.0000
    endloop
  endfacet
  facet normal -0.000000 0.000000 -1.000000
    outer loop
      vertex 3.7101 14.2144 0.0000
      vertex 2.6875 13.9255 0.0000
      vertex 11.7078 22.6200 0.0000
    endloop
  endfacet
  facet normal 0.000000 0.000000 -1.000000
    outer loop
      vertex 4.5232 14.0065 0.0000
      vertex 3.7101 14.2144 0.0000
      vertex 11.7078 22.6200 0.0000
    endloop
  endfacet
  facet normal 0.000000 0.000000 -1.000000
    outer loop
      vertex 5.1317 13.4503 0.0000
      vertex 4.5232 14.0065 0.0000
      vertex 11.7078 22.6200 0.0000
    endloop
  endfacet
  facet normal 0.000000 0.000000 -1.000000
    outer loop
      vertex 5.5209 12.6935 0.0000
      vertex 5.1317 13.4503 0.0000
      vertex 11.7078 22.6200 0.0000
    endloop
  endfacet
  facet normal 0.000000 0.000000 -1.000000
    outer loop
      vertex 5.6574 11.8577 0.0000
      vertex 5.5209 12.6935 0.0000
      vertex 11.7078 22.6200 0.0000
    endloop
  endfacet
  facet normal 0.000000 0.000000 -1.000000
    outer loop
      vertex 5.5209 11.0219 0.0000
      vertex 5.6574 11.8577 0.0000
      vertex 11.7078 22.6200 0.0000
    endloop
  endfacet
  facet normal 0.000000 -0.000000 -1.000000
    outer loop
      vertex 5.5209 11.0219 0.0000
      vertex 11.7078 22.6200 0.0000
      vertex 2.1305 1.1887 0.0000
    endloop
  endfacet
  facet normal 0.000000 -0.000000 -1.000000
    outer loop
      vertex 5.1317 10.2651 0.0000
      vertex 5.5209 11.0219 0.0000
      vertex 2.1305 1.1887 0.0000
    endloop
  endfacet
  facet normal 0.000000 -0.000000 -1.000000
    outer loop
      vertex 4.5232 9.7089 0.0000
      vertex 5.1317 10.2651 0.0000
      vertex 2.1305 1.1887 0.0000
    endloop
  endfacet
  facet normal 0.000000 -0.000000 -1.000000
    outer loop
      vertex 3.7101 9.5010 0.0000
      vertex 4.5232 9.7089 0.0000
      vertex 2.1305 1.1887 0.0000
    endloop
  endfacet
  facet normal 0.000000 -0.000000 -1.000000
    outer loop
      vertex 2.6875 9.7899 0.0000
      vertex 3.7101 9.5010 0.0000
      vertex 2.1305 1.1887 0.0000
    endloop
  endfacet
  facet normal 0.000000 0.000000 -1.000000
    outer loop
      vertex 1.7565 10.0360 0.0000
      vertex 2.6875 9.7899 0.0000
      vertex 2.1305 1.1887 0.0000
    endloop
  endfacet
  facet normal 0.000000 0.000000 -1.000000
    outer loop
      vertex 1.1995 9.6757 0.0000
      vertex 1.7565 10.0360 0.0000
      vertex 2.1305 1.1887 0.0000
    endloop
  endfacet
  facet normal 0.000000 0.000000 -1.000000
    outer loop
      vertex 0.9504 8.8316 0.0000
      vertex 1.1995 9.6757 0.0000
      vertex 2.1305 1.1887 0.0000
    endloop
  endfacet
  facet normal 0.000000 0.000000 -1.000000
    outer loop
      vertex 0.9348 7.6343 0.0000
      vertex 0.9504 8.8316 0.0000
      vertex 2.1305 1.1887 0.0000
    endloop
  endfacet
  facet normal 0.000000 0.000000 -1.000000
    outer loop
      vertex 1.0825 6.2160 0.0000
      vertex 0.9348 7.6343 0.0000
      vertex 2.1305 1.1887 0.0000
    endloop
  endfacet
  facet normal 0.000000 0.000000 -1.000000
    outer loop
      vertex 1.3321 4.7129 0.0000
      vertex 1.0825 6.2160 0.0000
      vertex 2.1305 1.1887 0.0000
    endloop
  endfacet
  facet normal 0.000000 0.000000 -1.000000
    outer loop
      vertex 1.6278 3.2701 0.0000
      vertex 1.3321 4.7129 0.0000
      vertex 2.1305 1.1887 0.0000
    endloop
  endfacet
  facet normal 0.000000 0.000000 -1.000000
    outer loop
      vertex 2.1305 1.1887 0.0000
      vertex 1.9137 2.0422 0.0000
      vertex 1.6278 3.2701 0.0000
    endloop
  endfacet
  facet normal 0.031678 -0.753376 -0.656826
    outer loop
      vertex 2.2165 0.8694 0.0000
      vertex 4.6493 0.9717 0.0000
      vertex 4.1952 0.0808 1.0000
    endloop
  endfacet
  facet normal 0.006205 -0.779178 -0.626772
    outer loop
      vertex 2.2165 0.8694 0.0000
      vertex 4.1952 0.0808 1.0000
      vertex 1.6288 0.0604 1.0000
    endloop
  endfacet
  facet normal 0.026085 -0.724926 -0.688333
    outer loop
      vertex 4.6493 0.9717 0.0000
      vertex 7.0330 1.0575 0.0000
      vertex 6.7518 0.0979 1.0000
    endloop
  endfacet
  facet normal 0.004993 -0.747765 -0.663945
    outer loop
      vertex 4.6493 0.9717 0.0000
      vertex 6.7518 0.0979 1.0000
      vertex 4.1952 0.0808 1.0000
    endloop
  endfacet
  facet normal 0.014098 -0.708601 -0.705469
    outer loop
      vertex 7.0330 1.0575 0.0000
      vertex 9.3766 1.1041 0.0000
      vertex 9.3004 0.1070 1.0000
    endloop
  endfacet
  facet normal 0.002598 -0.721879 -0.692014
    outer loop
      vertex 7.0330 1.0575 0.0000
      vertex 9.3004 0.1070 1.0000
      vertex 6.7518 0.0979 1.0000
    endloop
  endfacet
  facet normal -0.002655 -0.710725 -0.703465
    outer loop
      vertex 9.3766 1.1041 0.0000
      vertex 11.7078 1.0954 0.0000
      vertex 11.8467 0.1051 1.0000
    endloop
  endfacet
  facet normal -0.000534 -0.708114 -0.706098
    outer loop
      vertex 9.3766 1.1041 0.0000
      vertex 11.8467 0.1051 1.0000
      vertex 9.3004 0.1070 1.0000
    endloop
  endfacet
  facet normal -0.018883 -0.731004 -0.682112
    outer loop
      vertex 11.7078 1.0954 0.0000
      vertex 14.0613 1.0346 0.0000
      vertex 14.3975 0.0928 1.0000
    endloop
  endfacet
  facet normal -0.003426 -0.710777 -0.703409
    outer loop
      vertex 11.7078 1.0954 0.0000
      vertex 14.3975 0.0928 1.0000
      vertex 11.8467 0.1051 1.0000
    endloop
  endfacet
  facet normal -0.029575 -0.762313 -0.646532
    outer loop
      vertex 14.0613 1.0346 0.0000
      vertex 16.4598 0.9416 0.0000
      vertex 16.9573 0.0742 1.0000
    endloop
  endfacet
  facet normal -0.005316 -0.728855 -0.684648
    outer loop
      vertex 14.0613 1.0346 0.0000
      vertex 16.9573 0.0742 1.0000
      vertex 14.3975 0.0928 1.0000
    endloop
  endfacet
  facet normal -0.033706 -0.796352 -0.603894
    outer loop
      vertex 16.4598 0.9416 0.0000
      vertex 18.9069 0.8380 0.0000
      vertex 19.5269 0.0534 1.0000
    endloop
  endfacet
  facet normal -0.006103 -0.756893 -0.653510
    outer loop
      vertex 16.4598 0.9416 0.0000
      vertex 19.5269 0.0534 1.0000
      vertex 16.9573 0.0742 1.0000
    endloop
  endfacet
  facet normal -0.033231 -0.827942 -0.559828
    outer loop
      vertex 18.9069 0.8380 0.0000
      vertex 21.3951 0.7381 0.0000
      vertex 22.1047 0.0335 1.0000
    endloop
  endfacet
  facet normal -0.006103 -0.788575 -0.614908
    outer loop
      vertex 18.9069 0.8380 0.0000
      vertex 22.1047 0.0335 1.0000
      vertex 19.5269 0.0534 1.0000
    endloop
  endfacet
  facet normal -0.030472 -0.855125 -0.517526
    outer loop
      vertex 21.3951 0.7381 0.0000
      vertex 23.9143 0.6484 0.0000
      vertex 24.6886 0.0156 1.0000
    endloop
  endfacet
  facet normal -0.005682 -0.819324 -0.573303
    outer loop
      vertex 21.3951 0.7381 0.0000
      vertex 24.6886 0.0156 1.0000
      vertex 22.1047 0.0335 1.0000
    endloop
  endfacet
  facet normal -0.026962 -0.877715 -0.478424
    outer loop
      vertex 23.9143 0.6484 0.0000
      vertex 26.4554 0.5703 0.0000
      vertex 27.2769 0.0000 1.0000
    endloop
  endfacet
  facet normal -0.005096 -0.846791 -0.531901
    outer loop
      vertex 23.9143 0.6484 0.0000
      vertex 27.2769 0.0000 1.0000
      vertex 24.6886 0.0156 1.0000
    endloop
  endfacet
  facet normal 0.757912 0.021780 -0.651993
    outer loop
      vertex 26.4554 0.5703 0.0000
      vertex 26.3895 2.8644 0.0000
      vertex 27.2637 2.3788 1.0000
    endloop
  endfacet
  facet normal 0.773915 0.004278 -0.633275
    outer loop
      vertex 26.4554 0.5703 0.0000
      vertex 27.2637 2.3788 1.0000
      vertex 27.2769 0.0000 1.0000
    endloop
  endfacet
  facet normal 0.738439 0.019837 -0.674029
    outer loop
      vertex 26.3895 2.8644 0.0000
      vertex 26.3284 5.1381 0.0000
      vertex 27.2515 4.7536 1.0000
    endloop
  endfacet
  facet normal 0.753798 0.003865 -0.657095
    outer loop
      vertex 26.3895 2.8644 0.0000
      vertex 27.2515 4.7536 1.0000
      vertex 27.2637 2.3788 1.0000
    endloop
  endfacet
  facet normal 0.722180 0.016176 -0.691516
    outer loop
      vertex 26.3284 5.1381 0.0000
      vertex 26.2779 7.3920 0.0000
      vertex 27.2415 7.1244 1.0000
    endloop
  endfacet
  facet normal 0.735387 0.003120 -0.677640
    outer loop
      vertex 26.3284 5.1381 0.0000
      vertex 27.2415 7.1244 1.0000
      vertex 27.2515 4.7536 1.0000
    endloop
  endfacet
  facet normal 0.711170 0.010701 -0.702939
    outer loop
      vertex 26.2779 7.3920 0.0000
      vertex 26.2443 9.6295 0.0000
      vertex 27.2348 9.4920 1.0000
    endloop
  endfacet
  facet normal 0.720386 0.002040 -0.693570
    outer loop
      vertex 26.2779 7.3920 0.0000
      vertex 27.2348 9.4920 1.0000
      vertex 27.2415 7.1244 1.0000
    endloop
  endfacet
  facet normal 0.707102 0.003766 -0.707102
    outer loop
      vertex 26.2443 9.6295 0.0000
      vertex 26.2324 11.8577 0.0000
      vertex 27.2324 11.8577 1.0000
    endloop
  endfacet
  facet normal 0.710523 0.000710 -0.703673
    outer loop
      vertex 26.2443 9.6295 0.0000
      vertex 27.2324 11.8577 1.0000
      vertex 27.2348 9.4920 1.0000
    endloop
  endfacet
  facet normal 0.710730 -0.003785 -0.703455
    outer loop
      vertex 26.2324 11.8577 0.0000
      vertex 26.2443 14.0859 0.0000
      vertex 27.2348 14.2234 1.0000
    endloop
  endfacet
  facet normal 0.707107 -0.000706 -0.707107
    outer loop
      vertex 26.2324 11.8577 0.0000
      vertex 27.2348 14.2234 1.0000
      vertex 27.2324 11.8577 1.0000
    endloop
  endfacet
  facet normal 0.721523 -0.010857 -0.692306
    outer loop
      vertex 26.2443 14.0859 0.0000
      vertex 26.2779 16.3234 0.0000
      vertex 27.2415 16.5910 1.0000
    endloop
  endfacet
  facet normal 0.710612 -0.002012 -0.703581
    outer loop
      vertex 26.2443 14.0859 0.0000
      vertex 27.2415 16.5910 1.0000
      vertex 27.2348 14.2234 1.0000
    endloop
  endfacet
  facet normal 0.737852 -0.016527 -0.674760
    outer loop
      vertex 26.2779 16.3234 0.0000
      vertex 26.3284 18.5773 0.0000
      vertex 27.2515 18.9618 1.0000
    endloop
  endfacet
  facet normal 0.720520 -0.003057 -0.693427
    outer loop
      vertex 26.2779 16.3234 0.0000
      vertex 27.2515 18.9618 1.0000
      vertex 27.2415 16.5910 1.0000
    endloop
  endfacet
  facet normal 0.757594 -0.020351 -0.652408
    outer loop
      vertex 26.3284 18.5773 0.0000
      vertex 26.3895 20.8510 0.0000
      vertex 27.2637 21.3366 1.0000
    endloop
  endfacet
  facet normal 0.735510 -0.003771 -0.677503
    outer loop
      vertex 26.3284 18.5773 0.0000
      vertex 27.2637 21.3366 1.0000
      vertex 27.2515 18.9618 1.0000
    endloop
  endfacet
  facet normal 0.778755 -0.022379 -0.626929
    outer loop
      vertex 26.3895 20.8510 0.0000
      vertex 26.4554 23.1451 0.0000
      vertex 27.2769 23.7154 1.0000
    endloop
  endfacet
  facet normal 0.753870 -0.004167 -0.657011
    outer loop
      vertex 26.3895 20.8510 0.0000
      vertex 27.2769 23.7154 1.0000
      vertex 27.2637 21.3366 1.0000
    endloop
  endfacet
  facet normal -0.026227 0.853785 -0.519965
    outer loop
      vertex 26.4554 23.1451 0.0000
      vertex 23.9143 23.0670 0.0000
      vertex 24.6886 23.6998 1.0000
    endloop
  endfacet
  facet normal -0.005239 0.870495 -0.492150
    outer loop
      vertex 26.4554 23.1451 0.0000
      vertex 24.6886 23.6998 1.0000
      vertex 27.2769 23.7154 1.0000
    endloop
  endfacet
  facet normal -0.029463 0.826812 -0.561706
    outer loop
      vertex 23.9143 23.0670 0.0000
      vertex 21.3951 22.9773 0.0000
      vertex 22.1047 23.6819 1.0000
    endloop
  endfacet
  facet normal -0.005874 0.847058 -0.531468
    outer loop
      vertex 23.9143 23.0670 0.0000
      vertex 22.1047 23.6819 1.0000
      vertex 24.6886 23.6998 1.0000
    endloop
  endfacet
  facet normal -0.031944 0.795878 -0.604614
    outer loop
      vertex 21.3951 22.9773 0.0000
      vertex 18.9069 22.8774 0.0000
      vertex 19.5269 23.6620 1.0000
    endloop
  endfacet
  facet normal -0.006342 0.819540 -0.572986
    outer loop
      vertex 21.3951 22.9773 0.0000
      vertex 19.5269 23.6620 1.0000
      vertex 22.1047 23.6819 1.0000
    endloop
  endfacet
  facet normal -0.032290 0.762910 -0.645698
    outer loop
      vertex 18.9069 22.8774 0.0000
      vertex 16.4598 22.7738 0.0000
      vertex 16.9573 23.6412 1.0000
    endloop
  endfacet
  facet normal -0.006359 0.788651 -0.614808
    outer loop
      vertex 18.9069 22.8774 0.0000
      vertex 16.9573 23.6412 1.0000
      vertex 19.5269 23.6620 1.0000
    endloop
  endfacet
  facet normal -0.028415 0.732429 -0.680250
    outer loop
      vertex 16.4598 22.7738 0.0000
      vertex 14.0613 22.6808 0.0000
      vertex 14.3975 23.6226 1.0000
    endloop
  endfacet
  facet normal -0.005520 0.756753 -0.653678
    outer loop
      vertex 16.4598 22.7738 0.0000
      vertex 14.3975 23.6226 1.0000
      vertex 16.9573 23.6412 1.0000
    endloop
  endfacet
  facet normal -0.018385 0.711699 -0.702244
    outer loop
      vertex 14.0613 22.6808 0.0000
      vertex 11.7078 22.6200 0.0000
      vertex 11.8467 23.6103 1.0000
    endloop
  endfacet
  facet normal -0.003511 0.728558 -0.684975
    outer loop
      vertex 14.0613 22.6808 0.0000
      vertex 11.8467 23.6103 1.0000
      vertex 14.3975 23.6226 1.0000
    endloop
  endfacet
  facet normal -0.002645 0.708031 -0.706176
    outer loop
      vertex 11.7078 22.6200 0.0000
      vertex 9.3766 22.6113 0.0000
      vertex 9.3004 23.6083 1.0000
    endloop
  endfacet
  facet normal -0.000535 0.710580 -0.703616
    outer loop
      vertex 11.7078 22.6200 0.0000
      vertex 9.3004 23.6083 1.0000
      vertex 11.8467 23.6103 1.0000
    endloop
  endfacet
  facet normal 0.014393 0.723461 -0.690215
    outer loop
      vertex 9.3766 22.6113 0.0000
      vertex 7.0330 22.6579 0.0000
      vertex 6.7518 23.6175 1.0000
    endloop
  endfacet
  facet normal 0.002549 0.708229 -0.705978
    outer loop
      vertex 9.3766 22.6113 0.0000
      vertex 6.7518 23.6175 1.0000
      vertex 9.3004 23.6083 1.0000
    endloop
  endfacet
  facet normal 0.027076 0.752451 -0.658092
    outer loop
      vertex 7.0330 22.6579 0.0000
      vertex 4.6493 22.7437 0.0000
      vertex 4.1952 23.6346 1.0000
    endloop
  endfacet
  facet normal 0.004822 0.722185 -0.691683
    outer loop
      vertex 7.0330 22.6579 0.0000
      vertex 4.1952 23.6346 1.0000
      vertex 6.7518 23.6175 1.0000
    endloop
  endfacet
  facet normal 0.033066 0.786401 -0.616830
    outer loop
      vertex 4.6493 22.7437 0.0000
      vertex 2.2165 22.8459 0.0000
      vertex 1.6288 23.6550 1.0000
    endloop
  endfacet
  facet normal 0.005957 0.747978 -0.663697
    outer loop
      vertex 4.6493 22.7437 0.0000
      vertex 1.6288 23.6550 1.0000
      vertex 4.1952 23.6346 1.0000
    endloop
  endfacet
  facet normal -0.757767 0.204051 -0.619801
    outer loop
      vertex 2.2165 22.8459 0.0000
      vertex 2.1305 22.5266 0.0000
      vertex 1.5274 23.3243 1.0000
    endloop
  endfacet
  facet normal -0.746886 0.229046 -0.624259
    outer loop
      vertex 2.2165 22.8459 0.0000
      vertex 1.5274 23.3243 1.0000
      vertex 1.6288 23.6550 1.0000
    endloop
  endfacet
  facet normal -0.751944 0.190998 -0.630952
    outer loop
      vertex 2.1305 22.5266 0.0000
      vertex 1.9137 21.6732 0.0000
      vertex 1.2687 22.4374 1.0000
    endloop
  endfacet
  facet normal -0.748797 0.218353 -0.625799
    outer loop
      vertex 2.1305 22.5266 0.0000
      vertex 1.2687 22.4374 1.0000
      vertex 1.5274 23.3243 1.0000
    endloop
  endfacet
  facet normal -0.742645 0.172901 -0.646981
    outer loop
      vertex 1.9137 21.6732 0.0000
      vertex 1.6278 20.4453 0.0000
      vertex 0.9214 21.1531 1.0000
    endloop
  endfacet
  facet normal -0.745688 0.201642 -0.635051
    outer loop
      vertex 1.9137 21.6732 0.0000
      vertex 0.9214 21.1531 1.0000
      vertex 1.2687 22.4374 1.0000
    endloop
  endfacet
  facet normal -0.732232 0.150080 -0.664314
    outer loop
      vertex 1.6278 20.4453 0.0000
      vertex 1.3321 19.0025 0.0000
      vertex 0.5535 19.6299 1.0000
    endloop
  endfacet
  facet normal -0.739591 0.178672 -0.648909
    outer loop
      vertex 1.6278 20.4453 0.0000
      vertex 0.5535 19.6299 1.0000
      vertex 0.9214 21.1531 1.0000
    endloop
  endfacet
  facet normal -0.724168 0.120253 -0.679058
    outer loop
      vertex 1.3321 19.0025 0.0000
      vertex 1.0825 17.4994 0.0000
      vertex 0.2322 18.0257 1.0000
    endloop
  endfacet
  facet normal -0.733658 0.146925 -0.663444
    outer loop
      vertex 1.3321 19.0025 0.0000
      vertex 0.2322 18.0257 1.0000
      vertex 0.5535 19.6299 1.0000
    endloop
  endfacet
  facet normal -0.721828 0.075189 -0.687976
    outer loop
      vertex 1.0825 17.4994 0.0000
      vertex 0.9348 16.0811 0.0000
      vertex 0.0249 16.4960 1.0000
    endloop
  endfacet
  facet normal -0.731706 0.099162 -0.674369
    outer loop
      vertex 1.0825 17.4994 0.0000
      vertex 0.0249 16.4960 1.0000
      vertex 0.2322 18.0257 1.0000
    endloop
  endfacet
  facet normal -0.726289 -0.009479 -0.687324
    outer loop
      vertex 0.9348 16.0811 0.0000
      vertex 0.9504 14.8838 0.0000
      vertex 0.0000 15.1948 1.0000
    endloop
  endfacet
  facet normal -0.736655 0.014093 -0.676122
    outer loop
      vertex 0.9348 16.0811 0.0000
      vertex 0.0000 15.1948 1.0000
      vertex 0.0249 16.4960 1.0000
    endloop
  endfacet
  facet normal -0.725242 -0.214038 -0.654379
    outer loop
      vertex 0.9504 14.8838 0.0000
      vertex 1.1995 14.0397 0.0000
      vertex 0.2277 14.2753 1.0000
    endloop
  endfacet
  facet normal -0.740408 -0.183352 -0.646667
    outer loop
      vertex 0.9504 14.8838 0.0000
      vertex 0.2277 14.2753 1.0000
      vertex 0.0000 15.1948 1.0000
    endloop
  endfacet
  facet normal -0.512040 -0.791557 -0.333546
    outer loop
      vertex 1.1995 14.0397 0.0000
      vertex 1.7565 13.6794 0.0000
      vertex 0.7790 13.8903 1.0000
    endloop
  endfacet
  facet normal -0.538148 -0.770613 -0.341397
    outer loop
      vertex 1.1995 14.0397 0.0000
      vertex 0.7790 13.8903 1.0000
      vertex 0.2277 14.2753 1.0000
    endloop
  endfacet
  facet normal 0.228375 -0.863631 0.449430
    outer loop
      vertex 1.7565 13.6794 0.0000
      vertex 2.6875 13.9255 0.0000
      vertex 1.7233 14.1910 1.0000
    endloop
  endfacet
  facet normal 0.271633 -0.853093 0.445474
    outer loop
      vertex 1.7565 13.6794 0.0000
      vertex 1.7233 14.1910 1.0000
      vertex 0.7790 13.8903 1.0000
    endloop
  endfacet
  facet normal 0.234745 -0.830978 0.504352
    outer loop
      vertex 2.6875 13.9255 0.0000
      vertex 3.7101 14.2144 0.0000
      vertex 2.7702 14.5558 1.0000
    endloop
  endfacet
  facet normal 0.286178 -0.821095 0.493867
    outer loop
      vertex 2.6875 13.9255 0.0000
      vertex 2.7702 14.5558 1.0000
      vertex 1.7233 14.1910 1.0000
    endloop
  endfacet
  facet normal -0.246253 -0.962867 0.110668
    outer loop
      vertex 3.7101 14.2144 0.0000
      vertex 4.5232 14.0065 0.0000
      vertex 3.5880 14.3606 1.0000
    endloop
  endfacet
  facet normal -0.230738 -0.966422 0.113082
    outer loop
      vertex 3.7101 14.2144 0.0000
      vertex 3.5880 14.3606 1.0000
      vertex 2.7702 14.5558 1.0000
    endloop
  endfacet
  facet normal -0.621522 -0.679990 -0.389003
    outer loop
      vertex 4.5232 14.0065 0.0000
      vertex 5.1317 13.4503 0.0000
      vertex 4.1777 13.7502 1.0000
    endloop
  endfacet
  facet normal -0.661523 -0.639105 -0.392342
    outer loop
      vertex 4.5232 14.0065 0.0000
      vertex 4.1777 13.7502 1.0000
      vertex 3.5880 14.3606 1.0000
    endloop
  endfacet
  facet normal -0.696134 -0.357935 -0.622318
    outer loop
      vertex 5.1317 13.4503 0.0000
      vertex 5.5209 12.6935 0.0000
      vertex 4.5364 12.8694 1.0000
    endloop
  endfacet
  facet normal -0.733664 -0.298788 -0.610298
    outer loop
      vertex 5.1317 13.4503 0.0000
      vertex 4.5364 12.8694 1.0000
      vertex 4.1777 13.7502 1.0000
    endloop
  endfacet
  facet normal -0.702434 -0.114773 -0.702434
    outer loop
      vertex 5.5209 12.6935 0.0000
      vertex 5.6574 11.8577 0.0000
      vertex 4.6574 11.8577 1.0000
    endloop
  endfacet
  facet normal -0.717516 -0.085794 -0.691238
    outer loop
      vertex 5.5209 12.6935 0.0000
      vertex 4.6574 11.8577 1.0000
      vertex 4.5364 12.8694 1.0000
    endloop
  endfacet
  facet normal -0.717959 0.117310 -0.686129
    outer loop
      vertex 5.6574 11.8577 0.0000
      vertex 5.5209 11.0219 0.0000
      vertex 4.5364 10.8460 1.0000
    endloop
  endfacet
  facet normal -0.704593 0.084249 -0.704593
    outer loop
      vertex 5.6574 11.8577 0.0000
      vertex 4.5364 10.8460 1.0000
      vertex 4.6574 11.8577 1.0000
    endloop
  endfacet
  facet normal -0.724707 0.372627 -0.579611
    outer loop
      vertex 5.5209 11.0219 0.0000
      vertex 5.1317 10.2651 0.0000
      vertex 4.1777 9.9652 1.0000
    endloop
  endfacet
  facet normal -0.707282 0.288044 -0.645587
    outer loop
      vertex 5.5209 11.0219 0.0000
      vertex 4.1777 9.9652 1.0000
      vertex 4.5364 10.8460 1.0000
    endloop
  endfacet
  facet normal -0.632829 0.692360 -0.346649
    outer loop
      vertex 5.1317 10.2651 0.0000
      vertex 4.5232 9.7089 0.0000
      vertex 3.5880 9.3548 1.0000
    endloop
  endfacet
  facet normal -0.648939 0.626947 -0.431064
    outer loop
      vertex 5.1317 10.2651 0.0000
      vertex 3.5880 9.3548 1.0000
      vertex 4.1777 9.9652 1.0000
    endloop
  endfacet
  facet normal -0.246596 0.964209 0.097422
    outer loop
      vertex 4.5232 9.7089 0.0000
      vertex 3.7101 9.5010 0.0000
      vertex 2.7702 9.1596 1.0000
    endloop
  endfacet
  facet normal -0.230370 0.964881 0.126234
    outer loop
      vertex 4.5232 9.7089 0.0000
      vertex 2.7702 9.1596 1.0000
      vertex 3.5880 9.3548 1.0000
    endloop
  endfacet
  facet normal 0.241435 0.854659 0.459639
    outer loop
      vertex 3.7101 9.5010 0.0000
      vertex 2.6875 9.7899 0.0000
      vertex 1.7233 9.5244 1.0000
    endloop
  endfacet
  facet normal 0.278243 0.798329 0.534089
    outer loop
      vertex 3.7101 9.5010 0.0000
      vertex 1.7233 9.5244 1.0000
      vertex 2.7702 9.1596 1.0000
    endloop
  endfacet
  facet normal 0.232797 0.880352 0.413262
    outer loop
      vertex 2.6875 9.7899 0.0000
      vertex 1.7565 10.0360 0.0000
      vertex 0.7790 9.8251 1.0000
    endloop
  endfacet
  facet normal 0.266355 0.836516 0.478849
    outer loop
      vertex 2.6875 9.7899 0.0000
      vertex 0.7790 9.8251 1.0000
      vertex 1.7233 9.5244 1.0000
    endloop
  endfacet
  facet normal -0.515787 0.797349 -0.313365
    outer loop
      vertex 1.7565 10.0360 0.0000
      vertex 1.1995 9.6757 0.0000
      vertex 0.2277 9.4401 1.0000
    endloop
  endfacet
  facet normal -0.534007 0.764683 -0.360688
    outer loop
      vertex 1.7565 10.0360 0.0000
      vertex 0.2277 9.4401 1.0000
      vertex 0.7790 9.8251 1.0000
    endloop
  endfacet
  facet normal -0.740368 0.218502 -0.635698
    outer loop
      vertex 1.1995 9.6757 0.0000
      vertex 0.9504 8.8316 0.0000
      vertex 0.0000 8.5206 1.0000
    endloop
  endfacet
  facet normal -0.726285 0.179855 -0.663448
    outer loop
      vertex 1.1995 9.6757 0.0000
      vertex 0.0000 8.5206 1.0000
      vertex 0.2277 9.4401 1.0000
    endloop
  endfacet
  facet normal -0.741606 0.009679 -0.670765
    outer loop
      vertex 0.9504 8.8316 0.0000
      vertex 0.9348 7.6343 0.0000
      vertex 0.0249 7.2194 1.0000
    endloop
  endfacet
  facet normal -0.722632 -0.013824 -0.691095
    outer loop
      vertex 0.9504 8.8316 0.0000
      vertex 0.0249 7.2194 1.0000
      vertex 0.0000 8.5206 1.0000
    endloop
  endfacet
  facet normal -0.739197 -0.076998 -0.669074
    outer loop
      vertex 0.9348 7.6343 0.0000
      vertex 1.0825 6.2160 0.0000
      vertex 0.2322 5.6897 1.0000
    endloop
  endfacet
  facet normal -0.715796 -0.097006 -0.691539
    outer loop
      vertex 0.9348 7.6343 0.0000
      vertex 0.2322 5.6897 1.0000
      vertex 0.0249 7.2194 1.0000
    endloop
  endfacet
  facet normal -0.743917 -0.123533 -0.656755
    outer loop
      vertex 1.0825 6.2160 0.0000
      vertex 1.3321 4.7129 0.0000
      vertex 0.5535 4.0855 1.0000
    endloop
  endfacet
  facet normal -0.715475 -0.143284 -0.683787
    outer loop
      vertex 1.0825 6.2160 0.0000
      vertex 0.5535 4.0855 1.0000
      vertex 0.2322 5.6897 1.0000
    endloop
  endfacet
  facet normal -0.752282 -0.154190 -0.640545
    outer loop
      vertex 1.3321 4.7129 0.0000
      vertex 1.6278 3.2701 0.0000
      vertex 0.9214 2.5623 1.0000
    endloop
  endfacet
  facet normal -0.720998 -0.174180 -0.670689
    outer loop
      vertex 1.3321 4.7129 0.0000
      vertex 0.9214 2.5623 1.0000
      vertex 0.5535 4.0855 1.0000
    endloop
  endfacet
  facet normal -0.759985 -0.176938 -0.625393
    outer loop
      vertex 1.6278 3.2701 0.0000
      vertex 1.9137 2.0422 0.0000
      vertex 1.2687 1.2780 1.0000
    endloop
  endfacet
  facet normal -0.729488 -0.197262 -0.654931
    outer loop
      vertex 1.6278 3.2701 0.0000
      vertex 1.2687 1.2780 1.0000
      vertex 0.9214 2.5623 1.0000
    endloop
  endfacet
  facet normal -0.763882 -0.194030 -0.615497
    outer loop
      vertex 1.9137 2.0422 0.0000
      vertex 2.1305 1.1887 0.0000
      vertex 1.5274 0.3911 1.0000
    endloop
  endfacet
  facet normal -0.737579 -0.215082 -0.640091
    outer loop
      vertex 1.9137 2.0422 0.0000
      vertex 1.5274 0.3911 1.0000
      vertex 1.2687 1.2780 1.0000
    endloop
  endfacet
  facet normal -0.762173 -0.205237 -0.613979
    outer loop
      vertex 2.1305 1.1887 0.0000
      vertex 2.2165 0.8694 0.0000
      vertex 1.6288 0.0604 1.0000
    endloop
  endfacet
  facet normal -0.742734 -0.227773 -0.629655
    outer loop
      vertex 2.1305 1.1887 0.0000
      vertex 1.6288 0.0604 1.0000
      vertex 1.5274 0.3911 1.0000
    endloop
  endfacet
  facet normal 0.007964 -0.999968 0.000000
    outer loop
      vertex 1.6288 0.0604 1.0000
      vertex 4.1952 0.0808 1.0000
      vertex 4.1952 0.0808 2.0000
    endloop
  endfacet
  facet normal 0.007964 -0.999968 0.000000
    outer loop
      vertex 1.6288 0.0604 1.0000
      vertex 4.1952 0.0808 2.0000
      vertex 1.6288 0.0604 2.0000
    endloop
  endfacet
  facet normal 0.006677 -0.999978 0.000000
    outer loop
      vertex 4.1952 0.0808 1.0000
      vertex 6.7518 0.0979 1.0000
      vertex 6.7518 0.0979 2.0000
    endloop
  endfacet
  facet normal 0.006677 -0.999978 0.000000
    outer loop
      vertex 4.1952 0.0808 1.0000
      vertex 6.7518 0.0979 2.0000
      vertex 4.1952 0.0808 2.0000
    endloop
  endfacet
  facet normal 0.003599 -0.999994 0.000000
    outer loop
      vertex 6.7518 0.0979 1.0000
      vertex 9.3004 0.1070 1.0000
      vertex 9.3004 0.1070 2.0000
    endloop
  endfacet
  facet normal 0.003599 -0.999994 0.000000
    outer loop
      vertex 6.7518 0.0979 1.0000
      vertex 9.3004 0.1070 2.0000
      vertex 6.7518 0.0979 2.0000
    endloop
  endfacet
  facet normal -0.000753 -1.000000 0.000000
    outer loop
      vertex 9.3004 0.1070 1.0000
      vertex 11.8467 0.1051 1.0000
      vertex 11.8467 0.1051 2.0000
    endloop
  endfacet
  facet normal -0.000753 -1.000000 0.000000
    outer loop
      vertex 9.3004 0.1070 1.0000
      vertex 11.8467 0.1051 2.0000
      vertex 9.3004 0.1070 2.0000
    endloop
  endfacet
  facet normal -0.004819 -0.999988 0.000000
    outer loop
      vertex 11.8467 0.1051 1.0000
      vertex 14.3975 0.0928 1.0000
      vertex 14.3975 0.0928 2.0000
    endloop
  endfacet
  facet normal -0.004819 -0.999988 0.000000
    outer loop
      vertex 11.8467 0.1051 1.0000
      vertex 14.3975 0.0928 2.0000
      vertex 11.8467 0.1051 2.0000
    endloop
  endfacet
  facet normal -0.007294 -0.999973 0.000000
    outer loop
      vertex 14.3975 0.0928 1.0000
      vertex 16.9573 0.0742 1.0000
      vertex 16.9573 0.0742 2.0000
    endloop
  endfacet
  facet normal -0.007294 -0.999973 0.000000
    outer loop
      vertex 14.3975 0.0928 1.0000
      vertex 16.9573 0.0742 2.0000
      vertex 14.3975 0.0928 2.0000
    endloop
  endfacet
  facet normal -0.008063 -0.999967 0.000000
    outer loop
      vertex 16.9573 0.0742 1.0000
      vertex 19.5269 0.0534 1.0000
      vertex 19.5269 0.0534 2.0000
    endloop
  endfacet
  facet normal -0.008063 -0.999967 0.000000
    outer loop
      vertex 16.9573 0.0742 1.0000
      vertex 19.5269 0.0534 2.0000
      vertex 16.9573 0.0742 2.0000
    endloop
  endfacet
  facet normal -0.007739 -0.999970 0.000000
    outer loop
      vertex 19.5269 0.0534 1.0000
      vertex 22.1047 0.0335 1.0000
      vertex 22.1047 0.0335 2.0000
    endloop
  endfacet
  facet normal -0.007739 -0.999970 0.000000
    outer loop
      vertex 19.5269 0.0534 1.0000
      vertex 22.1047 0.0335 2.0000
      vertex 19.5269 0.0534 2.0000
    endloop
  endfacet
  facet normal -0.006934 -0.999976 0.000000
    outer loop
      vertex 22.1047 0.0335 1.0000
      vertex 24.6886 0.0156 1.0000
      vertex 24.6886 0.0156 2.0000
    endloop
  endfacet
  facet normal -0.006934 -0.999976 0.000000
    outer loop
      vertex 22.1047 0.0335 1.0000
      vertex 24.6886 0.0156 2.0000
      vertex 22.1047 0.0335 2.0000
    endloop
  endfacet
  facet normal -0.006018 -0.999982 0.000000
    outer loop
      vertex 24.6886 0.0156 1.0000
      vertex 27.2769 0.0000 1.0000
      vertex 27.2769 0.0000 2.0000
    endloop
  endfacet
  facet normal -0.006018 -0.999982 0.000000
    outer loop
      vertex 24.6886 0.0156 1.0000
      vertex 27.2769 0.0000 2.0000
      vertex 24.6886 0.0156 2.0000
    endloop
  endfacet
  facet normal 0.999985 0.005528 0.000000
    outer loop
      vertex 27.2769 0.0000 1.0000
      vertex 27.2637 2.3788 1.0000
      vertex 27.2637 2.3788 2.0000
    endloop
  endfacet
  facet normal 0.999985 0.005528 -0.000000
    outer loop
      vertex 27.2769 0.0000 1.0000
      vertex 27.2637 2.3788 2.0000
      vertex 27.2769 0.0000 2.0000
    endloop
  endfacet
  facet normal 0.999987 0.005127 0.000000
    outer loop
      vertex 27.2637 2.3788 1.0000
      vertex 27.2515 4.7536 1.0000
      vertex 27.2515 4.7536 2.0000
    endloop
  endfacet
  facet normal 0.999987 0.005127 -0.000000
    outer loop
      vertex 27.2637 2.3788 1.0000
      vertex 27.2515 4.7536 2.0000
      vertex 27.2637 2.3788 2.0000
    endloop
  endfacet
  facet normal 0.999991 0.004243 0.000000
    outer loop
      vertex 27.2515 4.7536 1.0000
      vertex 27.2415 7.1244 1.0000
      vertex 27.2415 7.1244 2.0000
    endloop
  endfacet
  facet normal 0.999991 0.004243 -0.000000
    outer loop
      vertex 27.2515 4.7536 1.0000
      vertex 27.2415 7.1244 2.0000
      vertex 27.2515 4.7536 2.0000
    endloop
  endfacet
  facet normal 0.999996 0.002832 0.000000
    outer loop
      vertex 27.2415 7.1244 1.0000
      vertex 27.2348 9.4920 1.0000
      vertex 27.2348 9.4920 2.0000
    endloop
  endfacet
  facet normal 0.999996 0.002832 -0.000000
    outer loop
      vertex 27.2415 7.1244 1.0000
      vertex 27.2348 9.4920 2.0000
      vertex 27.2415 7.1244 2.0000
    endloop
  endfacet
  facet normal 1.000000 0.000999 0.000000
    outer loop
      vertex 27.2348 9.4920 1.0000
      vertex 27.2324 11.8577 1.0000
      vertex 27.2324 11.8577 2.0000
    endloop
  endfacet
  facet normal 1.000000 0.000999 -0.000000
    outer loop
      vertex 27.2348 9.4920 1.0000
      vertex 27.2324 11.8577 2.0000
      vertex 27.2348 9.4920 2.0000
    endloop
  endfacet
  facet normal 1.000000 -0.000999 0.000000
    outer loop
      vertex 27.2324 11.8577 1.0000
      vertex 27.2348 14.2234 1.0000
      vertex 27.2348 14.2234 2.0000
    endloop
  endfacet
  facet normal 1.000000 -0.000999 0.000000
    outer loop
      vertex 27.2324 11.8577 1.0000
      vertex 27.2348 14.2234 2.0000
      vertex 27.2324 11.8577 2.0000
    endloop
  endfacet
  facet normal 0.999996 -0.002832 0.000000
    outer loop
      vertex 27.2348 14.2234 1.0000
      vertex 27.2415 16.5910 1.0000
      vertex 27.2415 16.5910 2.0000
    endloop
  endfacet
  facet normal 0.999996 -0.002832 0.000000
    outer loop
      vertex 27.2348 14.2234 1.0000
      vertex 27.2415 16.5910 2.0000
      vertex 27.2348 14.2234 2.0000
    endloop
  endfacet
  facet normal 0.999991 -0.004243 0.000000
    outer loop
      vertex 27.2415 16.5910 1.0000
      vertex 27.2515 18.9618 1.0000
      vertex 27.2515 18.9618 2.0000
    endloop
  endfacet
  facet normal 0.999991 -0.004243 0.000000
    outer loop
      vertex 27.2415 16.5910 1.0000
      vertex 27.2515 18.9618 2.0000
      vertex 27.2415 16.5910 2.0000
    endloop
  endfacet
  facet normal 0.999987 -0.005127 0.000000
    outer loop
      vertex 27.2515 18.9618 1.0000
      vertex 27.2637 21.3366 1.0000
      vertex 27.2637 21.3366 2.0000
    endloop
  endfacet
  facet normal 0.999987 -0.005127 0.000000
    outer loop
      vertex 27.2515 18.9618 1.0000
      vertex 27.2637 21.3366 2.0000
      vertex 27.2515 18.9618 2.0000
    endloop
  endfacet
  facet normal 0.999985 -0.005528 0.000000
    outer loop
      vertex 27.2637 21.3366 1.0000
      vertex 27.2769 23.7154 1.0000
      vertex 27.2769 23.7154 2.0000
    endloop
  endfacet
  facet normal 0.999985 -0.005528 0.000000
    outer loop
      vertex 27.2637 21.3366 1.0000
      vertex 27.2769 23.7154 2.0000
      vertex 27.2637 21.3366 2.0000
    endloop
  endfacet
  facet normal -0.006018 0.999982 0.000000
    outer loop
      vertex 27.2769 23.7154 1.0000
      vertex 24.6886 23.6998 1.0000
      vertex 24.6886 23.6998 2.0000
    endloop
  endfacet
  facet normal -0.006018 0.999982 0.000000
    outer loop
      vertex 27.2769 23.7154 1.0000
      vertex 24.6886 23.6998 2.0000
      vertex 27.2769 23.7154 2.0000
    endloop
  endfacet
  facet normal -0.006934 0.999976 0.000000
    outer loop
      vertex 24.6886 23.6998 1.0000
      vertex 22.1047 23.6819 1.0000
      vertex 22.1047 23.6819 2.0000
    endloop
  endfacet
  facet normal -0.006934 0.999976 0.000000
    outer loop
      vertex 24.6886 23.6998 1.0000
      vertex 22.1047 23.6819 2.0000
      vertex 24.6886 23.6998 2.0000
    endloop
  endfacet
  facet normal -0.007739 0.999970 0.000000
    outer loop
      vertex 22.1047 23.6819 1.0000
      vertex 19.5269 23.6620 1.0000
      vertex 19.5269 23.6620 2.0000
    endloop
  endfacet
  facet normal -0.007739 0.999970 0.000000
    outer loop
      vertex 22.1047 23.6819 1.0000
      vertex 19.5269 23.6620 2.0000
      vertex 22.1047 23.6819 2.0000
    endloop
  endfacet
  facet normal -0.008063 0.999967 0.000000
    outer loop
      vertex 19.5269 23.6620 1.0000
      vertex 16.9573 23.6412 1.0000
      vertex 16.9573 23.6412 2.0000
    endloop
  endfacet
  facet normal -0.008063 0.999967 0.000000
    outer loop
      vertex 19.5269 23.6620 1.0000
      vertex 16.9573 23.6412 2.0000
      vertex 19.5269 23.6620 2.0000
    endloop
  endfacet
  facet normal -0.007294 0.999973 0.000000
    outer loop
      vertex 16.9573 23.6412 1.0000
      vertex 14.3975 23.6226 1.0000
      vertex 14.3975 23.6226 2.0000
    endloop
  endfacet
  facet normal -0.007294 0.999973 0.000000
    outer loop
      vertex 16.9573 23.6412 1.0000
      vertex 14.3975 23.6226 2.0000
      vertex 16.9573 23.6412 2.0000
    endloop
  endfacet
  facet normal -0.004819 0.999988 0.000000
    outer loop
      vertex 14.3975 23.6226 1.0000
      vertex 11.8467 23.6103 1.0000
      vertex 11.8467 23.6103 2.0000
    endloop
  endfacet
  facet normal -0.004819 0.999988 0.000000
    outer loop
      vertex 14.3975 23.6226 1.0000
      vertex 11.8467 23.6103 2.0000
      vertex 14.3975 23.6226 2.0000
    endloop
  endfacet
  facet normal -0.000753 1.000000 0.000000
    outer loop
      vertex 11.8467 23.6103 1.0000
      vertex 9.3004 23.6083 1.0000
      vertex 9.3004 23.6083 2.0000
    endloop
  endfacet
  facet normal -0.000753 1.000000 0.000000
    outer loop
      vertex 11.8467 23.6103 1.0000
      vertex 9.3004 23.6083 2.0000
      vertex 11.8467 23.6103 2.0000
    endloop
  endfacet
  facet normal 0.003599 0.999994 0.000000
    outer loop
      vertex 9.3004 23.6083 1.0000
      vertex 6.7518 23.6175 1.0000
      vertex 6.7518 23.6175 2.0000
    endloop
  endfacet
  facet normal 0.003599 0.999994 -0.000000
    outer loop
      vertex 9.3004 23.6083 1.0000
      vertex 6.7518 23.6175 2.0000
      vertex 9.3004 23.6083 2.0000
    endloop
  endfacet
  facet normal 0.006677 0.999978 0.000000
    outer loop
      vertex 6.7518 23.6175 1.0000
      vertex 4.1952 23.6346 1.0000
      vertex 4.1952 23.6346 2.0000
    endloop
  endfacet
  facet normal 0.006677 0.999978 -0.000000
    outer loop
      vertex 6.7518 23.6175 1.0000
      vertex 4.1952 23.6346 2.0000
      vertex 6.7518 23.6175 2.0000
    endloop
  endfacet
  facet normal 0.007964 0.999968 0.000000
    outer loop
      vertex 4.1952 23.6346 1.0000
      vertex 1.6288 23.6550 1.0000
      vertex 1.6288 23.6550 2.0000
    endloop
  endfacet
  facet normal 0.007964 0.999968 -0.000000
    outer loop
      vertex 4.1952 23.6346 1.0000
      vertex 1.6288 23.6550 2.0000
      vertex 4.1952 23.6346 2.0000
    endloop
  endfacet
  facet normal -0.956054 0.293191 0.000000
    outer loop
      vertex 1.6288 23.6550 1.0000
      vertex 1.5274 23.3243 1.0000
      vertex 1.5274 23.3243 2.0000
    endloop
  endfacet
  facet normal -0.956054 0.293191 0.000000
    outer loop
      vertex 1.6288 23.6550 1.0000
      vertex 1.5274 23.3243 2.0000
      vertex 1.6288 23.6550 2.0000
    endloop
  endfacet
  facet normal -0.960016 0.279946 0.000000
    outer loop
      vertex 1.5274 23.3243 1.0000
      vertex 1.2687 22.4374 1.0000
      vertex 1.2687 22.4374 2.0000
    endloop
  endfacet
  facet normal -0.960016 0.279946 0.000000
    outer loop
      vertex 1.5274 23.3243 1.0000
      vertex 1.2687 22.4374 2.0000
      vertex 1.5274 23.3243 2.0000
    endloop
  endfacet
  facet normal -0.965329 0.261036 0.000000
    outer loop
      vertex 1.2687 22.4374 1.0000
      vertex 0.9214 21.1531 1.0000
      vertex 0.9214 21.1531 2.0000
    endloop
  endfacet
  facet normal -0.965329 0.261036 0.000000
    outer loop
      vertex 1.2687 22.4374 1.0000
      vertex 0.9214 21.1531 2.0000
      vertex 1.2687 22.4374 2.0000
    endloop
  endfacet
  facet normal -0.972037 0.234827 0.000000
    outer loop
      vertex 0.9214 21.1531 1.0000
      vertex 0.5535 19.6299 1.0000
      vertex 0.5535 19.6299 2.0000
    endloop
  endfacet
  facet normal -0.972037 0.234827 0.000000
    outer loop
      vertex 0.9214 21.1531 1.0000
      vertex 0.5535 19.6299 2.0000
      vertex 0.9214 21.1531 2.0000
    endloop
  endfacet
  facet normal -0.980531 0.196365 0.000000
    outer loop
      vertex 0.5535 19.6299 1.0000
      vertex 0.2322 18.0257 1.0000
      vertex 0.2322 18.0257 2.0000
    endloop
  endfacet
  facet normal -0.980531 0.196365 0.000000
    outer loop
      vertex 0.5535 19.6299 1.0000
      vertex 0.2322 18.0257 2.0000
      vertex 0.5535 19.6299 2.0000
    endloop
  endfacet
  facet normal -0.990942 0.134294 0.000000
    outer loop
      vertex 0.2322 18.0257 1.0000
      vertex 0.0249 16.4960 1.0000
      vertex 0.0249 16.4960 2.0000
    endloop
  endfacet
  facet normal -0.990942 0.134294 0.000000
    outer loop
      vertex 0.2322 18.0257 1.0000
      vertex 0.0249 16.4960 2.0000
      vertex 0.2322 18.0257 2.0000
    endloop
  endfacet
  facet normal -0.999817 0.019127 0.000000
    outer loop
      vertex 0.0249 16.4960 1.0000
      vertex 0.0000 15.1948 1.0000
      vertex 0.0000 15.1948 2.0000
    endloop
  endfacet
  facet normal -0.999817 0.019127 0.000000
    outer loop
      vertex 0.0249 16.4960 1.0000
      vertex 0.0000 15.1948 2.0000
      vertex 0.0249 16.4960 2.0000
    endloop
  endfacet
  facet normal -0.970680 -0.240376 0.000000
    outer loop
      vertex 0.0000 15.1948 1.0000
      vertex 0.2277 14.2753 1.0000
      vertex 0.2277 14.2753 2.0000
    endloop
  endfacet
  facet normal -0.970680 -0.240376 0.000000
    outer loop
      vertex 0.0000 15.1948 1.0000
      vertex 0.2277 14.2753 2.0000
      vertex 0.0000 15.1948 2.0000
    endloop
  endfacet
  facet normal -0.572548 -0.819872 0.000000
    outer loop
      vertex 0.2277 14.2753 1.0000
      vertex 0.7790 13.8903 1.0000
      vertex 0.7790 13.8903 2.0000
    endloop
  endfacet
  facet normal -0.572548 -0.819872 0.000000
    outer loop
      vertex 0.2277 14.2753 1.0000
      vertex 0.7790 13.8903 2.0000
      vertex 0.2277 14.2753 2.0000
    endloop
  endfacet
  facet normal 0.303401 -0.952863 0.000000
    outer loop
      vertex 0.7790 13.8903 1.0000
      vertex 1.7233 14.1910 1.0000
      vertex 1.7233 14.1910 2.0000
    endloop
  endfacet
  facet normal 0.303401 -0.952863 0.000000
    outer loop
      vertex 0.7790 13.8903 1.0000
      vertex 1.7233 14.1910 2.0000
      vertex 0.7790 13.8903 2.0000
    endloop
  endfacet
  facet normal 0.329115 -0.944290 0.000000
    outer loop
      vertex 1.7233 14.1910 1.0000
      vertex 2.7702 14.5558 1.0000
      vertex 2.7702 14.5558 2.0000
    endloop
  endfacet
  facet normal 0.329115 -0.944290 0.000000
    outer loop
      vertex 1.7233 14.1910 1.0000
      vertex 2.7702 14.5558 2.0000
      vertex 1.7233 14.1910 2.0000
    endloop
  endfacet
  facet normal -0.232228 -0.972661 0.000000
    outer loop
      vertex 2.7702 14.5558 1.0000
      vertex 3.5880 14.3606 1.0000
      vertex 3.5880 14.3606 2.0000
    endloop
  endfacet
  facet normal -0.232228 -0.972661 0.000000
    outer loop
      vertex 2.7702 14.5558 1.0000
      vertex 3.5880 14.3606 2.0000
      vertex 2.7702 14.5558 2.0000
    endloop
  endfacet
  facet normal -0.719188 -0.694815 0.000000
    outer loop
      vertex 3.5880 14.3606 1.0000
      vertex 4.1777 13.7502 1.0000
      vertex 4.1777 13.7502 2.0000
    endloop
  endfacet
  facet normal -0.719188 -0.694815 0.000000
    outer loop
      vertex 3.5880 14.3606 1.0000
      vertex 4.1777 13.7502 2.0000
      vertex 3.5880 14.3606 2.0000
    endloop
  endfacet
  facet normal -0.926142 -0.377176 0.000000
    outer loop
      vertex 4.1777 13.7502 1.0000
      vertex 4.5364 12.8694 1.0000
      vertex 4.5364 12.8694 2.0000
    endloop
  endfacet
  facet normal -0.926142 -0.377176 0.000000
    outer loop
      vertex 4.1777 13.7502 1.0000
      vertex 4.5364 12.8694 2.0000
      vertex 4.1777 13.7502 2.0000
    endloop
  endfacet
  facet normal -0.992927 -0.118726 0.000000
    outer loop
      vertex 4.5364 12.8694 1.0000
      vertex 4.6574 11.8577 1.0000
      vertex 4.6574 11.8577 2.0000
    endloop
  endfacet
  facet normal -0.992927 -0.118726 0.000000
    outer loop
      vertex 4.5364 12.8694 1.0000
      vertex 4.6574 11.8577 2.0000
      vertex 4.5364 12.8694 2.0000
    endloop
  endfacet
  facet normal -0.992927 0.118726 0.000000
    outer loop
      vertex 4.6574 11.8577 1.0000
      vertex 4.5364 10.8460 1.0000
      vertex 4.5364 10.8460 2.0000
    endloop
  endfacet
  facet normal -0.992927 0.118726 0.000000
    outer loop
      vertex 4.6574 11.8577 1.0000
      vertex 4.5364 10.8460 2.0000
      vertex 4.6574 11.8577 2.0000
    endloop
  endfacet
  facet normal -0.926142 0.377176 0.000000
    outer loop
      vertex 4.5364 10.8460 1.0000
      vertex 4.1777 9.9652 1.0000
      vertex 4.1777 9.9652 2.0000
    endloop
  endfacet
  facet normal -0.926142 0.377176 0.000000
    outer loop
      vertex 4.5364 10.8460 1.0000
      vertex 4.1777 9.9652 2.0000
      vertex 4.5364 10.8460 2.0000
    endloop
  endfacet
  facet normal -0.719188 0.694815 0.000000
    outer loop
      vertex 4.1777 9.9652 1.0000
      vertex 3.5880 9.3548 1.0000
      vertex 3.5880 9.3548 2.0000
    endloop
  endfacet
  facet normal -0.719188 0.694815 0.000000
    outer loop
      vertex 4.1777 9.9652 1.0000
      vertex 3.5880 9.3548 2.0000
      vertex 4.1777 9.9652 2.0000
    endloop
  endfacet
  facet normal -0.232228 0.972661 0.000000
    outer loop
      vertex 3.5880 9.3548 1.0000
      vertex 2.7702 9.1596 1.0000
      vertex 2.7702 9.1596 2.0000
    endloop
  endfacet
  facet normal -0.232228 0.972661 0.000000
    outer loop
      vertex 3.5880 9.3548 1.0000
      vertex 2.7702 9.1596 2.0000
      vertex 3.5880 9.3548 2.0000
    endloop
  endfacet
  facet normal 0.329115 0.944290 0.000000
    outer loop
      vertex 2.7702 9.1596 1.0000
      vertex 1.7233 9.5244 1.0000
      vertex 1.7233 9.5244 2.0000
    endloop
  endfacet
  facet normal 0.329115 0.944290 -0.000000
    outer loop
      vertex 2.7702 9.1596 1.0000
      vertex 1.7233 9.5244 2.0000
      vertex 2.7702 9.1596 2.0000
    endloop
  endfacet
  facet normal 0.303401 0.952863 0.000000
    outer loop
      vertex 1.7233 9.5244 1.0000
      vertex 0.7790 9.8251 1.0000
      vertex 0.7790 9.8251 2.0000
    endloop
  endfacet
  facet normal 0.303401 0.952863 -0.000000
    outer loop
      vertex 1.7233 9.5244 1.0000
      vertex 0.7790 9.8251 2.0000
      vertex 1.7233 9.5244 2.0000
    endloop
  endfacet
  facet normal -0.572548 0.819872 0.000000
    outer loop
      vertex 0.7790 9.8251 1.0000
      vertex 0.2277 9.4401 1.0000
      vertex 0.2277 9.4401 2.0000
    endloop
  endfacet
  facet normal -0.572548 0.819872 0.000000
    outer loop
      vertex 0.7790 9.8251 1.0000
      vertex 0.2277 9.4401 2.0000
      vertex 0.7790 9.8251 2.0000
    endloop
  endfacet
  facet normal -0.970680 0.240376 0.000000
    outer loop
      vertex 0.2277 9.4401 1.0000
      vertex 0.0000 8.5206 1.0000
      vertex 0.0000 8.5206 2.0000
    endloop
  endfacet
  facet normal -0.970680 0.240376 0.000000
    outer loop
      vertex 0.2277 9.4401 1.0000
      vertex 0.0000 8.5206 2.0000
      vertex 0.2277 9.4401 2.0000
    endloop
  endfacet
  facet normal -0.999817 -0.019127 0.000000
    outer loop
      vertex 0.0000 8.5206 1.0000
      vertex 0.0249 7.2194 1.0000
      vertex 0.0249 7.2194 2.0000
    endloop
  endfacet
  facet normal -0.999817 -0.019127 0.000000
    outer loop
      vertex 0.0000 8.5206 1.0000
      vertex 0.0249 7.2194 2.0000
      vertex 0.0000 8.5206 2.0000
    endloop
  endfacet
  facet normal -0.990942 -0.134294 0.000000
    outer loop
      vertex 0.0249 7.2194 1.0000
      vertex 0.2322 5.6897 1.0000
      vertex 0.2322 5.6897 2.0000
    endloop
  endfacet
  facet normal -0.990942 -0.134294 0.000000
    outer loop
      vertex 0.0249 7.2194 1.0000
      vertex 0.2322 5.6897 2.0000
      vertex 0.0249 7.2194 2.0000
    endloop
  endfacet
  facet normal -0.980531 -0.196365 0.000000
    outer loop
      vertex 0.2322 5.6897 1.0000
      vertex 0.5535 4.0855 1.0000
      vertex 0.5535 4.0855 2.0000
    endloop
  endfacet
  facet normal -0.980531 -0.196365 0.000000
    outer loop
      vertex 0.2322 5.6897 1.0000
      vertex 0.5535 4.0855 2.0000
      vertex 0.2322 5.6897 2.0000
    endloop
  endfacet
  facet normal -0.972037 -0.234827 0.000000
    outer loop
      vertex 0.5535 4.0855 1.0000
      vertex 0.9214 2.5623 1.0000
      vertex 0.9214 2.5623 2.0000
    endloop
  endfacet
  facet normal -0.972037 -0.234827 0.000000
    outer loop
      vertex 0.5535 4.0855 1.0000
      vertex 0.9214 2.5623 2.0000
      vertex 0.5535 4.0855 2.0000
    endloop
  endfacet
  facet normal -0.965329 -0.261036 0.000000
    outer loop
      vertex 0.9214 2.5623 1.0000
      vertex 1.2687 1.2780 1.0000
      vertex 1.2687 1.2780 2.0000
    endloop
  endfacet
  facet normal -0.965329 -0.261036 0.000000
    outer loop
      vertex 0.9214 2.5623 1.0000
      vertex 1.2687 1.2780 2.0000
      vertex 0.9214 2.5623 2.0000
    endloop
  endfacet
  facet normal -0.960016 -0.279946 0.000000
    outer loop
      vertex 1.2687 1.2780 1.0000
      vertex 1.5274 0.3911 1.0000
      vertex 1.5274 0.3911 2.0000
    endloop
  endfacet
  facet normal -0.960016 -0.279946 0.000000
    outer loop
      vertex 1.2687 1.2780 1.0000
      vertex 1.5274 0.3911 2.0000
      vertex 1.2687 1.2780 2.0000
    endloop
  endfacet
  facet normal -0.956054 -0.293191 0.000000
    outer loop
      vertex 1.5274 0.3911 1.0000
      vertex 1.6288 0.0604 1.0000
      vertex 1.6288 0.0604 2.0000
    endloop
  endfacet
  facet normal -0.956054 -0.293191 0.000000
    outer loop
      vertex 1.5274 0.3911 1.0000
      vertex 1.6288 0.0604 2.0000
      vertex 1.5274 0.3911 2.0000
    endloop
  endfacet
  facet normal 0.005957 -0.747978 0.663697
    outer loop
      vertex 1.6288 0.0604 2.0000
      vertex 4.1952 0.0808 2.0000
      vertex 4.6493 0.9717 3.0000
    endloop
  endfacet
  facet normal 0.033066 -0.786401 0.616830
    outer loop
      vertex 1.6288 0.0604 2.0000
      vertex 4.6493 0.9717 3.0000
      vertex 2.2165 0.8694 3.0000
    endloop
  endfacet
  facet normal 0.004822 -0.722185 0.691683
    outer loop
      vertex 4.1952 0.0808 2.0000
      vertex 6.7518 0.0979 2.0000
      vertex 7.0330 1.0575 3.0000
    endloop
  endfacet
  facet normal 0.027076 -0.752451 0.658092
    outer loop
      vertex 4.1952 0.0808 2.0000
      vertex 7.0330 1.0575 3.0000
      vertex 4.6493 0.9717 3.0000
    endloop
  endfacet
  facet normal 0.002549 -0.708229 0.705978
    outer loop
      vertex 6.7518 0.0979 2.0000
      vertex 9.3004 0.1070 2.0000
      vertex 9.3766 1.1041 3.0000
    endloop
  endfacet
  facet normal 0.014393 -0.723461 0.690215
    outer loop
      vertex 6.7518 0.0979 2.0000
      vertex 9.3766 1.1041 3.0000
      vertex 7.0330 1.0575 3.0000
    endloop
  endfacet
  facet normal -0.000535 -0.710580 0.703616
    outer loop
      vertex 9.3004 0.1070 2.0000
      vertex 11.8467 0.1051 2.0000
      vertex 11.7078 1.0954 3.0000
    endloop
  endfacet
  facet normal -0.002645 -0.708031 0.706176
    outer loop
      vertex 9.3004 0.1070 2.0000
      vertex 11.7078 1.0954 3.0000
      vertex 9.3766 1.1041 3.0000
    endloop
  endfacet
  facet normal -0.003511 -0.728558 0.684975
    outer loop
      vertex 11.8467 0.1051 2.0000
      vertex 14.3975 0.0928 2.0000
      vertex 14.0613 1.0346 3.0000
    endloop
  endfacet
  facet normal -0.018385 -0.711699 0.702244
    outer loop
      vertex 11.8467 0.1051 2.0000
      vertex 14.0613 1.0346 3.0000
      vertex 11.7078 1.0954 3.0000
    endloop
  endfacet
  facet normal -0.005520 -0.756753 0.653678
    outer loop
      vertex 14.3975 0.0928 2.0000
      vertex 16.9573 0.0742 2.0000
      vertex 16.4598 0.9416 3.0000
    endloop
  endfacet
  facet normal -0.028415 -0.732429 0.680250
    outer loop
      vertex 14.3975 0.0928 2.0000
      vertex 16.4598 0.9416 3.0000
      vertex 14.0613 1.0346 3.0000
    endloop
  endfacet
  facet normal -0.006359 -0.788651 0.614808
    outer loop
      vertex 16.9573 0.0742 2.0000
      vertex 19.5269 0.0534 2.0000
      vertex 18.9069 0.8380 3.0000
    endloop
  endfacet
  facet normal -0.032290 -0.762910 0.645698
    outer loop
      vertex 16.9573 0.0742 2.0000
      vertex 18.9069 0.8380 3.0000
      vertex 16.4598 0.9416 3.0000
    endloop
  endfacet
  facet normal -0.006342 -0.819540 0.572986
    outer loop
      vertex 19.5269 0.0534 2.0000
      vertex 22.1047 0.0335 2.0000
      vertex 21.3951 0.7381 3.0000
    endloop
  endfacet
  facet normal -0.031944 -0.795878 0.604614
    outer loop
      vertex 19.5269 0.0534 2.0000
      vertex 21.3951 0.7381 3.0000
      vertex 18.9069 0.8380 3.0000
    endloop
  endfacet
  facet normal -0.005874 -0.847058 0.531468
    outer loop
      vertex 22.1047 0.0335 2.0000
      vertex 24.6886 0.0156 2.0000
      vertex 23.9143 0.6484 3.0000
    endloop
  endfacet
  facet normal -0.029463 -0.826812 0.561706
    outer loop
      vertex 22.1047 0.0335 2.0000
      vertex 23.9143 0.6484 3.0000
      vertex 21.3951 0.7381 3.0000
    endloop
  endfacet
  facet normal -0.005239 -0.870495 0.492150
    outer loop
      vertex 24.6886 0.0156 2.0000
      vertex 27.2769 0.0000 2.0000
      vertex 26.4554 0.5703 3.0000
    endloop
  endfacet
  facet normal -0.026227 -0.853785 0.519965
    outer loop
      vertex 24.6886 0.0156 2.0000
      vertex 26.4554 0.5703 3.0000
      vertex 23.9143 0.6484 3.0000
    endloop
  endfacet
  facet normal 0.753870 0.004167 0.657011
    outer loop
      vertex 27.2769 0.0000 2.0000
      vertex 27.2637 2.3788 2.0000
      vertex 26.3895 2.8644 3.0000
    endloop
  endfacet
  facet normal 0.778755 0.022379 0.626929
    outer loop
      vertex 27.2769 0.0000 2.0000
      vertex 26.3895 2.8644 3.0000
      vertex 26.4554 0.5703 3.0000
    endloop
  endfacet
  facet normal 0.735510 0.003771 0.677503
    outer loop
      vertex 27.2637 2.3788 2.0000
      vertex 27.2515 4.7536 2.0000
      vertex 26.3284 5.1381 3.0000
    endloop
  endfacet
  facet normal 0.757594 0.020351 0.652408
    outer loop
      vertex 27.2637 2.3788 2.0000
      vertex 26.3284 5.1381 3.0000
      vertex 26.3895 2.8644 3.0000
    endloop
  endfacet
  facet normal 0.720520 0.003057 0.693427
    outer loop
      vertex 27.2515 4.7536 2.0000
      vertex 27.2415 7.1244 2.0000
      vertex 26.2779 7.3920 3.0000
    endloop
  endfacet
  facet normal 0.737852 0.016527 0.674760
    outer loop
      vertex 27.2515 4.7536 2.0000
      vertex 26.2779 7.3920 3.0000
      vertex 26.3284 5.1381 3.0000
    endloop
  endfacet
  facet normal 0.710612 0.002012 0.703581
    outer loop
      vertex 27.2415 7.1244 2.0000
      vertex 27.2348 9.4920 2.0000
      vertex 26.2443 9.6295 3.0000
    endloop
  endfacet
  facet normal 0.721523 0.010857 0.692306
    outer loop
      vertex 27.2415 7.1244 2.0000
      vertex 26.2443 9.6295 3.0000
      vertex 26.2779 7.3920 3.0000
    endloop
  endfacet
  facet normal 0.707107 0.000706 0.707107
    outer loop
      vertex 27.2348 9.4920 2.0000
      vertex 27.2324 11.8577 2.0000
      vertex 26.2324 11.8577 3.0000
    endloop
  endfacet
  facet normal 0.710730 0.003785 0.703455
    outer loop
      vertex 27.2348 9.4920 2.0000
      vertex 26.2324 11.8577 3.0000
      vertex 26.2443 9.6295 3.0000
    endloop
  endfacet
  facet normal 0.710523 -0.000710 0.703673
    outer loop
      vertex 27.2324 11.8577 2.0000
      vertex 27.2348 14.2234 2.0000
      vertex 26.2443 14.0859 3.0000
    endloop
  endfacet
  facet normal 0.707102 -0.003766 0.707102
    outer loop
      vertex 27.2324 11.8577 2.0000
      vertex 26.2443 14.0859 3.0000
      vertex 26.2324 11.8577 3.0000
    endloop
  endfacet
  facet normal 0.720386 -0.002040 0.693570
    outer loop
      vertex 27.2348 14.2234 2.0000
      vertex 27.2415 16.5910 2.0000
      vertex 26.2779 16.3234 3.0000
    endloop
  endfacet
  facet normal 0.711170 -0.010701 0.702939
    outer loop
      vertex 27.2348 14.2234 2.0000
      vertex 26.2779 16.3234 3.0000
      vertex 26.2443 14.0859 3.0000
    endloop
  endfacet
  facet normal 0.735387 -0.003120 0.677640
    outer loop
      vertex 27.2415 16.5910 2.0000
      vertex 27.2515 18.9618 2.0000
      vertex 26.3284 18.5773 3.0000
    endloop
  endfacet
  facet normal 0.722180 -0.016176 0.691516
    outer loop
      vertex 27.2415 16.5910 2.0000
      vertex 26.3284 18.5773 3.0000
      vertex 26.2779 16.3234 3.0000
    endloop
  endfacet
  facet normal 0.753798 -0.003865 0.657095
    outer loop
      vertex 27.2515 18.9618 2.0000
      vertex 27.2637 21.3366 2.0000
      vertex 26.3895 20.8510 3.0000
    endloop
  endfacet
  facet normal 0.738439 -0.019837 0.674029
    outer loop
      vertex 27.2515 18.9618 2.0000
      vertex 26.3895 20.8510 3.0000
      vertex 26.3284 18.5773 3.0000
    endloop
  endfacet
  facet normal 0.773915 -0.004278 0.633275
    outer loop
      vertex 27.2637 21.3366 2.0000
      vertex 27.2769 23.7154 2.0000
      vertex 26.4554 23.1451 3.0000
    endloop
  endfacet
  facet normal 0.757912 -0.021780 0.651993
    outer loop
      vertex 27.2637 21.3366 2.0000
      vertex 26.4554 23.1451 3.0000
      vertex 26.3895 20.8510 3.0000
    endloop
  endfacet
  facet normal -0.005096 0.846791 0.531901
    outer loop
      vertex 27.2769 23.7154 2.0000
      vertex 24.6886 23.6998 2.0000
      vertex 23.9143 23.0670 3.0000
    endloop
  endfacet
  facet normal -0.026962 0.877715 0.478424
    outer loop
      vertex 27.2769 23.7154 2.0000
      vertex 23.9143 23.0670 3.0000
      vertex 26.4554 23.1451 3.0000
    endloop
  endfacet
  facet normal -0.005682 0.819324 0.573303
    outer loop
      vertex 24.6886 23.6998 2.0000
      vertex 22.1047 23.6819 2.0000
      vertex 21.3951 22.9773 3.0000
    endloop
  endfacet
  facet normal -0.030472 0.855125 0.517526
    outer loop
      vertex 24.6886 23.6998 2.0000
      vertex 21.3951 22.9773 3.0000
      vertex 23.9143 23.0670 3.0000
    endloop
  endfacet
  facet normal -0.006103 0.788575 0.614908
    outer loop
      vertex 22.1047 23.6819 2.0000
      vertex 19.5269 23.6620 2.0000
      vertex 18.9069 22.8774 3.0000
    endloop
  endfacet
  facet normal -0.033231 0.827942 0.559828
    outer loop
      vertex 22.1047 23.6819 2.0000
      vertex 18.9069 22.8774 3.0000
      vertex 21.3951 22.9773 3.0000
    endloop
  endfacet
  facet normal -0.006103 0.756893 0.653510
    outer loop
      vertex 19.5269 23.6620 2.0000
      vertex 16.9573 23.6412 2.0000
      vertex 16.4598 22.7738 3.0000
    endloop
  endfacet
  facet normal -0.033706 0.796352 0.603894
    outer loop
      vertex 19.5269 23.6620 2.0000
      vertex 16.4598 22.7738 3.0000
      vertex 18.9069 22.8774 3.0000
    endloop
  endfacet
  facet normal -0.005316 0.728855 0.684648
    outer loop
      vertex 16.9573 23.6412 2.0000
      vertex 14.3975 23.6226 2.0000
      vertex 14.0613 22.6808 3.0000
    endloop
  endfacet
  facet normal -0.029575 0.762313 0.646532
    outer loop
      vertex 16.9573 23.6412 2.0000
      vertex 14.0613 22.6808 3.0000
      vertex 16.4598 22.7738 3.0000
    endloop
  endfacet
  facet normal -0.003426 0.710777 0.703409
    outer loop
      vertex 14.3975 23.6226 2.0000
      vertex 11.8467 23.6103 2.0000
      vertex 11.7078 22.6200 3.0000
    endloop
  endfacet
  facet normal -0.018883 0.731004 0.682112
    outer loop
      vertex 14.3975 23.6226 2.0000
      vertex 11.7078 22.6200 3.0000
      vertex 14.0613 22.6808 3.0000
    endloop
  endfacet
  facet normal -0.000534 0.708114 0.706098
    outer loop
      vertex 11.8467 23.6103 2.0000
      vertex 9.3004 23.6083 2.0000
      vertex 9.3766 22.6113 3.0000
    endloop
  endfacet
  facet normal -0.002655 0.710725 0.703465
    outer loop
      vertex 11.8467 23.6103 2.0000
      vertex 9.3766 22.6113 3.0000
      vertex 11.7078 22.6200 3.0000
    endloop
  endfacet
  facet normal 0.002598 0.721879 0.692014
    outer loop
      vertex 9.3004 23.6083 2.0000
      vertex 6.7518 23.6175 2.0000
      vertex 7.0330 22.6579 3.0000
    endloop
  endfacet
  facet normal 0.014098 0.708601 0.705469
    outer loop
      vertex 9.3004 23.6083 2.0000
      vertex 7.0330 22.6579 3.0000
      vertex 9.3766 22.6113 3.0000
    endloop
  endfacet
  facet normal 0.004993 0.747765 0.663945
    outer loop
      vertex 6.7518 23.6175 2.0000
      vertex 4.1952 23.6346 2.0000
      vertex 4.6493 22.7437 3.0000
    endloop
  endfacet
  facet normal 0.026085 0.724926 0.688333
    outer loop
      vertex 6.7518 23.6175 2.0000
      vertex 4.6493 22.7437 3.0000
      vertex 7.0330 22.6579 3.0000
    endloop
  endfacet
  facet normal 0.006205 0.779178 0.626772
    outer loop
      vertex 4.1952 23.6346 2.0000
      vertex 1.6288 23.6550 2.0000
      vertex 2.2165 22.8459 3.0000
    endloop
  endfacet
  facet normal 0.031678 0.753376 0.656826
    outer loop
      vertex 4.1952 23.6346 2.0000
      vertex 2.2165 22.8459 3.0000
      vertex 4.6493 22.7437 3.0000
    endloop
  endfacet
  facet normal -0.742734 0.227773 0.629655
    outer loop
      vertex 1.6288 23.6550 2.0000
      vertex 1.5274 23.3243 2.0000
      vertex 2.1305 22.5266 3.0000
    endloop
  endfacet
  facet normal -0.762173 0.205237 0.613979
    outer loop
      vertex 1.6288 23.6550 2.0000
      vertex 2.1305 22.5266 3.0000
      vertex 2.2165 22.8459 3.0000
    endloop
  endfacet
  facet normal -0.737579 0.215082 0.640091
    outer loop
      vertex 1.5274 23.3243 2.0000
      vertex 1.2687 22.4374 2.0000
      vertex 1.9137 21.6732 3.0000
    endloop
  endfacet
  facet normal -0.763882 0.194030 0.615497
    outer loop
      vertex 1.5274 23.3243 2.0000
      vertex 1.9137 21.6732 3.0000
      vertex 2.1305 22.5266 3.0000
    endloop
  endfacet
  facet normal -0.729488 0.197262 0.654931
    outer loop
      vertex 1.2687 22.4374 2.0000
      vertex 0.9214 21.1531 2.0000
      vertex 1.6278 20.4453 3.0000
    endloop
  endfacet
  facet normal -0.759985 0.176938 0.625393
    outer loop
      vertex 1.2687 22.4374 2.0000
      vertex 1.6278 20.4453 3.0000
      vertex 1.9137 21.6732 3.0000
    endloop
  endfacet
  facet normal -0.720998 0.174180 0.670689
    outer loop
      vertex 0.9214 21.1531 2.0000
      vertex 0.5535 19.6299 2.0000
      vertex 1.3321 19.0025 3.0000
    endloop
  endfacet
  facet normal -0.752282 0.154190 0.640545
    outer loop
      vertex 0.9214 21.1531 2.0000
      vertex 1.3321 19.0025 3.0000
      vertex 1.6278 20.4453 3.0000
    endloop
  endfacet
  facet normal -0.715475 0.143284 0.683787
    outer loop
      vertex 0.5535 19.6299 2.0000
      vertex 0.2322 18.0257 2.0000
      vertex 1.0825 17.4994 3.0000
    endloop
  endfacet
  facet normal -0.743917 0.123533 0.656755
    outer loop
      vertex 0.5535 19.6299 2.0000
      vertex 1.0825 17.4994 3.0000
      vertex 1.3321 19.0025 3.0000
    endloop
  endfacet
  facet normal -0.715796 0.097006 0.691539
    outer loop
      vertex 0.2322 18.0257 2.0000
      vertex 0.0249 16.4960 2.0000
      vertex 0.9348 16.0811 3.0000
    endloop
  endfacet
  facet normal -0.739197 0.076998 0.669074
    outer loop
      vertex 0.2322 18.0257 2.0000
      vertex 0.9348 16.0811 3.0000
      vertex 1.0825 17.4994 3.0000
    endloop
  endfacet
  facet normal -0.722632 0.013824 0.691095
    outer loop
      vertex 0.0249 16.4960 2.0000
      vertex 0.0000 15.1948 2.0000
      vertex 0.9504 14.8838 3.0000
    endloop
  endfacet
  facet normal -0.741606 -0.009679 0.670765
    outer loop
      vertex 0.0249 16.4960 2.0000
      vertex 0.9504 14.8838 3.0000
      vertex 0.9348 16.0811 3.0000
    endloop
  endfacet
  facet normal -0.726285 -0.179855 0.663448
    outer loop
      vertex 0.0000 15.1948 2.0000
      vertex 0.2277 14.2753 2.0000
      vertex 1.1995 14.0397 3.0000
    endloop
  endfacet
  facet normal -0.740368 -0.218502 0.635698
    outer loop
      vertex 0.0000 15.1948 2.0000
      vertex 1.1995 14.0397 3.0000
      vertex 0.9504 14.8838 3.0000
    endloop
  endfacet
  facet normal -0.534007 -0.764683 0.360688
    outer loop
      vertex 0.2277 14.2753 2.0000
      vertex 0.7790 13.8903 2.0000
      vertex 1.7565 13.6794 3.0000
    endloop
  endfacet
  facet normal -0.515787 -0.797349 0.313365
    outer loop
      vertex 0.2277 14.2753 2.0000
      vertex 1.7565 13.6794 3.0000
      vertex 1.1995 14.0397 3.0000
    endloop
  endfacet
  facet normal 0.266355 -0.836516 -0.478849
    outer loop
      vertex 0.7790 13.8903 2.0000
      vertex 1.7233 14.1910 2.0000
      vertex 2.6875 13.9255 3.0000
    endloop
  endfacet
  facet normal 0.232797 -0.880352 -0.413262
    outer loop
      vertex 0.7790 13.8903 2.0000
      vertex 2.6875 13.9255 3.0000
      vertex 1.7565 13.6794 3.0000
    endloop
  endfacet
  facet normal 0.278243 -0.798329 -0.534089
    outer loop
      vertex 1.7233 14.1910 2.0000
      vertex 2.7702 14.5558 2.0000
      vertex 3.7101 14.2144 3.0000
    endloop
  endfacet
  facet normal 0.241435 -0.854659 -0.459639
    outer loop
      vertex 1.7233 14.1910 2.0000
      vertex 3.7101 14.2144 3.0000
      vertex 2.6875 13.9255 3.0000
    endloop
  endfacet
  facet normal -0.230370 -0.964881 -0.126234
    outer loop
      vertex 2.7702 14.5558 2.0000
      vertex 3.5880 14.3606 2.0000
      vertex 4.5232 14.0065 3.0000
    endloop
  endfacet
  facet normal -0.246596 -0.964209 -0.097422
    outer loop
      vertex 2.7702 14.5558 2.0000
      vertex 4.5232 14.0065 3.0000
      vertex 3.7101 14.2144 3.0000
    endloop
  endfacet
  facet normal -0.648939 -0.626947 0.431064
    outer loop
      vertex 3.5880 14.3606 2.0000
      vertex 4.1777 13.7502 2.0000
      vertex 5.1317 13.4503 3.0000
    endloop
  endfacet
  facet normal -0.632829 -0.692360 0.346649
    outer loop
      vertex 3.5880 14.3606 2.0000
      vertex 5.1317 13.4503 3.0000
      vertex 4.5232 14.0065 3.0000
    endloop
  endfacet
  facet normal -0.707282 -0.288044 0.645587
    outer loop
      vertex 4.1777 13.7502 2.0000
      vertex 4.5364 12.8694 2.0000
      vertex 5.5209 12.6935 3.0000
    endloop
  endfacet
  facet normal -0.724707 -0.372627 0.579611
    outer loop
      vertex 4.1777 13.7502 2.0000
      vertex 5.5209 12.6935 3.0000
      vertex 5.1317 13.4503 3.0000
    endloop
  endfacet
  facet normal -0.704593 -0.084249 0.704593
    outer loop
      vertex 4.5364 12.8694 2.0000
      vertex 4.6574 11.8577 2.0000
      vertex 5.6574 11.8577 3.0000
    endloop
  endfacet
  facet normal -0.717959 -0.117310 0.686129
    outer loop
      vertex 4.5364 12.8694 2.0000
      vertex 5.6574 11.8577 3.0000
      vertex 5.5209 12.6935 3.0000
    endloop
  endfacet
  facet normal -0.717516 0.085794 0.691238
    outer loop
      vertex 4.6574 11.8577 2.0000
      vertex 4.5364 10.8460 2.0000
      vertex 5.5209 11.0219 3.0000
    endloop
  endfacet
  facet normal -0.702434 0.114773 0.702434
    outer loop
      vertex 4.6574 11.8577 2.0000
      vertex 5.5209 11.0219 3.0000
      vertex 5.6574 11.8577 3.0000
    endloop
  endfacet
  facet normal -0.733664 0.298788 0.610298
    outer loop
      vertex 4.5364 10.8460 2.0000
      vertex 4.1777 9.9652 2.0000
      vertex 5.1317 10.2651 3.0000
    endloop
  endfacet
  facet normal -0.696134 0.357935 0.622318
    outer loop
      vertex 4.5364 10.8460 2.0000
      vertex 5.1317 10.2651 3.0000
      vertex 5.5209 11.0219 3.0000
    endloop
  endfacet
  facet normal -0.661523 0.639105 0.392342
    outer loop
      vertex 4.1777 9.9652 2.0000
      vertex 3.5880 9.3548 2.0000
      vertex 4.5232 9.7089 3.0000
    endloop
  endfacet
  facet normal -0.621522 0.679990 0.389003
    outer loop
      vertex 4.1777 9.9652 2.0000
      vertex 4.5232 9.7089 3.0000
      vertex 5.1317 10.2651 3.0000
    endloop
  endfacet
  facet normal -0.230738 0.966422 -0.113082
    outer loop
      vertex 3.5880 9.3548 2.0000
      vertex 2.7702 9.1596 2.0000
      vertex 3.7101 9.5010 3.0000
    endloop
  endfacet
  facet normal -0.246253 0.962867 -0.110668
    outer loop
      vertex 3.5880 9.3548 2.0000
      vertex 3.7101 9.5010 3.0000
      vertex 4.5232 9.7089 3.0000
    endloop
  endfacet
  facet normal 0.286178 0.821095 -0.493867
    outer loop
      vertex 2.7702 9.1596 2.0000
      vertex 1.7233 9.5244 2.0000
      vertex 2.6875 9.7899 3.0000
    endloop
  endfacet
  facet normal 0.234745 0.830978 -0.504352
    outer loop
      vertex 2.7702 9.1596 2.0000
      vertex 2.6875 9.7899 3.0000
      vertex 3.7101 9.5010 3.0000
    endloop
  endfacet
  facet normal 0.271633 0.853093 -0.445474
    outer loop
      vertex 1.7233 9.5244 2.0000
      vertex 0.7790 9.8251 2.0000
      vertex 1.7565 10.0360 3.0000
    endloop
  endfacet
  facet normal 0.228375 0.863631 -0.449430
    outer loop
      vertex 1.7233 9.5244 2.0000
      vertex 1.7565 10.0360 3.0000
      vertex 2.6875 9.7899 3.0000
    endloop
  endfacet
  facet normal -0.538148 0.770613 0.341397
    outer loop
      vertex 0.7790 9.8251 2.0000
      vertex 0.2277 9.4401 2.0000
      vertex 1.1995 9.6757 3.0000
    endloop
  endfacet
  facet normal -0.512040 0.791557 0.333546
    outer loop
      vertex 0.7790 9.8251 2.0000
      vertex 1.1995 9.6757 3.0000
      vertex 1.7565 10.0360 3.0000
    endloop
  endfacet
  facet normal -0.740408 0.183352 0.646667
    outer loop
      vertex 0.2277 9.4401 2.0000
      vertex 0.0000 8.5206 2.0000
      vertex 0.9504 8.8316 3.0000
    endloop
  endfacet
  facet normal -0.725242 0.214038 0.654379
    outer loop
      vertex 0.2277 9.4401 2.0000
      vertex 0.9504 8.8316 3.0000
      vertex 1.1995 9.6757 3.0000
    endloop
  endfacet
  facet normal -0.736655 -0.014093 0.676122
    outer loop
      vertex 0.0000 8.5206 2.0000
      vertex 0.0249 7.2194 2.0000
      vertex 0.9348 7.6343 3.0000
    endloop
  endfacet
  facet normal -0.726289 0.009479 0.687324
    outer loop
      vertex 0.0000 8.5206 2.0000
      vertex 0.9348 7.6343 3.0000
      vertex 0.9504 8.8316 3.0000
    endloop
  endfacet
  facet normal -0.731706 -0.099162 0.674369
    outer loop
      vertex 0.0249 7.2194 2.0000
      vertex 0.2322 5.6897 2.0000
      vertex 1.0825 6.2160 3.0000
    endloop
  endfacet
  facet normal -0.721828 -0.075189 0.687976
    outer loop
      vertex 0.0249 7.2194 2.0000
      vertex 1.0825 6.2160 3.0000
      vertex 0.9348 7.6343 3.0000
    endloop
  endfacet
  facet normal -0.733658 -0.146925 0.663444
    outer loop
      vertex 0.2322 5.6897 2.0000
      vertex 0.5535 4.0855 2.0000
      vertex 1.3321 4.7129 3.0000
    endloop
  endfacet
  facet normal -0.724168 -0.120253 0.679058
    outer loop
      vertex 0.2322 5.6897 2.0000
      vertex 1.3321 4.7129 3.0000
      vertex 1.0825 6.2160 3.0000
    endloop
  endfacet
  facet normal -0.739591 -0.178672 0.648909
    outer loop
      vertex 0.5535 4.0855 2.0000
      vertex 0.9214 2.5623 2.0000
      vertex 1.6278 3.2701 3.0000
    endloop
  endfacet
  facet normal -0.732232 -0.150080 0.664314
    outer loop
      vertex 0.5535 4.0855 2.0000
      vertex 1.6278 3.2701 3.0000
      vertex 1.3321 4.7129 3.0000
    endloop
  endfacet
  facet normal -0.745688 -0.201642 0.635051
    outer loop
      vertex 0.9214 2.5623 2.0000
      vertex 1.2687 1.2780 2.0000
      vertex 1.9137 2.0422 3.0000
    endloop
  endfacet
  facet normal -0.742645 -0.172901 0.646981
    outer loop
      vertex 0.9214 2.5623 2.0000
      vertex 1.9137 2.0422 3.0000
      vertex 1.6278 3.2701 3.0000
    endloop
  endfacet
  facet normal -0.748797 -0.218353 0.625799
    outer loop
      vertex 1.2687 1.2780 2.0000
      vertex 1.5274 0.3911 2.0000
      vertex 2.1305 1.1887 3.0000
    endloop
  endfacet
  facet normal -0.751944 -0.190998 0.630952
    outer loop
      vertex 1.2687 1.2780 2.0000
      vertex 2.1305 1.1887 3.0000
      vertex 1.9137 2.0422 3.0000
    endloop
  endfacet
  facet normal -0.746886 -0.229046 0.624259
    outer loop
      vertex 1.5274 0.3911 2.0000
      vertex 1.6288 0.0604 2.0000
      vertex 2.2165 0.8694 3.0000
    endloop
  endfacet
  facet normal -0.757767 -0.204051 0.619801
    outer loop
      vertex 1.5274 0.3911 2.0000
      vertex 2.2165 0.8694 3.0000
      vertex 2.1305 1.1887 3.0000
    endloop
  endfacet
  facet normal 0.000000 0.000000 1.000000
    outer loop
      vertex 2.1305 1.1887 3.0000
      vertex 2.2165 0.8694 3.0000
      vertex 4.6493 0.9717 3.0000
    endloop
  endfacet
  facet normal 0.000000 0.000000 1.000000
    outer loop
      vertex 2.1305 1.1887 3.0000
      vertex 4.6493 0.9717 3.0000
      vertex 7.0330 1.0575 3.0000
    endloop
  endfacet
  facet normal 0.000000 0.000000 1.000000
    outer loop
      vertex 2.1305 1.1887 3.0000
      vertex 7.0330 1.0575 3.0000
      vertex 9.3766 1.1041 3.0000
    endloop
  endfacet
  facet normal 0.000000 0.000000 1.000000
    outer loop
      vertex 2.1305 1.1887 3.0000
      vertex 9.3766 1.1041 3.0000
      vertex 11.7078 1.0954 3.0000
    endloop
  endfacet
  facet normal 0.000000 0.000000 1.000000
    outer loop
      vertex 16.4598 0.9416 3.0000
      vertex 18.9069 0.8380 3.0000
      vertex 21.3951 0.7381 3.0000
    endloop
  endfacet
  facet normal 0.000000 0.000000 1.000000
    outer loop
      vertex 16.4598 0.9416 3.0000
      vertex 21.3951 0.7381 3.0000
      vertex 23.9143 0.6484 3.0000
    endloop
  endfacet
  facet normal 0.000000 0.000000 1.000000
    outer loop
      vertex 16.4598 0.9416 3.0000
      vertex 23.9143 0.6484 3.0000
      vertex 26.4554 0.5703 3.0000
    endloop
  endfacet
  facet normal 0.000000 0.000000 1.000000
    outer loop
      vertex 14.0613 1.0346 3.0000
      vertex 16.4598 0.9416 3.0000
      vertex 26.4554 0.5703 3.0000
    endloop
  endfacet
  facet normal -0.000000 0.000000 1.000000
    outer loop
      vertex 14.0613 1.0346 3.0000
      vertex 26.4554 0.5703 3.0000
      vertex 26.3895 2.8644 3.0000
    endloop
  endfacet
  facet normal -0.000000 0.000000 1.000000
    outer loop
      vertex 11.7078 1.0954 3.0000
      vertex 14.0613 1.0346 3.0000
      vertex 26.3895 2.8644 3.0000
    endloop
  endfacet
  facet normal -0.000000 0.000000 1.000000
    outer loop
      vertex 2.1305 1.1887 3.0000
      vertex 11.7078 1.0954 3.0000
      vertex 26.3895 2.8644 3.0000
    endloop
  endfacet
  facet normal 0.000000 0.000000 1.000000
    outer loop
      vertex 2.1305 1.1887 3.0000
      vertex 26.3895 2.8644 3.0000
      vertex 26.3284 5.1381 3.0000
    endloop
  endfacet
  facet normal 0.000000 0.000000 1.000000
    outer loop
      vertex 2.1305 1.1887 3.0000
      vertex 26.3284 5.1381 3.0000
      vertex 26.2779 7.3920 3.0000
    endloop
  endfacet
  facet normal 0.000000 0.000000 1.000000
    outer loop
      vertex 2.1305 1.1887 3.0000
      vertex 26.2779 7.3920 3.0000
      vertex 26.2443 9.6295 3.0000
    endloop
  endfacet
  facet normal 0.000000 0.000000 1.000000
    outer loop
      vertex 2.1305 1.1887 3.0000
      vertex 26.2443 9.6295 3.0000
      vertex 26.2324 11.8577 3.0000
    endloop
  endfacet
  facet normal 0.000000 0.000000 1.000000
    outer loop
      vertex 2.1305 1.1887 3.0000
      vertex 26.2324 11.8577 3.0000
      vertex 26.2443 14.0859 3.0000
    endloop
  endfacet
  facet normal 0.000000 0.000000 1.000000
    outer loop
      vertex 2.1305 1.1887 3.0000
      vertex 26.2443 14.0859 3.0000
      vertex 26.2779 16.3234 3.0000
    endloop
  endfacet
  facet normal 0.000000 0.000000 1.000000
    outer loop
      vertex 2.1305 1.1887 3.0000
      vertex 26.2779 16.3234 3.0000
      vertex 26.3284 18.5773 3.0000
    endloop
  endfacet
  facet normal 0.000000 0.000000 1.000000
    outer loop
      vertex 2.1305 1.1887 3.0000
      vertex 26.3284 18.5773 3.0000
      vertex 26.3895 20.8510 3.0000
    endloop
  endfacet
  facet normal 0.000000 0.000000 1.000000
    outer loop
      vertex 2.1305 1.1887 3.0000
      vertex 26.3895 20.8510 3.0000
      vertex 26.4554 23.1451 3.0000
    endloop
  endfacet
  facet normal 0.000000 0.000000 1.000000
    outer loop
      vertex 2.1305 1.1887 3.0000
      vertex 26.4554 23.1451 3.0000
      vertex 23.9143 23.0670 3.0000
    endloop
  endfacet
  facet normal 0.000000 0.000000 1.000000
    outer loop
      vertex 2.1305 1.1887 3.0000
      vertex 23.9143 23.0670 3.0000
      vertex 21.3951 22.9773 3.0000
    endloop
  endfacet
  facet normal 0.000000 0.000000 1.000000
    outer loop
      vertex 2.1305 1.1887 3.0000
      vertex 21.3951 22.9773 3.0000
      vertex 18.9069 22.8774 3.0000
    endloop
  endfacet
  facet normal 0.000000 0.000000 1.000000
    outer loop
      vertex 2.1305 1.1887 3.0000
      vertex 18.9069 22.8774 3.0000
      vertex 16.4598 22.7738 3.0000
    endloop
  endfacet
  facet normal 0.000000 0.000000 1.000000
    outer loop
      vertex 2.1305 1.1887 3.0000
      vertex 16.4598 22.7738 3.0000
      vertex 14.0613 22.6808 3.0000
    endloop
  endfacet
  facet normal 0.000000 0.000000 1.000000
    outer loop
      vertex 2.1305 1.1887 3.0000
      vertex 14.0613 22.6808 3.0000
      vertex 11.7078 22.6200 3.0000
    endloop
  endfacet
  facet normal 0.000000 0.000000 1.000000
    outer loop
      vertex 4.6493 22.7437 3.0000
      vertex 2.2165 22.8459 3.0000
      vertex 2.1305 22.5266 3.0000
    endloop
  endfacet
  facet normal 0.000000 0.000000 1.000000
    outer loop
      vertex 7.0330 22.6579 3.0000
      vertex 4.6493 22.7437 3.0000
      vertex 2.1305 22.5266 3.0000
    endloop
  endfacet
  facet normal 0.000000 0.000000 1.000000
    outer loop
      vertex 9.3766 22.6113 3.0000
      vertex 7.0330 22.6579 3.0000
      vertex 2.1305 22.5266 3.0000
    endloop
  endfacet
  facet normal 0.000000 0.000000 1.000000
    outer loop
      vertex 11.7078 22.6200 3.0000
      vertex 9.3766 22.6113 3.0000
      vertex 2.1305 22.5266 3.0000
    endloop
  endfacet
  facet normal 0.000000 0.000000 1.000000
    outer loop
      vertex 11.7078 22.6200 3.0000
      vertex 2.1305 22.5266 3.0000
      vertex 1.9137 21.6732 3.0000
    endloop
  endfacet
  facet normal 0.000000 0.000000 1.000000
    outer loop
      vertex 11.7078 22.6200 3.0000
      vertex 1.9137 21.6732 3.0000
      vertex 1.6278 20.4453 3.0000
    endloop
  endfacet
  facet normal 0.000000 0.000000 1.000000
    outer loop
      vertex 11.7078 22.6200 3.0000
      vertex 1.6278 20.4453 3.0000
      vertex 1.3321 19.0025 3.0000
    endloop
  endfacet
  facet normal 0.000000 0.000000 1.000000
    outer loop
      vertex 11.7078 22.6200 3.0000
      vertex 1.3321 19.0025 3.0000
      vertex 1.0825 17.4994 3.0000
    endloop
  endfacet
  facet normal 0.000000 0.000000 1.000000
    outer loop
      vertex 11.7078 22.6200 3.0000
      vertex 1.0825 17.4994 3.0000
      vertex 0.9348 16.0811 3.0000
    endloop
  endfacet
  facet normal 0.000000 0.000000 1.000000
    outer loop
      vertex 11.7078 22.6200 3.0000
      vertex 0.9348 16.0811 3.0000
      vertex 0.9504 14.8838 3.0000
    endloop
  endfacet
  facet normal 0.000000 0.000000 1.000000
    outer loop
      vertex 11.7078 22.6200 3.0000
      vertex 0.9504 14.8838 3.0000
      vertex 1.1995 14.0397 3.0000
    endloop
  endfacet
  facet normal 0.000000 0.000000 1.000000
    outer loop
      vertex 11.7078 22.6200 3.0000
      vertex 1.1995 14.0397 3.0000
      vertex 1.7565 13.6794 3.0000
    endloop
  endfacet
  facet normal 0.000000 0.000000 1.000000
    outer loop
      vertex 11.7078 22.6200 3.0000
      vertex 1.7565 13.6794 3.0000
      vertex 2.6875 13.9255 3.0000
    endloop
  endfacet
  facet normal 0.000000 0.000000 1.000000
    outer loop
      vertex 11.7078 22.6200 3.0000
      vertex 2.6875 13.9255 3.0000
      vertex 3.7101 14.2144 3.0000
    endloop
  endfacet
  facet normal 0.000000 0.000000 1.000000
    outer loop
      vertex 11.7078 22.6200 3.0000
      vertex 3.7101 14.2144 3.0000
      vertex 4.5232 14.0065 3.0000
    endloop
  endfacet
  facet normal 0.000000 0.000000 1.000000
    outer loop
      vertex 11.7078 22.6200 3.0000
      vertex 4.5232 14.0065 3.0000
      vertex 5.1317 13.4503 3.0000
    endloop
  endfacet
  facet normal 0.000000 0.000000 1.000000
    outer loop
      vertex 11.7078 22.6200 3.0000
      vertex 5.1317 13.4503 3.0000
      vertex 5.5209 12.6935 3.0000
    endloop
  endfacet
  facet normal 0.000000 0.000000 1.000000
    outer loop
      vertex 11.7078 22.6200 3.0000
      vertex 5.5209 12.6935 3.0000
      vertex 5.6574 11.8577 3.0000
    endloop
  endfacet
  facet normal 0.000000 0.000000 1.000000
    outer loop
      vertex 11.7078 22.6200 3.0000
      vertex 5.6574 11.8577 3.0000
      vertex 5.5209 11.0219 3.0000
    endloop
  endfacet
  facet normal 0.000000 0.000000 1.000000
    outer loop
      vertex 2.1305 1.1887 3.0000
      vertex 11.7078 22.6200 3.0000
      vertex 5.5209 11.0219 3.0000
    endloop
  endfacet
  facet normal 0.000000 0.000000 1.000000
    outer loop
      vertex 2.1305 1.1887 3.0000
      vertex 5.5209 11.0219 3.0000
      vertex 5.1317 10.2651 3.0000
    endloop
  endfacet
  facet normal 0.000000 0.000000 1.000000
    outer loop
      vertex 2.1305 1.1887 3.0000
      vertex 5.1317 10.2651 3.0000
      vertex 4.5232 9.7089 3.0000
    endloop
  endfacet
  facet normal 0.000000 0.000000 1.000000
    outer loop
      vertex 2.1305 1.1887 3.0000
      vertex 4.5232 9.7089 3.0000
      vertex 3.7101 9.5010 3.0000
    endloop
  endfacet
  facet normal 0.000000 0.000000 1.000000
    outer loop
      vertex 2.1305 1.1887 3.0000
      vertex 3.7101 9.5010 3.0000
      vertex 2.6875 9.7899 3.0000
    endloop
  endfacet
  facet normal 0.000000 -0.000000 1.000000
    outer loop
      vertex 2.1305 1.1887 3.0000
      vertex 2.6875 9.7899 3.0000
      vertex 1.7565 10.0360 3.0000
    endloop
  endfacet
  facet normal 0.000000 0.000000 1.000000
    outer loop
      vertex 2.1305 1.1887 3.0000
      vertex 1.7565 10.0360 3.0000
      vertex 1.1995 9.6757 3.0000
    endloop
  endfacet
  facet normal 0.000000 0.000000 1.000000
    outer loop
      vertex 2.1305 1.1887 3.0000
      vertex 1.1995 9.6757 3.0000
      vertex 0.9504 8.8316 3.0000
    endloop
  endfacet
  facet normal 0.000000 0.000000 1.000000
    outer loop
      vertex 2.1305 1.1887 3.0000
      vertex 0.9504 8.8316 3.0000
      vertex 0.9348 7.6343 3.0000
    endloop
  endfacet
  facet normal 0.000000 0.000000 1.000000
    outer loop
      vertex 2.1305 1.1887 3.0000
      vertex 0.9348 7.6343 3.0000
      vertex 1.0825 6.2160 3.0000
    endloop
  endfacet
  facet normal 0.000000 0.000000 1.000000
    outer loop
      vertex 2.1305 1.1887 3.0000
      vertex 1.0825 6.2160 3.0000
      vertex 1.3321 4.7129 3.0000
    endloop
  endfacet
  facet normal 0.000000 0.000000 1.000000
    outer loop
      vertex 2.1305 1.1887 3.0000
      vertex 1.3321 4.7129 3.0000
      vertex 1.6278 3.2701 3.0000
    endloop
  endfacet
  facet normal 0.000000 0.000000 1.000000
    outer loop
      vertex 1.6278 3.2701 3.0000
      vertex 1.9137 2.0422 3.0000
      vertex 2.1305 1.1887 3.0000
    endloop
  endfacet
endsolid pyjigsaw-0p50-piece-02
