solid pyjigsaw-0p20-piece-02
  facet normal 0.000000 0.000000 1.000000
    outer loop
      vertex 1.5797 0.3566 3.0000
      vertex 1.6835 0.0241 3.0000
      vertex 4.2700 0.0323 3.0000
    endloop
  endfacet
  facet normal -0.000000 0.000000 -1.000000
    outer loop
      vertex 4.2700 0.0323 0.0000
      vertex 1.6835 0.0241 0.0000
      vertex 1.5797 0.3566 0.0000
    endloop
  endfacet
  facet normal 0.000000 0.000000 1.000000
    outer loop
      vertex 1.5797 0.3566 3.0000
      vertex 4.2700 0.0323 3.0000
      vertex 6.8527 0.0392 3.0000
    endloop
  endfacet
  facet normal -0.000000 0.000000 -1.000000
    outer loop
      vertex 6.8527 0.0392 0.0000
      vertex 4.2700 0.0323 0.0000
      vertex 1.5797 0.3566 0.0000
    endloop
  endfacet
  facet normal 0.000000 0.000000 1.000000
    outer loop
      vertex 1.5797 0.3566 3.0000
      vertex 6.8527 0.0392 3.0000
      vertex 9.4321 0.0428 3.0000
    endloop
  endfacet
  facet normal -0.000000 0.000000 -1.000000
    outer loop
      vertex 9.4321 0.0428 0.0000
      vertex 6.8527 0.0392 0.0000
      vertex 1.5797 0.3566 0.0000
    endloop
  endfacet
  facet normal 0.000000 0.000000 1.000000
    outer loop
      vertex 1.5797 0.3566 3.0000
      vertex 9.4321 0.0428 3.0000
      vertex 12.0106 0.0421 3.0000
    endloop
  endfacet
  facet normal 0.000000 0.000000 -1.000000
    outer loop
      vertex 12.0106 0.0421 0.0000
      vertex 9.4321 0.0428 0.0000
      vertex 1.5797 0.3566 0.0000
    endloop
  endfacet
  facet normal 0.000000 0.000000 1.000000
    outer loop
      vertex 1.5797 0.3566 3.0000
      vertex 12.0106 0.0421 3.0000
      vertex 14.5909 0.0371 3.0000
    endloop
  endfacet
  facet normal 0.000000 0.000000 -1.000000
    outer loop
      vertex 14.5909 0.0371 0.0000
      vertex 12.0106 0.0421 0.0000
      vertex 1.5797 0.3566 0.0000
    endloop
  endfacet
  facet normal 0.000000 0.000000 1.000000
    outer loop
      vertex 1.5797 0.3566 3.0000
      vertex 14.5909 0.0371 3.0000
      vertex 17.1749 0.0297 3.0000
    endloop
  endfacet
  facet normal 0.000000 0.000000 -1.000000
    outer loop
      vertex 17.1749 0.0297 0.0000
      vertex 14.5909 0.0371 0.0000
      vertex 1.5797 0.3566 0.0000
    endloop
  endfacet
  facet normal 0.000000 0.000000 1.000000
    outer loop
      vertex 1.5797 0.3566 3.0000
      vertex 17.1749 0.0297 3.0000
      vertex 19.7627 0.0214 3.0000
    endloop
  endfacet
  facet normal 0.000000 0.000000 -1.000000
    outer loop
      vertex 19.7627 0.0214 0.0000
      vertex 17.1749 0.0297 0.0000
      vertex 1.5797 0.3566 0.0000
    endloop
  endfacet
  facet normal 0.000000 0.000000 1.000000
    outer loop
      vertex 1.5797 0.3566 3.0000
      vertex 19.7627 0.0214 3.0000
      vertex 22.3538 0.0134 3.0000
    endloop
  endfacet
  facet normal 0.000000 0.000000 -1.000000
    outer loop
      vertex 22.3538 0.0134 0.0000
      vertex 19.7627 0.0214 0.0000
      vertex 1.5797 0.3566 0.0000
    endloop
  endfacet
  facet normal 0.000000 0.000000 1.000000
    outer loop
      vertex 1.5797 0.3566 3.0000
      vertex 22.3538 0.0134 3.0000
      vertex 24.9474 0.0062 3.0000
    endloop
  endfacet
  facet normal 0.000000 0.000000 -1.000000
    outer loop
      vertex 24.9474 0.0062 0.0000
      vertex 22.3538 0.0134 0.0000
      vertex 1.5797 0.3566 0.0000
    endloop
  endfacet
  facet normal 0.000000 0.000000 1.000000
    outer loop
      vertex 1.5797 0.3566 3.0000
      vertex 24.9474 0.0062 3.0000
      vertex 27.5427 0.0000 3.0000
    endloop
  endfacet
  facet normal 0.000000 0.000000 -1.000000
    outer loop
      vertex 27.5427 0.0000 0.0000
      vertex 24.9474 0.0062 0.0000
      vertex 1.5797 0.3566 0.0000
    endloop
  endfacet
  facet normal -0.000000 0.000000 1.000000
    outer loop
      vertex 1.5797 0.3566 3.0000
      vertex 27.5427 0.0000 3.0000
      vertex 27.5374 2.3915 3.0000
    endloop
  endfacet
  facet normal 0.000000 -0.000000 -1.000000
    outer loop
      vertex 27.5374 2.3915 0.0000
      vertex 27.5427 0.0000 0.0000
      vertex 1.5797 0.3566 0.0000
    endloop
  endfacet
  facet normal 0.000000 0.000000 1.000000
    outer loop
      vertex 1.5797 0.3566 3.0000
      vertex 27.5374 2.3915 3.0000
      vertex 27.5326 4.7814 3.0000
    endloop
  endfacet
  facet normal 0.000000 -0.000000 -1.000000
    outer loop
      vertex 27.5326 4.7814 0.0000
      vertex 27.5374 2.3915 0.0000
      vertex 1.5797 0.3566 0.0000
    endloop
  endfacet
  facet normal 0.000000 0.000000 1.000000
    outer loop
      vertex 1.5797 0.3566 3.0000
      vertex 27.5326 4.7814 3.0000
      vertex 27.5285 7.1698 3.0000
    endloop
  endfacet
  facet normal 0.000000 -0.000000 -1.000000
    outer loop
      vertex 27.5285 7.1698 0.0000
      vertex 27.5326 4.7814 0.0000
      vertex 1.5797 0.3566 0.0000
    endloop
  endfacet
  facet normal 0.000000 0.000000 1.000000
    outer loop
      vertex 1.5797 0.3566 3.0000
      vertex 27.5285 7.1698 3.0000
      vertex 27.5258 9.5568 3.0000
    endloop
  endfacet
  facet normal 0.000000 -0.000000 -1.000000
    outer loop
      vertex 27.5258 9.5568 0.0000
      vertex 27.5285 7.1698 0.0000
      vertex 1.5797 0.3566 0.0000
    endloop
  endfacet
  facet normal 0.000000 0.000000 1.000000
    outer loop
      vertex 1.5797 0.3566 3.0000
      vertex 27.5258 9.5568 3.0000
      vertex 27.5249 11.9431 3.0000
    endloop
  endfacet
  facet normal 0.000000 -0.000000 -1.000000
    outer loop
      vertex 27.5249 11.9431 0.0000
      vertex 27.5258 9.5568 0.0000
      vertex 1.5797 0.3566 0.0000
    endloop
  endfacet
  facet normal 0.000000 0.000000 1.000000
    outer loop
      vertex 1.5797 0.3566 3.0000
      vertex 27.5249 11.9431 3.0000
      vertex 27.5258 14.3294 3.0000
    endloop
  endfacet
  facet normal 0.000000 0.000000 -1.000000
    outer loop
      vertex 27.5258 14.3294 0.0000
      vertex 27.5249 11.9431 0.0000
      vertex 1.5797 0.3566 0.0000
    endloop
  endfacet
  facet normal 0.000000 0.000000 1.000000
    outer loop
      vertex 1.5797 0.3566 3.0000
      vertex 27.5258 14.3294 3.0000
      vertex 27.5285 16.7164 3.0000
    endloop
  endfacet
  facet normal 0.000000 0.000000 -1.000000
    outer loop
      vertex 27.5285 16.7164 0.0000
      vertex 27.5258 14.3294 0.0000
      vertex 1.5797 0.3566 0.0000
    endloop
  endfacet
  facet normal 0.000000 0.000000 1.000000
    outer loop
      vertex 1.5797 0.3566 3.0000
      vertex 27.5285 16.7164 3.0000
      vertex 27.5326 19.1047 3.0000
    endloop
  endfacet
  facet normal 0.000000 0.000000 -1.000000
    outer loop
      vertex 27.5326 19.1047 0.0000
      vertex 27.5285 16.7164 0.0000
      vertex 1.5797 0.3566 0.0000
    endloop
  endfacet
  facet normal 0.000000 0.000000 1.000000
    outer loop
      vertex 1.5797 0.3566 3.0000
      vertex 27.5326 19.1047 3.0000
      vertex 27.5374 21.4946 3.0000
    endloop
  endfacet
  facet normal 0.000000 0.000000 -1.000000
    outer loop
      vertex 27.5374 21.4946 0.0000
      vertex 27.5326 19.1047 0.0000
      vertex 1.5797 0.3566 0.0000
    endloop
  endfacet
  facet normal 0.000000 0.000000 1.000000
    outer loop
      vertex 1.5797 0.3566 3.0000
      vertex 27.5374 21.4946 3.0000
      vertex 27.5427 23.8862 3.0000
    endloop
  endfacet
  facet normal 0.000000 0.000000 -1.000000
    outer loop
      vertex 27.5427 23.8862 0.0000
      vertex 27.5374 21.4946 0.0000
      vertex 1.5797 0.3566 0.0000
    endloop
  endfacet
  facet normal 0.000000 0.000000 1.000000
    outer loop
      vertex 1.5797 0.3566 3.0000
      vertex 27.5427 23.8862 3.0000
      vertex 24.9474 23.8799 3.0000
    endloop
  endfacet
  facet normal 0.000000 -0.000000 -1.000000
    outer loop
      vertex 24.9474 23.8799 0.0000
      vertex 27.5427 23.8862 0.0000
      vertex 1.5797 0.3566 0.0000
    endloop
  endfacet
  facet normal 0.000000 0.000000 1.000000
    outer loop
      vertex 1.5797 0.3566 3.0000
      vertex 24.9474 23.8799 3.0000
      vertex 22.3538 23.8728 3.0000
    endloop
  endfacet
  facet normal 0.000000 -0.000000 -1.000000
    outer loop
      vertex 22.3538 23.8728 0.0000
      vertex 24.9474 23.8799 0.0000
      vertex 1.5797 0.3566 0.0000
    endloop
  endfacet
  facet normal 0.000000 0.000000 1.000000
    outer loop
      vertex 1.5797 0.3566 3.0000
      vertex 22.3538 23.8728 3.0000
      vertex 19.7627 23.8648 3.0000
    endloop
  endfacet
  facet normal 0.000000 -0.000000 -1.000000
    outer loop
      vertex 19.7627 23.8648 0.0000
      vertex 22.3538 23.8728 0.0000
      vertex 1.5797 0.3566 0.0000
    endloop
  endfacet
  facet normal 0.000000 0.000000 1.000000
    outer loop
      vertex 1.5797 0.3566 3.0000
      vertex 19.7627 23.8648 3.0000
      vertex 17.1749 23.8565 3.0000
    endloop
  endfacet
  facet normal 0.000000 -0.000000 -1.000000
    outer loop
      vertex 17.1749 23.8565 0.0000
      vertex 19.7627 23.8648 0.0000
      vertex 1.5797 0.3566 0.0000
    endloop
  endfacet
  facet normal 0.000000 0.000000 1.000000
    outer loop
      vertex 1.5797 0.3566 3.0000
      vertex 17.1749 23.8565 3.0000
      vertex 14.5909 23.8490 3.0000
    endloop
  endfacet
  facet normal 0.000000 -0.000000 -1.000000
    outer loop
      vertex 14.5909 23.8490 0.0000
      vertex 17.1749 23.8565 0.0000
      vertex 1.5797 0.3566 0.0000
    endloop
  endfacet
  facet normal 0.000000 0.000000 1.000000
    outer loop
      vertex 1.5797 0.3566 3.0000
      vertex 14.5909 23.8490 3.0000
      vertex 12.0106 23.8441 3.0000
    endloop
  endfacet
  facet normal 0.000000 -0.000000 -1.000000
    outer loop
      vertex 12.0106 23.8441 0.0000
      vertex 14.5909 23.8490 0.0000
      vertex 1.5797 0.3566 0.0000
    endloop
  endfacet
  facet normal 0.000000 0.000000 1.000000
    outer loop
      vertex 1.5797 0.3566 3.0000
      vertex 12.0106 23.8441 3.0000
      vertex 9.4321 23.8433 3.0000
    endloop
  endfacet
  facet normal 0.000000 -0.000000 -1.000000
    outer loop
      vertex 9.4321 23.8433 0.0000
      vertex 12.0106 23.8441 0.0000
      vertex 1.5797 0.3566 0.0000
    endloop
  endfacet
  facet normal 0.000000 0.000000 1.000000
    outer loop
      vertex 4.2700 23.8538 3.0000
      vertex 1.6835 23.8620 3.0000
      vertex 1.5797 23.5296 3.0000
    endloop
  endfacet
  facet normal 0.000000 0.000000 -1.000000
    outer loop
      vertex 1.5797 23.5296 0.0000
      vertex 1.6835 23.8620 0.0000
      vertex 4.2700 23.8538 0.0000
    endloop
  endfacet
  facet normal 0.000000 0.000000 1.000000
    outer loop
      vertex 6.8527 23.8470 3.0000
      vertex 4.2700 23.8538 3.0000
      vertex 1.5797 23.5296 3.0000
    endloop
  endfacet
  facet normal 0.000000 0.000000 -1.000000
    outer loop
      vertex 1.5797 23.5296 0.0000
      vertex 4.2700 23.8538 0.0000
      vertex 6.8527 23.8470 0.0000
    endloop
  endfacet
  facet normal 0.000000 0.000000 1.000000
    outer loop
      vertex 9.4321 23.8433 3.0000
      vertex 6.8527 23.8470 3.0000
      vertex 1.5797 23.5296 3.0000
    endloop
  endfacet
  facet normal 0.000000 0.000000 -1.000000
    outer loop
      vertex 1.5797 23.5296 0.0000
      vertex 6.8527 23.8470 0.0000
      vertex 9.4321 23.8433 0.0000
    endloop
  endfacet
  facet normal 0.000000 0.000000 1.000000
    outer loop
      vertex 9.4321 23.8433 3.0000
      vertex 1.5797 23.5296 3.0000
      vertex 1.3148 22.6377 3.0000
    endloop
  endfacet
  facet normal 0.000000 0.000000 -1.000000
    outer loop
      vertex 1.3148 22.6377 0.0000
      vertex 1.5797 23.5296 0.0000
      vertex 9.4321 23.8433 0.0000
    endloop
  endfacet
  facet normal 0.000000 0.000000 1.000000
    outer loop
      vertex 9.4321 23.8433 3.0000
      vertex 1.3148 22.6377 3.0000
      vertex 0.9583 21.3449 3.0000
    endloop
  endfacet
  facet normal 0.000000 0.000000 -1.000000
    outer loop
      vertex 0.9583 21.3449 0.0000
      vertex 1.3148 22.6377 0.0000
      vertex 9.4321 23.8433 0.0000
    endloop
  endfacet
  facet normal 0.000000 0.000000 1.000000
    outer loop
      vertex 9.4321 23.8433 3.0000
      vertex 0.9583 21.3449 3.0000
      vertex 0.5794 19.8097 3.0000
    endloop
  endfacet
  facet normal 0.000000 0.000000 -1.000000
    outer loop
      vertex 0.5794 19.8097 0.0000
      vertex 0.9583 21.3449 0.0000
      vertex 9.4321 23.8433 0.0000
    endloop
  endfacet
  facet normal 0.000000 0.000000 1.000000
    outer loop
      vertex 9.4321 23.8433 3.0000
      vertex 0.5794 19.8097 3.0000
      vertex 0.2473 18.1903 3.0000
    endloop
  endfacet
  facet normal 0.000000 0.000000 -1.000000
    outer loop
      vertex 0.2473 18.1903 0.0000
      vertex 0.5794 19.8097 0.0000
      vertex 9.4321 23.8433 0.0000
    endloop
  endfacet
  facet normal 0.000000 0.000000 1.000000
    outer loop
      vertex 9.4321 23.8433 3.0000
      vertex 0.2473 18.1903 3.0000
      vertex 0.0310 16.6438 3.0000
    endloop
  endfacet
  facet normal 0.000000 0.000000 -1.000000
    outer loop
      vertex 0.0310 16.6438 0.0000
      vertex 0.2473 18.1903 0.0000
      vertex 9.4321 23.8433 0.0000
    endloop
  endfacet
  facet normal 0.000000 0.000000 1.000000
    outer loop
      vertex 9.4321 23.8433 3.0000
      vertex 0.0310 16.6438 3.0000
      vertex 0.0000 15.3270 3.0000
    endloop
  endfacet
  facet normal 0.000000 0.000000 -1.000000
    outer loop
      vertex 0.0000 15.3270 0.0000
      vertex 0.0310 16.6438 0.0000
      vertex 9.4321 23.8433 0.0000
    endloop
  endfacet
  facet normal 0.000000 0.000000 1.000000
    outer loop
      vertex 9.4321 23.8433 3.0000
      vertex 0.0000 15.3270 3.0000
      vertex 0.2245 14.3962 3.0000
    endloop
  endfacet
  facet normal 0.000000 0.000000 -1.000000
    outer loop
      vertex 0.2245 14.3962 0.0000
      vertex 0.0000 15.3270 0.0000
      vertex 9.4321 23.8433 0.0000
    endloop
  endfacet
  facet normal 0.000000 0.000000 1.000000
    outer loop
      vertex 9.4321 23.8433 3.0000
      vertex 0.2245 14.3962 3.0000
      vertex 0.7749 14.0075 3.0000
    endloop
  endfacet
  facet normal 0.000000 0.000000 -1.000000
    outer loop
      vertex 0.7749 14.0075 0.0000
      vertex 0.2245 14.3962 0.0000
      vertex 9.4321 23.8433 0.0000
    endloop
  endfacet
  facet normal 0.000000 0.000000 1.000000
    outer loop
      vertex 9.4321 23.8433 3.0000
      vertex 0.7749 14.0075 3.0000
      vertex 1.7213 14.3164 3.0000
    endloop
  endfacet
  facet normal -0.000000 0.000000 -1.000000
    outer loop
      vertex 1.7213 14.3164 0.0000
      vertex 0.7749 14.0075 0.0000
      vertex 9.4321 23.8433 0.0000
    endloop
  endfacet
  facet normal 0.000000 0.000000 1.000000
    outer loop
      vertex 9.4321 23.8433 3.0000
      vertex 1.7213 14.3164 3.0000
      vertex 2.7718 14.6927 3.0000
    endloop
  endfacet
  facet normal -0.000000 0.000000 -1.000000
    outer loop
      vertex 2.7718 14.6927 0.0000
      vertex 1.7213 14.3164 0.0000
      vertex 9.4321 23.8433 0.0000
    endloop
  endfacet
  facet normal 0.000000 0.000000 1.000000
    outer loop
      vertex 9.4321 23.8433 3.0000
      vertex 2.7718 14.6927 3.0000
      vertex 3.5903 14.4994 3.0000
    endloop
  endfacet
  facet normal 0.000000 0.000000 -1.000000
    outer loop
      vertex 3.5903 14.4994 0.0000
      vertex 2.7718 14.6927 0.0000
      vertex 9.4321 23.8433 0.0000
    endloop
  endfacet
  facet normal 0.000000 0.000000 1.000000
    outer loop
      vertex 9.4321 23.8433 3.0000
      vertex 3.5903 14.4994 3.0000
      vertex 4.1772 13.8809 3.0000
    endloop
  endfacet
  facet normal 0.000000 0.000000 -1.000000
    outer loop
      vertex 4.1772 13.8809 0.0000
      vertex 3.5903 14.4994 0.0000
      vertex 9.4321 23.8433 0.0000
    endloop
  endfacet
  facet normal 0.000000 0.000000 1.000000
    outer loop
      vertex 9.4321 23.8433 3.0000
      vertex 4.1772 13.8809 3.0000
      vertex 4.5313 12.9813 3.0000
    endloop
  endfacet
  facet normal 0.000000 0.000000 -1.000000
    outer loop
      vertex 4.5313 12.9813 0.0000
      vertex 4.1772 13.8809 0.0000
      vertex 9.4321 23.8433 0.0000
    endloop
  endfacet
  facet normal 0.000000 0.000000 1.000000
    outer loop
      vertex 9.4321 23.8433 3.0000
      vertex 4.5313 12.9813 3.0000
      vertex 4.6499 11.9431 3.0000
    endloop
  endfacet
  facet normal 0.000000 0.000000 -1.000000
    outer loop
      vertex 4.6499 11.9431 0.0000
      vertex 4.5313 12.9813 0.0000
      vertex 9.4321 23.8433 0.0000
    endloop
  endfacet
  facet normal 0.000000 0.000000 1.000000
    outer loop
      vertex 9.4321 23.8433 3.0000
      vertex 4.6499 11.9431 3.0000
      vertex 4.5313 10.9048 3.0000
    endloop
  endfacet
  facet normal 0.000000 0.000000 -1.000000
    outer loop
      vertex 4.5313 10.9048 0.0000
      vertex 4.6499 11.9431 0.0000
      vertex 9.4321 23.8433 0.0000
    endloop
  endfacet
  facet normal 0.000000 0.000000 1.000000
    outer loop
      vertex 1.5797 0.3566 3.0000
      vertex 9.4321 23.8433 3.0000
      vertex 4.5313 10.9048 3.0000
    endloop
  endfacet
  facet normal 0.000000 -0.000000 -1.000000
    outer loop
      vertex 4.5313 10.9048 0.0000
      vertex 9.4321 23.8433 0.0000
      vertex 1.5797 0.3566 0.0000
    endloop
  endfacet
  facet normal 0.000000 0.000000 1.000000
    outer loop
      vertex 1.5797 0.3566 3.0000
      vertex 4.5313 10.9048 3.0000
      vertex 4.1772 10.0053 3.0000
    endloop
  endfacet
  facet normal 0.000000 -0.000000 -1.000000
    outer loop
      vertex 4.1772 10.0053 0.0000
      vertex 4.5313 10.9048 0.0000
      vertex 1.5797 0.3566 0.0000
    endloop
  endfacet
  facet normal 0.000000 0.000000 1.000000
    outer loop
      vertex 1.5797 0.3566 3.0000
      vertex 4.1772 10.0053 3.0000
      vertex 3.5903 9.3867 3.0000
    endloop
  endfacet
  facet normal 0.000000 -0.000000 -1.000000
    outer loop
      vertex 3.5903 9.3867 0.0000
      vertex 4.1772 10.0053 0.0000
      vertex 1.5797 0.3566 0.0000
    endloop
  endfacet
  facet normal 0.000000 0.000000 1.000000
    outer loop
      vertex 1.5797 0.3566 3.0000
      vertex 3.5903 9.3867 3.0000
      vertex 2.7718 9.1934 3.0000
    endloop
  endfacet
  facet normal 0.000000 -0.000000 -1.000000
    outer loop
      vertex 2.7718 9.1934 0.0000
      vertex 3.5903 9.3867 0.0000
      vertex 1.5797 0.3566 0.0000
    endloop
  endfacet
  facet normal 0.000000 0.000000 1.000000
    outer loop
      vertex 1.5797 0.3566 3.0000
      vertex 2.7718 9.1934 3.0000
      vertex 1.7213 9.5698 3.0000
    endloop
  endfacet
  facet normal 0.000000 -0.000000 -1.000000
    outer loop
      vertex 1.7213 9.5698 0.0000
      vertex 2.7718 9.1934 0.0000
      vertex 1.5797 0.3566 0.0000
    endloop
  endfacet
  facet normal 0.000000 -0.000000 1.000000
    outer loop
      vertex 1.5797 0.3566 3.0000
      vertex 1.7213 9.5698 3.0000
      vertex 0.7749 9.8787 3.0000
    endloop
  endfacet
  facet normal 0.000000 0.000000 -1.000000
    outer loop
      vertex 0.7749 9.8787 0.0000
      vertex 1.7213 9.5698 0.0000
      vertex 1.5797 0.3566 0.0000
    endloop
  endfacet
  facet normal 0.000000 0.000000 1.000000
    outer loop
      vertex 1.5797 0.3566 3.0000
      vertex 0.7749 9.8787 3.0000
      vertex 0.2245 9.4900 3.0000
    endloop
  endfacet
  facet normal 0.000000 0.000000 -1.000000
    outer loop
      vertex 0.2245 9.4900 0.0000
      vertex 0.7749 9.8787 0.0000
      vertex 1.5797 0.3566 0.0000
    endloop
  endfacet
  facet normal 0.000000 0.000000 1.000000
    outer loop
      vertex 1.5797 0.3566 3.0000
      vertex 0.2245 9.4900 3.0000
      vertex 0.0000 8.5591 3.0000
    endloop
  endfacet
  facet normal 0.000000 0.000000 -1.000000
    outer loop
      vertex 0.0000 8.5591 0.0000
      vertex 0.2245 9.4900 0.0000
      vertex 1.5797 0.3566 0.0000
    endloop
  endfacet
  facet normal 0.000000 0.000000 1.000000
    outer loop
      vertex 1.5797 0.3566 3.0000
      vertex 0.0000 8.5591 3.0000
      vertex 0.0310 7.2423 3.0000
    endloop
  endfacet
  facet normal 0.000000 0.000000 -1.000000
    outer loop
      vertex 0.0310 7.2423 0.0000
      vertex 0.0000 8.5591 0.0000
      vertex 1.5797 0.3566 0.0000
    endloop
  endfacet
  facet normal 0.000000 0.000000 1.000000
    outer loop
      vertex 1.5797 0.3566 3.0000
      vertex 0.0310 7.2423 3.0000
      vertex 0.2473 5.6959 3.0000
    endloop
  endfacet
  facet normal 0.000000 0.000000 -1.000000
    outer loop
      vertex 0.2473 5.6959 0.0000
      vertex 0.0310 7.2423 0.0000
      vertex 1.5797 0.3566 0.0000
    endloop
  endfacet
  facet normal 0.000000 0.000000 1.000000
    outer loop
      vertex 1.5797 0.3566 3.0000
      vertex 0.2473 5.6959 3.0000
      vertex 0.5794 4.0764 3.0000
    endloop
  endfacet
  facet normal 0.000000 0.000000 -1.000000
    outer loop
      vertex 0.5794 4.0764 0.0000
      vertex 0.2473 5.6959 0.0000
      vertex 1.5797 0.3566 0.0000
    endloop
  endfacet
  facet normal 0.000000 0.000000 1.000000
    outer loop
      vertex 1.5797 0.3566 3.0000
      vertex 0.5794 4.0764 3.0000
      vertex 0.9583 2.5412 3.0000
    endloop
  endfacet
  facet normal 0.000000 0.000000 -1.000000
    outer loop
      vertex 0.9583 2.5412 0.0000
      vertex 0.5794 4.0764 0.0000
      vertex 1.5797 0.3566 0.0000
    endloop
  endfacet
  facet normal 0.000000 0.000000 1.000000
    outer loop
      vertex 0.9583 2.5412 3.0000
      vertex 1.3148 1.2485 3.0000
      vertex 1.5797 0.3566 3.0000
    endloop
  endfacet
  facet normal 0.000000 0.000000 -1.000000
    outer loop
      vertex 1.5797 0.3566 0.0000
      vertex 1.3148 1.2485 0.0000
      vertex 0.9583 2.5412 0.0000
    endloop
  endfacet
  facet normal 0.003161 -0.999995 0.000000
    outer loop
      vertex 1.6835 0.0241 0.0000
      vertex 4.2700 0.0323 0.0000
      vertex 4.2700 0.0323 3.0000
    endloop
  endfacet
  facet normal 0.003161 -0.999995 0.000000
    outer loop
      vertex 1.6835 0.0241 0.0000
      vertex 4.2700 0.0323 3.0000
      vertex 1.6835 0.0241 3.0000
    endloop
  endfacet
  facet normal 0.002644 -0.999997 0.000000
    outer loop
      vertex 4.2700 0.0323 0.0000
      vertex 6.8527 0.0392 0.0000
      vertex 6.8527 0.0392 3.0000
    endloop
  endfacet
  facet normal 0.002644 -0.999997 0.000000
    outer loop
      vertex 4.2700 0.0323 0.0000
      vertex 6.8527 0.0392 3.0000
      vertex 4.2700 0.0323 3.0000
    endloop
  endfacet
  facet normal 0.001422 -0.999999 0.000000
    outer loop
      vertex 6.8527 0.0392 0.0000
      vertex 9.4321 0.0428 0.0000
      vertex 9.4321 0.0428 3.0000
    endloop
  endfacet
  facet normal 0.001422 -0.999999 0.000000
    outer loop
      vertex 6.8527 0.0392 0.0000
      vertex 9.4321 0.0428 3.0000
      vertex 6.8527 0.0392 3.0000
    endloop
  endfacet
  facet normal -0.000298 -1.000000 0.000000
    outer loop
      vertex 9.4321 0.0428 0.0000
      vertex 12.0106 0.0421 0.0000
      vertex 12.0106 0.0421 3.0000
    endloop
  endfacet
  facet normal -0.000298 -1.000000 0.000000
    outer loop
      vertex 9.4321 0.0428 0.0000
      vertex 12.0106 0.0421 3.0000
      vertex 9.4321 0.0428 3.0000
    endloop
  endfacet
  facet normal -0.001906 -0.999998 0.000000
    outer loop
      vertex 12.0106 0.0421 0.0000
      vertex 14.5909 0.0371 0.0000
      vertex 14.5909 0.0371 3.0000
    endloop
  endfacet
  facet normal -0.001906 -0.999998 0.000000
    outer loop
      vertex 12.0106 0.0421 0.0000
      vertex 14.5909 0.0371 3.0000
      vertex 12.0106 0.0421 3.0000
    endloop
  endfacet
  facet normal -0.002890 -0.999996 0.000000
    outer loop
      vertex 14.5909 0.0371 0.0000
      vertex 17.1749 0.0297 0.0000
      vertex 17.1749 0.0297 3.0000
    endloop
  endfacet
  facet normal -0.002890 -0.999996 0.000000
    outer loop
      vertex 14.5909 0.0371 0.0000
      vertex 17.1749 0.0297 3.0000
      vertex 14.5909 0.0371 3.0000
    endloop
  endfacet
  facet normal -0.003203 -0.999995 0.000000
    outer loop
      vertex 17.1749 0.0297 0.0000
      vertex 19.7627 0.0214 0.0000
      vertex 19.7627 0.0214 3.0000
    endloop
  endfacet
  facet normal -0.003203 -0.999995 0.000000
    outer loop
      vertex 17.1749 0.0297 0.0000
      vertex 19.7627 0.0214 3.0000
      vertex 17.1749 0.0297 3.0000
    endloop
  endfacet
  facet normal -0.003080 -0.999995 0.000000
    outer loop
      vertex 19.7627 0.0214 0.0000
      vertex 22.3538 0.0134 0.0000
      vertex 22.3538 0.0134 3.0000
    endloop
  endfacet
  facet normal -0.003080 -0.999995 0.000000
    outer loop
      vertex 19.7627 0.0214 0.0000
      vertex 22.3538 0.0134 3.0000
      vertex 19.7627 0.0214 3.0000
    endloop
  endfacet
  facet normal -0.002763 -0.999996 0.000000
    outer loop
      vertex 22.3538 0.0134 0.0000
      vertex 24.9474 0.0062 0.0000
      vertex 24.9474 0.0062 3.0000
    endloop
  endfacet
  facet normal -0.002763 -0.999996 0.000000
    outer loop
      vertex 22.3538 0.0134 0.0000
      vertex 24.9474 0.0062 3.0000
      vertex 22.3538 0.0134 3.0000
    endloop
  endfacet
  facet normal -0.002401 -0.999997 0.000000
    outer loop
      vertex 24.9474 0.0062 0.0000
      vertex 27.5427 0.0000 0.0000
      vertex 27.5427 0.0000 3.0000
    endloop
  endfacet
  facet normal -0.002401 -0.999997 0.000000
    outer loop
      vertex 24.9474 0.0062 0.0000
      vertex 27.5427 0.0000 3.0000
      vertex 24.9474 0.0062 3.0000
    endloop
  endfacet
  facet normal 0.999998 0.002199 0.000000
    outer loop
      vertex 27.5427 0.0000 0.0000
      vertex 27.5374 2.3915 0.0000
      vertex 27.5374 2.3915 3.0000
    endloop
  endfacet
  facet normal 0.999998 0.002199 -0.000000
    outer loop
      vertex 27.5427 0.0000 0.0000
      vertex 27.5374 2.3915 3.0000
      vertex 27.5427 0.0000 3.0000
    endloop
  endfacet
  facet normal 0.999998 0.002038 0.000000
    outer loop
      vertex 27.5374 2.3915 0.0000
      vertex 27.5326 4.7814 0.0000
      vertex 27.5326 4.7814 3.0000
    endloop
  endfacet
  facet normal 0.999998 0.002038 -0.000000
    outer loop
      vertex 27.5374 2.3915 0.0000
      vertex 27.5326 4.7814 3.0000
      vertex 27.5374 2.3915 3.0000
    endloop
  endfacet
  facet normal 0.999999 0.001685 0.000000
    outer loop
      vertex 27.5326 4.7814 0.0000
      vertex 27.5285 7.1698 0.0000
      vertex 27.5285 7.1698 3.0000
    endloop
  endfacet
  facet normal 0.999999 0.001685 -0.000000
    outer loop
      vertex 27.5326 4.7814 0.0000
      vertex 27.5285 7.1698 3.0000
      vertex 27.5326 4.7814 3.0000
    endloop
  endfacet
  facet normal 0.999999 0.001124 0.000000
    outer loop
      vertex 27.5285 7.1698 0.0000
      vertex 27.5258 9.5568 0.0000
      vertex 27.5258 9.5568 3.0000
    endloop
  endfacet
  facet normal 0.999999 0.001124 -0.000000
    outer loop
      vertex 27.5285 7.1698 0.0000
      vertex 27.5258 9.5568 3.0000
      vertex 27.5285 7.1698 3.0000
    endloop
  endfacet
  facet normal 1.000000 0.000396 0.000000
    outer loop
      vertex 27.5258 9.5568 0.0000
      vertex 27.5249 11.9431 0.0000
      vertex 27.5249 11.9431 3.0000
    endloop
  endfacet
  facet normal 1.000000 0.000396 -0.000000
    outer loop
      vertex 27.5258 9.5568 0.0000
      vertex 27.5249 11.9431 3.0000
      vertex 27.5258 9.5568 3.0000
    endloop
  endfacet
  facet normal 1.000000 -0.000396 0.000000
    outer loop
      vertex 27.5249 11.9431 0.0000
      vertex 27.5258 14.3294 0.0000
      vertex 27.5258 14.3294 3.0000
    endloop
  endfacet
  facet normal 1.000000 -0.000396 0.000000
    outer loop
      vertex 27.5249 11.9431 0.0000
      vertex 27.5258 14.3294 3.0000
      vertex 27.5249 11.9431 3.0000
    endloop
  endfacet
  facet normal 0.999999 -0.001124 0.000000
    outer loop
      vertex 27.5258 14.3294 0.0000
      vertex 27.5285 16.7164 0.0000
      vertex 27.5285 16.7164 3.0000
    endloop
  endfacet
  facet normal 0.999999 -0.001124 0.000000
    outer loop
      vertex 27.5258 14.3294 0.0000
      vertex 27.5285 16.7164 3.0000
      vertex 27.5258 14.3294 3.0000
    endloop
  endfacet
  facet normal 0.999999 -0.001685 0.000000
    outer loop
      vertex 27.5285 16.7164 0.0000
      vertex 27.5326 19.1047 0.0000
      vertex 27.5326 19.1047 3.0000
    endloop
  endfacet
  facet normal 0.999999 -0.001685 0.000000
    outer loop
      vertex 27.5285 16.7164 0.0000
      vertex 27.5326 19.1047 3.0000
      vertex 27.5285 16.7164 3.0000
    endloop
  endfacet
  facet normal 0.999998 -0.002038 0.000000
    outer loop
      vertex 27.5326 19.1047 0.0000
      vertex 27.5374 21.4946 0.0000
      vertex 27.5374 21.4946 3.0000
    endloop
  endfacet
  facet normal 0.999998 -0.002038 0.000000
    outer loop
      vertex 27.5326 19.1047 0.0000
      vertex 27.5374 21.4946 3.0000
      vertex 27.5326 19.1047 3.0000
    endloop
  endfacet
  facet normal 0.999998 -0.002199 0.000000
    outer loop
      vertex 27.5374 21.4946 0.0000
      vertex 27.5427 23.8862 0.0000
      vertex 27.5427 23.8862 3.0000
    endloop
  endfacet
  facet normal 0.999998 -0.002199 0.000000
    outer loop
      vertex 27.5374 21.4946 0.0000
      vertex 27.5427 23.8862 3.0000
      vertex 27.5374 21.4946 3.0000
    endloop
  endfacet
  facet normal -0.002401 0.999997 0.000000
    outer loop
      vertex 27.5427 23.8862 0.0000
      vertex 24.9474 23.8799 0.0000
      vertex 24.9474 23.8799 3.0000
    endloop
  endfacet
  facet normal -0.002401 0.999997 0.000000
    outer loop
      vertex 27.5427 23.8862 0.0000
      vertex 24.9474 23.8799 3.0000
      vertex 27.5427 23.8862 3.0000
    endloop
  endfacet
  facet normal -0.002763 0.999996 0.000000
    outer loop
      vertex 24.9474 23.8799 0.0000
      vertex 22.3538 23.8728 0.0000
      vertex 22.3538 23.8728 3.0000
    endloop
  endfacet
  facet normal -0.002763 0.999996 0.000000
    outer loop
      vertex 24.9474 23.8799 0.0000
      vertex 22.3538 23.8728 3.0000
      vertex 24.9474 23.8799 3.0000
    endloop
  endfacet
  facet normal -0.003080 0.999995 0.000000
    outer loop
      vertex 22.3538 23.8728 0.0000
      vertex 19.7627 23.8648 0.0000
      vertex 19.7627 23.8648 3.0000
    endloop
  endfacet
  facet normal -0.003080 0.999995 0.000000
    outer loop
      vertex 22.3538 23.8728 0.0000
      vertex 19.7627 23.8648 3.0000
      vertex 22.3538 23.8728 3.0000
    endloop
  endfacet
  facet normal -0.003203 0.999995 0.000000
    outer loop
      vertex 19.7627 23.8648 0.0000
      vertex 17.1749 23.8565 0.0000
      vertex 17.1749 23.8565 3.0000
    endloop
  endfacet
  facet normal -0.003203 0.999995 0.000000
    outer loop
      vertex 19.7627 23.8648 0.0000
      vertex 17.1749 23.8565 3.0000
      vertex 19.7627 23.8648 3.0000
    endloop
  endfacet
  facet normal -0.002890 0.999996 0.000000
    outer loop
      vertex 17.1749 23.8565 0.0000
      vertex 14.5909 23.8490 0.0000
      vertex 14.5909 23.8490 3.0000
    endloop
  endfacet
  facet normal -0.002890 0.999996 0.000000
    outer loop
      vertex 17.1749 23.8565 0.0000
      vertex 14.5909 23.8490 3.0000
      vertex 17.1749 23.8565 3.0000
    endloop
  endfacet
  facet normal -0.001906 0.999998 0.000000
    outer loop
      vertex 14.5909 23.8490 0.0000
      vertex 12.0106 23.8441 0.0000
      vertex 12.0106 23.8441 3.0000
    endloop
  endfacet
  facet normal -0.001906 0.999998 0.000000
    outer loop
      vertex 14.5909 23.8490 0.0000
      vertex 12.0106 23.8441 3.0000
      vertex 14.5909 23.8490 3.0000
    endloop
  endfacet
  facet normal -0.000298 1.000000 0.000000
    outer loop
      vertex 12.0106 23.8441 0.0000
      vertex 9.4321 23.8433 0.0000
      vertex 9.4321 23.8433 3.0000
    endloop
  endfacet
  facet normal -0.000298 1.000000 0.000000
    outer loop
      vertex 12.0106 23.8441 0.0000
      vertex 9.4321 23.8433 3.0000
      vertex 12.0106 23.8441 3.0000
    endloop
  endfacet
  facet normal 0.001422 0.999999 0.000000
    outer loop
      vertex 9.4321 23.8433 0.0000
      vertex 6.8527 23.8470 0.0000
      vertex 6.8527 23.8470 3.0000
    endloop
  endfacet
  facet normal 0.001422 0.999999 -0.000000
    outer loop
      vertex 9.4321 23.8433 0.0000
      vertex 6.8527 23.8470 3.0000
      vertex 9.4321 23.8433 3.0000
    endloop
  endfacet
  facet normal 0.002644 0.999997 0.000000
    outer loop
      vertex 6.8527 23.8470 0.0000
      vertex 4.2700 23.8538 0.0000
      vertex 4.2700 23.8538 3.0000
    endloop
  endfacet
  facet normal 0.002644 0.999997 -0.000000
    outer loop
      vertex 6.8527 23.8470 0.0000
      vertex 4.2700 23.8538 3.0000
      vertex 6.8527 23.8470 3.0000
    endloop
  endfacet
  facet normal 0.003161 0.999995 0.000000
    outer loop
      vertex 4.2700 23.8538 0.0000
      vertex 1.6835 23.8620 0.0000
      vertex 1.6835 23.8620 3.0000
    endloop
  endfacet
  facet normal 0.003161 0.999995 -0.000000
    outer loop
      vertex 4.2700 23.8538 0.0000
      vertex 1.6835 23.8620 3.0000
      vertex 4.2700 23.8538 3.0000
    endloop
  endfacet
  facet normal -0.954596 0.297905 0.000000
    outer loop
      vertex 1.6835 23.8620 0.0000
      vertex 1.5797 23.5296 0.0000
      vertex 1.5797 23.5296 3.0000
    endloop
  endfacet
  facet normal -0.954596 0.297905 0.000000
    outer loop
      vertex 1.6835 23.8620 0.0000
      vertex 1.5797 23.5296 3.0000
      vertex 1.6835 23.8620 3.0000
    endloop
  endfacet
  facet normal -0.958608 0.284730 0.000000
    outer loop
      vertex 1.5797 23.5296 0.0000
      vertex 1.3148 22.6377 0.0000
      vertex 1.3148 22.6377 3.0000
    endloop
  endfacet
  facet normal -0.958608 0.284730 0.000000
    outer loop
      vertex 1.5797 23.5296 0.0000
      vertex 1.3148 22.6377 3.0000
      vertex 1.5797 23.5296 3.0000
    endloop
  endfacet
  facet normal -0.964009 0.265868 0.000000
    outer loop
      vertex 1.3148 22.6377 0.0000
      vertex 0.9583 21.3449 0.0000
      vertex 0.9583 21.3449 3.0000
    endloop
  endfacet
  facet normal -0.964009 0.265868 0.000000
    outer loop
      vertex 1.3148 22.6377 0.0000
      vertex 0.9583 21.3449 3.0000
      vertex 1.3148 22.6377 3.0000
    endloop
  endfacet
  facet normal -0.970874 0.239589 0.000000
    outer loop
      vertex 0.9583 21.3449 0.0000
      vertex 0.5794 19.8097 0.0000
      vertex 0.5794 19.8097 3.0000
    endloop
  endfacet
  facet normal -0.970874 0.239589 0.000000
    outer loop
      vertex 0.9583 21.3449 0.0000
      vertex 0.5794 19.8097 3.0000
      vertex 0.9583 21.3449 3.0000
    endloop
  endfacet
  facet normal -0.979616 0.200881 0.000000
    outer loop
      vertex 0.5794 19.8097 0.0000
      vertex 0.2473 18.1903 0.0000
      vertex 0.2473 18.1903 3.0000
    endloop
  endfacet
  facet normal -0.979616 0.200881 0.000000
    outer loop
      vertex 0.5794 19.8097 0.0000
      vertex 0.2473 18.1903 3.0000
      vertex 0.5794 19.8097 3.0000
    endloop
  endfacet
  facet normal -0.990359 0.138523 0.000000
    outer loop
      vertex 0.2473 18.1903 0.0000
      vertex 0.0310 16.6438 0.0000
      vertex 0.0310 16.6438 3.0000
    endloop
  endfacet
  facet normal -0.990359 0.138523 0.000000
    outer loop
      vertex 0.2473 18.1903 0.0000
      vertex 0.0310 16.6438 3.0000
      vertex 0.2473 18.1903 3.0000
    endloop
  endfacet
  facet normal -0.999723 0.023548 0.000000
    outer loop
      vertex 0.0310 16.6438 0.0000
      vertex 0.0000 15.3270 0.0000
      vertex 0.0000 15.3270 3.0000
    endloop
  endfacet
  facet normal -0.999723 0.023548 0.000000
    outer loop
      vertex 0.0310 16.6438 0.0000
      vertex 0.0000 15.3270 3.0000
      vertex 0.0310 16.6438 3.0000
    endloop
  endfacet
  facet normal -0.972136 -0.234419 0.000000
    outer loop
      vertex 0.0000 15.3270 0.0000
      vertex 0.2245 14.3962 0.0000
      vertex 0.2245 14.3962 3.0000
    endloop
  endfacet
  facet normal -0.972136 -0.234419 0.000000
    outer loop
      vertex 0.0000 15.3270 0.0000
      vertex 0.2245 14.3962 3.0000
      vertex 0.0000 15.3270 3.0000
    endloop
  endfacet
  facet normal -0.576839 -0.816858 0.000000
    outer loop
      vertex 0.2245 14.3962 0.0000
      vertex 0.7749 14.0075 0.0000
      vertex 0.7749 14.0075 3.0000
    endloop
  endfacet
  facet normal -0.576839 -0.816858 0.000000
    outer loop
      vertex 0.2245 14.3962 0.0000
      vertex 0.7749 14.0075 3.0000
      vertex 0.2245 14.3962 3.0000
    endloop
  endfacet
  facet normal 0.310312 -0.950635 0.000000
    outer loop
      vertex 0.7749 14.0075 0.0000
      vertex 1.7213 14.3164 0.0000
      vertex 1.7213 14.3164 3.0000
    endloop
  endfacet
  facet normal 0.310312 -0.950635 0.000000
    outer loop
      vertex 0.7749 14.0075 0.0000
      vertex 1.7213 14.3164 3.0000
      vertex 0.7749 14.0075 3.0000
    endloop
  endfacet
  facet normal 0.337251 -0.941415 0.000000
    outer loop
      vertex 1.7213 14.3164 0.0000
      vertex 2.7718 14.6927 0.0000
      vertex 2.7718 14.6927 3.0000
    endloop
  endfacet
  facet normal 0.337251 -0.941415 0.000000
    outer loop
      vertex 1.7213 14.3164 0.0000
      vertex 2.7718 14.6927 3.0000
      vertex 1.7213 14.3164 3.0000
    endloop
  endfacet
  facet normal -0.229838 -0.973229 0.000000
    outer loop
      vertex 2.7718 14.6927 0.0000
      vertex 3.5903 14.4994 0.0000
      vertex 3.5903 14.4994 3.0000
    endloop
  endfacet
  facet normal -0.229838 -0.973229 0.000000
    outer loop
      vertex 2.7718 14.6927 0.0000
      vertex 3.5903 14.4994 3.0000
      vertex 2.7718 14.6927 3.0000
    endloop
  endfacet
  facet normal -0.725436 -0.688289 0.000000
    outer loop
      vertex 3.5903 14.4994 0.0000
      vertex 4.1772 13.8809 0.0000
      vertex 4.1772 13.8809 3.0000
    endloop
  endfacet
  facet normal -0.725436 -0.688289 0.000000
    outer loop
      vertex 3.5903 14.4994 0.0000
      vertex 4.1772 13.8809 3.0000
      vertex 3.5903 14.4994 3.0000
    endloop
  endfacet
  facet normal -0.930504 -0.366281 0.000000
    outer loop
      vertex 4.1772 13.8809 0.0000
      vertex 4.5313 12.9813 0.0000
      vertex 4.5313 12.9813 3.0000
    endloop
  endfacet
  facet normal -0.930504 -0.366281 0.000000
    outer loop
      vertex 4.1772 13.8809 0.0000
      vertex 4.5313 12.9813 3.0000
      vertex 4.1772 13.8809 3.0000
    endloop
  endfacet
  facet normal -0.993541 -0.113478 0.000000
    outer loop
      vertex 4.5313 12.9813 0.0000
      vertex 4.6499 11.9431 0.0000
      vertex 4.6499 11.9431 3.0000
    endloop
  endfacet
  facet normal -0.993541 -0.113478 0.000000
    outer loop
      vertex 4.5313 12.9813 0.0000
      vertex 4.6499 11.9431 3.0000
      vertex 4.5313 12.9813 3.0000
    endloop
  endfacet
  facet normal -0.993541 0.113478 0.000000
    outer loop
      vertex 4.6499 11.9431 0.0000
      vertex 4.5313 10.9048 0.0000
      vertex 4.5313 10.9048 3.0000
    endloop
  endfacet
  facet normal -0.993541 0.113478 0.000000
    outer loop
      vertex 4.6499 11.9431 0.0000
      vertex 4.5313 10.9048 3.0000
      vertex 4.6499 11.9431 3.0000
    endloop
  endfacet
  facet normal -0.930504 0.366281 0.000000
    outer loop
      vertex 4.5313 10.9048 0.0000
      vertex 4.1772 10.0053 0.0000
      vertex 4.1772 10.0053 3.0000
    endloop
  endfacet
  facet normal -0.930504 0.366281 0.000000
    outer loop
      vertex 4.5313 10.9048 0.0000
      vertex 4.1772 10.0053 3.0000
      vertex 4.5313 10.9048 3.0000
    endloop
  endfacet
  facet normal -0.725436 0.688289 0.000000
    outer loop
      vertex 4.1772 10.0053 0.0000
      vertex 3.5903 9.3867 0.0000
      vertex 3.5903 9.3867 3.0000
    endloop
  endfacet
  facet normal -0.725436 0.688289 0.000000
    outer loop
      vertex 4.1772 10.0053 0.0000
      vertex 3.5903 9.3867 3.0000
      vertex 4.1772 10.0053 3.0000
    endloop
  endfacet
  facet normal -0.229838 0.973229 0.000000
    outer loop
      vertex 3.5903 9.3867 0.0000
      vertex 2.7718 9.1934 0.0000
      vertex 2.7718 9.1934 3.0000
    endloop
  endfacet
  facet normal -0.229838 0.973229 0.000000
    outer loop
      vertex 3.5903 9.3867 0.0000
      vertex 2.7718 9.1934 3.0000
      vertex 3.5903 9.3867 3.0000
    endloop
  endfacet
  facet normal 0.337251 0.941415 0.000000
    outer loop
      vertex 2.7718 9.1934 0.0000
      vertex 1.7213 9.5698 0.0000
      vertex 1.7213 9.5698 3.0000
    endloop
  endfacet
  facet normal 0.337251 0.941415 -0.000000
    outer loop
      vertex 2.7718 9.1934 0.0000
      vertex 1.7213 9.5698 3.0000
      vertex 2.7718 9.1934 3.0000
    endloop
  endfacet
  facet normal 0.310312 0.950635 0.000000
    outer loop
      vertex 1.7213 9.5698 0.0000
      vertex 0.7749 9.8787 0.0000
      vertex 0.7749 9.8787 3.0000
    endloop
  endfacet
  facet normal 0.310312 0.950635 -0.000000
    outer loop
      vertex 1.7213 9.5698 0.0000
      vertex 0.7749 9.8787 3.0000
      vertex 1.7213 9.5698 3.0000
    endloop
  endfacet
  facet normal -0.576839 0.816858 0.000000
    outer loop
      vertex 0.7749 9.8787 0.0000
      vertex 0.2245 9.4900 0.0000
      vertex 0.2245 9.4900 3.0000
    endloop
  endfacet
  facet normal -0.576839 0.816858 0.000000
    outer loop
      vertex 0.7749 9.8787 0.0000
      vertex 0.2245 9.4900 3.0000
      vertex 0.7749 9.8787 3.0000
    endloop
  endfacet
  facet normal -0.972136 0.234419 0.000000
    outer loop
      vertex 0.2245 9.4900 0.0000
      vertex 0.0000 8.5591 0.0000
      vertex 0.0000 8.5591 3.0000
    endloop
  endfacet
  facet normal -0.972136 0.234419 0.000000
    outer loop
      vertex 0.2245 9.4900 0.0000
      vertex 0.0000 8.5591 3.0000
      vertex 0.2245 9.4900 3.0000
    endloop
  endfacet
  facet normal -0.999723 -0.023548 0.000000
    outer loop
      vertex 0.0000 8.5591 0.0000
      vertex 0.0310 7.2423 0.0000
      vertex 0.0310 7.2423 3.0000
    endloop
  endfacet
  facet normal -0.999723 -0.023548 0.000000
    outer loop
      vertex 0.0000 8.5591 0.0000
      vertex 0.0310 7.2423 3.0000
      vertex 0.0000 8.5591 3.0000
    endloop
  endfacet
  facet normal -0.990359 -0.138523 0.000000
    outer loop
      vertex 0.0310 7.2423 0.0000
      vertex 0.2473 5.6959 0.0000
      vertex 0.2473 5.6959 3.0000
    endloop
  endfacet
  facet normal -0.990359 -0.138523 0.000000
    outer loop
      vertex 0.0310 7.2423 0.0000
      vertex 0.2473 5.6959 3.0000
      vertex 0.0310 7.2423 3.0000
    endloop
  endfacet
  facet normal -0.979616 -0.200881 0.000000
    outer loop
      vertex 0.2473 5.6959 0.0000
      vertex 0.5794 4.0764 0.0000
      vertex 0.5794 4.0764 3.0000
    endloop
  endfacet
  facet normal -0.979616 -0.200881 0.000000
    outer loop
      vertex 0.2473 5.6959 0.0000
      vertex 0.5794 4.0764 3.0000
      vertex 0.2473 5.6959 3.0000
    endloop
  endfacet
  facet normal -0.970874 -0.239589 0.000000
    outer loop
      vertex 0.5794 4.0764 0.0000
      vertex 0.9583 2.5412 0.0000
      vertex 0.9583 2.5412 3.0000
    endloop
  endfacet
  facet normal -0.970874 -0.239589 0.000000
    outer loop
      vertex 0.5794 4.0764 0.0000
      vertex 0.9583 2.5412 3.0000
      vertex 0.5794 4.0764 3.0000
    endloop
  endfacet
  facet normal -0.964009 -0.265868 0.000000
    outer loop
      vertex 0.9583 2.5412 0.0000
      vertex 1.3148 1.2485 0.0000
      vertex 1.3148 1.2485 3.0000
    endloop
  endfacet
  facet normal -0.964009 -0.265868 0.000000
    outer loop
      vertex 0.9583 2.5412 0.0000
      vertex 1.3148 1.2485 3.0000
      vertex 0.9583 2.5412 3.0000
    endloop
  endfacet
  facet normal -0.958608 -0.284730 0.000000
    outer loop
      vertex 1.3148 1.2485 0.0000
      vertex 1.5797 0.3566 0.0000
      vertex 1.5797 0.3566 3.0000
    endloop
  endfacet
  facet normal -0.958608 -0.284730 0.000000
    outer loop
      vertex 1.3148 1.2485 0.0000
      vertex 1.5797 0.3566 3.0000
      vertex 1.3148 1.2485 3.0000
    endloop
  endfacet
  facet normal -0.954596 -0.297905 0.000000
    outer loop
      vertex 1.5797 0.3566 0.0000
      vertex 1.6835 0.0241 0.0000
      vertex 1.6835 0.0241 3.0000
    endloop
  endfacet
  facet normal -0.954596 -0.297905 0.000000
    outer loop
      vertex 1.5797 0.3566 0.0000
      vertex 1.6835 0.0241 3.0000
      vertex 1.5797 0.3566 3.0000
    endloop
  endfacet
endsolid pyjigsaw-0p20-piece-02
